<svg xmlns="http://www.w3.org/2000/svg" width="20" height="20" viewBox="0 0 20 20">
  <g id="aboutus-drawer" transform="translate(0.5)">
    <rect id="Rectangle" width="19" height="19" transform="translate(0 0.5)" stroke="#000" stroke-width="1" opacity="0"/>
    <g id="about_us" data-name="about us" transform="translate(0 0.5)">
      <path id="Rectangle_2" data-name="Rectangle 2" d="M4.6,0h9.2a4.628,4.628,0,0,1,4.6,4.654v9.308a4.628,4.628,0,0,1-4.6,4.654H4.6A4.628,4.628,0,0,1,0,13.962V4.654A4.628,4.628,0,0,1,4.6,0Z" transform="translate(0 0.383)" stroke="rgba(0,0,0,0)" stroke-width="1" opacity="0"/>
      <ellipse id="Ellipse_960" data-name="Ellipse 960" cx="9.5" cy="9.453" rx="9.5" ry="9.453"/>
      <path id="Path_122336" data-name="Path 122336" d="M146.136,70a1.134,1.134,0,1,0,1.134,1.134A1.135,1.135,0,0,0,146.136,70Z" transform="translate(-136.927 -65.672)" fill="#f2e6f1" stroke="#f2e6f1" stroke-width="1"/>
      <path id="Path_122337" data-name="Path 122337" d="M150.85,140a.85.85,0,0,0-.85.85v5.1a.85.85,0,1,0,1.7,0v-5.1A.85.85,0,0,0,150.85,140Z" transform="translate(-141.642 -131.742)" fill="#f2e6f1" stroke="#f2e6f1" stroke-width="1"/>
    </g>
  </g>
</svg>
