<svg xmlns="http://www.w3.org/2000/svg" width="19" height="19" viewBox="0 0 19 19">
  <g id="array" transform="translate(0 -1)">
    <g id="Group_20753" data-name="Group 20753" transform="translate(0 11.798)">
      <g id="Group_20752" data-name="Group 20752">
        <path id="Path_126837" data-name="Path 126837" d="M7.887,290.133H.315a.315.315,0,0,0-.315.315v7.571a.315.315,0,0,0,.315.316H7.887a.315.315,0,0,0,.315-.315v-7.571A.315.315,0,0,0,7.887,290.133Z" transform="translate(0 -290.133)" fill="#d82221"/>
      </g>
    </g>
    <g id="Group_20757" data-name="Group 20757" transform="translate(10.798 1)">
      <g id="Group_20756" data-name="Group 20756">
        <path id="Path_126839" data-name="Path 126839" d="M298.021,0h-7.571a.315.315,0,0,0-.315.315V7.887a.315.315,0,0,0,.315.315h7.571a.315.315,0,0,0,.315-.315V.315A.315.315,0,0,0,298.021,0Z" transform="translate(-290.134)" fill="#d82221"/>
      </g>
    </g>
    <g id="Group_20760" data-name="Group 20760" transform="translate(0 1)">
      <g id="Group_20756-2" data-name="Group 20756">
        <path id="Path_126839-2" data-name="Path 126839" d="M298.021,0h-7.571a.315.315,0,0,0-.315.315V7.887a.315.315,0,0,0,.315.315h7.571a.315.315,0,0,0,.315-.315V.315A.315.315,0,0,0,298.021,0Z" transform="translate(-290.134)" fill="#d82221"/>
      </g>
    </g>
    <g id="Group_20759" data-name="Group 20759" transform="translate(10.798 11.798)">
      <g id="Group_20758" data-name="Group 20758">
        <path id="Path_126840" data-name="Path 126840" d="M298.021,290.133h-7.571a.315.315,0,0,0-.315.315v7.571a.315.315,0,0,0,.315.315h7.571a.315.315,0,0,0,.315-.315v-7.571A.315.315,0,0,0,298.021,290.133Z" transform="translate(-290.134 -290.133)" fill="#d82221"/>
      </g>
    </g>
  </g>
</svg>
