<svg xmlns="http://www.w3.org/2000/svg" width="17" height="16" viewBox="0 0 17 16">
  <g id="_01_Icons_Filled_arrow-circle-down-fill" data-name="01) Icons/Filled/arrow-circle-down-fill" transform="translate(0.5 0.5)">
    <g id="Group_71" data-name="Group 71" transform="translate(-0.334 -0.667)">
      <g id="Group_62847" data-name="Group 62847">
        <g id="iconfinder_headset_172475" transform="translate(0.001)">
          <path id="Path_43755" data-name="Path 43755" d="M14.667,6.667a.667.667,0,1,0-1.333,0v5a.667.667,0,0,0,1.333,0Z" fill="rgba(255,255,255,0)" stroke="#fff" stroke-miterlimit="10" stroke-width="1"/>
          <path id="Path_43756" data-name="Path 43756" d="M9.333,15.667a.667.667,0,0,0,0-1.333H7.667a.667.667,0,1,0,0,1.333Z" fill="rgba(255,255,255,0)" stroke="#fff" stroke-miterlimit="10" stroke-width="1"/>
          <path id="Path_43757" data-name="Path 43757" d="M2.667,6.333A5.667,5.667,0,1,1,14,6.333" fill="rgba(255,255,255,0)" stroke="#fff" stroke-miterlimit="10" stroke-width="1"/>
          <path id="Path_43758" data-name="Path 43758" d="M14.667,6.667c.921,0,1.667,1.119,1.667,2.5s-.746,2.5-1.667,2.5" fill="rgba(255,255,255,0)" stroke="#fff" stroke-miterlimit="10" stroke-width="1"/>
          <path id="Path_43759" data-name="Path 43759" d="M2,6.667a.667.667,0,1,1,1.333,0v5a.667.667,0,0,1-1.333,0Z" fill="rgba(255,255,255,0)" stroke="#fff" stroke-miterlimit="10" stroke-width="1"/>
          <path id="Path_43760" data-name="Path 43760" d="M2,6.667c-.92,0-1.667,1.119-1.667,2.5s.746,2.5,1.667,2.5" fill="rgba(255,255,255,0)" stroke="#fff" stroke-miterlimit="10" stroke-width="1"/>
          <path id="Path_43761" data-name="Path 43761" d="M14,12.333A2.453,2.453,0,0,1,11.333,15H10" fill="rgba(255,255,255,0)" stroke="#fff" stroke-miterlimit="10" stroke-width="1"/>
        </g>
      </g>
    </g>
  </g>
</svg>
