<svg xmlns="http://www.w3.org/2000/svg" width="20" height="20" viewBox="0 0 20 20">
  <g id="arrow-down" transform="translate(-178 -529)">
    <g id="arrow-down-2" data-name="arrow-down" transform="translate(198 529) rotate(90)" fill="#fff" stroke="#707070" stroke-width="1" opacity="0">
      <rect width="20" height="20" stroke="none"/>
      <rect x="0.5" y="0.5" width="19" height="19" fill="none"/>
    </g>
    <g id="ic-arrows-left" transform="translate(183 547.5) rotate(-90)">
      <path id="Path" d="M3.555.36A1.035,1.035,0,0,1,4.96.206.949.949,0,0,1,5.334.85a.929.929,0,0,1-.214.708l-1.936,2.3H16a.96.96,0,1,1,0,1.918H2.883L5.12,8.442a.929.929,0,0,1,.214.708.949.949,0,0,1-.375.644,1.035,1.035,0,0,1-1.4-.153L.264,5.719a1.111,1.111,0,0,1,0-1.438Z" transform="translate(0 0)"/>
    </g>
  </g>
</svg>
