<svg id="bank" xmlns="http://www.w3.org/2000/svg" width="34.751" height="34.576" viewBox="0 0 34.751 34.576">
  <path id="Path_4225" data-name="Path 4225" d="M32.052,25.181a.813.813,0,0,0,.813-.811V22.961h1.067a.822.822,0,0,0,.821-.821V20.278a.822.822,0,0,0-.821-.821H32.465v-5.6a1.816,1.816,0,0,0,.439.055,1.861,1.861,0,0,0,.484-.064,1.845,1.845,0,0,0,.443-3.377L18.365,1.547a2.068,2.068,0,0,0-1.976,0L.922,10.475A1.845,1.845,0,0,0,2.29,13.862v5.6H.823A.822.822,0,0,0,0,20.278V22.14a.822.822,0,0,0,.821.821H1.89V24.37a.812.812,0,0,0,.811.811h.613v4.965H2.7a.813.813,0,0,0-.811.813v1.407H.823A.822.822,0,0,0,0,33.187V35.05a.822.822,0,0,0,.821.821H16.314a.509.509,0,1,0,0-1.018H1.02V33.385H33.734v1.468H18.663a.509.509,0,1,0,0,1.018H33.931a.822.822,0,0,0,.821-.821V33.187a.822.822,0,0,0-.821-.821H32.865V30.96a.814.814,0,0,0-.813-.813h-.613V25.181h.613ZM2.258,12.788a.829.829,0,0,1-1.129-.3h0a.827.827,0,0,1,.3-1.128L16.9,2.427a.978.978,0,0,1,.477-.114.966.966,0,0,1,.479.115l15.466,8.929a.826.826,0,0,1-.824,1.431L17.631,4.2a.509.509,0,0,0-.509,0ZM1.02,20.475H16.314a.509.509,0,0,0,0-1.018H3.308v-6.1L17.376,5.233l14.07,8.123v6.1H18.579a.509.509,0,0,0,0,1.018H33.734v1.468H1.02Zm13.2,3.688v-1.2h6.312v1.2Zm4.886,1.018v4.965H15.646V25.181Zm-16.2-1.018v-1.2h6.31v1.2Zm4.886,1.018v4.965H4.332V25.181Zm1.424,7.186H2.908v-1.2h6.31ZM13.2,30.96v1.407H10.236V30.96a.813.813,0,0,0-.811-.813H8.812V25.181h.613a.812.812,0,0,0,.811-.811V22.961H13.2V24.37a.813.813,0,0,0,.813.811h.613v4.965h-.613A.814.814,0,0,0,13.2,30.96Zm7.33,1.407H14.22v-1.2h6.312Zm3.984-1.407v1.407H21.55V30.96a.814.814,0,0,0-.813-.813h-.613V25.181h.613a.813.813,0,0,0,.813-.811V22.961h2.966V24.37a.813.813,0,0,0,.813.811h.613v4.965H25.33A.814.814,0,0,0,24.517,30.96Zm7.33.205v1.2H25.535v-1.2ZM26.96,30.147V25.181h3.461v4.965Zm-1.426-5.983v-1.2h6.312v1.2Z" transform="translate(-0.001 -1.295)"/>
  <path id="Path_4226" data-name="Path 4226" d="M229.872,89.634a2.139,2.139,0,1,0-2.139,2.139A2.141,2.141,0,0,0,229.872,89.634Zm-3.259,0a1.12,1.12,0,1,1,1.12,1.121A1.122,1.122,0,0,1,226.613,89.634Z" transform="translate(-210.283 -81.644)"/>
  <g id="Group_9483" data-name="Group 9483" transform="translate(8.381 11.617)">
    <path id="Path_4227" data-name="Path 4227" d="M126.33,175.355a1.416,1.416,0,0,0-1.2-2.177h-1.148a.509.509,0,0,0-.509.509v3.953a.509.509,0,0,0,.509.509h0s1.056,0,1.347,0a1.572,1.572,0,0,0,1-2.79Zm-1.2-1.159a.4.4,0,0,1,0,.8h-.639v-.8h.639Zm.2,2.93-.84,0v-1.112h.84a.555.555,0,0,1,0,1.11Z" transform="translate(-123.476 -173.129)"/>
    <path id="Path_4228" data-name="Path 4228" d="M189.875,173.564l-.005-.014a.6.6,0,0,0-.554-.371h0a.6.6,0,0,0-.554.372l0,.012-1.484,3.9a.509.509,0,0,0,.951.362l.245-.643h1.682l.242.641a.509.509,0,1,0,.952-.359Zm-1.018,2.6.457-1.2.453,1.2Z" transform="translate(-182.912 -173.13)"/>
    <path id="Path_4229" data-name="Path 4229" d="M267.071,173.179h-.005a.509.509,0,0,0-.5.514l.023,2.36-1.828-2.647a.509.509,0,0,0-.928.289v3.946a.509.509,0,1,0,1.018,0v-2.313l1.74,2.52a.561.561,0,0,0,.634.233.581.581,0,0,0,.4-.578l-.037-3.82A.509.509,0,0,0,267.071,173.179Z" transform="translate(-254.303 -173.13)"/>
    <path id="Path_4230" data-name="Path 4230" d="M344.586,176.6l-1.778-1.715,1.627-1.5a.509.509,0,0,0-.689-.75l-1.3,1.195v-.87a.509.509,0,1,0-1.018,0v4a.509.509,0,1,0,1.018,0v-1.016l1.433,1.382a.509.509,0,1,0,.707-.733Z" transform="translate(-326.635 -172.45)"/>
  </g>
</svg>
