<svg xmlns="http://www.w3.org/2000/svg" width="63" height="57" viewBox="0 0 63 57">
  <path id="basket" d="M5122.262,514.95h-7.539c-.026,0-.045-.208-.073-.243l-12.944-15.693a2.758,2.758,0,0,0-3.855-.408,2.844,2.844,0,0,0-.377,3.941l10.176,12.4h-28.3l10.176-12.418a2.784,2.784,0,0,0-.377-3.892,2.751,2.751,0,0,0-3.855.341l-12.943,15.743c-.029.035-.047.226-.074.226h-7.539A2.516,2.516,0,0,0,5062,517.4V527.55a3,3,0,0,0,2.74,3.013h.878l5.142,20.615a5.12,5.12,0,0,0,5.127,3.824h35.229a5.121,5.121,0,0,0,5.128-3.824l5.142-20.615h.877A2.994,2.994,0,0,0,5125,527.55V517.4A2.514,2.514,0,0,0,5122.262,514.95Zm-54.784,5.431h52.043v4.752h-52.043Zm43.482,29.191h-34.92l-4.782-19.008h44.485Z" transform="translate(-5062 -498.002)" fill="#ffba00"/>
</svg>
