<svg xmlns="http://www.w3.org/2000/svg" width="12.374" height="15.208" viewBox="0 0 12.374 15.208">
  <g id="_22_Icons_Filled_Bookmark" data-name="22) Icons/Filled/Bookmark" transform="translate(-5.821 -4)">
    <path id="Shape" d="M1.008,15.208h0a.86.86,0,0,1-.875-.842L0,2.021A1.852,1.852,0,0,1,.527.65,2.023,2.023,0,0,1,1.909.042L10.3,0a2.037,2.037,0,0,1,1.394.583,1.864,1.864,0,0,1,.557,1.362l.122,12.345a.839.839,0,0,1-.428.733.9.9,0,0,1-.876,0l-4.987-2.66-4.629,2.72A1.068,1.068,0,0,1,1.008,15.208ZM10.325,1.65h-.007l-8.4.076c-.068,0-.166.108-.166.278l.105,10.863L5.6,10.652a.964.964,0,0,1,.446-.118,1.013,1.013,0,0,1,.437.1l4.121,2.2L10.5,1.929C10.5,1.767,10.4,1.65,10.325,1.65Z" transform="translate(5.821 4)" fill="#070707"/>
  </g>
</svg>
