<svg id="boys" xmlns="http://www.w3.org/2000/svg" width="16.414" height="20.06" viewBox="0 0 16.414 20.06">
  <path id="Path_62" data-name="Path 62" d="M162.9,209.335a8.114,8.114,0,0,0-3.082,1.254,2.34,2.34,0,0,0-1.076,1.869v2.749a.81.81,0,0,0,.238.575h0a.81.81,0,0,0,.575.238h13.975a.814.814,0,0,0,.814-.813v-2.749h0a2.355,2.355,0,0,0-1.077-1.875,8.049,8.049,0,0,0-3.08-1.261A3.844,3.844,0,0,1,168.7,210.5a5.043,5.043,0,0,1-2.163.512,5.425,5.425,0,0,1-2.272-.513A3.182,3.182,0,0,1,162.9,209.335Z" transform="translate(-158.333 -196.367)" fill="#fac957" fill-rule="evenodd"/>
  <path id="Path_63" data-name="Path 63" d="M163.781,208.838l-.41.268-.1.065a2.837,2.837,0,0,0,1.171.967,5.012,5.012,0,0,0,2.1.473,4.637,4.637,0,0,0,1.987-.472,3.54,3.54,0,0,0,1.277-.982l-.1-.061-.4-.246c-.134.086-.265.169-.4.246a4.94,4.94,0,0,1-2.231.808,4.06,4.06,0,0,1-2.516-.8C164.038,209.022,163.911,208.934,163.781,208.838Z" transform="translate(-158.333 -196.367)" fill="#fac957" fill-rule="evenodd"/>
  <path id="Path_64" data-name="Path 64" d="M170.578,201.59l.007-.354c.045-2.529.081-4.463-4.046-4.463s-4.091,1.934-4.045,4.463l.006.352a3.3,3.3,0,0,0,.053-.376h0c.015-.18.019-.343.023-.5a4.224,4.224,0,0,1,.046-.658,1.446,1.446,0,0,1,.267-.637c.464-.607,1.525-.365,2.492-.143a6.03,6.03,0,0,0,1.158.195,5.813,5.813,0,0,0,1.253-.219c.945-.231,1.912-.467,2.4.167a1.433,1.433,0,0,1,.264.618l0,.019a4.346,4.346,0,0,1,.047.658c0,.159.007.322.022.5A3.349,3.349,0,0,0,170.578,201.59Z" transform="translate(-158.333 -196.367)" fill="#899ea3" fill-rule="evenodd"/>
  <path id="Path_65" data-name="Path 65" d="M164.155,206.883l0,.063a15.1,15.1,0,0,1-.134,1.563l.114.083a6.265,6.265,0,0,0,.831.511,3.253,3.253,0,0,0,1.691.4,3.744,3.744,0,0,0,1.4-.4,8.63,8.63,0,0,0,.872-.49l.141-.089a15.058,15.058,0,0,1-.153-1.547l-.006-.078a4.635,4.635,0,0,1-.75.546,3.014,3.014,0,0,1-3.242,0A4.686,4.686,0,0,1,164.155,206.883Z" transform="translate(-158.333 -196.367)" fill="#ffe0a6" fill-rule="evenodd"/>
  <path id="Path_66" data-name="Path 66" d="M164.12,206.285h0l0,0,.007.008a4.545,4.545,0,0,0,.99.794,2.619,2.619,0,0,0,2.836,0,4.859,4.859,0,0,0,1.347-1.207,6.174,6.174,0,0,0,.936-1.683,5.485,5.485,0,0,0,.311-1.344l-.33-1.016,0-.011a3.469,3.469,0,0,1-.1-.582c-.015-.173-.018-.353-.022-.529a3.9,3.9,0,0,0-.042-.6l0-.016a1.02,1.02,0,0,0-.187-.445c-.323-.424-1.161-.219-1.979-.019a6.131,6.131,0,0,1-1.348.232,6.3,6.3,0,0,1-1.249-.207c-.845-.194-1.773-.406-2.079-.006a1.029,1.029,0,0,0-.188.461,3.9,3.9,0,0,0-.043.6c0,.176-.008.356-.023.529h0a3.487,3.487,0,0,1-.1.581l0,.012h0l-.33,1.012a5.439,5.439,0,0,0,.311,1.347,6.2,6.2,0,0,0,.935,1.683Q163.94,206.095,164.12,206.285Z" transform="translate(-158.333 -196.367)" fill="#ffe0a6" fill-rule="evenodd"/>
  <path id="Path_67" data-name="Path 67" d="M169.292,206.524c.01.122.019.264.03.422a13.664,13.664,0,0,0,.154,1.534l.689.424a8.591,8.591,0,0,1,3.343,1.355,2.739,2.739,0,0,1,1.239,2.2h0v2.75a1.217,1.217,0,0,1-.357.861h0a1.216,1.216,0,0,1-.861.358H159.552a1.216,1.216,0,0,1-.861-.358h0l0,0a1.218,1.218,0,0,1-.355-.859v-2.75a2.723,2.723,0,0,1,1.239-2.192,8.618,8.618,0,0,1,3.35-1.35l.693-.452a13.491,13.491,0,0,0,.133-1.538c.009-.164.017-.312.024-.42-.11-.119-.215-.242-.316-.371a6.6,6.6,0,0,1-1-1.8,5.64,5.64,0,0,1-.357-1.922v-.031a.159.159,0,0,1,0-.038c0-.085,0-.163,0-.231,0-.338-.005-.61-.01-.873-.05-2.763-.088-4.876,4.45-4.876s4.5,2.113,4.45,4.876c0,.263-.009.535-.009.873,0,.023,0,.067,0,.132l0,.1a.148.148,0,0,1,0,.036h0v.031a5.639,5.639,0,0,1-.356,1.922,6.631,6.631,0,0,1-1,1.8q-.16.2-.333.389Zm-5.171-.239h0l0,0,.007.008a4.593,4.593,0,0,0,.99.793,2.619,2.619,0,0,0,2.836,0,4.858,4.858,0,0,0,1.348-1.206,6.179,6.179,0,0,0,.936-1.684,5.484,5.484,0,0,0,.31-1.344l-.33-1.016,0-.011a3.448,3.448,0,0,1-.1-.582c-.015-.173-.019-.353-.023-.529a3.918,3.918,0,0,0-.042-.6l0-.016a1.03,1.03,0,0,0-.188-.444c-.323-.424-1.161-.219-1.979-.02a6.117,6.117,0,0,1-1.348.233,6.289,6.289,0,0,1-1.248-.208c-.846-.193-1.774-.406-2.08-.005a1.036,1.036,0,0,0-.188.46,4.044,4.044,0,0,0-.043.6c0,.176-.007.356-.022.529h0a3.557,3.557,0,0,1-.1.581l0,.012h0l-.329,1.012a5.46,5.46,0,0,0,.31,1.347,6.179,6.179,0,0,0,.936,1.684c.11.141.226.275.346.4Zm.035.6,0,.064a15.075,15.075,0,0,1-.134,1.562c.038.029.076.056.114.083a6.386,6.386,0,0,0,.831.512,3.256,3.256,0,0,0,1.691.395,3.721,3.721,0,0,0,1.4-.4,8.81,8.81,0,0,0,.872-.489l.141-.09a15.315,15.315,0,0,1-.153-1.546l-.005-.078a4.749,4.749,0,0,1-.751.546,3.014,3.014,0,0,1-3.242,0,4.691,4.691,0,0,1-.763-.558Zm6.423-5.293.007-.353c.046-2.53.081-4.463-4.046-4.463s-4.091,1.933-4.045,4.463l.006.352a3.335,3.335,0,0,0,.053-.376h0c.016-.181.019-.344.023-.5a4.221,4.221,0,0,1,.047-.658,1.424,1.424,0,0,1,.266-.636c.464-.608,1.525-.365,2.492-.144a6.054,6.054,0,0,0,1.158.2,5.875,5.875,0,0,0,1.253-.219c.945-.231,1.913-.468,2.4.167a1.421,1.421,0,0,1,.263.618l0,.018a4.346,4.346,0,0,1,.047.658c0,.16.007.323.022.5a3.332,3.332,0,0,0,.053.376Zm-6.8,7.249-.41.267-.1.066a2.826,2.826,0,0,0,1.17.966,5.013,5.013,0,0,0,2.1.474,4.648,4.648,0,0,0,1.987-.472,3.524,3.524,0,0,0,1.277-.983l-.1-.061-.4-.246q-.2.13-.4.247a4.938,4.938,0,0,1-2.231.807,4.066,4.066,0,0,1-2.516-.8q-.186-.123-.38-.266Zm-.885.5a8.081,8.081,0,0,0-3.083,1.254,2.339,2.339,0,0,0-1.076,1.868v2.75a.809.809,0,0,0,.238.574h0a.808.808,0,0,0,.574.238h13.975a.816.816,0,0,0,.814-.813v-2.75h0a2.356,2.356,0,0,0-1.076-1.875,8.076,8.076,0,0,0-3.081-1.261,3.843,3.843,0,0,1-1.48,1.183,5.036,5.036,0,0,1-2.164.511,5.41,5.41,0,0,1-2.272-.513A3.172,3.172,0,0,1,162.9,209.336Z" transform="translate(-158.333 -196.367)" fill="#30383b" fill-rule="evenodd"/>
</svg>
