<svg xmlns="http://www.w3.org/2000/svg" width="18" height="20" viewBox="0 0 18 20">
  <g id="calendar_-_icon" data-name="calendar - icon" transform="translate(0)">
    <path id="calendar_-_icon-2" data-name="calendar - icon" d="M35.865,3.281a1.31,1.31,0,0,0-.973-.424H33.507V1.786A1.748,1.748,0,0,0,33,.525,1.642,1.642,0,0,0,31.776,0h-.692a1.641,1.641,0,0,0-1.222.525,1.747,1.747,0,0,0-.509,1.261V2.857H25.2V1.786A1.747,1.747,0,0,0,24.691.525,1.641,1.641,0,0,0,23.468,0h-.692a1.642,1.642,0,0,0-1.222.525,1.747,1.747,0,0,0-.508,1.261V2.857H19.661a1.311,1.311,0,0,0-.974.424,1.4,1.4,0,0,0-.411,1V18.572a1.4,1.4,0,0,0,.411,1,1.311,1.311,0,0,0,.974.424H34.891a1.31,1.31,0,0,0,.973-.424,1.4,1.4,0,0,0,.411-1V4.286A1.4,1.4,0,0,0,35.865,3.281Zm-5.127-1.5a.353.353,0,0,1,.1-.257.332.332,0,0,1,.249-.1h.692a.331.331,0,0,1,.249.1.354.354,0,0,1,.1.257V5a.354.354,0,0,1-.1.257.332.332,0,0,1-.249.1h-.692a.331.331,0,0,1-.249-.1.354.354,0,0,1-.1-.257Zm-8.308,0a.353.353,0,0,1,.1-.257.332.332,0,0,1,.249-.1h.692a.331.331,0,0,1,.249.1.354.354,0,0,1,.1.257V5a.353.353,0,0,1-.1.257.332.332,0,0,1-.249.1h-.692a.331.331,0,0,1-.249-.1A.354.354,0,0,1,22.43,5ZM34.891,18.571H19.661V7.143H34.891Z" transform="translate(-18.276)"/>
  </g>
</svg>
