<svg id="calendar" xmlns="http://www.w3.org/2000/svg" width="16.221" height="16.221" viewBox="0 0 16.221 16.221">
  <g id="Group_9278" data-name="Group 9278">
    <g id="Group_9277" data-name="Group 9277">
      <path id="Path_3779" data-name="Path 3779" d="M14.32,1.267h-.76V0H12.292V1.267H3.928V0H2.661V1.267H1.9A1.9,1.9,0,0,0,0,3.168V14.32a1.9,1.9,0,0,0,1.9,1.9H14.32a1.9,1.9,0,0,0,1.9-1.9V3.168A1.9,1.9,0,0,0,14.32,1.267Zm.634,13.053a.634.634,0,0,1-.634.634H1.9a.634.634,0,0,1-.634-.634V5.956H14.954Zm0-9.631H1.267V3.168A.634.634,0,0,1,1.9,2.535h.76V3.8H3.928V2.535h8.364V3.8H13.56V2.535h.76a.634.634,0,0,1,.634.634Z" fill="#1fa5f4"/>
    </g>
  </g>
  <g id="Group_9280" data-name="Group 9280" transform="translate(2.329 7.279)">
    <g id="Group_9279" data-name="Group 9279" transform="translate(0 0)">
      <rect id="Rectangle_261" data-name="Rectangle 261" width="1.31" height="1.31" fill="#1fa5f4"/>
    </g>
  </g>
  <g id="Group_9282" data-name="Group 9282" transform="translate(4.95 7.279)">
    <g id="Group_9281" data-name="Group 9281" transform="translate(0 0)">
      <rect id="Rectangle_262" data-name="Rectangle 262" width="1.31" height="1.31" transform="translate(0)" fill="#1fa5f4"/>
    </g>
  </g>
  <g id="Group_9284" data-name="Group 9284" transform="translate(7.57 7.279)">
    <g id="Group_9283" data-name="Group 9283" transform="translate(0 0)">
      <rect id="Rectangle_263" data-name="Rectangle 263" width="1.165" height="1.31" fill="#1fa5f4"/>
    </g>
  </g>
  <g id="Group_9286" data-name="Group 9286" transform="translate(10.045 7.279)">
    <g id="Group_9285" data-name="Group 9285" transform="translate(0 0)">
      <rect id="Rectangle_264" data-name="Rectangle 264" width="1.165" height="1.31" transform="translate(0)" fill="#1fa5f4"/>
    </g>
  </g>
  <g id="Group_9288" data-name="Group 9288" transform="translate(12.52 7.279)">
    <g id="Group_9287" data-name="Group 9287" transform="translate(0 0)">
      <rect id="Rectangle_265" data-name="Rectangle 265" width="1.31" height="1.31" fill="#1fa5f4"/>
    </g>
  </g>
  <g id="Group_9290" data-name="Group 9290" transform="translate(2.329 9.754)">
    <g id="Group_9289" data-name="Group 9289" transform="translate(0 0)">
      <rect id="Rectangle_266" data-name="Rectangle 266" width="1.31" height="1.31" transform="translate(0 0)" fill="#1fa5f4"/>
    </g>
  </g>
  <g id="Group_9292" data-name="Group 9292" transform="translate(4.95 9.754)">
    <g id="Group_9291" data-name="Group 9291" transform="translate(0 0)">
      <rect id="Rectangle_267" data-name="Rectangle 267" width="1.31" height="1.31" transform="translate(0 0)" fill="#1fa5f4"/>
    </g>
  </g>
  <g id="Group_9294" data-name="Group 9294" transform="translate(7.57 9.754)">
    <g id="Group_9293" data-name="Group 9293" transform="translate(0 0)">
      <rect id="Rectangle_268" data-name="Rectangle 268" width="1.165" height="1.31" transform="translate(0 0)" fill="#1fa5f4"/>
    </g>
  </g>
  <g id="Group_9296" data-name="Group 9296" transform="translate(10.045 9.754)">
    <g id="Group_9295" data-name="Group 9295" transform="translate(0 0)">
      <rect id="Rectangle_269" data-name="Rectangle 269" width="1.165" height="1.31" transform="translate(0 0)" fill="#1fa5f4"/>
    </g>
  </g>
  <g id="Group_9298" data-name="Group 9298" transform="translate(2.329 12.375)">
    <g id="Group_9297" data-name="Group 9297" transform="translate(0 0)">
      <rect id="Rectangle_270" data-name="Rectangle 270" width="1.31" height="1.31" fill="#1fa5f4"/>
    </g>
  </g>
  <g id="Group_9300" data-name="Group 9300" transform="translate(4.95 12.375)">
    <g id="Group_9299" data-name="Group 9299" transform="translate(0 0)">
      <rect id="Rectangle_271" data-name="Rectangle 271" width="1.31" height="1.31" transform="translate(0)" fill="#1fa5f4"/>
    </g>
  </g>
  <g id="Group_9302" data-name="Group 9302" transform="translate(7.57 12.375)">
    <g id="Group_9301" data-name="Group 9301" transform="translate(0 0)">
      <rect id="Rectangle_272" data-name="Rectangle 272" width="1.165" height="1.31" fill="#1fa5f4"/>
    </g>
  </g>
  <g id="Group_9304" data-name="Group 9304" transform="translate(10.045 12.375)">
    <g id="Group_9303" data-name="Group 9303" transform="translate(0 0)">
      <rect id="Rectangle_273" data-name="Rectangle 273" width="1.165" height="1.31" transform="translate(0)" fill="#1fa5f4"/>
    </g>
  </g>
  <g id="Group_9306" data-name="Group 9306" transform="translate(12.52 9.754)">
    <g id="Group_9305" data-name="Group 9305" transform="translate(0 0)">
      <rect id="Rectangle_274" data-name="Rectangle 274" width="1.31" height="1.31" transform="translate(0 0)" fill="#1fa5f4"/>
    </g>
  </g>
</svg>
