<svg id="camera" xmlns="http://www.w3.org/2000/svg" width="17" height="13" viewBox="0 0 17 13">
  <path id="Subtraction_1" data-name="Subtraction 1" d="M2.551,5.1A2.55,2.55,0,1,1,5.1,2.551,2.553,2.553,0,0,1,2.551,5.1ZM1.457,2.277a.182.182,0,0,0-.182.182v.182a.182.182,0,0,0,.182.182h.819v.82a.182.182,0,0,0,.182.182h.183a.182.182,0,0,0,.182-.182v-.82h.819a.182.182,0,0,0,.182-.182V2.459a.182.182,0,0,0-.182-.182H2.824V1.457a.182.182,0,0,0-.182-.182H2.459a.182.182,0,0,0-.182.182v.819Z" transform="translate(5.95 4.828)"/>
  <g id="icon-camera">
    <path id="Path_2372" data-name="Path 2372" d="M20.15,10.042H17.737a.713.713,0,0,1-.531-.244c-1.257-1.435-1.731-1.923-2.245-1.923H11.176c-.518,0-1.027.487-2.289,1.927a.7.7,0,0,1-.527.239H8.179V9.681a.359.359,0,0,0-.354-.361H6.674a.359.359,0,0,0-.354.361v.361H5.987A1.447,1.447,0,0,0,4.5,11.427v7.944a1.548,1.548,0,0,0,1.483,1.5H20.15a1.436,1.436,0,0,0,1.35-1.5V11.427A1.333,1.333,0,0,0,20.15,10.042Zm-6.973,9.046a3.86,3.86,0,1,1,3.6-3.674A3.826,3.826,0,0,1,13.177,19.087ZM17.25,12.66a.587.587,0,1,1,.576-.587A.58.58,0,0,1,17.25,12.66Z" transform="translate(-4.5 -7.875)"/>
  </g>
</svg>
