<svg xmlns="http://www.w3.org/2000/svg" width="21" height="19" viewBox="0 0 21 19">
  <g id="basket" transform="translate(0 -31)">
    <path id="Path_10328" data-name="Path 10328" d="M20.385,37.334H18.219l-4.737-6.1a.6.6,0,0,0-.865-.1.646.646,0,0,0-.1.89l4.122,5.3H4.356l4.122-5.3a.646.646,0,0,0-.1-.89.6.6,0,0,0-.865.1l-4.737,6.1H.615A.624.624,0,0,0,0,37.967v1.267a.624.624,0,0,0,.615.633h19.77A.624.624,0,0,0,21,39.234V37.967A.624.624,0,0,0,20.385,37.334Z" transform="translate(0 0)" fill="#d82221"/>
    <path id="Path_10329" data-name="Path 10329" d="M36.009,279.407a.616.616,0,0,0,.589.459H48.929a.616.616,0,0,0,.589-.459L51.841,271H33.686Zm9.56-2.811.612-3.8a.615.615,0,0,1,.7-.521.631.631,0,0,1,.5.729l-.612,3.8a.619.619,0,0,1-.6.529.592.592,0,0,1-.1-.009A.631.631,0,0,1,45.569,276.6Zm-3.418-3.7a.613.613,0,1,1,1.225,0v3.8a.613.613,0,1,1-1.225,0Zm-3.469-.625a.615.615,0,0,1,.7.521L40,276.6a.631.631,0,0,1-.5.729.6.6,0,0,1-.1.009.619.619,0,0,1-.6-.529l-.612-3.8A.631.631,0,0,1,38.682,272.275Z" transform="translate(-32.264 -229.866)" fill="#d82221"/>
  </g>
</svg>
