<svg xmlns="http://www.w3.org/2000/svg" width="33.12" height="32.233" viewBox="0 0 33.12 32.233">
  <g id="Group_53" data-name="Group 53" transform="translate(-54.571 -164.459)">
    <path id="Path_247" data-name="Path 247" d="M61.361,172.9l4.573,4.575,1.174-1.174-4.573-4.577a.4.4,0,0,1-.119-.3l.073-1.61L57.081,165.4l-2.035,2.035,4.4,5.411,1.6-.07A.408.408,0,0,1,61.361,172.9Z" transform="translate(0.482 0.956)" fill="#ebebeb" fill-rule="evenodd"/>
    <path id="Path_248" data-name="Path 248" d="M65.167,174.518l8.447,8.489.193-.193a1.642,1.642,0,0,0,.018-2.3l-.018-.018-7.319-7.319Z" transform="translate(10.749 8.848)" fill="#e0b041" fill-rule="evenodd"/>
    <path id="Path_249" data-name="Path 249" d="M71.338,185.56a.413.413,0,0,1,.081-.119l2.774-2.774h0l1.894-1.916.008-.008.471-.475a.407.407,0,0,1,.548-.048l.02.016a7.731,7.731,0,0,0,8.574-9.8l-4.694,4.694h0a.41.41,0,0,1-.407.1l-3.592-1.1h0a.413.413,0,0,1-.272-.272l-1.082-3.556a.409.409,0,0,1,.089-.443l4.694-4.7a7.78,7.78,0,0,0-3.775-.135,7.69,7.69,0,0,0-3.846,2.093h0a7.681,7.681,0,0,0-1.89,3.086,7.786,7.786,0,0,0-.278,3.6.4.4,0,0,1-.1.367l-.01.012L67.6,177.133l-1.753,1.753-.008.006-9.946,9.948v0a1.644,1.644,0,0,0,0,2.317l3.822,3.822a1.649,1.649,0,0,0,.53.363,1.618,1.618,0,0,0,1.793-.369l7.44-7.528.022-.026.022-.02,1.815-1.835Zm-10.29,7.679-3.409-3.409a.41.41,0,0,1,0-.578l3.411-3.409a.406.406,0,0,1,.578,0l3.409,3.409a.41.41,0,0,1,0,.578l-3.409,3.409A.409.409,0,0,1,61.048,193.239Z" transform="translate(0.858 0.411)" fill="#bfc7c9" fill-rule="evenodd"/>
    <path id="Path_250" data-name="Path 250" d="M72.627,183.985,64.2,175.518l-.89.9-.469.475,7.282,7.28a1.645,1.645,0,0,0,2.3.02l.018-.02Z" transform="translate(8.387 11.22)" fill="#e0b041" fill-rule="evenodd"/>
    <path id="Path_251" data-name="Path 251" d="M63.8,176.343l8.431,8.471,2.2-2.2-8.445-8.484Z" transform="translate(9.36 9.814)" fill="#fac957" fill-rule="evenodd"/>
    <g id="Group_52" data-name="Group 52" transform="translate(54.571 164.459)">
      <path id="Path_252" data-name="Path 252" d="M65.84,179.006l-4.446-4.448-1.632.07a.41.41,0,0,1-.338-.153l-4.76-5.854a.407.407,0,0,1,.032-.55l2.552-2.552a.411.411,0,0,1,.55-.024l5.848,4.766a.412.412,0,0,1,.151.334l-.073,1.634,4.444,4.448,2.51-2.51a8.544,8.544,0,0,1,2.423-7.206h0a8.549,8.549,0,0,1,9.1-1.938.408.408,0,0,1,.236.528.4.4,0,0,1-.093.143h0l-4.988,4.988.959,3.149,3.147.959,4.99-4.988a.406.406,0,0,1,.578,0,.391.391,0,0,1,.1.159,8.545,8.545,0,0,1-9.317,11.485l0,0,7.321,7.321.024.024a2.456,2.456,0,0,1-.024,3.449l-.473.475-.008.006L81.879,195.5l-.475.475-.026.022a2.459,2.459,0,0,1-3.449-.022L70.65,188.7l-7.17,7.258a2.463,2.463,0,0,1-.8.546,2.431,2.431,0,0,1-.945.183,2.4,2.4,0,0,1-.943-.179,2.445,2.445,0,0,1-.8-.538l-3.82-3.822a2.456,2.456,0,0,1,0-3.473h0l9.664-9.666Zm7.319,7.152,8.433,8.471,2.2-2.2-8.445-8.485-2.184,2.21Zm7.855,9.049-8.429-8.467-.888.9-.469.473,7.282,7.282a1.645,1.645,0,0,0,2.3.02l.018-.02.189-.189ZM72.2,185.972a.421.421,0,0,1,.083-.119l2.774-2.774h0l1.894-1.916.006-.008.471-.477a.409.409,0,0,1,.548-.046l.022.016a7.728,7.728,0,0,0,8.572-9.8l-4.694,4.694v0a.41.41,0,0,1-.407.1l-3.592-1.094h0a.409.409,0,0,1-.272-.272l-1.082-3.556a.406.406,0,0,1,.089-.445l4.694-4.694a7.779,7.779,0,0,0-3.775-.135,7.681,7.681,0,0,0-3.848,2.093h0a7.717,7.717,0,0,0-2.168,6.682.4.4,0,0,1-.1.369l-.01.01-2.943,2.945L66.708,179.3l-.008.008-9.946,9.946h0a1.646,1.646,0,0,0,0,2.317l3.82,3.82a1.625,1.625,0,0,0,.532.363,1.716,1.716,0,0,0,1.265,0,1.629,1.629,0,0,0,.528-.363l7.438-7.528.024-.026.02-.02,1.815-1.835Zm3.721-2.6,8.449,8.487.191-.191a1.639,1.639,0,0,0,.02-2.3l-.02-.02L77.24,182.03l-1.324,1.338Zm-16.549,6.585,2.83,2.83,2.83-2.83-2.83-2.83-2.83,2.83Zm2.54,3.7a.412.412,0,0,0,.58,0l3.409-3.409a.412.412,0,0,0,0-.58l-3.409-3.409a.412.412,0,0,0-.58,0L58.5,189.663a.41.41,0,0,0,0,.578l3.409,3.411Zm-.062-19.8,4.573,4.577,1.174-1.174-4.573-4.577a.4.4,0,0,1-.119-.306l.073-1.608-5.409-4.406-2.037,2.033,4.4,5.413,1.6-.071a.406.406,0,0,1,.31.119Zm-4.051-8.36,0,0Z" transform="translate(-54.571 -164.459)" fill="#30383b" fill-rule="evenodd"/>
    </g>
  </g>
</svg>
