<svg id="chat" xmlns="http://www.w3.org/2000/svg" width="21.668" height="21.667" viewBox="0 0 21.668 21.667">
  <path id="Shape" d="M21.128,21.667a.549.549,0,0,1-.151-.022l-3.492-1A8.13,8.13,0,0,1,5.765,15.9a8.163,8.163,0,0,1-1.581-.671l-3.492,1a.551.551,0,0,1-.152.022.544.544,0,0,1-.431-.217.536.536,0,0,1-.087-.474l1-3.492A8.126,8.126,0,1,1,15.9,5.765a8.129,8.129,0,0,1,4.746,11.718l1,3.492a.537.537,0,0,1-.088.474A.544.544,0,0,1,21.128,21.667ZM7.008,16.173A7.046,7.046,0,0,0,17.136,19.6a.547.547,0,0,1,.278-.076.539.539,0,0,1,.148.021l2.775.794-.793-2.776a.543.543,0,0,1,.056-.425A7.047,7.047,0,0,0,16.174,7.008a8.127,8.127,0,0,1-9.166,9.165ZM4.256,14.106a.534.534,0,0,1,.276.076,7.041,7.041,0,1,0-2.463-2.464.546.546,0,0,1,.055.426l-.793,2.775,2.776-.793A.543.543,0,0,1,4.256,14.106Z" transform="translate(0 0)" fill="#c5cee0"/>
</svg>
