<svg id="chat" xmlns="http://www.w3.org/2000/svg" width="28" height="26.25" viewBox="0 0 28 26.25">
  <g id="Group_9518" data-name="Group 9518">
    <g id="Group_9517" data-name="Group 9517" transform="translate(0 0)">
      <path id="Path_4244" data-name="Path 4244" d="M13.945,16C6.158,16,0,21.575,0,28.3A11.463,11.463,0,0,0,3.2,36.15a4.989,4.989,0,0,1-1.318,4.7.821.821,0,0,0,.58,1.4,9.05,9.05,0,0,0,6.266-2.53,15.48,15.48,0,0,0,5.219.89C21.754,40.609,28,35.018,28,28.3S21.75,16,13.945,16Zm0,22.98A13.8,13.8,0,0,1,8.818,38a.82.82,0,0,0-.909.208,7.405,7.405,0,0,1-3.682,2.185,6.633,6.633,0,0,0,.5-4.882.82.82,0,0,0-.2-.347,9.87,9.87,0,0,1-2.9-6.86c0-5.88,5.531-10.675,12.316-10.675,6.845,0,12.425,4.795,12.425,10.675S20.79,38.98,13.945,38.98Z" transform="translate(0 -16)" fill="#b1b1b1"/>
    </g>
  </g>
  <g id="Group_9520" data-name="Group 9520" transform="translate(4.922 9.844)">
    <g id="Group_9519" data-name="Group 9519">
      <path id="Path_4245" data-name="Path 4245" d="M92.461,196a2.461,2.461,0,1,0,2.461,2.461A2.464,2.464,0,0,0,92.461,196Zm0,3.281a.82.82,0,1,1,.82-.82A.821.821,0,0,1,92.461,199.281Z" transform="translate(-90 -196)" fill="#b1b1b1"/>
    </g>
  </g>
  <g id="Group_9521" data-name="Group 9521" transform="translate(11.484 9.844)">
    <path id="Path_4246" data-name="Path 4246" d="M212.461,196a2.461,2.461,0,1,0,2.461,2.461A2.464,2.464,0,0,0,212.461,196Zm0,3.281a.82.82,0,1,1,.82-.82A.821.821,0,0,1,212.461,199.281Z" transform="translate(-210 -196)" fill="#b1b1b1"/>
  </g>
  <g id="Group_9524" data-name="Group 9524" transform="translate(18.156 9.844)">
    <g id="Group_9523" data-name="Group 9523">
      <path id="Path_4247" data-name="Path 4247" d="M334.461,196a2.461,2.461,0,1,0,2.461,2.461A2.464,2.464,0,0,0,334.461,196Zm0,3.281a.82.82,0,1,1,.82-.82A.821.821,0,0,1,334.461,199.281Z" transform="translate(-332 -196)" fill="#b1b1b1"/>
    </g>
  </g>
</svg>
