<svg id="collective" xmlns="http://www.w3.org/2000/svg" width="7093.547" height="6955" viewBox="0 0 7093.547 6955">
  <g id="Group_63123" data-name="Group 63123" transform="translate(891.588 2731.112)">
    <g id="Group_63109" data-name="Group 63109" transform="translate(616.605)">
      <g id="Group_63102" data-name="Group 63102" transform="translate(0)">
        <g id="Group_63100" data-name="Group 63100" transform="translate(101.599 1355.809)">
          <path id="Path_43877" data-name="Path 43877" d="M1316.22,1468.952H324.011c-114.771,0-207.819-93.047-207.819-207.818V1008.925c0-388.15,315.774-703.937,703.923-703.937s703.938,315.788,703.938,703.938v252.209c-.014,114.771-93.061,207.818-207.833,207.818Z" transform="translate(-116.192 -304.987)" fill="#3de5aa"/>
          <path id="Path_43878" data-name="Path 43878" d="M174.917,304.987c-2.868,0-5.68.18-8.534.222V1468.952H671.036c114.771,0,207.819-93.047,207.819-207.818V1008.925C878.855,620.775,563.068,304.987,174.917,304.987Z" transform="translate(528.992 -304.987)" fill="#30b3b2"/>
        </g>
        <g id="Group_63101" data-name="Group 63101" transform="translate(0)">
          <circle id="Ellipse_476" data-name="Ellipse 476" cx="612.58" cy="612.58" r="612.58" transform="translate(0 481.488) rotate(-23.153)" fill="#feded0"/>
          <path id="Path_43879" data-name="Path 43879" d="M174.917,221.006c-2.868,0-5.68.18-8.534.222V1445.945c2.854.042,5.68.222,8.534.222,337.775,0,612.58-274.805,612.58-612.58s-274.805-612.58-612.58-612.58Z" transform="translate(630.591 -28.718)" fill="#fecdbf"/>
        </g>
      </g>
      <g id="Group_63105" data-name="Group 63105" transform="translate(1232.504 0.263)">
        <g id="Group_63103" data-name="Group 63103" transform="translate(102.153 1355.546)">
          <path id="Path_43880" data-name="Path 43880" d="M1405.22,1468.952H413.011c-114.771,0-207.819-93.047-207.819-207.818V1008.925c0-388.15,315.773-703.937,703.923-703.937s703.938,315.788,703.938,703.938v252.209c-.014,114.771-93.062,207.818-207.833,207.818Z" transform="translate(-205.192 -304.987)" fill="#4e638b"/>
          <path id="Path_43881" data-name="Path 43881" d="M263.917,304.987c-2.868,0-5.68.18-8.534.222V1468.952H760.036c114.771,0,207.819-93.047,207.819-207.818V1008.925C967.855,620.775,652.067,304.987,263.917,304.987Z" transform="translate(439.992 -304.987)" fill="#293e65"/>
        </g>
        <g id="Group_63104" data-name="Group 63104" transform="translate(0)">
          <circle id="Ellipse_477" data-name="Ellipse 477" cx="612.58" cy="612.58" r="612.58" transform="translate(0 481.488) rotate(-23.153)" fill="#eed8b0"/>
          <path id="Path_43882" data-name="Path 43882" d="M263.917,221.006c-2.868,0-5.68.18-8.534.222V1445.945c2.854.042,5.68.222,8.534.222,337.775,0,612.58-274.805,612.58-612.58s-274.806-612.58-612.58-612.58Z" transform="translate(542.145 -28.982)" fill="#e1bb79"/>
        </g>
      </g>
      <g id="Group_63108" data-name="Group 63108" transform="translate(2465.007 0.526)">
        <g id="Group_63106" data-name="Group 63106" transform="translate(102.707 1355.283)">
          <path id="Path_43883" data-name="Path 43883" d="M1494.221,1468.952H502.011c-114.771,0-207.819-93.047-207.819-207.818V1008.925c0-388.15,315.773-703.937,703.923-703.937s703.938,315.788,703.938,703.938v252.209c-.014,114.771-93.062,207.818-207.833,207.818Z" transform="translate(-294.192 -304.987)" fill="#3de5aa"/>
          <path id="Path_43884" data-name="Path 43884" d="M352.917,304.987c-2.868,0-5.681.18-8.535.222V1468.952H849.036c114.771,0,207.818-93.047,207.818-207.818V1008.925C1056.854,620.775,741.067,304.987,352.917,304.987Z" transform="translate(350.992 -304.987)" fill="#30b3b2"/>
        </g>
        <g id="Group_63107" data-name="Group 63107">
          <circle id="Ellipse_478" data-name="Ellipse 478" cx="612.58" cy="612.58" r="612.58" transform="translate(0 481.488) rotate(-23.153)" fill="#895040"/>
          <path id="Path_43885" data-name="Path 43885" d="M352.917,221.006c-2.868,0-5.681.18-8.535.222V1445.945c2.854.042,5.667.222,8.535.222,337.774,0,612.58-274.805,612.58-612.58s-274.806-612.58-612.58-612.58Z" transform="translate(453.7 -29.245)" fill="#5a362b"/>
        </g>
      </g>
    </g>
    <g id="Group_63122" data-name="Group 63122" transform="translate(0 1703.22)">
      <g id="Group_63112" data-name="Group 63112" transform="translate(3697.511 0.789)">
        <g id="Group_63110" data-name="Group 63110" transform="translate(103.338 1355.913)">
          <path id="Path_43886" data-name="Path 43886" d="M1538.721,1591.952H546.511c-114.771,0-207.819-93.047-207.819-207.819V1131.924c0-388.15,315.774-703.937,703.924-703.937s703.937,315.787,703.937,703.937v252.209c-.014,114.771-93.062,207.819-207.833,207.819Z" transform="translate(-338.692 -427.987)" fill="#3de5aa"/>
          <path id="Path_43887" data-name="Path 43887" d="M397.417,427.987c-2.868,0-5.681.18-8.534.221V1591.952H893.536c114.771,0,207.819-93.047,207.819-207.819V1131.924C1101.355,743.774,785.567,427.987,397.417,427.987Z" transform="translate(306.492 -427.987)" fill="#30b3b2"/>
        </g>
        <g id="Group_63111" data-name="Group 63111" transform="translate(0)">
          <circle id="Ellipse_479" data-name="Ellipse 479" cx="612.58" cy="612.58" r="612.58" transform="translate(0 481.488) rotate(-23.153)" fill="#e1bb79"/>
          <path id="Path_43888" data-name="Path 43888" d="M397.417,344.006c-2.868,0-5.681.18-8.534.221V1568.945c2.854.042,5.666.222,8.534.222,337.775,0,612.58-274.806,612.58-612.581S735.192,344.006,397.417,344.006Z" transform="translate(409.829 -151.615)" fill="#c9885c"/>
        </g>
      </g>
      <g id="Group_63115" data-name="Group 63115" transform="translate(0)">
        <g id="Group_63113" data-name="Group 63113" transform="translate(101.675 1356.703)">
          <path id="Path_43889" data-name="Path 43889" d="M1271.72,1591.952H279.511c-114.771,0-207.819-93.047-207.819-207.819V1131.924c0-388.15,315.774-703.937,703.924-703.937s703.937,315.787,703.937,703.937v252.209C1479.539,1498.9,1386.492,1591.952,1271.72,1591.952Z" transform="translate(-71.692 -427.987)" fill="#4e638b"/>
          <path id="Path_43890" data-name="Path 43890" d="M130.417,427.987c-2.868,0-5.681.18-8.534.221V1591.952H626.536c114.771,0,207.819-93.047,207.819-207.819V1131.924C834.355,743.774,518.567,427.987,130.417,427.987Z" transform="translate(573.492 -427.987)" fill="#293e65"/>
        </g>
        <g id="Group_63114" data-name="Group 63114">
          <circle id="Ellipse_480" data-name="Ellipse 480" cx="612.58" cy="612.58" r="612.58" transform="translate(0 481.488) rotate(-23.153)" fill="#c9885c"/>
          <path id="Path_43891" data-name="Path 43891" d="M130.417,344.006c-2.868,0-5.681.18-8.534.221V1568.945c2.854.042,5.68.222,8.534.222,337.775,0,612.58-274.806,612.58-612.581S468.192,344.006,130.417,344.006Z" transform="translate(675.167 -150.825)" fill="#895040"/>
        </g>
      </g>
      <g id="Group_63118" data-name="Group 63118" transform="translate(1232.504 0.263)">
        <g id="Group_63116" data-name="Group 63116" transform="translate(102.229 1356.439)">
          <path id="Path_43892" data-name="Path 43892" d="M1360.72,1591.952H368.511c-114.771,0-207.819-93.047-207.819-207.819V1131.924c0-388.15,315.774-703.937,703.924-703.937s703.937,315.787,703.937,703.937v252.209c-.014,114.771-93.061,207.819-207.833,207.819Z" transform="translate(-160.692 -427.987)" fill="#3de5aa"/>
          <path id="Path_43893" data-name="Path 43893" d="M219.417,427.987c-2.868,0-5.681.18-8.534.221V1591.952H715.536c114.771,0,207.819-93.047,207.819-207.819V1131.924C923.355,743.774,607.567,427.987,219.417,427.987Z" transform="translate(484.492 -427.987)" fill="#30b3b2"/>
        </g>
        <g id="Group_63117" data-name="Group 63117" transform="translate(0)">
          <circle id="Ellipse_481" data-name="Ellipse 481" cx="612.58" cy="612.58" r="612.58" transform="translate(0 481.488) rotate(-23.153)" fill="#f5b6a9"/>
          <path id="Path_43894" data-name="Path 43894" d="M219.417,344.006c-2.868,0-5.681.18-8.534.221V1568.945c2.854.042,5.68.222,8.534.222,337.775,0,612.58-274.806,612.58-612.581S557.192,344.006,219.417,344.006Z" transform="translate(586.721 -151.089)" fill="#f19180"/>
        </g>
      </g>
      <g id="Group_63121" data-name="Group 63121" transform="translate(2465.007 0.526)">
        <g id="Group_63119" data-name="Group 63119" transform="translate(102.784 1356.176)">
          <path id="Path_43895" data-name="Path 43895" d="M1449.72,1591.952H457.511c-114.771,0-207.819-93.047-207.819-207.819V1131.924c0-388.15,315.774-703.937,703.923-703.937s703.938,315.787,703.938,703.937v252.209c-.014,114.771-93.062,207.819-207.833,207.819Z" transform="translate(-249.692 -427.987)" fill="#4e638b"/>
          <path id="Path_43896" data-name="Path 43896" d="M308.418,427.987c-2.868,0-5.681.18-8.535.221V1591.952H804.536c114.771,0,207.819-93.047,207.819-207.819V1131.924C1012.355,743.774,696.567,427.987,308.418,427.987Z" transform="translate(395.492 -427.987)" fill="#293e65"/>
        </g>
        <g id="Group_63120" data-name="Group 63120" transform="translate(0)">
          <circle id="Ellipse_482" data-name="Ellipse 482" cx="612.58" cy="612.58" r="612.58" transform="translate(0 481.488) rotate(-23.153)" fill="#c9885c"/>
          <path id="Path_43897" data-name="Path 43897" d="M308.418,344.006c-2.868,0-5.681.18-8.535.221V1568.945c2.854.042,5.667.222,8.535.222,337.774,0,612.58-274.806,612.58-612.581S646.192,344.006,308.418,344.006Z" transform="translate(498.276 -151.352)" fill="#895040"/>
        </g>
      </g>
    </g>
  </g>
  <g id="Group_63130" data-name="Group 63130">
    <g id="Group_63126" data-name="Group 63126">
      <g id="Group_63124" data-name="Group 63124">
        <path id="Path_43898" data-name="Path 43898" d="M2781.335,2342.976a207.412,207.412,0,0,1-64.327-10.211l-819.623-266.881H894.4C401.229,2065.885,0,1664.656,0,1171.5V894.41C0,401.229,401.229,0,894.4,0H2094.771c493.168,0,894.4,401.229,894.4,894.41V2135.171a207.79,207.79,0,0,1-207.833,207.8Z" fill="#fff5f5"/>
        <path id="Path_43899" data-name="Path 43899" d="M708.057,0H107.877V2065.885H510.671l819.623,266.881a207.819,207.819,0,0,0,272.159-197.608V894.41C1602.454,401.229,1201.225,0,708.057,0Z" transform="translate(1386.714 0)" fill="#ece6f2"/>
      </g>
      <g id="Group_63125" data-name="Group 63125" transform="translate(831.275 823.239)">
        <path id="Path_43900" data-name="Path 43900" d="M1178.8,475.057H267.819C153.047,475.057,60,382.01,60,267.239S153.047,59.42,267.819,59.42H1178.8c114.771,0,207.819,93.047,207.819,207.819S1293.57,475.057,1178.8,475.057Z" transform="translate(-60 -59.42)" fill="#ece6f2"/>
        <path id="Path_43901" data-name="Path 43901" d="M563.36,59.42H107.877V475.057H563.36c114.771,0,207.819-93.047,207.819-207.819S678.132,59.42,563.36,59.42Z" transform="translate(555.439 -59.42)" fill="#dfd5e8"/>
      </g>
    </g>
    <g id="Group_63129" data-name="Group 63129" transform="translate(4104.378)">
      <g id="Group_63127" data-name="Group 63127">
        <path id="Path_43902" data-name="Path 43902" d="M504.079,2342.976a207.839,207.839,0,0,1-207.832-207.819V894.41C296.247,401.229,697.476,0,1190.644,0H2391.018c493.168,0,894.4,401.229,894.4,894.41V1171.5c0,493.168-401.229,894.4-894.41,894.4H1388.029L568.406,2332.779A207.8,207.8,0,0,1,504.079,2342.976Z" transform="translate(-296.247 0)" fill="#ece6f2"/>
        <path id="Path_43903" data-name="Path 43903" d="M1004.3,0H404.123V2065.885H1004.3c493.181,0,894.41-401.229,894.41-894.4V894.4C1898.714,401.229,1497.485,0,1004.3,0Z" transform="translate(1090.453)" fill="#dfd5e8"/>
      </g>
      <g id="Group_63128" data-name="Group 63128" transform="translate(831.275 823.239)">
        <path id="Path_43904" data-name="Path 43904" d="M1475.046,475.057H564.066c-114.771,0-207.819-93.047-207.819-207.819S449.294,59.42,564.066,59.42h910.98c114.771,0,207.819,93.047,207.819,207.819S1589.817,475.057,1475.046,475.057Z" transform="translate(-356.247 -59.42)" fill="#dfd5e8"/>
        <path id="Path_43905" data-name="Path 43905" d="M859.62,59.42h-455.5V475.057h455.5c114.771,0,207.819-93.047,207.819-207.819S974.392,59.42,859.62,59.42Z" transform="translate(259.179 -59.42)" fill="#cfd0e5"/>
      </g>
    </g>
  </g>
</svg>
