<svg xmlns="http://www.w3.org/2000/svg" xmlns:xlink="http://www.w3.org/1999/xlink" width="172.367" height="159" viewBox="0 0 172.367 159">
  <defs>
    <clipPath id="clip-path">
      <circle id="Ellipse_2" data-name="Ellipse 2" cx="60" cy="60" r="60" fill="#49d6cb"/>
    </clipPath>
  </defs>
  <g id="Group_20888" data-name="Group 20888" transform="translate(-101.634 -373)">
    <g id="Group_20887" data-name="Group 20887">
      <g id="Group_20888-2" data-name="Group 20888" transform="translate(-6829 -486)" opacity="0.3">
        <path id="Path_127133" data-name="Path 127133" d="M7023.323,923.5c15.038-8.43,21.464-23.873,29.95-26.334s16.722-3.446,24.708,6.153,8.359,24.684,4.619,40.718-7.116,23.949-24.585,43.453-45.422,29.78-45.422,29.78-29.638,5.538-43.677-6.891-16.847-30.518-11.48-49.469,32.943-26.334,32.943-26.334S7008.286,931.934,7023.323,923.5Z" transform="translate(0.108 -0.504)" fill="#d1d1d1"/>
        <ellipse id="Ellipse_82" data-name="Ellipse 82" cx="9" cy="8" rx="9" ry="8" transform="translate(7010.614 897.318)" fill="#c8c6c6"/>
        <ellipse id="Ellipse_83" data-name="Ellipse 83" cx="6" cy="4.5" rx="6" ry="4.5" transform="translate(6992.514 909.318)" fill="#c8c6c6"/>
      </g>
      <g id="Group_18990" data-name="Group 18990" transform="translate(-23 216)">
        <path id="Path_125868" data-name="Path 125868" d="M-3062.248,2958.689s-2.767-6.668,2.69-6.844,2.819,6.844,2.819,6.844" transform="translate(3352.103 -2777.583)" fill="none" stroke="#d82221" stroke-linecap="round" stroke-width="2" opacity="0.5"/>
        <path id="Path_125869" data-name="Path 125869" d="M.7,6.847S-2.065.178,3.391,0,6.21,6.847,6.21,6.847" transform="translate(126 208.771) rotate(-30)" fill="none" stroke="#d82221" stroke-linecap="round" stroke-width="2" opacity="0.5"/>
        <path id="Path_125870" data-name="Path 125870" d="M.7,6.847S-2.065.178,3.391,0,6.21,6.847,6.21,6.847" transform="translate(148.483 310) rotate(-150)" fill="none" stroke="#d82221" stroke-linecap="round" stroke-width="2" opacity="0.5"/>
        <path id="Path_125871" data-name="Path 125871" d="M0,8.043,2,3.711l4.42.043L7.694,0" transform="translate(134.083 262.153) rotate(-150)" fill="none" stroke="#ffe600" stroke-linecap="round" stroke-width="2" opacity="0.5"/>
        <circle id="Ellipse_211" data-name="Ellipse 211" cx="3.423" cy="3.423" r="3.423" transform="translate(263.826 302.083)" fill="#ffe600" opacity="0.5"/>
        <circle id="Ellipse_212" data-name="Ellipse 212" cx="3.5" cy="3.5" r="3.5" transform="translate(211.169 157)" fill="#ffe600" opacity="0.5"/>
        <g id="close" transform="translate(286.036 228.689)" opacity="0.5">
          <g id="Group_13686" data-name="Group 13686">
            <path id="Path_31707" data-name="Path 31707" d="M3.168,2.854,5.64.381A.223.223,0,0,0,5.325.066L2.853,2.538.38.066A.223.223,0,1,0,.065.381L2.537,2.854.065,5.326a.223.223,0,0,0,.315.315L2.853,3.169,5.325,5.641a.223.223,0,0,0,.315-.315Z" transform="translate(0 -0.001)" fill="none" stroke="#d82221" stroke-width="1"/>
          </g>
        </g>
      </g>
      <g id="OBJECTS" transform="translate(55.953 355.309)">
        <g id="Group_6" data-name="Group 6" transform="translate(75.047 56.691)">
          <g id="Group_5" data-name="Group 5" transform="translate(0 0)" clip-path="url(#clip-path)">
            <g id="Group_3" data-name="Group 3" transform="translate(21.398 20.271)">
              <g id="Group_2" data-name="Group 2">
                <g id="Path_1" data-name="Path 1" transform="translate(-192.346 -207.513)" fill="#fff" stroke-linecap="round" stroke-linejoin="round">
                  <path d="M 228.1542816162109 324.7124328613281 C 228.1535491943359 324.7124328613281 228.1529541015625 324.7124328613281 228.1522369384766 324.7124328613281 C 225.5514373779297 324.7123413085938 223.3582305908203 324.5465087890625 221.6335144042969 324.219482421875 C 219.2833862304688 323.7738952636719 217.8688659667969 323.0443420410156 217.1819458007812 321.9235229492188 C 216.6349334716797 321.0309448242188 216.6179962158203 319.981201171875 217.13427734375 318.9676513671875 C 218.5970764160156 316.0954895019531 219.2880859375 312.4517822265625 219.2467651367188 307.8284912109375 C 219.2087554931641 303.5776672363281 218.5675964355469 298.9299011230469 217.9475402832031 294.4351196289062 C 217.3657989501953 290.2181396484375 216.7642517089844 285.8575744628906 216.6602020263672 281.8140258789062 C 216.5401458740234 277.1486206054688 217.1123962402344 273.3994445800781 218.4096527099609 270.3522644042969 C 220.5496063232422 265.3258056640625 225.4954071044922 262.5576171875 232.3359527587891 262.5576171875 C 236.9569702148438 262.5576171875 242.2929534912109 263.8595886230469 246.9756927490234 266.1296997070312 C 249.2598571777344 267.2370300292969 251.2568664550781 268.5016479492188 252.9112548828125 269.888427734375 C 254.7093200683594 271.3956604003906 256.0042724609375 272.9707946777344 256.7601623535156 274.5700988769531 C 258.3766479492188 277.9902648925781 258.4311828613281 281.962646484375 256.9267883300781 286.7142028808594 C 255.6934661865234 290.609619140625 253.6384582519531 294.3502807617188 251.8253631591797 297.6505737304688 C 250.7255249023438 299.6525573730469 249.6866912841797 301.5434875488281 249.1092834472656 303.0086364746094 C 248.1629943847656 305.4103698730469 247.6441497802734 309.0709228515625 247.6089172363281 313.594482421875 C 247.5816650390625 317.0934753417969 247.8578643798828 319.8782348632812 247.8606567382812 319.9059448242188 L 247.9769897460938 321.0604248046875 L 246.9305877685547 321.5621337890625 C 246.9119567871094 321.5710754394531 246.4651031494141 321.7850646972656 245.6821899414062 322.152587890625 C 242.2677917480469 323.7550354003906 234.0894317626953 324.7124328613281 228.1542816162109 324.7124328613281 Z" stroke="none"/>
                  <path d="M 228.1522979736328 323.0600891113281 C 234.4788665771484 323.0603332519531 242.0692596435547 322.02294921875 244.9800720214844 320.6568298339844 C 245.7660675048828 320.2878723144531 246.2166748046875 320.0719909667969 246.2166748046875 320.0719909667969 C 246.2166748046875 320.0719909667969 245.0706939697266 308.7512512207031 247.572021484375 302.4028015136719 C 250.0736999511719 296.0548400878906 259.5397644042969 284.3179016113281 255.2662506103516 275.2761535644531 C 252.5861358642578 269.6054382324219 241.5595245361328 264.2099609375 232.3359680175781 264.2099609375 C 226.8535308837891 264.2099609375 222.009765625 266.1143188476562 219.9299621582031 270.9994812011719 C 214.3511352539062 284.1038208007812 225.4142608642578 306.3509216308594 218.6066131591797 319.7176208496094 C 217.3716125488281 322.1421813964844 222.2033538818359 323.0598754882812 228.1522979736328 323.0600891113281 M 228.1545562744141 326.3647766113281 L 228.1545562744141 323.0600891113281 L 228.1538391113281 326.3647766113281 C 225.4483947753906 326.3646850585938 223.1516418457031 326.1890869140625 221.3257293701172 325.8429260253906 C 219.5384216308594 325.5040283203125 217.0182647705078 324.8185729980469 215.7731475830078 322.7869262695312 C 214.9267883300781 321.4059448242188 214.8862609863281 319.7405090332031 215.6619262695312 318.2176818847656 C 217.001220703125 315.5880432128906 217.6333923339844 312.1944885253906 217.594482421875 307.84326171875 C 217.5574340820312 303.6984558105469 216.9236450195312 299.1040649414062 216.3106994628906 294.6609191894531 C 215.7227630615234 290.3990783691406 215.1148223876953 285.9921264648438 215.0084075927734 281.8565368652344 C 214.8821258544922 276.949462890625 215.4973907470703 272.9746398925781 216.8893585205078 269.7050170898438 C 217.5516510009766 268.1493835449219 218.4611968994141 266.7639465332031 219.5927581787109 265.587158203125 C 220.6597747802734 264.4774780273438 221.9305114746094 263.5470275878906 223.3696441650391 262.8217163085938 C 225.8927764892578 261.550048828125 228.9094848632812 260.9052734375 232.3359680175781 260.9052734375 C 234.8482513427734 260.9052734375 237.5062866210938 261.2520446777344 240.2362213134766 261.9359741210938 C 242.8131866455078 262.5816040039062 245.3231658935547 263.4923095703125 247.6964874267578 264.6428527832031 C 252.8824310302734 267.1569213867188 256.6318359375 270.4317321777344 258.2540283203125 273.8640747070312 C 259.2304077148438 275.9298400878906 259.703857421875 278.2225036621094 259.6611938476562 280.6783447265625 C 259.6256713867188 282.72412109375 259.2465209960938 284.8616027832031 258.5020751953125 287.2129516601562 C 257.2197875976562 291.2630310058594 255.1232757568359 295.0792236328125 253.2735595703125 298.4461669921875 C 252.1997375488281 300.4008178710938 251.1854553222656 302.2470397949219 250.6465606689453 303.6144409179688 C 248.8423767089844 308.1935424804688 249.2105865478516 316.807861328125 249.5047149658203 319.7406921386719 C 249.6436004638672 321.125732421875 248.8998718261719 322.4508666992188 247.64453125 323.0522766113281 C 247.6256561279297 323.0613403320312 247.1730804443359 323.278076171875 246.3842926025391 323.6483154296875 C 242.6247863769531 325.4127502441406 234.1860198974609 326.3647766113281 228.1545562744141 326.3647766113281 Z" stroke="none" fill="#d82221"/>
                </g>
                <g id="Path_2" data-name="Path 2" transform="translate(-212.517 -155.342)" fill="#fff" stroke-linecap="round" stroke-linejoin="round">
                  <path d="M 259.4436645507812 194.3095550537109 L 258.4280090332031 192.5922393798828 L 252.3627624511719 182.3367156982422 L 251.7151031494141 181.2416229248047 L 252.6083068847656 180.3355865478516 C 252.8067932128906 180.1342315673828 257.51953125 175.3673095703125 261.85791015625 172.1492309570312 C 263.0782165527344 171.2440643310547 264.4412536621094 170.7656097412109 265.7997131347656 170.7656097412109 C 267.7871398925781 170.7656097412109 269.6484069824219 171.7985992431641 270.7786254882812 173.5288696289062 C 271.4079895019531 174.4923553466797 271.7832641601562 175.6320495605469 271.8638610839844 176.8247680664062 C 271.9494934082031 178.0915069580078 271.7127990722656 179.3720245361328 271.160400390625 180.6307678222656 C 268.7786865234375 186.0586853027344 261.2605285644531 192.7111663818359 260.941650390625 192.9916839599609 L 259.4436645507812 194.3095550537109 Z" stroke="none"/>
                  <path d="M 259.8502502441406 191.7511138916016 C 259.8502502441406 191.7511138916016 267.3852233886719 185.1221618652344 269.6473388671875 179.9667663574219 C 271.38671875 176.0033111572266 268.9613647460938 172.4179534912109 265.7997131347656 172.4179534912109 C 264.8492431640625 172.4179534912109 263.8329162597656 172.7415466308594 262.8423156738281 173.4763336181641 C 258.556640625 176.6553039550781 253.7849884033203 181.4955902099609 253.7849884033203 181.4955902099609 L 259.8502502441406 191.7511138916016 M 259.8503112792969 195.0558166503906 C 259.6777954101562 195.0558166503906 259.5044860839844 195.0423126220703 259.3316040039062 195.0148468017578 C 258.3594970703125 194.8603515625 257.5068359375 194.2805786132812 257.0057983398438 193.4333648681641 L 250.9405364990234 183.1778411865234 C 250.1770324707031 181.8868865966797 250.3786773681641 180.2436676025391 251.4315948486328 179.1755676269531 C 251.6337585449219 178.9705047607422 256.4336853027344 174.1154632568359 260.87353515625 170.8221282958984 C 262.3806457519531 169.7041931152344 264.0841064453125 169.1132659912109 265.7997131347656 169.1132659912109 C 268.3471069335938 169.1132659912109 270.7255249023438 170.4261627197266 272.1619873046875 172.6252593994141 C 272.94580078125 173.8251953125 273.4127807617188 175.2388458251953 273.512451171875 176.7133483886719 C 273.6161804199219 178.2483825683594 273.3339233398438 179.789794921875 272.6734313964844 181.2947845458984 C 271.5833740234375 183.7790679931641 269.4413146972656 186.7272491455078 266.3068542480469 190.0572509765625 C 264.0595092773438 192.4447937011719 262.11474609375 194.1604156494141 262.0330810546875 194.2322845458984 C 261.4255065917969 194.7667999267578 260.6478576660156 195.0558166503906 259.8503112792969 195.0558166503906 Z" stroke="none" fill="#d82221"/>
                </g>
                <g id="Group_1" data-name="Group 1">
                  <g id="Path_3" data-name="Path 3" transform="translate(-158.175 -132.855)" fill="#f0f0f0" stroke-miterlimit="10">
                    <path d="M 203.2686920166016 217.7045440673828 C 201.7244873046875 217.7045440673828 200.2538757324219 216.9648590087891 199.3348541259766 215.7258911132812 L 157.6553344726562 159.5410308837891 C 156.0475921630859 157.3730926513672 156.5030059814453 154.3014831542969 158.6703796386719 152.6937561035156 L 186.1129608154297 132.3359069824219 C 186.9629516601562 131.7053375244141 187.9704895019531 131.3720245361328 189.026611328125 131.3720245361328 C 190.5707244873047 131.3720245361328 192.0413818359375 132.1117858886719 192.9606475830078 133.3508758544922 L 234.6397857666016 189.5358581542969 C 235.4186706542969 190.5861511230469 235.7420043945312 191.8766479492188 235.5503692626953 193.1697845458984 C 235.3586883544922 194.4632110595703 234.6747589111328 195.6044311523438 233.6245574951172 196.3832397460938 L 206.1821441650391 216.740966796875 C 205.3320159912109 217.3713989257812 204.3246459960938 217.7045440673828 203.2686920166016 217.7045440673828 Z" stroke="none"/>
                    <path d="M 203.2686920166016 216.2211303710938 C 203.9748992919922 216.2211303710938 204.6875305175781 216.0025634765625 205.29833984375 215.5496063232422 L 232.740966796875 195.1917419433594 C 234.2542572021484 194.0695037841797 234.5706481933594 191.9329223632812 233.4484100341797 190.4196472167969 L 191.7693176269531 134.2347106933594 C 191.0998382568359 133.3323211669922 190.0699768066406 132.8554229736328 189.026611328125 132.8554229736328 C 188.3202819824219 132.8554229736328 187.607666015625 133.0740661621094 186.9967651367188 133.5272827148438 L 159.5541381835938 153.8851318359375 C 158.0412750244141 155.0073699951172 157.7244415283203 157.1439361572266 158.8466949462891 158.6572418212891 L 200.5262451171875 214.8421325683594 C 201.1955108642578 215.744384765625 202.2252502441406 216.2211303710938 203.2686920166016 216.2211303710938 M 203.2686920166016 219.1879119873047 C 201.2569580078125 219.1879119873047 199.3409576416016 218.2240600585938 198.1434326171875 216.6096038818359 L 156.4639587402344 160.4248199462891 C 154.3689575195312 157.5997924804688 154.9623870849609 153.5973510742188 157.7865905761719 151.5023651123047 L 185.2291870117188 131.1445465087891 C 186.3367156982422 130.3229370117188 187.6498413085938 129.8886413574219 189.026611328125 129.8886413574219 C 191.0381927490234 129.8886413574219 192.9542083740234 130.8525390625 194.1519927978516 132.4670562744141 L 235.8311462402344 188.6520843505859 C 236.8461303710938 190.0207214355469 237.2674407958984 191.7022399902344 237.0177307128906 193.3872375488281 C 236.7679748535156 195.0726928710938 235.876708984375 196.5598602294922 234.5081939697266 197.5747528076172 L 207.06591796875 217.9323425292969 C 205.9581146240234 218.7538452148438 204.6451873779297 219.1879119873047 203.2686920166016 219.1879119873047 Z" stroke="none" fill="#d82221"/>
                  </g>
                  <path id="Path_4" data-name="Path 4" d="M196.437,157.858l-8.31,6.205a.718.718,0,0,1-1.006-.146h0a.719.719,0,0,1,.146-1.006l8.31-6.206a.72.72,0,0,1,1.007.146h0A.72.72,0,0,1,196.437,157.858Z" transform="translate(-174.546 -146.33)" fill="#d82221"/>
                  <path id="Path_127159" data-name="Path 127159" d="M2.476.022H30.719a2.432,2.432,0,0,1,2.432,2.432V59.6a2.432,2.432,0,0,1-2.432,2.432H2.476A2.432,2.432,0,0,1,.043,59.6V2.455A2.432,2.432,0,0,1,2.476.022Z" transform="translate(6.156 26.651) rotate(-36.569)" fill="#d82221"/>
                </g>
                <g id="Path_5" data-name="Path 5" transform="translate(-228.762 -170.073)" fill="#fff" stroke-linecap="round" stroke-linejoin="round">
                  <path d="M 286.7838134765625 213.6789855957031 C 286.7836608886719 213.6789855957031 286.7838745117188 213.6789855957031 286.7837219238281 213.6789855957031 C 285.4006042480469 213.6789703369141 284.0390014648438 213.0328521728516 282.7366943359375 211.7585906982422 C 280.8753051757812 209.9375457763672 280.2828979492188 207.3057861328125 281.0236206054688 204.1479187011719 C 281.4708557128906 202.2412261962891 282.2821044921875 200.6991271972656 282.5044860839844 200.2979583740234 C 282.9831848144531 199.1994781494141 283.6301879882812 198.3312683105469 284.4285278320312 197.7164916992188 C 285.30517578125 197.0414276123047 286.3655395507812 196.6846160888672 287.4949340820312 196.6846160888672 C 288.6204528808594 196.6846160888672 289.8191833496094 197.0298919677734 291.0578308105469 197.7108459472656 C 292.9346923828125 198.7424774169922 294.0247497558594 200.2173767089844 294.297607421875 202.0945129394531 C 294.5282897949219 203.6814727783203 294.1541442871094 205.5355682373047 293.1537780761719 207.7627258300781 C 291.3898620605469 211.6883697509766 289.2464904785156 213.6789855957031 286.7838134765625 213.6789855957031 Z" stroke="none"/>
                  <path d="M 287.4949340820312 198.3369598388672 C 285.9404296875 198.3369293212891 284.7297973632812 199.2752838134766 283.9876708984375 201.0316314697266 C 283.9876708984375 201.0316314697266 280.4051208496094 207.1659698486328 283.8922729492188 210.5775604248047 C 284.9354858398438 211.5982971191406 285.8999328613281 212.0266571044922 286.7837524414062 212.0266571044922 C 288.8539733886719 212.0266571044922 290.4822387695312 209.6768341064453 291.6465148925781 207.0857086181641 C 293.3074340820312 203.3879089355469 293.1563415527344 200.7498016357422 290.2618103027344 199.1587982177734 C 289.2540893554688 198.6047973632812 288.3254089355469 198.3369750976562 287.4949340820312 198.3369598388672 M 287.494873046875 195.0322723388672 C 287.4949035644531 195.0322723388672 287.4949951171875 195.0322723388672 287.4950256347656 195.0322723388672 C 288.9020385742188 195.0323028564453 290.3685607910156 195.4463500976562 291.8538513183594 196.2628936767578 C 294.7873840332031 197.8753204345703 295.6911926269531 200.1949005126953 295.9327697753906 201.8568115234375 C 296.2100219726562 203.7640533447266 295.7940368652344 205.9173431396484 294.6610717773438 208.4397430419922 C 293.8648681640625 210.2117004394531 292.9773864746094 211.6534271240234 292.0230712890625 212.7253112792969 C 290.1054382324219 214.8792114257812 288.115478515625 215.3313293457031 286.7837524414062 215.3313293457031 C 284.9534912109375 215.3313293457031 283.2030334472656 214.5266418457031 281.5810852050781 212.9396209716797 C 280.2755432128906 211.6623840332031 279.4404602050781 209.9976959228516 279.166259765625 208.1257171630859 C 278.9691162109375 206.7798461914062 279.0527648925781 205.3145904541016 279.4149169921875 203.7705993652344 C 279.8881530761719 201.7531280517578 280.7133483886719 200.12890625 281.0228881835938 199.5626678466797 C 282.307373046875 196.6803741455078 284.656494140625 195.0322723388672 287.494873046875 195.0322723388672 Z" stroke="none" fill="#d82221"/>
                </g>
                <g id="Path_6" data-name="Path 6" transform="translate(-237.437 -180.447)" fill="#fff" stroke-linecap="round" stroke-linejoin="round">
                  <path d="M 301.7437744140625 233.4717254638672 C 301.7436828613281 233.4717254638672 301.74365234375 233.4717254638672 301.7435607910156 233.4717254638672 C 301.0520324707031 233.4717102050781 300.3652648925781 233.3319854736328 299.702392578125 233.0564575195312 C 297.9627380371094 232.3329925537109 296.7698059082031 230.7821044921875 296.2523193359375 228.5713195800781 C 295.9067077636719 227.0948486328125 295.98046875 225.8234252929688 295.989990234375 225.6833190917969 L 295.9956970214844 225.5996704101562 L 296.0098266601562 225.5170288085938 C 296.5897521972656 222.1268310546875 297.5208740234375 219.5115661621094 298.7773742675781 217.7438507080078 C 300.4266662597656 215.423583984375 302.3401184082031 214.9365386962891 303.6548767089844 214.9365386962891 C 305.0535583496094 214.9365386962891 306.4646911621094 215.4658355712891 307.8490600585938 216.5097198486328 C 309.0584716796875 217.4215240478516 310.4178161621094 219.1657562255859 310.0252075195312 222.296875 C 309.7958984375 224.1257171630859 309.0501403808594 225.8904113769531 308.5055847167969 227.1789398193359 C 308.3051452636719 227.6533050537109 308.1157836914062 228.1013488769531 308.0469360351562 228.340087890625 C 307.7275390625 229.4461669921875 306.9528503417969 230.6678771972656 305.9745178222656 231.6085815429688 C 304.7069091796875 232.8274536132812 303.243896484375 233.4717254638672 301.7437744140625 233.4717254638672 Z" stroke="none"/>
                  <path d="M 301.7436218261719 231.8193969726562 C 304.1208190917969 231.8194885253906 306.0229187011719 229.3934173583984 306.4593200683594 227.8821105957031 C 306.978515625 226.0822296142578 310.3992004394531 220.5016784667969 306.854248046875 217.8290252685547 C 305.8072204589844 217.0395202636719 304.7151794433594 216.5888824462891 303.6548767089844 216.5888824462891 C 301.1251525878906 216.5888824462891 298.7748107910156 219.1527099609375 297.6385192871094 225.7956237792969 C 297.6385192871094 225.7956237792969 297.3329162597656 230.2815551757812 300.3366088867188 231.5306701660156 C 300.8182983398438 231.7308959960938 301.2896728515625 231.8193817138672 301.7436218261719 231.8193969726562 M 301.7437438964844 235.1240692138672 C 301.7437133789062 235.1240692138672 301.7435607910156 235.1240692138672 301.7435607910156 235.1240692138672 C 300.8332214355469 235.1240539550781 299.93310546875 234.9417572021484 299.0681762695312 234.5822143554688 C 296.8491821289062 233.659423828125 295.2779541015625 231.6585388183594 294.6434631347656 228.9479064941406 C 294.2512512207031 227.2722320556641 294.3230895996094 225.8409271240234 294.3414916992188 225.5710144042969 C 294.3490600585938 225.4595642089844 294.3623046875 225.3485565185547 294.3811340332031 225.2384338378906 C 295.0119934082031 221.5505065917969 296.0094604492188 218.7858734130859 297.4306030273438 216.7865447998047 C 298.2136535644531 215.6849060058594 299.1287231445312 214.8261260986328 300.1503295898438 214.2340545654297 C 301.2378845214844 213.6037750244141 302.4169921875 213.2841949462891 303.6548767089844 213.2841949462891 C 305.3957214355469 213.2841949462891 307.1900634765625 213.943359375 308.8438720703125 215.1904144287109 C 310.0818481445312 216.1237640380859 310.9391174316406 217.3327941894531 311.3916931152344 218.7838287353516 C 311.7415771484375 219.9056549072266 311.8334350585938 221.1567840576172 311.6647033691406 222.5024566650391 C 311.4069519042969 224.5582275390625 310.6097106933594 226.4447021484375 310.0276184082031 227.8221588134766 C 309.8811950683594 228.1685791015625 309.6806945800781 228.6430358886719 309.6341857910156 228.7992248535156 C 309.2321472167969 230.1914825439453 308.3156433105469 231.649658203125 307.1197814941406 232.799560546875 C 305.5608825683594 234.2985382080078 303.651611328125 235.1240692138672 301.7437438964844 235.1240692138672 Z" stroke="none" fill="#d82221"/>
                </g>
                <g id="Path_7" data-name="Path 7" transform="translate(-247.243 -193.988)" fill="#fff" stroke-linecap="round" stroke-linejoin="round">
                  <path d="M 318.7555541992188 252.2772979736328 C 318.7554016113281 252.2772979736328 318.7554321289062 252.2772979736328 318.7553100585938 252.2772979736328 C 316.9573364257812 252.2772064208984 315.2604064941406 251.3274078369141 314.2159423828125 249.736572265625 C 313.0507202148438 247.9618072509766 312.9114074707031 245.7229309082031 313.8337097167969 243.5940399169922 C 314.5721130371094 241.8901062011719 315.4955749511719 240.6149139404297 316.5784912109375 239.8037414550781 C 317.48974609375 239.1211700439453 318.5299377441406 238.7603759765625 319.586669921875 238.7603759765625 C 320.591552734375 238.7603759765625 321.3153686523438 239.0862121582031 321.5139465332031 239.1863250732422 C 322.7922668457031 239.8212890625 324.5458679199219 240.9037170410156 325.0516052246094 242.9666137695312 C 325.4203796386719 244.4709014892578 325.0780029296875 246.1970367431641 323.9413757324219 248.5634765625 C 322.8079528808594 250.9235992431641 320.9176940917969 252.2772979736328 318.7555541992188 252.2772979736328 Z" stroke="none"/>
                  <path d="M 319.586669921875 240.4127197265625 C 318.4623413085938 240.4126129150391 316.7430725097656 241.0359649658203 315.3498840332031 244.2509002685547 C 313.8580627441406 247.6943206787109 316.1953125 250.6249542236328 318.75537109375 250.6249542236328 C 320.1003723144531 250.6249542236328 321.5067443847656 249.8162536621094 322.4519348144531 247.8480987548828 C 324.3196105957031 243.9595489501953 323.796875 242.1634979248047 320.7728881835938 240.6631927490234 C 320.7728881835938 240.6631927490234 320.2991333007812 240.4127807617188 319.586669921875 240.4127197265625 M 319.5863342285156 237.1080322265625 C 319.5863952636719 237.1080322265625 319.5863952636719 237.1080322265625 319.5863952636719 237.1080322265625 C 320.9046325683594 237.1081695556641 321.8632202148438 237.5104522705078 322.2622375488281 237.7130737304688 C 323.3542785644531 238.2568969726562 324.2163391113281 238.8487854003906 324.8972778320312 239.5221557617188 C 325.7829284667969 240.3979644775391 326.3747863769531 241.4244689941406 326.6564025878906 242.5731811523438 C 327.2540283203125 245.0107727050781 326.3153381347656 247.437255859375 325.4308166503906 249.2788696289062 C 324.7343444824219 250.7291564941406 323.7998657226562 251.8730163574219 322.6535034179688 252.6785125732422 C 321.4886169433594 253.4970092773438 320.1406555175781 253.9296417236328 318.75537109375 253.9296417236328 C 316.3990478515625 253.9296417236328 314.1857604980469 252.7012329101562 312.8348083496094 250.6436462402344 C 311.3584289550781 248.3950653076172 311.169921875 245.5861663818359 312.3175354003906 242.9371795654297 C 314.5154418945312 237.8652954101562 317.8151245117188 237.1080322265625 319.5863952636719 237.1080322265625 L 319.5863342285156 237.1080322265625 Z" stroke="none" fill="#d82221"/>
                </g>
                <path id="Path_8" data-name="Path 8" d="M194.984,297.456s2.57-12.172.855-19.237-7.144-11.739-8.333-19.2-2.071-20.369-5.9-25.528-5.473-5.5-3.7-8.733,8.583-.487,13.187,5.678,5.83,13.012,8.054,17.566,9.894,15.014,12.394,17.176,6.685,3.387,8.265,5.517" transform="translate(-168.986 -184.313)" fill="#fff" stroke="#d82221" stroke-linecap="round" stroke-linejoin="round" stroke-width="3.305"/>
              </g>
            </g>
            <g id="Group_4" data-name="Group 4" transform="translate(49.277 49.289)">
              <path id="Path_9" data-name="Path 9" d="M220.662,212.566c.092-.262.186-.524.274-.787a4.943,4.943,0,0,1,2.109-2.611,1.9,1.9,0,0,1,1.989-.074,6.1,6.1,0,0,1,3.326,4.162c.274,1.174-.016,1.655-1.1,2.171-.176.084-.343.186-.485.264l4.7,5.761c.123-.155.287-.356.443-.562a1.478,1.478,0,0,1,1.955-.607,5.947,5.947,0,0,1,3.718,4.56,1.747,1.747,0,0,1-.514,1.588,5.215,5.215,0,0,1-5.247,1.424,13.474,13.474,0,0,1-7.082-4.6A15.955,15.955,0,0,1,220.8,215.9c-.141-.674-.182-1.369-.269-2.054Q220.595,213.208,220.662,212.566Zm12.418,14.124a3.671,3.671,0,0,0,2.752-.921,1,1,0,0,0,.328-1.27,5.592,5.592,0,0,0-1.926-2.531c-.811-.591-.939-.563-1.582.18a1.5,1.5,0,0,1-2.53.017q-2.168-2.652-4.3-5.33a2.07,2.07,0,0,1-.408-.88c-.135-.74.274-1.334,1.206-1.707a.6.6,0,0,0,.417-.871,5.092,5.092,0,0,0-2.488-3.019.992.992,0,0,0-.821,0,3.335,3.335,0,0,0-1.545,1.929,6.463,6.463,0,0,0,.04,3.812,16.379,16.379,0,0,0,5.991,8.544A9.354,9.354,0,0,0,233.08,226.689Z" transform="translate(-220.528 -206.243)" fill="#fff"/>
              <path id="Path_10" data-name="Path 10" d="M256.841,213.864c-.018.167-.024.233-.031.3-.056.476-.319.744-.71.723-.436-.022-.644-.316-.654-.821a16.355,16.355,0,0,0-.12-2.515,9.051,9.051,0,0,0-7.773-7.37c-.611-.079-.861-.325-.8-.784s.389-.649.978-.566a10.47,10.47,0,0,1,9.1,10.292C256.835,213.4,256.839,213.684,256.841,213.864Z" transform="translate(-235.428 -202.811)" fill="#fff"/>
              <path id="Path_11" data-name="Path 11" d="M246.795,210.89a7,7,0,0,1,6.068,7.424c-.037.541-.3.823-.747.789s-.638-.311-.607-.843a5.635,5.635,0,0,0-4.9-6.043c-.537-.081-.764-.329-.7-.764S246.29,210.823,246.795,210.89Z" transform="translate(-234.95 -207.396)" fill="#fff"/>
              <path id="Path_12" data-name="Path 12" d="M248.843,222.637c-.041.506-.271.752-.685.733-.435-.021-.64-.268-.634-.766a2.16,2.16,0,0,0-1.892-2.3c-.529-.125-.8-.6-.5-.983a.943.943,0,0,1,.708-.3A3.374,3.374,0,0,1,248.843,222.637Z" transform="translate(-234.44 -212.025)" fill="#fff"/>
            </g>
          </g>
        </g>
      </g>
    </g>
  </g>
</svg>
