<svg xmlns="http://www.w3.org/2000/svg" width="19" height="19" viewBox="0 0 19 19">
  <g id="contact-drawer" transform="translate(-35 -629)">
    <rect id="Rectangle" width="19" height="19" transform="translate(35 629)" opacity="0"/>
    <path id="Path_127748" data-name="Path 127748" d="M16.9,22.31a2.268,2.268,0,0,0-.881-.777c.12-1.578-.362-2.9-1.1-2.961l-.027,0a6.877,6.877,0,0,0-13.748,0l-.027,0C.371,18.64-.118,20,.025,21.614s.865,2.869,1.611,2.8h0l2.437-.212a.78.78,0,0,0,.528-.273.765.765,0,0,0,.179-.563L4.4,19.064a.776.776,0,0,0-.843-.7l-.645.056a5.12,5.12,0,0,1,10.217,0l-.644-.056a.776.776,0,0,0-.843.7l-.382,4.306a.766.766,0,0,0,.179.563.78.78,0,0,0,.528.273l2.437.212h0c.549.048,1.083-.622,1.385-1.619a1.078,1.078,0,0,1,.13.152,1.089,1.089,0,0,1,.09,1.043l-.774,1.764a1.48,1.48,0,0,1-1.357.882H12.835a.663.663,0,0,0-.632-.472h-1.93a.669.669,0,0,0-.672.666V27.6a.669.669,0,0,0,.672.666H12.2a.663.663,0,0,0,.632-.472h1.041a2.652,2.652,0,0,0,2.433-1.581l.774-1.764A2.239,2.239,0,0,0,16.9,22.31Z" transform="translate(35.864 618.867)"/>
  </g>
</svg>
