<svg xmlns="http://www.w3.org/2000/svg" width="24" height="24.005" viewBox="0 0 24 24.005">
  <path id="contact-us" d="M24,4.564V23.941a2.288,2.288,0,0,1-2.314,2.314H2.314A2.3,2.3,0,0,1,0,23.936V4.564A2.288,2.288,0,0,1,2.314,2.25H21.691A2.287,2.287,0,0,1,24,4.564ZM22,23.936V4.564a.318.318,0,0,0-.311-.311h-.5l-5.909,4L12,5.577,8.721,8.25l-5.909-4h-.5A.318.318,0,0,0,2,4.559V23.936a.318.318,0,0,0,.311.311H21.691A.311.311,0,0,0,22,23.936ZM8.046,10.5v1.982H4.109V10.5Zm0,3.986v2H4.109v-2Zm.595-7.891,2.893-2.341H5.186L8.641,6.595ZM19.891,10.5v1.982H9.391V10.5Zm0,3.986v2H9.391v-2ZM15.359,6.595l3.455-2.341H12.471l2.887,2.341Zm4.532,11.887v2H14.566v-2h5.325Z" transform="translate(0 -2.25)" fill="#fff"/>
</svg>
