<svg xmlns="http://www.w3.org/2000/svg" width="27.498" height="27.497" viewBox="0 0 27.498 27.497">
  <g id="credit-card" transform="translate(0 -0.011)">
    <g id="Group_9485" data-name="Group 9485" transform="translate(0 0.011)">
      <g id="Group_9484" data-name="Group 9484" transform="translate(0 0)">
        <path id="Path_4231" data-name="Path 4231" d="M26.768,9.447,18.061.74a2.5,2.5,0,0,0-3.53,0l-13.8,13.8a2.5,2.5,0,0,0,0,3.53L1.8,19.145h0l7.216,7.216h-1a.573.573,0,1,0,0,1.146H19.477a.573.573,0,1,0,0-1.146H13.383L26.768,12.977A2.5,2.5,0,0,0,26.768,9.447Zm-.81,2.72-13.8,13.8a1.341,1.341,0,0,1-.953.393h0a1.34,1.34,0,0,1-.953-.393L3.018,18.74,16.273,5.486a.573.573,0,1,0-.81-.81L2.208,17.93l-.669-.669a1.356,1.356,0,0,1,0-1.91l13.8-13.8a1.356,1.356,0,0,1,1.91,0l3.1,3.1L7.095,17.9a.573.573,0,0,0,.81.81L21.16,5.459l4.8,4.8A1.352,1.352,0,0,1,25.958,12.167Z" transform="translate(0 -0.011)"/>
        <path id="Path_4232" data-name="Path 4232" d="M166.144,305.108a.573.573,0,0,0-.81,0l-4.508,4.508a.573.573,0,1,0,.81.81l4.508-4.508A.573.573,0,0,0,166.144,305.108Z" transform="translate(-152.03 -288.564)"/>
        <path id="Path_4233" data-name="Path 4233" d="M192.843,384.784l-1.849,1.849a.573.573,0,1,0,.81.81l1.849-1.849a.573.573,0,0,0-.81-.81Z" transform="translate(-180.578 -363.961)"/>
        <path id="Path_4234" data-name="Path 4234" d="M252.815,353.109l-.243.243a.573.573,0,1,0,.81.81l.243-.243a.573.573,0,1,0-.81-.81Z" transform="translate(-238.848 -333.987)"/>
        <path id="Path_4235" data-name="Path 4235" d="M347.018,160.837a.573.573,0,0,0-.81,0l-2.431,2.43a.573.573,0,0,0,0,.81l1.62,1.62a.573.573,0,0,0,.81,0l2.43-2.43a.573.573,0,0,0,0-.81Zm-1.215,3.646-.81-.81,1.62-1.62.81.81Z" transform="translate(-325.156 -152.041)"/>
        <path id="Path_4236" data-name="Path 4236" d="M310.246,55.716a.571.571,0,0,0,.405-.168l.243-.243a.573.573,0,0,0-.81-.81l-.243.243a.573.573,0,0,0,.405.978Z" transform="translate(-293.041 -51.41)"/>
        <path id="Path_4237" data-name="Path 4237" d="M99.977,355.1l-.243.243a.573.573,0,0,0,.81.81l.243-.243a.573.573,0,1,0-.81-.81Z" transform="translate(-94.219 -335.871)"/>
      </g>
    </g>
  </g>
</svg>
