<svg xmlns="http://www.w3.org/2000/svg" width="16" height="12" viewBox="0 0 16 12">
  <path id="credit-card" d="M16,66.254v1.22a.269.269,0,0,1-.267.271H.267A.269.269,0,0,1,0,67.475v-1.22a.269.269,0,0,1,.267-.271H15.734A.269.269,0,0,1,16,66.254Zm0-1.085v-.814A1.345,1.345,0,0,0,14.667,63H1.333A1.345,1.345,0,0,0,0,64.356v.814a.269.269,0,0,0,.267.271H15.734A.269.269,0,0,0,16,65.169Zm-3.153,5.37a.273.273,0,0,0-.2.367,1.446,1.446,0,0,1,0,1,.272.272,0,0,0,.195.365.879.879,0,1,0,.008-1.733ZM.267,68.288H15.734a.269.269,0,0,1,.267.271v5.085A1.345,1.345,0,0,1,14.667,75H1.333A1.345,1.345,0,0,1,0,73.644V68.559A.269.269,0,0,1,.267,68.288Zm4.667,3.966a.269.269,0,0,0-.267-.271H2.433a.271.271,0,0,0,0,.542H4.667A.269.269,0,0,0,4.933,72.254Zm0-1.695a.269.269,0,0,0-.267-.271H2.433a.271.271,0,0,0,0,.542H4.667A.269.269,0,0,0,4.933,70.559Zm9.467.847a1.4,1.4,0,0,0-2.233-1.143,1.409,1.409,0,1,0,0,2.287A1.4,1.4,0,0,0,14.4,71.407Z" transform="translate(0 -63)" fill="#d82221"/>
</svg>
