<svg xmlns="http://www.w3.org/2000/svg" width="61.994" height="56.014" viewBox="0 0 61.994 56.014">
  <path id="cutlery" d="M5620.8,550.447a2.648,2.648,0,0,1,0,3.772,2.714,2.714,0,0,1-3.811,0l-21.417-21.2-21.108,21.186a2.715,2.715,0,0,1-3.812.026,2.648,2.648,0,0,1-.026-3.772l21.136-21.213-3.593-3.556-.572.566a9.15,9.15,0,0,1-12.847,0l-8.949-8.776a2.647,2.647,0,0,1-.018-3.772,2.716,2.716,0,0,1,3.812-.017l8.958,8.785a3.721,3.721,0,0,0,5.233.009l.573-.567-11.529-11.412a2.648,2.648,0,0,1,0-3.772,2.715,2.715,0,0,1,3.811,0l11.528,11.412.656-.649a3.636,3.636,0,0,0,0-5.172l-8.95-8.776a2.647,2.647,0,0,1-.018-3.772,2.714,2.714,0,0,1,3.811-.017l8.958,8.785a8.939,8.939,0,0,1,.009,12.724l-.656.65,3.566,3.53,23.749-23.835a2.714,2.714,0,0,1,3.825-.013c5.976,5.915,4.984,14.246-2.587,21.74l-9.1,9.021a2.714,2.714,0,0,1-3.812,0,2.648,2.648,0,0,1,0-3.772l9.1-9.022c5.474-5.419,5.34-9.463,4.174-11.964l-21.537,21.615Z" transform="translate(-5564.997 -498.986)"/>
</svg>
