<svg id="date" xmlns="http://www.w3.org/2000/svg" width="13.5" height="15" viewBox="0 0 13.5 15">
  <path id="Path_45452" data-name="Path 45452" d="M31.468,2.461a.983.983,0,0,0-.73-.318H29.7v-.8a1.311,1.311,0,0,0-.381-.946A1.231,1.231,0,0,0,28.4,0h-.519a1.231,1.231,0,0,0-.917.394,1.31,1.31,0,0,0-.381.946v.8H23.469v-.8a1.31,1.31,0,0,0-.381-.946A1.231,1.231,0,0,0,22.17,0h-.519a1.231,1.231,0,0,0-.917.394,1.311,1.311,0,0,0-.381.946v.8H19.315a.983.983,0,0,0-.73.318,1.046,1.046,0,0,0-.308.753V13.929a1.046,1.046,0,0,0,.308.753.983.983,0,0,0,.73.318H30.738a.983.983,0,0,0,.73-.318,1.046,1.046,0,0,0,.308-.753V3.214A1.046,1.046,0,0,0,31.468,2.461ZM27.622,1.339a.265.265,0,0,1,.073-.193.249.249,0,0,1,.187-.075H28.4a.249.249,0,0,1,.187.075.265.265,0,0,1,.073.193V3.75a.265.265,0,0,1-.073.193.249.249,0,0,1-.187.075h-.519a.249.249,0,0,1-.187-.075.265.265,0,0,1-.073-.193Zm-6.231,0a.265.265,0,0,1,.073-.193.249.249,0,0,1,.187-.075h.519a.248.248,0,0,1,.187.075.265.265,0,0,1,.073.193V3.75a.265.265,0,0,1-.073.193.249.249,0,0,1-.187.075h-.519a.248.248,0,0,1-.187-.075.266.266,0,0,1-.073-.193Zm9.346,12.589H19.315V5.357H30.738Z" transform="translate(-18.276 0)"/>
</svg>
