<svg xmlns="http://www.w3.org/2000/svg" width="34.619" height="34.67" viewBox="0 0 34.619 34.67">
  <g id="delivered" transform="translate(-608.704 -181.288)">
    <path id="SVGCleanerId_0" data-name="SVGCleanerId 0" d="M617.055,181.288a2.389,2.389,0,0,0-2.387,2.392v25.1l16.718.005v4.056a3.074,3.074,0,0,0,2.691,3.1,2.987,2.987,0,0,0,3.278-2.976V184.277a2.986,2.986,0,0,1,2.984-2.989Z" fill="#e6e7e8"/>
    <g id="Group_13" data-name="Group 13">
      <path id="SVGCleanerId_0-2" data-name="SVGCleanerId 0" d="M617.055,181.288a2.389,2.389,0,0,0-2.387,2.392v25.1l16.718.005v4.056a3.074,3.074,0,0,0,2.691,3.1,2.987,2.987,0,0,0,3.278-2.976V184.277a2.986,2.986,0,0,1,2.984-2.989Z" fill="#e6e7e8"/>
    </g>
    <g id="Group_14" data-name="Group 14">
      <path id="Path_43" data-name="Path 43" d="M640.338,181.288h0a2.987,2.987,0,0,0-2.984,2.989v4.189h4.769a1.2,1.2,0,0,0,1.2-1.2v-2.988a2.987,2.987,0,0,0-2.985-2.989" fill="#b0b6bb"/>
      <path id="Path_44" data-name="Path 44" d="M634.369,215.958h0a2.987,2.987,0,0,1-2.984-2.989v-4.184L609.9,208.78a1.2,1.2,0,0,0-1.2,1.2v2.988a2.987,2.987,0,0,0,2.984,2.989Z" fill="#b0b6bb"/>
      <path id="Path_45" data-name="Path 45" d="M629.595,185.473h-7.162a.6.6,0,0,1,0-1.2h7.162a.6.6,0,0,1,0,1.2" fill="#b0b6bb"/>
      <path id="Path_46" data-name="Path 46" d="M633.772,189.059H618.254a.6.6,0,0,1,0-1.2h15.519a.6.6,0,0,1,0,1.2" fill="#b0b6bb"/>
      <path id="Path_47" data-name="Path 47" d="M633.772,192.646H618.254a.6.6,0,0,1,0-1.2h15.519a.6.6,0,0,1,0,1.2" fill="#b0b6bb"/>
      <path id="Path_48" data-name="Path 48" d="M625.4,196.232h-7.144a.6.6,0,0,1,0-1.2H625.4a.6.6,0,0,1,0,1.2" fill="#b0b6bb"/>
      <path id="Path_49" data-name="Path 49" d="M623.148,199.819h-4.895a.6.6,0,0,1,0-1.2h4.895a.6.6,0,0,1,0,1.2" fill="#b0b6bb"/>
      <path id="Path_50" data-name="Path 50" d="M623.526,203.4h-5.272a.6.6,0,0,1,0-1.2h5.272a.6.6,0,0,1,0,1.2" fill="#b0b6bb"/>
    </g>
    <path id="Path_51" data-name="Path 51" d="M634.966,200.417A5.968,5.968,0,1,0,629,206.394a5.972,5.972,0,0,0,5.968-5.978" fill="#92c83e"/>
    <path id="Path_52" data-name="Path 52" d="M628.4,204a.593.593,0,0,1-.422-.175l-2.388-2.391a.6.6,0,0,1,.844-.845l1.873,1.875,3.177-4.773a.6.6,0,1,1,.993.663l-3.581,5.38a.6.6,0,0,1-.438.263.556.556,0,0,1-.059,0" fill="#fff"/>
  </g>
</svg>
