<svg xmlns="http://www.w3.org/2000/svg" width="39.646" height="39.646" viewBox="0 0 39.646 39.646">
  <g id="direct-sell" transform="translate(0 0)">
    <g id="Group_9556" data-name="Group 9556" transform="translate(0 0)">
      <g id="Group_9555" data-name="Group 9555" transform="translate(0 0)">
        <path id="Path_4295" data-name="Path 4295" d="M39.619,1.325l-.006-.02a1.659,1.659,0,0,0-.136-.382c-.016-.031-.031-.062-.049-.093a1.625,1.625,0,0,0-.26-.351,1.629,1.629,0,0,0-.352-.26c-.03-.017-.059-.032-.091-.048a1.657,1.657,0,0,0-.392-.14l-.01,0A1.656,1.656,0,0,0,37.9,0c-.031,0-.063,0-.094.009a1.645,1.645,0,0,0-.428.1L1.027,14.987A1.652,1.652,0,0,0,1.178,18.1l15.669,4.7,4.7,15.669a1.653,1.653,0,0,0,1.5,1.175l.081,0a1.653,1.653,0,0,0,1.529-1.027L39.529,2.272v0a1.615,1.615,0,0,0,.1-.42c0-.036.008-.07.01-.106A1.669,1.669,0,0,0,39.619,1.325ZM6.6,16.275,31.025,6.284,17.7,19.606ZM23.37,33.044l-3.33-11.1L33.36,8.622Z" transform="translate(0 0)" fill="#fff"/>
      </g>
    </g>
    <g id="Group_9558" data-name="Group 9558" transform="translate(7.435 24.777)">
      <g id="Group_9557" data-name="Group 9557">
        <path id="Path_4296" data-name="Path 4296" d="M78.955,240.432a1.652,1.652,0,0,0-2.336,0l-4.13,4.13a1.652,1.652,0,1,0,2.336,2.336l4.13-4.13A1.652,1.652,0,0,0,78.955,240.432Z" transform="translate(-72.005 -239.948)" fill="#fff"/>
      </g>
    </g>
    <g id="Group_9560" data-name="Group 9560" transform="translate(0.001 24.777)">
      <g id="Group_9559" data-name="Group 9559">
        <path id="Path_4297" data-name="Path 4297" d="M5.3,240.432a1.652,1.652,0,0,0-2.336,0L.489,242.91a1.652,1.652,0,1,0,2.336,2.336L5.3,242.768A1.652,1.652,0,0,0,5.3,240.432Z" transform="translate(-0.005 -239.948)" fill="#fff"/>
      </g>
    </g>
    <g id="Group_9562" data-name="Group 9562" transform="translate(9.087 33.863)">
      <g id="Group_9561" data-name="Group 9561">
        <path id="Path_4298" data-name="Path 4298" d="M93.3,328.432a1.652,1.652,0,0,0-2.336,0l-2.478,2.478a1.652,1.652,0,1,0,2.336,2.336l2.478-2.478A1.652,1.652,0,0,0,93.3,328.432Z" transform="translate(-88.005 -327.948)" fill="#fff"/>
      </g>
    </g>
  </g>
</svg>
