<svg id="Layer_10" xmlns="http://www.w3.org/2000/svg" width="11" height="11" viewBox="0 0 11 11">
  <g id="Group_62829" data-name="Group 62829">
    <path id="Path_43736" data-name="Path 43736" d="M11.989,1.279a.336.336,0,0,0-.033-.084.149.149,0,0,0-.018-.033s-.007-.011-.015-.015a.16.16,0,0,0-.07-.07c0-.007-.011-.011-.015-.015a.149.149,0,0,0-.033-.018.336.336,0,0,0-.084-.033A.362.362,0,0,0,11.633,1a.281.281,0,0,0-.092.015.157.157,0,0,0-.051.015l-.062.029L1.224,5.429A.363.363,0,0,0,1,5.763a.371.371,0,0,0,.216.337L5.125,7.875,6.9,11.784A.366.366,0,0,0,7.233,12h0a.363.363,0,0,0,.334-.224L11.96,1.535c0-.007.007-.018.011-.026a.157.157,0,0,0,.015-.051A.253.253,0,0,0,12,1.367.362.362,0,0,0,11.989,1.279Z" transform="translate(-1 -1)" fill="#c5cee0"/>
    <g id="Group_62828" data-name="Group 62828" transform="translate(4.125 0.044)">
      <path id="Path_43737" data-name="Path 43737" d="M7.875,1.55a.253.253,0,0,1-.015.092.157.157,0,0,1-.015.051c0,.007-.007.018-.011.026L3.446,11.96a.363.363,0,0,1-.334.224h0a.366.366,0,0,1-.334-.216L1,8.059,7.769,1.29a.163.163,0,0,1,.029.04.186.186,0,0,1,.033.048.336.336,0,0,1,.033.084A.362.362,0,0,1,7.875,1.55Z" transform="translate(-1 -1.228)" fill="#b8c1d2"/>
      <path id="Path_43738" data-name="Path 43738" d="M1.448,1.153A.186.186,0,0,0,1.4,1.12a.149.149,0,0,1,.033.018S1.444,1.146,1.448,1.153Z" transform="translate(5.281 -1.12)" fill="#b8c1d2"/>
    </g>
  </g>
</svg>
