<svg xmlns="http://www.w3.org/2000/svg" width="37.157" height="37.157" viewBox="0 0 37.157 37.157">
  <path id="dollar-blue" d="M21.579,3A18.579,18.579,0,1,0,40.157,21.579,18.585,18.585,0,0,0,21.579,3ZM24.2,32.893v3.549h-4.96V32.856c-3.177-.669-5.871-2.712-6.075-6.317H16.8c.186,1.951,1.523,3.474,4.923,3.474,3.641,0,4.459-1.821,4.459-2.954,0-1.542-.817-2.991-4.96-3.976-4.607-1.115-7.766-3.01-7.766-6.818,0-3.2,2.582-5.276,5.778-5.964V6.716H24.2v3.623a6.568,6.568,0,0,1,5.295,6.3H25.852c-.093-2.062-1.189-3.474-4.124-3.474-2.787,0-4.459,1.263-4.459,3.047,0,1.561,1.208,2.582,4.96,3.549s7.766,2.582,7.766,7.264c-.019,3.4-2.564,5.258-5.8,5.871Z" transform="translate(-3 -3)" fill="#1fa5f4"/>
</svg>
