<svg id="dollar" xmlns="http://www.w3.org/2000/svg" width="14.811" height="14.812" viewBox="0 0 14.811 14.812">
  <path id="Path_127728" data-name="Path 127728" d="M-2390.6-2094.614a7.413,7.413,0,0,1-5.476-2.419,7.42,7.42,0,0,1,.49-10.467,7.441,7.441,0,0,1,4.986-1.925,7.6,7.6,0,0,1,2.192.327,7.462,7.462,0,0,1,5.067,5.583,7.753,7.753,0,0,1,.149,1.5,7.387,7.387,0,0,1-2.423,5.479A7.393,7.393,0,0,1-2390.6-2094.614Zm-1.511-6.535a.553.553,0,0,0-.543.561,2.129,2.129,0,0,0,1.523,2.046v.488a.553.553,0,0,0,.544.561.553.553,0,0,0,.544-.561v-.493a2.135,2.135,0,0,0,1.425-2.612,2.074,2.074,0,0,0-1.981-1.542.982.982,0,0,1-.969-.993.981.981,0,0,1,.969-1,.985.985,0,0,1,.969,1,.553.553,0,0,0,.544.561.554.554,0,0,0,.544-.561,2.118,2.118,0,0,0-1.5-2.04v-.252a.553.553,0,0,0-.544-.561.554.554,0,0,0-.545.561v.242a2.131,2.131,0,0,0-1.458,2.589,2.065,2.065,0,0,0,1.981,1.569.982.982,0,0,1,.969.993.982.982,0,0,1-.964,1,.982.982,0,0,1-.969-.992A.553.553,0,0,0-2392.107-2101.149Z" transform="translate(2397.999 2109.426)"/>
</svg>
