<svg xmlns="http://www.w3.org/2000/svg" width="45" height="45" viewBox="0 0 45 45">
  <g id="Group_22383" data-name="Group 22383" transform="translate(-40 -319)">
    <rect id="Rectangle_11354" data-name="Rectangle 11354" width="45" height="45" rx="22.5" transform="translate(40 319)" fill="#d82221" opacity="0.1"/>
    <g id="back" transform="translate(56 349) rotate(-90)">
      <g id="Group_21026" data-name="Group 21026" transform="translate(0)">
        <path id="Path_127158" data-name="Path 127158" d="M14.1,7.564a1.061,1.061,0,0,1-.186.014H3.331l.231.108a2.147,2.147,0,0,1,.606.434l2.968,3a1.131,1.131,0,0,1,.156,1.437,1.066,1.066,0,0,1-1.5.234,1.077,1.077,0,0,1-.11-.093L.315,7.274a1.093,1.093,0,0,1,0-1.534h0L5.681.317A1.065,1.065,0,0,1,7.2.319a1.084,1.084,0,0,1,.092.106,1.131,1.131,0,0,1-.156,1.437l-2.962,3a2.148,2.148,0,0,1-.537.4l-.322.146H13.854a1.113,1.113,0,0,1,1.132.911A1.083,1.083,0,0,1,14.1,7.564Z" fill="#d82221"/>
      </g>
    </g>
  </g>
</svg>
