<svg xmlns="http://www.w3.org/2000/svg" width="54" height="51" viewBox="0 0 54 51">
  <path id="e-stores" d="M5427.478,535.006a2.042,2.042,0,0,0-2.055-2.029h-7.63a2.042,2.042,0,0,0-2.054,2.029v7.534a2.042,2.042,0,0,0,2.054,2.029h7.63a2.042,2.042,0,0,0,2.055-2.029Zm-7.631,2.028h3.522v3.477h-3.522Zm37.49-19.489-5.208-5.209v-6.017a2.362,2.362,0,0,0-2.38-2.318h-37.5a2.364,2.364,0,0,0-2.383,2.318v6.017l-5.207,5.209a2.288,2.288,0,0,0-.663,1.631v5.887a2.174,2.174,0,0,0,2.348,2.119h49.3a2.173,2.173,0,0,0,2.348-2.119v-5.887A2.286,2.286,0,0,0,5457.337,517.545Zm-9.9-8.909v2.9h-32.869v-2.9Zm5.87,13.909h-44.609v-2.416l4.826-4.539h34.958l4.824,4.539Zm1.174,9.324v20.812a2.335,2.335,0,0,1-2.35,2.318h-8.052a2.246,2.246,0,0,1-2.348-2.211V540.511h-5.445v12.17a2.371,2.371,0,0,1-2.391,2.318h-23.978a2.372,2.372,0,0,1-2.392-2.318V531.87a2.348,2.348,0,0,1,4.7,0v18.494h19.37V537.979a2.124,2.124,0,0,1,2.3-2.1h10.183a2.026,2.026,0,0,1,2.187,2.1v12.384h3.522V531.87a2.348,2.348,0,0,1,4.7,0Z" transform="translate(-5404 -504)" fill="#ffba00"/>
</svg>
