<svg xmlns="http://www.w3.org/2000/svg" width="16" height="19.977" viewBox="0 0 16 19.977">
  <g id="_01_Icons_Filled_arrow-circle-down-fill_Copy" data-name="01) Icons/Filled/arrow-circle-down-fill Copy" transform="translate(-4 -2)">
    <path id="_Icon_Сolor" data-name="🎨 Icon Сolor" d="M15,19.977H1a1,1,0,0,1,0-2H15a1,1,0,0,1,0,2Zm-14-4a1,1,0,0,1-1-1.09l.38-4.17A1.972,1.972,0,0,1,.953,9.5l9-9A1.8,1.8,0,0,1,11.238,0a2.028,2.028,0,0,1,1.427.577L15.4,3.315a1.926,1.926,0,0,1,.069,2.715l-9,9a1.977,1.977,0,0,1-1.213.57l-4.171.379ZM7.984,5.3h0L2.367,10.918,2.1,13.873,5.08,13.6,10.68,8l-2.7-2.7Zm3.288-3.289h0L9.324,3.962l2.695,2.695,1.948-1.949L11.272,2.012Z" transform="translate(4 2)" fill="#c5cee0"/>
  </g>
</svg>
