<svg xmlns="http://www.w3.org/2000/svg" width="20" height="20" viewBox="0 0 20 20">
  <g id="email" transform="translate(-47 -477)">
    <rect id="Rectangle_13" data-name="Rectangle 13" width="20" height="20" transform="translate(47 477)" opacity="0"/>
    <g id="Group_8849" data-name="Group 8849" transform="translate(50 482)">
      <path id="Path_45440" data-name="Path 45440" d="M1.344,58.219q.266.188,1.6,1.116t2.047,1.429L5.324,61q.254.184.422.3t.406.254a2.354,2.354,0,0,0,.449.211,1.235,1.235,0,0,0,.391.07h.016a1.236,1.236,0,0,0,.391-.07,2.356,2.356,0,0,0,.449-.211q.238-.141.406-.254t.422-.3q.254-.184.332-.239l3.656-2.545a3.716,3.716,0,0,0,.953-.963A2.072,2.072,0,0,0,14,56.073a1.262,1.262,0,0,0-1.25-1.253H1.25a1.115,1.115,0,0,0-.926.407A1.583,1.583,0,0,0,0,56.245a1.832,1.832,0,0,0,.43,1.069A3.882,3.882,0,0,0,1.344,58.219Z" transform="translate(0 -54.82)"/>
      <path id="Path_45441" data-name="Path 45441" d="M13.219,185.069q-2.562,1.611-3.89,2.5-.445.3-.723.475a4.6,4.6,0,0,1-.738.348,2.394,2.394,0,0,1-.859.178H6.992a2.4,2.4,0,0,1-.859-.178,4.6,4.6,0,0,1-.738-.348q-.277-.17-.723-.475-1.055-.719-3.883-2.5A4.07,4.07,0,0,1,0,184.437V190.2a1.08,1.08,0,0,0,.367.82,1.251,1.251,0,0,0,.883.341h11.5a1.251,1.251,0,0,0,.883-.341A1.08,1.08,0,0,0,14,190.2v-5.763A4.233,4.233,0,0,1,13.219,185.069Z" transform="translate(0 -180.362)"/>
    </g>
  </g>
</svg>
