<svg xmlns="http://www.w3.org/2000/svg" width="172.367" height="159" viewBox="0 0 172.367 159">
  <g id="Group_20888" data-name="Group 20888" transform="translate(-101.634 -373)">
    <g id="Group_20887" data-name="Group 20887">
      <g id="Group_20888-2" data-name="Group 20888" transform="translate(-6829 -486)" opacity="0.3">
        <path id="Path_127133" data-name="Path 127133" d="M7023.323,923.5c15.038-8.43,21.464-23.873,29.95-26.334s16.722-3.446,24.708,6.153,8.359,24.684,4.619,40.718-7.116,23.949-24.585,43.453-45.422,29.78-45.422,29.78-29.638,5.538-43.677-6.891-16.847-30.518-11.48-49.469,32.943-26.334,32.943-26.334S7008.286,931.934,7023.323,923.5Z" transform="translate(0.108 -0.504)" fill="#d1d1d1"/>
        <ellipse id="Ellipse_82" data-name="Ellipse 82" cx="9" cy="8" rx="9" ry="8" transform="translate(7010.614 897.318)" fill="#c8c6c6"/>
        <ellipse id="Ellipse_83" data-name="Ellipse 83" cx="6" cy="4.5" rx="6" ry="4.5" transform="translate(6992.514 909.318)" fill="#c8c6c6"/>
      </g>
      <g id="Group_18990" data-name="Group 18990" transform="translate(-23 216)">
        <path id="Path_125868" data-name="Path 125868" d="M-3062.248,2958.689s-2.767-6.668,2.69-6.844,2.819,6.844,2.819,6.844" transform="translate(3352.103 -2777.583)" fill="none" stroke="#d82221" stroke-linecap="round" stroke-width="2" opacity="0.5"/>
        <path id="Path_125869" data-name="Path 125869" d="M.7,6.847S-2.065.178,3.391,0,6.21,6.847,6.21,6.847" transform="translate(126 208.771) rotate(-30)" fill="none" stroke="#d82221" stroke-linecap="round" stroke-width="2" opacity="0.5"/>
        <path id="Path_125870" data-name="Path 125870" d="M.7,6.847S-2.065.178,3.391,0,6.21,6.847,6.21,6.847" transform="translate(148.483 310) rotate(-150)" fill="none" stroke="#d82221" stroke-linecap="round" stroke-width="2" opacity="0.5"/>
        <path id="Path_125871" data-name="Path 125871" d="M0,8.043,2,3.711l4.42.043L7.694,0" transform="translate(134.083 262.153) rotate(-150)" fill="none" stroke="#ffe600" stroke-linecap="round" stroke-width="2" opacity="0.5"/>
        <circle id="Ellipse_211" data-name="Ellipse 211" cx="3.423" cy="3.423" r="3.423" transform="translate(263.826 302.083)" fill="#ffe600" opacity="0.5"/>
        <circle id="Ellipse_212" data-name="Ellipse 212" cx="3.5" cy="3.5" r="3.5" transform="translate(211.169 157)" fill="#ffe600" opacity="0.5"/>
        <g id="close" transform="translate(286.036 228.689)" opacity="0.5">
          <g id="Group_13686" data-name="Group 13686">
            <path id="Path_31707" data-name="Path 31707" d="M3.168,2.854,5.64.381A.223.223,0,0,0,5.325.066L2.853,2.538.38.066A.223.223,0,1,0,.065.381L2.537,2.854.065,5.326a.223.223,0,0,0,.315.315L2.853,3.169,5.325,5.641a.223.223,0,0,0,.315-.315Z" transform="translate(0 -0.001)" fill="none" stroke="#d82221" stroke-width="1"/>
          </g>
        </g>
      </g>
      <g id="Group_22366" data-name="Group 22366" transform="translate(73.564 177.657)">
        <path id="Path_133699" data-name="Path 133699" d="M100.345,265.07c1.015,13.227,2.013,26.456,3.07,39.68a11.318,11.318,0,0,0,.892,3.662,9.859,9.859,0,0,0,18.879-3.106c.34-3.192.557-6.4.808-9.6q1.094-13.962,2.166-27.926c.21-2.772.575-5.538-.33-8.292a13.159,13.159,0,0,0-14.909-8.909C104.125,251.906,99.749,257.9,100.345,265.07Zm27.758,6.7a97.407,97.407,0,0,1,18.961,4.627c3.2,1.148,6.308,2.557,9.5,3.724a4.447,4.447,0,0,0,5.165-1.908,4.643,4.643,0,0,0-.453-5.53,6.663,6.663,0,0,0-2.054-1.413,108.634,108.634,0,0,0-24.481-7.779c-1.881-.362-3.781-.629-5.794-.96C128.657,265.718,128.386,268.684,128.1,271.77Zm-30.178-9.178c-3.285.636-6.387,1.172-9.46,1.845A111.318,111.318,0,0,0,67.6,271.223a4.7,4.7,0,0,0-3.1,3.692,4.371,4.371,0,0,0,1.7,4.378,4.548,4.548,0,0,0,4.889.519,106.327,106.327,0,0,1,19.54-6.363c2.659-.6,5.347-1.06,8.092-1.6-.028-.628-.031-1.214-.084-1.795C98.415,267.663,98.181,265.272,97.925,262.593Zm6.223,65.589a9.2,9.2,0,1,0,9.158-9.289A9.182,9.182,0,0,0,104.147,328.182Zm22.495-41.563.035,0c-.046.673-.077,1.348-.143,2.019a1.068,1.068,0,0,0,1.027,1.3,70.256,70.256,0,0,1,13.573,4.221,4.624,4.624,0,0,0,3.8-8.423,75.864,75.864,0,0,0-16.534-5.2c-.807-.167-1.167.079-1.235.923C127.027,283.184,126.821,284.9,126.642,286.619ZM84.166,294.49a5.235,5.235,0,0,0,.757-.1c.4-.1.794-.269,1.195-.389,4.419-1.326,8.833-2.669,13.265-3.949.749-.216,1.076-.52,1-1.3-.236-2.348-.477-4.7-.649-7.051-.072-.983-.48-1.236-1.388-1.011-1.549.384-3.144.61-4.66,1.09-3.841,1.216-7.68,2.451-11.459,3.845A4.486,4.486,0,0,0,79.5,291,4.678,4.678,0,0,0,84.166,294.49Zm43.979,14.386a4.765,4.765,0,0,0,5.127-3.712,4.474,4.474,0,0,0-2.452-5.034c-1.384-.588-2.844-.992-4.262-1.5-.7-.253-1.046-.011-1.109.7-.225,2.518-.469,5.035-.644,7.556a1.225,1.225,0,0,0,.5,1C126.384,308.34,127.513,308.664,128.145,308.876ZM102.119,307.1c-.242-2.67-.458-5.068-.675-7.467-.008-.084-.007-.169-.013-.253-.042-.623-.3-.963-.979-.744a40.057,40.057,0,0,0-4.188,1.377,4.557,4.557,0,0,0-1.3,7.564,5.514,5.514,0,0,0,6.8.242A1.625,1.625,0,0,0,102.119,307.1Z" transform="translate(0 0)" fill="#d82221"/>
        <path id="Path_133700" data-name="Path 133700" d="M206.372,265.07c-.6-7.166,3.792-13.164,10.611-14.49a13.209,13.209,0,0,1,14.96,8.909c.909,2.754.542,5.521.331,8.292q-1.063,13.965-2.173,27.926c-.252,3.2-.469,6.407-.811,9.6a9.9,9.9,0,0,1-18.944,3.106,11.287,11.287,0,0,1-.9-3.662C208.391,291.526,207.389,278.3,206.372,265.07Zm13.487,8.876a7.043,7.043,0,0,0-3.891,1.863c-.243.3-.157.87-.221,1.316.442-.019,1,.128,1.307-.084,2.125-1.454,3.025-1.464,5.143-.051.318.212.867.078,1.309.1-.081-.475,0-1.2-.272-1.379A37.115,37.115,0,0,0,219.859,273.945Zm-3.328-4.306a2.022,2.022,0,0,0-2-2.009,1.977,1.977,0,0,0-1.983,2.009,1.951,1.951,0,0,0,1.92,1.933A2,2,0,0,0,216.531,269.64Zm7.983,1.933a1.976,1.976,0,0,0,1.952-2.037,2,2,0,0,0-3.99.085A1.973,1.973,0,0,0,224.514,271.572Z" transform="translate(-106.071 0)" fill="#d82221"/>
        <path id="Path_133701" data-name="Path 133701" d="M316.365,307.647c.284-3.087.556-6.052.849-9.238,2.02.331,3.926.6,5.814.96a109.279,109.279,0,0,1,24.565,7.779,6.688,6.688,0,0,1,2.061,1.413,4.63,4.63,0,0,1,.454,5.53A4.47,4.47,0,0,1,344.926,316c-3.206-1.167-6.324-2.576-9.535-3.724A98.022,98.022,0,0,0,316.365,307.647Z" transform="translate(-188.38 -35.877)" fill="#d82221"/>
        <path id="Path_133702" data-name="Path 133702" d="M98.04,298.647c.257,2.679.492,5.07.712,7.463.053.581.056,1.167.084,1.795-2.754.538-5.452,1-8.119,1.6a106.951,106.951,0,0,0-19.607,6.363,4.576,4.576,0,0,1-4.906-.519,4.363,4.363,0,0,1-1.7-4.378,4.705,4.705,0,0,1,3.112-3.692,111.976,111.976,0,0,1,20.933-6.785C91.631,299.819,94.744,299.283,98.04,298.647Z" transform="translate(0 -36.054)" fill="#d82221"/>
        <path id="Path_133703" data-name="Path 133703" d="M221.575,529.951a9.232,9.232,0,1,1,9.2,9.161A9.168,9.168,0,0,1,221.575,529.951Z" transform="translate(-117.459 -201.769)" fill="#d82221"/>
        <path id="Path_133708" data-name="Path 133708" d="M310.237,375.35c.18-1.719.386-3.435.527-5.157.069-.844.43-1.09,1.24-.923a76.312,76.312,0,0,1,16.591,5.2,4.626,4.626,0,0,1-3.816,8.423,70.679,70.679,0,0,0-13.62-4.221,1.069,1.069,0,0,1-1.03-1.3c.066-.671.1-1.346.143-2.019Z" transform="translate(-183.653 -88.731)" fill="#d82221"/>
        <path id="Path_133709" data-name="Path 133709" d="M128.31,383.578a4.692,4.692,0,0,1-4.684-3.495,4.482,4.482,0,0,1,2.735-5.373c3.792-1.395,7.644-2.63,11.5-3.845,1.522-.48,3.122-.707,4.676-1.09.911-.225,1.321.027,1.393,1.011.173,2.354.415,4.7.651,7.051.079.782-.25,1.086-1,1.3-4.447,1.28-8.876,2.624-13.311,3.949-.4.12-.793.284-1.2.389A5.279,5.279,0,0,1,128.31,383.578Z" transform="translate(-44.141 -89.088)" fill="#d82221"/>
        <path id="Path_133712" data-name="Path 133712" d="M306.666,450.71c-.634-.213-1.768-.536-2.846-.993a1.223,1.223,0,0,1-.505-1c.175-2.521.42-5.038.646-7.556.064-.715.407-.957,1.113-.7,1.422.511,2.888.915,4.277,1.5a4.469,4.469,0,0,1,2.46,5.034A4.779,4.779,0,0,1,306.666,450.71Z" transform="translate(-178.53 -141.834)" fill="#d82221"/>
        <path id="Path_133713" data-name="Path 133713" d="M188.033,449.057a1.623,1.623,0,0,1-.362.72,5.548,5.548,0,0,1-6.82-.242,4.55,4.55,0,0,1,1.307-7.564,40.291,40.291,0,0,1,4.2-1.378c.682-.219.939.12.982.744.006.084.005.169.013.253C187.573,443.989,187.79,446.387,188.033,449.057Z" transform="translate(-85.894 -141.955)" fill="#d82221"/>
        <g id="Group_22367" data-name="Group 22367" transform="translate(106.472 267.631)">
          <path id="Path_133752" data-name="Path 133752" d="M247.614,343.416a37.115,37.115,0,0,1,3.376,1.769c.273.176.191.9.272,1.379-.442-.026-.991.108-1.309-.1-2.118-1.413-3.018-1.4-5.143.051-.31.212-.865.065-1.307.084.064-.446-.022-1.012.221-1.316A7.043,7.043,0,0,1,247.614,343.416Z" transform="translate(-240.298 -337.101)" fill="#fff"/>
          <path id="Path_133753" data-name="Path 133753" d="M234.857,320.524a2,2,0,0,1-2.068,1.933,1.951,1.951,0,0,1-1.92-1.933,1.977,1.977,0,0,1,1.983-2.009A2.022,2.022,0,0,1,234.857,320.524Z" transform="translate(-230.869 -318.515)" fill="#fff"/>
          <path id="Path_133754" data-name="Path 133754" d="M272.075,322.473a1.969,1.969,0,1,1-.024-3.936,2,2,0,0,1,1.975,1.9A1.976,1.976,0,0,1,272.075,322.473Z" transform="translate(-260.104 -318.532)" fill="#fff"/>
        </g>
      </g>
    </g>
  </g>
</svg>
