<svg id="grid" xmlns="http://www.w3.org/2000/svg" width="19.5" height="19.5" viewBox="0 0 19.5 19.5">
  <path id="Shape" d="M16.791,0h-3.25a2.712,2.712,0,0,0-2.709,2.709v3.25a2.712,2.712,0,0,0,2.709,2.709h3.25A2.712,2.712,0,0,0,19.5,5.958V2.709A2.712,2.712,0,0,0,16.791,0Zm-3.25,7.584a1.627,1.627,0,0,1-1.625-1.625V2.709a1.627,1.627,0,0,1,1.625-1.625h3.25a1.627,1.627,0,0,1,1.625,1.625v3.25a1.627,1.627,0,0,1-1.625,1.625ZM5.958,0H2.709A2.712,2.712,0,0,0,0,2.709v3.25A2.712,2.712,0,0,0,2.709,8.667h3.25A2.712,2.712,0,0,0,8.667,5.958V2.709A2.712,2.712,0,0,0,5.958,0ZM2.709,7.584A1.627,1.627,0,0,1,1.083,5.958V2.709A1.627,1.627,0,0,1,2.709,1.083h3.25A1.627,1.627,0,0,1,7.584,2.709v3.25A1.627,1.627,0,0,1,5.958,7.584Zm14.083,3.25h-3.25a2.712,2.712,0,0,0-2.709,2.709v3.25A2.712,2.712,0,0,0,13.542,19.5h3.25A2.712,2.712,0,0,0,19.5,16.791v-3.25A2.712,2.712,0,0,0,16.791,10.833Zm-3.25,7.584a1.627,1.627,0,0,1-1.625-1.625v-3.25a1.627,1.627,0,0,1,1.625-1.625h3.25a1.627,1.627,0,0,1,1.625,1.625v3.25a1.627,1.627,0,0,1-1.625,1.625ZM5.958,10.833H2.709A2.712,2.712,0,0,0,0,13.542v3.25A2.712,2.712,0,0,0,2.709,19.5h3.25a2.712,2.712,0,0,0,2.709-2.709v-3.25A2.712,2.712,0,0,0,5.958,10.833Zm-3.25,7.584a1.627,1.627,0,0,1-1.625-1.625v-3.25a1.627,1.627,0,0,1,1.625-1.625h3.25a1.627,1.627,0,0,1,1.625,1.625v3.25a1.627,1.627,0,0,1-1.625,1.625Z" transform="translate(19.5 19.5) rotate(180)" fill="#c5cee0"/>
</svg>
