<svg xmlns="http://www.w3.org/2000/svg" width="14.25" height="14.75" viewBox="0 0 14.25 14.75">
  <g id="list_1_" data-name="list (1)" transform="translate(-36.55)">
    <g id="Group_2" data-name="Group 2" transform="translate(36.55 5.405)">
      <g id="Group_1" data-name="Group 1">
        <path id="Path_7" data-name="Path 7" d="M38.844,156.5a1.992,1.992,0,1,0,2.294,1.969A2.149,2.149,0,0,0,38.844,156.5Zm0,3.246a1.293,1.293,0,1,1,1.489-1.278A1.4,1.4,0,0,1,38.844,159.746Z" transform="translate(-36.55 -156.5)"/>
      </g>
    </g>
    <g id="Group_4" data-name="Group 4" transform="translate(41.803 5.957)">
      <g id="Group_3" data-name="Group 3">
        <path id="Path_8" data-name="Path 8" d="M175.644,172.5h-8.192a.349.349,0,1,0,0,.691h8.192a.349.349,0,1,0,0-.691Z" transform="translate(-167.05 -172.5)"/>
      </g>
    </g>
    <g id="Group_6" data-name="Group 6" transform="translate(41.803 8.099)">
      <g id="Group_5" data-name="Group 5">
        <path id="Path_9" data-name="Path 9" d="M171.864,234.5h-4.412a.349.349,0,1,0,0,.691h4.412a.349.349,0,1,0,0-.691Z" transform="translate(-167.05 -234.5)"/>
      </g>
    </g>
    <g id="Group_8" data-name="Group 8" transform="translate(36.55)">
      <g id="Group_7" data-name="Group 7">
        <path id="Path_10" data-name="Path 10" d="M38.844,0A2.149,2.149,0,0,0,36.55,1.969a2.321,2.321,0,0,0,4.589,0A2.154,2.154,0,0,0,38.844,0Zm0,3.243a1.4,1.4,0,0,1-1.489-1.278,1.507,1.507,0,0,1,2.979,0A1.4,1.4,0,0,1,38.844,3.243Z" transform="translate(-36.55 0)"/>
      </g>
    </g>
    <g id="Group_10" data-name="Group 10" transform="translate(41.803 0.535)">
      <g id="Group_9" data-name="Group 9">
        <path id="Path_11" data-name="Path 11" d="M175.644,15.5h-8.192a.349.349,0,1,0,0,.691h8.192a.349.349,0,1,0,0-.691Z" transform="translate(-167.05 -15.5)"/>
      </g>
    </g>
    <g id="Group_12" data-name="Group 12" transform="translate(41.803 2.711)">
      <g id="Group_11" data-name="Group 11">
        <path id="Path_12" data-name="Path 12" d="M171.864,78.5h-4.412a.349.349,0,1,0,0,.691h4.412a.349.349,0,1,0,0-.691Z" transform="translate(-167.05 -78.5)"/>
      </g>
    </g>
    <g id="Group_14" data-name="Group 14" transform="translate(36.55 10.813)">
      <g id="Group_13" data-name="Group 13">
        <path id="Path_13" data-name="Path 13" d="M38.844,313.1a1.992,1.992,0,1,0,2.294,1.968A2.149,2.149,0,0,0,38.844,313.1Zm0,3.243a1.293,1.293,0,1,1,1.489-1.278A1.4,1.4,0,0,1,38.844,316.343Z" transform="translate(-36.55 -313.1)"/>
      </g>
    </g>
    <g id="Group_16" data-name="Group 16" transform="translate(41.803 11.345)">
      <g id="Group_15" data-name="Group 15">
        <path id="Path_14" data-name="Path 14" d="M175.644,328.5h-8.192a.349.349,0,1,0,0,.691h8.192a.349.349,0,1,0,0-.691Z" transform="translate(-167.05 -328.5)"/>
      </g>
    </g>
    <g id="Group_18" data-name="Group 18" transform="translate(41.803 13.521)">
      <g id="Group_17" data-name="Group 17">
        <path id="Path_15" data-name="Path 15" d="M171.864,391.5h-4.412a.349.349,0,1,0,0,.691h4.412a.349.349,0,1,0,0-.691Z" transform="translate(-167.05 -391.5)"/>
      </g>
    </g>
  </g>
</svg>
