<svg id="facebook" xmlns="http://www.w3.org/2000/svg" width="20.933" height="20.927" viewBox="0 0 20.933 20.927">
  <path id="Path_76" data-name="Path 76" d="M18.111,0H2.822A2.819,2.819,0,0,0,0,2.822V18.111a2.817,2.817,0,0,0,2.822,2.816h7.539l.013-7.481H8.428a.466.466,0,0,1-.461-.454l-.006-2.413a.459.459,0,0,1,.461-.461h1.939V7.788a3.805,3.805,0,0,1,4.064-4.173H16.4a.459.459,0,0,1,.461.461V6.112a.459.459,0,0,1-.461.461H15.186c-1.312,0-1.568.621-1.568,1.536v2.016H16.5a.456.456,0,0,1,.454.512l-.288,2.413a.457.457,0,0,1-.454.4H13.625v7.475h4.486A2.823,2.823,0,0,0,20.933,18.1V2.822A2.827,2.827,0,0,0,18.111,0Zm0,0" fill="#475993"/>
</svg>
