<svg xmlns="http://www.w3.org/2000/svg" width="10" height="17" viewBox="0 0 10 17">
  <path id="Path_127157" data-name="Path 127157" d="M3.958-2.43a6.316,6.316,0,0,1,.384-2.424A6.364,6.364,0,0,1,5.859-6.838,11.454,11.454,0,0,0,7.3-8.376,2.657,2.657,0,0,0,7.76-9.882a2.276,2.276,0,0,0-.541-1.637,2.1,2.1,0,0,0-1.587-.565,2.309,2.309,0,0,0-1.61.552,1.918,1.918,0,0,0-.61,1.5H.586a4.059,4.059,0,0,1,1.4-3.2,5.418,5.418,0,0,1,3.645-1.178,5.288,5.288,0,0,1,3.645,1.166,4.14,4.14,0,0,1,1.308,3.259A5.3,5.3,0,0,1,8.818-6.318L7.388-4.934A3.725,3.725,0,0,0,6.6-2.43Zm-.2,3.547A1.443,1.443,0,0,1,4.191.031,1.6,1.6,0,0,1,5.353-.384,1.594,1.594,0,0,1,6.528.042a1.452,1.452,0,0,1,.43,1.076,1.426,1.426,0,0,1-.419,1.047,1.6,1.6,0,0,1-1.186.421,1.578,1.578,0,0,1-1.18-.421A1.436,1.436,0,0,1,3.76,1.118Z" transform="translate(-0.586 14.414)" fill="#fff"/>
</svg>
