<svg id="favorite" xmlns="http://www.w3.org/2000/svg" width="24" height="24" viewBox="0 0 24 24">
  <g id="Rectangle_17344" data-name="Rectangle 17344" fill="#fff" stroke="#707070" stroke-width="1" opacity="0">
    <rect width="24" height="24" stroke="none"/>
    <rect x="0.5" y="0.5" width="23" height="23" fill="none"/>
  </g>
  <path id="heart_-_icon" data-name="heart - icon" d="M18.414,1.713a5.42,5.42,0,0,0-4-1.713,5.085,5.085,0,0,0-3.143,1.067A6.371,6.371,0,0,0,10,2.372a6.367,6.367,0,0,0-1.271-1.3A5.085,5.085,0,0,0,5.588,0a5.42,5.42,0,0,0-4,1.713A6.09,6.09,0,0,0,0,5.911,7.256,7.256,0,0,0,1.984,10.7,42.019,42.019,0,0,0,6.95,15.288c.688.577,1.468,1.23,2.278,1.927a1.189,1.189,0,0,0,1.546,0c.81-.7,1.59-1.35,2.278-1.928A41.994,41.994,0,0,0,18.017,10.7,7.255,7.255,0,0,0,20,5.911a6.089,6.089,0,0,0-1.587-4.2Zm0,0" transform="translate(2 3.5)"/>
</svg>
