<svg xmlns="http://www.w3.org/2000/svg" width="20" height="20" viewBox="0 0 20 20">
  <g id="filter" transform="translate(-313 -109)">
    <g id="Rectangle_17275" data-name="Rectangle 17275" transform="translate(313 109)" fill="#fff" stroke="#707070" stroke-width="1" opacity="0">
      <rect width="20" height="20" stroke="none"/>
      <rect x="0.5" y="0.5" width="19" height="19" fill="none"/>
    </g>
    <g id="fillter_-_icon" data-name="fillter - icon" transform="translate(313.5 109.5)">
      <path id="Shape" d="M11.4,5.8A2.854,2.854,0,0,1,8.636,3.616H.95a.963.963,0,0,1,0-1.926h7.6a1.269,1.269,0,0,1,.257,0,2.835,2.835,0,0,1,5.187,0,1.26,1.26,0,0,1,.128-.006,1.28,1.28,0,0,1,.129.006h3.8a.963.963,0,0,1,0,1.926H14.165A2.855,2.855,0,0,1,11.4,5.8Zm0-3.842a.963.963,0,1,0,.95.963A.958.958,0,0,0,11.4,1.96Z"/>
      <path id="Shape-2" data-name="Shape" d="M5.7,5.751a2.857,2.857,0,0,1-2.76-2.167H.95a.963.963,0,0,1,0-1.926h1.9a1.281,1.281,0,0,1,.129-.006,1.262,1.262,0,0,1,.128.006,2.835,2.835,0,0,1,5.159,0H18.05a.963.963,0,0,1,0,1.926H8.455A2.858,2.858,0,0,1,5.7,5.751ZM5.7,1.928a.963.963,0,1,0,.95.963A.958.958,0,0,0,5.7,1.928Z" transform="translate(0 6.649)"/>
      <path id="Shape-3" data-name="Shape" d="M12.337,6A2.887,2.887,0,0,1,9.585,3.74H.949A.984.984,0,0,1,0,2.727.984.984,0,0,1,.949,1.714H9.775a2.772,2.772,0,0,1,5.125,0h3.132a.984.984,0,0,1,.949,1.013.984.984,0,0,1-.949,1.014H15.09A2.89,2.89,0,0,1,12.337,6Zm0-4a.984.984,0,0,0-.949,1.014.951.951,0,1,0,1.9,0A.984.984,0,0,0,12.337,2Z" transform="translate(0.02 13)"/>
    </g>
  </g>
</svg>
