<svg xmlns="http://www.w3.org/2000/svg" width="31.032" height="36" viewBox="0 0 31.032 36">
  <path id="flag" d="M31.245,25.272c0,.5-.432.72-.936.936a16.584,16.584,0,0,1-6.48,1.656c-3.24,0-4.752-2.016-8.64-2.016a20.6,20.6,0,0,0-8.136,2.088c-.144.072-.288.072-.432.144v5.472A2.361,2.361,0,0,1,4.245,36,2.428,2.428,0,0,1,1.8,33.552V7.2a4.02,4.02,0,1,1,6.48-3.168A3.824,3.824,0,0,1,6.693,7.2V9.432a21.432,21.432,0,0,1,8.064-2.016c4.589,0,6.868,1.944,8.928,1.944,2.736,0,5.76-1.944,6.48-1.944a1.038,1.038,0,0,1,1.08.936v16.92Z" transform="translate(-0.213)" fill="#fff"/>
</svg>
