<svg xmlns="http://www.w3.org/2000/svg" width="13.508" height="11.671" viewBox="0 0 13.508 11.671">
  <g id="Group_4725" data-name="Group 4725" transform="translate(0 0)">
    <g id="Group_4724" data-name="Group 4724">
      <path id="Path_2932" data-name="Path 2932" d="M4.453,241.019a1.709,1.709,0,0,0,1.072-.4l1.981-1.745a.872.872,0,0,1,1.127-.054l2.817,2.072v1.345a.654.654,0,0,1-.617.69H.8a.765.765,0,0,1-.8-.691v-3.526l3.58,2.072A1.654,1.654,0,0,0,4.453,241.019Z" transform="translate(2.057 -231.256)" fill="#007aff"/>
      <circle id="Ellipse_471" data-name="Ellipse 471" cx="0.8" cy="0.8" r="0.8" transform="translate(5.856 4.637)" fill="#007aff"/>
      <path id="Path_2933" data-name="Path 2933" d="M56.622,27.824a.673.673,0,0,1,.491-.273l9.9-1.145a.724.724,0,0,1,.818.618L68,28.442H59.312a1.563,1.563,0,0,0-1.527,1.508v6.415c0-.036-.164-.073-.236-.145a.618.618,0,0,1-.236-.491l-.854-7.379A.709.709,0,0,1,56.622,27.824Z" transform="translate(-56.455 -26.403)" fill="#007aff"/>
      <path id="Path_2934" data-name="Path 2934" d="M.83,105.9h9.978a.734.734,0,0,1,.672.781v5.18l-2.4-1.745a1.6,1.6,0,0,0-2.017.091l-2,1.745a.927.927,0,0,1-1.072.091L.03,109.734V106.68A.836.836,0,0,1,.83,105.9Zm3.8,4.2A1.527,1.527,0,1,0,3.1,108.571,1.527,1.527,0,0,0,4.628,110.1Z" transform="translate(2.027 -103.134)" fill="#007aff"/>
    </g>
  </g>
</svg>
