<svg xmlns="http://www.w3.org/2000/svg" width="17" height="16" viewBox="0 0 17 16">
  <g id="gift" transform="translate(0 -16.308)">
    <g id="Group_22372" data-name="Group 22372" transform="translate(1.063 24.87)">
      <g id="Group_22371" data-name="Group 22371">
        <path id="Path_133755" data-name="Path 133755" d="M32,271.692v6.375a1.064,1.064,0,0,0,1.063,1.063h5.313v-7.437Z" transform="translate(-32 -271.692)" fill="#fff"/>
      </g>
    </g>
    <g id="Group_22374" data-name="Group 22374" transform="translate(0 16.308)">
      <g id="Group_22373" data-name="Group 22373">
        <path id="Path_133756" data-name="Path 133756" d="M15.938,20.538H12.576a4.128,4.128,0,0,0,.593-.475,2.221,2.221,0,0,0,0-3.126,2.245,2.245,0,0,0-3.116,0c-.461.462-1.683,2.344-1.514,3.6H8.462c.168-1.257-1.054-3.139-1.514-3.6a2.247,2.247,0,0,0-3.116,0,2.224,2.224,0,0,0,0,3.126,4.2,4.2,0,0,0,.594.475H1.063A1.064,1.064,0,0,0,0,21.6v1.594a.531.531,0,0,0,.531.531H7.438V21.6H9.563v2.125h6.906A.531.531,0,0,0,17,23.194V21.6A1.064,1.064,0,0,0,15.938,20.538ZM7.375,20.5a.35.35,0,0,1-.2.035,5.225,5.225,0,0,1-2.594-1.224,1.159,1.159,0,0,1,0-1.628,1.133,1.133,0,0,1,1.61,0C6.911,18.406,7.622,20.246,7.375,20.5Zm2.446.035c-.151,0-.2-.034-.2-.035-.248-.256.464-2.1,1.18-2.817a1.145,1.145,0,0,1,1.61,1.628A5.224,5.224,0,0,1,9.821,20.538Z" transform="translate(0 -16.308)" fill="#fff"/>
      </g>
    </g>
    <g id="Group_22376" data-name="Group 22376" transform="translate(9.563 24.87)">
      <g id="Group_22375" data-name="Group 22375">
        <path id="Path_133757" data-name="Path 133757" d="M288,271.692v7.438h5.313a1.063,1.063,0,0,0,1.063-1.062v-6.375Z" transform="translate(-288 -271.692)" fill="#fff"/>
      </g>
    </g>
  </g>
</svg>
