<svg id="gmail" xmlns="http://www.w3.org/2000/svg" width="20.933" height="20.933" viewBox="0 0 20.933 20.933">
  <path id="Path_72" data-name="Path 72" d="M24.729,12.416h-.842v-.043h-9.42V16.56h5.916a6.286,6.286,0,1,1-1.75-6.783l2.96-2.96a10.442,10.442,0,1,0,3.136,5.6Z" transform="translate(-4 -4)" fill="#ffc107"/>
  <path id="Path_73" data-name="Path 73" d="M6.3,9.6l3.44,2.523a6.266,6.266,0,0,1,9.986-2.341l2.96-2.96A10.446,10.446,0,0,0,6.3,9.6Z" transform="translate(-5.099 -4)" fill="#ff3d00"/>
  <path id="Path_74" data-name="Path 74" d="M15.513,36.4a10.423,10.423,0,0,0,7.018-2.717l-3.24-2.741a6.263,6.263,0,0,1-9.681-2.886L6.2,30.684A10.458,10.458,0,0,0,15.513,36.4Z" transform="translate(-5.046 -15.466)" fill="#4caf50"/>
  <path id="Path_75" data-name="Path 75" d="M34.262,20.043H33.42V20H24v4.187h5.916a6.308,6.308,0,0,1-2.14,2.915h0l3.24,2.741a10.132,10.132,0,0,0,3.449-7.75A10.442,10.442,0,0,0,34.262,20.043Z" transform="translate(-13.534 -11.627)" fill="#1976d2"/>
</svg>
