<svg id="Group_13970" data-name="Group 13970" xmlns="http://www.w3.org/2000/svg" width="20" height="13" viewBox="0 0 20 13">
  <path id="Path_50829" data-name="Path 50829" d="M19.521,41.954A6.519,6.519,0,0,0,24.076,48.1,6.836,6.836,0,0,0,31.36,46.23a7.136,7.136,0,0,0,1.368-5.2c-2.155-.019-4.309-.012-6.461-.009,0,.738,0,1.474,0,2.212,1.29.034,2.581.019,3.871.044a3.635,3.635,0,0,1-2.194,2.46,4.3,4.3,0,0,1-5.632-2.476,4.082,4.082,0,0,1,2.758-5.247,4.9,4.9,0,0,1,3.994.751c.6-.54,1.161-1.117,1.713-1.7a6.925,6.925,0,0,0-4.852-1.6A6.571,6.571,0,0,0,19.521,41.954Z" transform="translate(-19.517 -35.446)" fill="#d82221"/>
  <path id="Path_50830" data-name="Path 50830" d="M74.387,48.668c-.006.642-.013,1.287-.016,1.929-.645.006-1.287.01-1.929.013v1.923c.642,0,1.287.006,1.929.013.006.642.006,1.284.013,1.929.639,0,1.281,0,1.923,0,0-.645.006-1.287.013-1.932l1.929-.01V50.61c-.642,0-1.287-.006-1.929-.013,0-.642-.01-1.287-.013-1.929Z" transform="translate(-58.248 -45.063)" fill="#d82221"/>
  <g id="Group_13968" data-name="Group 13968" transform="translate(0 0)">
    <path id="Path_50831" data-name="Path 50831" d="M19.521,41.953a6.572,6.572,0,0,1,6.406-6.488,6.925,6.925,0,0,1,4.852,1.6c-.552.584-1.113,1.16-1.713,1.7a4.9,4.9,0,0,0-3.994-.751,4.082,4.082,0,0,0-2.758,5.247,4.3,4.3,0,0,0,5.632,2.476,3.635,3.635,0,0,0,2.194-2.46c-1.29-.025-2.581-.009-3.871-.044,0-.738-.006-1.474,0-2.212,2.152,0,4.306-.009,6.461.009a7.134,7.134,0,0,1-1.368,5.2A6.836,6.836,0,0,1,24.075,48.1,6.519,6.519,0,0,1,19.521,41.953Z" transform="translate(-19.517 -35.445)" fill="#d82221"/>
    <path id="Path_50832" data-name="Path 50832" d="M74.387,48.668h1.919c0,.642.01,1.287.013,1.929.642.006,1.287.01,1.929.013v1.923l-1.929.01c-.006.645-.01,1.287-.013,1.932-.642,0-1.284,0-1.923,0-.006-.645-.006-1.287-.013-1.929-.642-.007-1.287-.01-1.929-.013V50.609q.963,0,1.929-.013C74.374,49.955,74.381,49.31,74.387,48.668Z" transform="translate(-58.248 -45.063)" fill="#d82221"/>
  </g>
</svg>
