<svg id="grid" xmlns="http://www.w3.org/2000/svg" width="15.526" height="15.526" viewBox="0 0 15.526 15.526">
  <path id="Path_4207" data-name="Path 4207" d="M5.69,0H1.325A1.327,1.327,0,0,0,0,1.325V5.69A1.327,1.327,0,0,0,1.325,7.015H5.69A1.327,1.327,0,0,0,7.015,5.69V1.325A1.327,1.327,0,0,0,5.69,0Z" fill="#757575"/>
  <path id="Path_4208" data-name="Path 4208" d="M286.355,0H281.99a1.327,1.327,0,0,0-1.325,1.325V5.69a1.327,1.327,0,0,0,1.325,1.325h4.364A1.327,1.327,0,0,0,287.68,5.69V1.325A1.327,1.327,0,0,0,286.355,0Z" transform="translate(-272.154)" fill="#757575"/>
  <path id="Path_4209" data-name="Path 4209" d="M5.69,280.665H1.325A1.327,1.327,0,0,0,0,281.99v4.364a1.327,1.327,0,0,0,1.325,1.325H5.69a1.327,1.327,0,0,0,1.325-1.325V281.99A1.327,1.327,0,0,0,5.69,280.665Z" transform="translate(0 -272.154)" fill="#757575"/>
  <path id="Path_4210" data-name="Path 4210" d="M286.355,280.665H281.99a1.327,1.327,0,0,0-1.325,1.325v4.364a1.327,1.327,0,0,0,1.325,1.325h4.364a1.327,1.327,0,0,0,1.325-1.325V281.99A1.327,1.327,0,0,0,286.355,280.665Z" transform="translate(-272.154 -272.154)" fill="#757575"/>
</svg>
