<svg xmlns="http://www.w3.org/2000/svg" width="26.297" height="28.738" viewBox="0 0 26.297 28.738">
  <g id="Group_9428" data-name="Group 9428" transform="translate(-0.519 0.5)">
    <path id="Path_3775" data-name="Path 3775" d="M191.138,469.526A4.215,4.215,0,0,0,195,467h-7.714A4.215,4.215,0,0,0,191.138,469.526Z" transform="translate(-177.472 -441.788)" fill="none" stroke="#b1b1b1" stroke-width="1"/>
    <path id="Path_3776" data-name="Path 3776" d="M52.328,13.345V11.576A8.412,8.412,0,0,0,46.154,3.59V2.423a2.528,2.528,0,0,0-5.052,0V3.59a8.412,8.412,0,0,0-6.174,7.986v1.769a12.412,12.412,0,0,1-3.695,8.817.783.783,0,0,0-.167.876.844.844,0,0,0,.774.491H55.415a.843.843,0,0,0,.774-.491.783.783,0,0,0-.167-.876,12.412,12.412,0,0,1-3.695-8.817ZM44.47,3.27c-.277-.026-.558-.039-.842-.039s-.565.014-.842.039V2.423a.843.843,0,0,1,1.684,0Z" transform="translate(-29.961)" fill="none" stroke="#b1b1b1" stroke-width="1"/>
  </g>
</svg>
