<svg xmlns="http://www.w3.org/2000/svg" width="16.414" height="20.061" viewBox="0 0 16.414 20.061">
  <g id="group" opacity="0.31">
    <g id="Group_63057" data-name="Group 63057" transform="translate(-158.333 -230.835)">
      <path id="Path_157" data-name="Path 157" d="M164.294,231.535c-1.728.586-1.83,2-1.807,3.747a2.746,2.746,0,0,0,.28-.724,2.178,2.178,0,0,1,.074-.585,1.075,1.075,0,0,1,.4-.565l0,0h0l.028-.021.006,0h0l.029-.019.011-.007a2.549,2.549,0,0,0,.739-.71,1.431,1.431,0,0,0,.235-.786Z" fill="#899ea3" fill-rule="evenodd"/>
      <path id="Path_158" data-name="Path 158" d="M170.182,243.79a3.855,3.855,0,0,1-1.481,1.183,5.042,5.042,0,0,1-2.163.511,5.41,5.41,0,0,1-2.272-.513,3.18,3.18,0,0,1-1.37-1.167,8.082,8.082,0,0,0-3.082,1.254,2.339,2.339,0,0,0-1.076,1.868v2.75a.814.814,0,0,0,.813.813h13.975a.816.816,0,0,0,.814-.813v-2.75h0a2.357,2.357,0,0,0-1.077-1.875A8.065,8.065,0,0,0,170.182,243.79Z" fill="#9bc957" fill-rule="evenodd"/>
      <path id="Path_159" data-name="Path 159" d="M164.018,242.977l.114.083a6.35,6.35,0,0,0,.832.512,3.25,3.25,0,0,0,1.69.395,3.76,3.76,0,0,0,1.4-.4,8.972,8.972,0,0,0,.873-.491l.14-.089a15.065,15.065,0,0,1-.153-1.546l-.006-.078a4.635,4.635,0,0,1-.75.546,3.014,3.014,0,0,1-3.242,0,4.692,4.692,0,0,1-.763-.558l0,.064A15.075,15.075,0,0,1,164.018,242.977Z" fill="#ffe0a6" fill-rule="evenodd"/>
      <path id="Path_160" data-name="Path 160" d="M170.592,235.2c.018-1.712-.108-3.088-1.808-3.664v.323a1.431,1.431,0,0,0,.235.786,2.549,2.549,0,0,0,.739.71l.011.007.029.019h0l.007,0,.027.021h0l0,0a1.088,1.088,0,0,1,.405.565,2.218,2.218,0,0,1,.073.585A2.262,2.262,0,0,0,170.592,235.2Z" fill="#899ea3" fill-rule="evenodd"/>
      <path id="Path_161" data-name="Path 161" d="M162.866,236.032H162.5c0,.2.006.385.006.551,0,.09,0,.167,0,.237a.228.228,0,0,1,0,.058v.006a5.233,5.233,0,0,0,.331,1.784,6.2,6.2,0,0,0,.935,1.684q.167.211.347.4h0l0,0,.007.009a4.569,4.569,0,0,0,.99.793,2.619,2.619,0,0,0,2.836,0,4.871,4.871,0,0,0,1.347-1.206,6.18,6.18,0,0,0,.936-1.684,5.234,5.234,0,0,0,.332-1.784v-.009a.228.228,0,0,1,0-.045c0-.043,0-.083,0-.119h0v-.127c0-.166,0-.356.005-.551h-.365v.839a.851.851,0,0,1-.058.3h0a.826.826,0,0,1-.15.242.28.28,0,0,1-.028.031.779.779,0,0,1-.24.165.756.756,0,0,1-.3.063h-1.8a1.025,1.025,0,0,1-.408-.086,1.074,1.074,0,0,1-.343-.242,1.11,1.11,0,0,1-.228-.359,1.138,1.138,0,0,1-.079-.418h0v-.847H166.5v.847h0a1.14,1.14,0,0,1-.079.419,1.111,1.111,0,0,1-.228.357,1.048,1.048,0,0,1-.344.242,1,1,0,0,1-.408.086h-1.8a.752.752,0,0,1-.3-.063.773.773,0,0,1-.248-.174h0l-.015-.017a.814.814,0,0,1-.154-.248.825.825,0,0,1-.058-.3h0v-.836Zm1.974,3.809c-.085,0-.16-.005-.248-.005h0a.2.2,0,0,1-.19-.275,1.307,1.307,0,0,1,.313-.453,2.49,2.49,0,0,1,.909-.54,1.463,1.463,0,0,1,.921-.061.507.507,0,0,1,.053.024.441.441,0,0,1,.054-.024,1.457,1.457,0,0,1,.919.061,2.5,2.5,0,0,1,.908.54,1.312,1.312,0,0,1,.307.439.2.2,0,0,1-.183.292c-.089,0-.163,0-.247,0a3.8,3.8,0,0,1-1.759-.219A3.786,3.786,0,0,1,164.84,239.841Z" fill="#ffe0a6" fill-rule="evenodd"/>
      <path id="Path_162" data-name="Path 162" d="M163.271,235.828v1.04h0a.42.42,0,0,0,.1.276l.006,0v0h0l0,0,0,0a.364.364,0,0,0,.119.084.339.339,0,0,0,.137.028h1.8a.625.625,0,0,0,.246-.05.671.671,0,0,0,.212-.15.7.7,0,0,0,.144-.227.729.729,0,0,0,.051-.27h0v-.847h-2.516l-.029,0a.771.771,0,0,0-.245.029.052.052,0,0,0-.033.055h0v.023Z" fill="#afdff0" fill-rule="evenodd"/>
      <path id="Path_163" data-name="Path 163" d="M170.18,235.625h.185l-.049-.089a2.881,2.881,0,0,1-.41-.964,1.9,1.9,0,0,0-.056-.48.694.694,0,0,0-.26-.361h0l-.022-.016-.028-.019-.006,0a2.952,2.952,0,0,1-.857-.83,1.822,1.822,0,0,1-.3-1v-.409a.244.244,0,0,1,0-.028,9.525,9.525,0,0,0-3.686,0,.127.127,0,0,1,0,.028v.409a1.805,1.805,0,0,1-.3,1,2.923,2.923,0,0,1-.856.83l-.006,0-.028.019-.022.016h0a.694.694,0,0,0-.26.361,1.9,1.9,0,0,0-.056.48,3.528,3.528,0,0,1-.4,1.053h.124a.421.421,0,0,1,.263-.253,1.213,1.213,0,0,1,.432-.056H169.5l.026,0a1.062,1.062,0,0,1,.41.074A.441.441,0,0,1,170.18,235.625Z" fill="#ffe0a6" fill-rule="evenodd"/>
      <path id="Path_164" data-name="Path 164" d="M169.808,235.846v-.015h0v-.024h0a.05.05,0,0,0-.036-.045.718.718,0,0,0-.271-.038h-2.516v.847h0a.725.725,0,0,0,.051.27.7.7,0,0,0,.143.227.651.651,0,0,0,.212.15.609.609,0,0,0,.246.052h1.8a.346.346,0,0,0,.137-.028.36.36,0,0,0,.111-.076l.008-.009a.408.408,0,0,0,.083-.13h0a.44.44,0,0,0,.029-.155Z" fill="#afdff0" fill-rule="evenodd"/>
      <path id="Path_165" data-name="Path 165" d="M164.957,239.439c.51.014,1.268.021,1.5-.211a.2.2,0,0,1,.286,0l0,0h0c.227.232.985.226,1.5.212-.014-.014-.027-.029-.042-.043a2.071,2.071,0,0,0-.756-.445,1.079,1.079,0,0,0-.646-.066.153.153,0,0,0-.051.03.2.2,0,0,1-.287.005l0-.005a.155.155,0,0,0-.052-.03,1.085,1.085,0,0,0-.646.065,2.08,2.08,0,0,0-.757.447Z" fill="#899ea3" fill-rule="evenodd"/>
      <path id="Path_166" data-name="Path 166" d="M169.3,243.318c-.134.087-.265.169-.4.247a4.95,4.95,0,0,1-2.231.807,4.062,4.062,0,0,1-2.515-.8c-.125-.082-.252-.17-.382-.267l-.411.269-.1.064a2.83,2.83,0,0,0,1.171.967,5,5,0,0,0,2.1.473,4.65,4.65,0,0,0,1.987-.471,3.542,3.542,0,0,0,1.277-.983l-.1-.061Z" fill="#9bc957" fill-rule="evenodd"/>
      <path id="Path_167" data-name="Path 167" d="M169.81,235.847v-.015h0v-.024h0a.053.053,0,0,0-.037-.046.739.739,0,0,0-.27-.037l-.025,0h-2.492v.848h0a.729.729,0,0,0,.051.27.7.7,0,0,0,.144.227.645.645,0,0,0,.212.15.624.624,0,0,0,.245.051h1.8a.342.342,0,0,0,.137-.028.366.366,0,0,0,.111-.076l.009-.01a.411.411,0,0,0,.082-.13h0a.435.435,0,0,0,.029-.154v-1.025Zm.371-.222h.185l-.049-.088a2.88,2.88,0,0,1-.409-.965,1.936,1.936,0,0,0-.057-.479.693.693,0,0,0-.259-.362h0l-.022-.017-.028-.019-.005,0a2.925,2.925,0,0,1-.857-.829,1.827,1.827,0,0,1-.3-1.005v-.409a.265.265,0,0,1,0-.028,9.572,9.572,0,0,0-3.685,0,.261.261,0,0,1,0,.028v.409a1.827,1.827,0,0,1-.3,1.005,2.925,2.925,0,0,1-.857.829l-.006,0-.027.019-.023.017h0a.7.7,0,0,0-.26.362,1.937,1.937,0,0,0-.056.479,3.518,3.518,0,0,1-.4,1.053h.124a.417.417,0,0,1,.263-.252,1.191,1.191,0,0,1,.432-.057h5.938a1.062,1.062,0,0,1,.41.074.445.445,0,0,1,.243.233Zm-6.908.2v1.039h0a.417.417,0,0,0,.029.156.378.378,0,0,0,.074.12l.005.005h0l0,0,0,0a.382.382,0,0,0,.119.085.342.342,0,0,0,.137.028h1.8a.607.607,0,0,0,.245-.051.655.655,0,0,0,.212-.15.676.676,0,0,0,.144-.227.729.729,0,0,0,.051-.27h0v-.847h-2.516a.136.136,0,0,1-.029,0,.765.765,0,0,0-.244.029.052.052,0,0,0-.034.055h0v.024Zm-.406.2v.836h0a.821.821,0,0,0,.057.3.79.79,0,0,0,.154.248l.016.017h0a.777.777,0,0,0,.247.173.739.739,0,0,0,.3.063h1.8a1.016,1.016,0,0,0,.407-.085,1.067,1.067,0,0,0,.344-.242,1.1,1.1,0,0,0,.228-.358,1.12,1.12,0,0,0,.08-.419h0v-.847h.081v.848h0a1.142,1.142,0,0,0,.079.418,1.116,1.116,0,0,0,.228.358,1.07,1.07,0,0,0,.344.243,1.016,1.016,0,0,0,.407.085h1.8a.739.739,0,0,0,.3-.063.762.762,0,0,0,.24-.165.2.2,0,0,0,.028-.03.831.831,0,0,0,.15-.243h0a.821.821,0,0,0,.058-.3v-.84h.366c0,.2-.006.386-.006.552,0,.062,0,.1,0,.123v.005c0,.035,0,.075,0,.118a.176.176,0,0,0,0,.046v.009a5.252,5.252,0,0,1-.331,1.783,6.165,6.165,0,0,1-.936,1.684,4.843,4.843,0,0,1-1.348,1.206,2.614,2.614,0,0,1-2.836,0,4.563,4.563,0,0,1-.99-.793l-.007-.008,0,0h0c-.12-.127-.236-.261-.346-.4a6.165,6.165,0,0,1-.936-1.684,5.228,5.228,0,0,1-.331-1.783v-.007a.273.273,0,0,0,0-.057c0-.07-.005-.148-.005-.237,0-.166,0-.356,0-.552Zm7.727-.833a2.261,2.261,0,0,1-.282-.641,2.21,2.21,0,0,0-.073-.584,1.085,1.085,0,0,0-.4-.566l0,0h0l-.028-.02-.006-.005h0l-.029-.02-.01-.006a2.543,2.543,0,0,1-.74-.711,1.425,1.425,0,0,1-.234-.786v-.322c1.7.576,1.825,1.951,1.808,3.663Zm-5.753,4.642a3.792,3.792,0,0,0,1.758-.218,3.764,3.764,0,0,0,1.758.219c.084,0,.158,0,.247,0a.2.2,0,0,0,.2-.2.2.2,0,0,0-.02-.088,1.315,1.315,0,0,0-.307-.44,2.486,2.486,0,0,0-.908-.539,1.457,1.457,0,0,0-.919-.061c-.019.007-.036.015-.054.023l-.053-.023a1.455,1.455,0,0,0-.921.06,2.5,2.5,0,0,0-.909.54,1.285,1.285,0,0,0-.312.454.2.2,0,0,0,.19.275h0c.088,0,.162,0,.247.005Zm.117-.4c.51.015,1.268.021,1.5-.211a.2.2,0,0,1,.287,0l0,0h0c.227.233.985.227,1.495.213a.568.568,0,0,0-.042-.043,2.074,2.074,0,0,0-.756-.446,1.076,1.076,0,0,0-.645-.066.159.159,0,0,0-.052.031.2.2,0,0,1-.286,0l0,0a.145.145,0,0,0-.053-.031,1.08,1.08,0,0,0-.646.066,2.066,2.066,0,0,0-.756.446l-.041.041Zm4.348,3.88a5.547,5.547,0,0,1-2.627,1.054,4.383,4.383,0,0,1-2.9-1.066l-.51.333a2.818,2.818,0,0,0,1.17.966,5,5,0,0,0,2.1.474,4.633,4.633,0,0,0,1.987-.472,3.513,3.513,0,0,0,1.277-.983l-.5-.306Zm-5.287-.342a4.009,4.009,0,0,0,2.636.991,5.17,5.17,0,0,0,2.415-.981,15.285,15.285,0,0,1-.153-1.546l-.005-.078a4.756,4.756,0,0,1-.751.547,3.019,3.019,0,0,1-3.242,0,4.814,4.814,0,0,1-.763-.558l0,.063a15.05,15.05,0,0,1-.134,1.562Zm6.164.814a8.06,8.06,0,0,1,3.081,1.261,2.353,2.353,0,0,1,1.076,1.874h0v2.75a.816.816,0,0,1-.814.813H159.552a.813.813,0,0,1-.813-.813v-2.75a2.339,2.339,0,0,1,1.076-1.868A8.112,8.112,0,0,1,162.9,243.8a3.165,3.165,0,0,0,1.369,1.167,5.411,5.411,0,0,0,2.272.514,5.051,5.051,0,0,0,2.164-.512,3.841,3.841,0,0,0,1.48-1.182Zm.805-7.976v.035c0,.221-.007.455-.007.734,0,.023,0,.067,0,.132l0,.1a.161.161,0,0,1,0,.037h0v.031a5.643,5.643,0,0,1-.356,1.922,6.61,6.61,0,0,1-1,1.8q-.16.2-.333.389c.01.122.019.264.03.422a13.639,13.639,0,0,0,.154,1.534l.689.425a8.561,8.561,0,0,1,3.343,1.355,2.737,2.737,0,0,1,1.239,2.2h0v2.75a1.223,1.223,0,0,1-1.219,1.22H159.552a1.223,1.223,0,0,1-1.219-1.22v-2.75a2.724,2.724,0,0,1,1.239-2.192,8.618,8.618,0,0,1,3.35-1.349l.693-.453a13.491,13.491,0,0,0,.133-1.538c.009-.163.017-.311.024-.42q-.165-.177-.316-.371a6.584,6.584,0,0,1-1-1.8,5.645,5.645,0,0,1-.357-1.922v-.031a.173.173,0,0,1,0-.039c0-.085,0-.163,0-.231,0-.279,0-.512-.008-.733v-.037l0-.1c-.05-2.763-.088-4.876,4.45-4.876s4.5,2.113,4.45,4.876l0,.1Zm-6.693-4.279v.322a1.433,1.433,0,0,1-.234.786,2.556,2.556,0,0,1-.74.711l-.01.006-.029.02h0l-.007.005-.027.02h0l0,0a1.088,1.088,0,0,0-.4.566,2.211,2.211,0,0,0-.074.584,2.686,2.686,0,0,1-.28.724C162.466,233.531,162.568,232.121,164.295,231.536Z" fill="#30383b" fill-rule="evenodd"/>
    </g>
    <g id="Group_63058" data-name="Group 63058" transform="translate(-158.333 -188.206)">
      <path id="Path_62" data-name="Path 62" d="M161.2,209.33a4.813,4.813,0,0,0-1.828.744,1.388,1.388,0,0,0-.638,1.109v1.631a.481.481,0,0,0,.141.341h0a.481.481,0,0,0,.341.141h8.29a.483.483,0,0,0,.483-.482v-1.631h0a1.4,1.4,0,0,0-.639-1.112,4.775,4.775,0,0,0-1.827-.748,2.281,2.281,0,0,1-.879.7,2.992,2.992,0,0,1-1.283.3,3.218,3.218,0,0,1-1.348-.3A1.888,1.888,0,0,1,161.2,209.33Z" transform="translate(-0.165 -5.27)" fill="#6fc0de" fill-rule="evenodd"/>
      <path id="Path_63" data-name="Path 63" d="M163.574,208.838l-.243.159-.059.039a1.683,1.683,0,0,0,.695.574,2.973,2.973,0,0,0,1.243.281,2.75,2.75,0,0,0,1.179-.28,2.1,2.1,0,0,0,.758-.583l-.059-.036-.237-.146c-.079.051-.157.1-.234.146a2.931,2.931,0,0,1-1.324.479A2.409,2.409,0,0,1,163.8,209C163.726,208.947,163.651,208.895,163.574,208.838Z" transform="translate(-2.009 -5.073)" fill="#fac957" fill-rule="evenodd"/>
      <path id="Path_64" data-name="Path 64" d="M167.286,199.631l0-.21c.027-1.5.048-2.648-2.4-2.648s-2.427,1.147-2.4,2.648l0,.209a1.959,1.959,0,0,0,.031-.223h0c.009-.107.011-.2.014-.3a2.5,2.5,0,0,1,.027-.39.858.858,0,0,1,.158-.378c.275-.36.9-.217,1.478-.085a3.578,3.578,0,0,0,.687.116,3.448,3.448,0,0,0,.743-.13c.561-.137,1.134-.277,1.421.1a.85.85,0,0,1,.157.367l0,.011a2.576,2.576,0,0,1,.028.39c0,.094,0,.191.013.3A1.987,1.987,0,0,0,167.286,199.631Z" transform="translate(-1.689 -0.165)" fill="#899ea3" fill-rule="evenodd"/>
      <path id="Path_65" data-name="Path 65" d="M164.1,206.883l0,.037a8.965,8.965,0,0,1-.079.927l.068.049a3.715,3.715,0,0,0,.493.3,1.93,1.93,0,0,0,1,.235,2.221,2.221,0,0,0,.832-.238,5.119,5.119,0,0,0,.517-.291l.084-.053a8.943,8.943,0,0,1-.091-.918l0-.046a2.75,2.75,0,0,1-.445.324,1.788,1.788,0,0,1-1.923,0A2.779,2.779,0,0,1,164.1,206.883Z" transform="translate(-2.312 -4.278)" fill="#ffe0a6" fill-rule="evenodd"/>
      <path id="Path_66" data-name="Path 66" d="M163.472,203.49h0l0,0a2.7,2.7,0,0,0,.587.471,1.554,1.554,0,0,0,1.682,0,2.884,2.884,0,0,0,.8-.716,3.664,3.664,0,0,0,.555-1,3.255,3.255,0,0,0,.184-.8l-.2-.6,0-.007a2.061,2.061,0,0,1-.058-.345c-.009-.1-.011-.209-.013-.314a2.316,2.316,0,0,0-.025-.354l0-.009a.6.6,0,0,0-.111-.264c-.192-.252-.689-.13-1.174-.011a3.636,3.636,0,0,1-.8.138,3.736,3.736,0,0,1-.741-.123c-.5-.115-1.052-.241-1.233,0a.61.61,0,0,0-.112.273,2.314,2.314,0,0,0-.026.354c0,.1,0,.211-.014.314h0a2.07,2.07,0,0,1-.058.345l0,.007h0l-.2.6a3.225,3.225,0,0,0,.184.8,3.677,3.677,0,0,0,.555,1Q163.365,203.376,163.472,203.49Z" transform="translate(-1.706 -1.239)" fill="#ffe0a6" fill-rule="evenodd"/>
      <path id="Path_67" data-name="Path 67" d="M164.834,202.392c.006.072.011.157.018.25a8.106,8.106,0,0,0,.091.91l.409.252a5.1,5.1,0,0,1,1.983.8,1.625,1.625,0,0,1,.735,1.3h0v1.631a.722.722,0,0,1-.212.511h0a.721.721,0,0,1-.511.212h-8.29a.721.721,0,0,1-.511-.212h0a.723.723,0,0,1-.211-.51v-1.631a1.615,1.615,0,0,1,.735-1.3,5.113,5.113,0,0,1,1.987-.8l.411-.268a8,8,0,0,0,.079-.912c.005-.1.01-.185.014-.249-.065-.071-.128-.144-.187-.22a3.919,3.919,0,0,1-.592-1.066,3.346,3.346,0,0,1-.212-1.14v-.018a.094.094,0,0,1,0-.023c0-.05,0-.1,0-.137,0-.2,0-.362-.006-.518-.03-1.639-.052-2.893,2.64-2.893s2.67,1.254,2.64,2.893c0,.156-.005.317-.005.518,0,.014,0,.04,0,.078l0,.06a.087.087,0,0,1,0,.021h0v.018a3.345,3.345,0,0,1-.211,1.14,3.934,3.934,0,0,1-.592,1.066q-.1.12-.2.231Zm-3.068-.142h0l0,0,0,0a2.725,2.725,0,0,0,.587.47,1.554,1.554,0,0,0,1.682,0,2.882,2.882,0,0,0,.8-.715,3.665,3.665,0,0,0,.555-1,3.252,3.252,0,0,0,.184-.8l-.2-.6,0-.007a2.045,2.045,0,0,1-.058-.345c-.009-.1-.011-.209-.014-.314a2.321,2.321,0,0,0-.025-.354v-.009a.611.611,0,0,0-.112-.263c-.192-.252-.689-.13-1.174-.012a3.629,3.629,0,0,1-.8.138,3.73,3.73,0,0,1-.74-.123c-.5-.114-1.052-.241-1.234,0a.615.615,0,0,0-.112.273,2.4,2.4,0,0,0-.026.354c0,.1,0,.211-.013.314h0a2.108,2.108,0,0,1-.058.345l0,.007h0l-.2.6a3.239,3.239,0,0,0,.184.8,3.666,3.666,0,0,0,.555,1c.065.084.134.163.205.238Zm.021.355,0,.038a8.944,8.944,0,0,1-.079.927l.068.049a3.787,3.787,0,0,0,.493.3,1.931,1.931,0,0,0,1,.234,2.207,2.207,0,0,0,.832-.238,5.232,5.232,0,0,0,.517-.29l.084-.053a9.082,9.082,0,0,1-.091-.917l0-.046a2.816,2.816,0,0,1-.446.324,1.788,1.788,0,0,1-1.923,0,2.783,2.783,0,0,1-.453-.331Zm3.81-3.14,0-.209c.027-1.5.048-2.648-2.4-2.648s-2.427,1.147-2.4,2.648l0,.209a1.977,1.977,0,0,0,.031-.223h0c.01-.107.011-.2.014-.3a2.505,2.505,0,0,1,.028-.39.845.845,0,0,1,.158-.377c.275-.361.9-.217,1.478-.085a3.592,3.592,0,0,0,.687.116,3.486,3.486,0,0,0,.743-.13c.561-.137,1.135-.278,1.422.1a.843.843,0,0,1,.156.367l0,.011a2.576,2.576,0,0,1,.028.39c0,.095,0,.192.013.3a1.976,1.976,0,0,0,.031.223Zm-4.032,4.3-.243.158-.059.039a1.676,1.676,0,0,0,.694.573,2.974,2.974,0,0,0,1.243.281,2.757,2.757,0,0,0,1.179-.28,2.091,2.091,0,0,0,.758-.583l-.059-.036-.236-.146q-.119.077-.235.147a2.93,2.93,0,0,1-1.324.479,2.412,2.412,0,0,1-1.493-.474c-.074-.049-.149-.1-.225-.158Zm-.525.295a4.794,4.794,0,0,0-1.829.744,1.387,1.387,0,0,0-.638,1.108v1.631a.48.48,0,0,0,.141.341h0a.479.479,0,0,0,.341.141h8.29a.484.484,0,0,0,.483-.482v-1.631h0a1.4,1.4,0,0,0-.638-1.112,4.791,4.791,0,0,0-1.828-.748,2.28,2.28,0,0,1-.878.7,2.987,2.987,0,0,1-1.284.3,3.21,3.21,0,0,1-1.348-.3A1.882,1.882,0,0,1,161.041,204.061Z" transform="translate(0 0)" fill="#30383b" fill-rule="evenodd"/>
    </g>
    <g id="Group_27" data-name="Group 27" transform="translate(-185.922 -188.206)">
      <path id="Path_140" data-name="Path 140" d="M201.3,209.8a3.031,3.031,0,0,1-1.261,1.043,4.13,4.13,0,0,1-1.771.419,4.446,4.446,0,0,1-1.862-.421,2.519,2.519,0,0,1-1.167-1.042,2.092,2.092,0,0,0-.761,1.13h0a6.736,6.736,0,0,0-.193,1.923v.155a.479.479,0,0,0,.141.341h0a.48.48,0,0,0,.34.141h7.006a.484.484,0,0,0,.482-.482v-.144h0a6.77,6.77,0,0,0-.194-1.933A2.087,2.087,0,0,0,201.3,209.8Z" transform="translate(-0.165 -5.465)" fill="#f1c254" fill-rule="evenodd"/>
      <path id="Path_141" data-name="Path 141" d="M200.8,207.564l-.03.028h0l-.008.007a1.9,1.9,0,0,1-.525.333,1.509,1.509,0,0,1-.578.117,1.554,1.554,0,0,1-.8-.227,2.024,2.024,0,0,1-.346-.26l-.014.324v.008a.592.592,0,0,1-.123.329.482.482,0,0,1-.279.174l-.012,0-.1.017c-.1.017-.2.035-.3.055a3.22,3.22,0,0,0,2.041.753,4,4,0,0,0,1.891-.753c-.1-.02-.2-.037-.3-.055l-.1-.017h0a.479.479,0,0,1-.291-.176.588.588,0,0,1-.123-.329h0v0Z" transform="translate(-1.549 -4.554)" fill="#ffe0a6" fill-rule="evenodd"/>
      <path id="Path_142" data-name="Path 142" d="M201.358,203.01c.03-.09.059-.182.085-.276s.053-.2.075-.295.042-.2.059-.3.031-.2.043-.294l0-.01c0-.031.006-.067.009-.109h0c0-.046.006-.087.008-.124s0-.082,0-.121,0-.074,0-.133c0-.078,0-.132,0-.161l0-.07,0-.072c-.02-.165-.153-.27-.346-.347a4.407,4.407,0,0,0-.835-.189,5.5,5.5,0,0,1-1.119-.266,1.525,1.525,0,0,1-.762-.591,2.484,2.484,0,0,0-.9,1.574c0,.034-.009.075-.014.125s-.007.092-.009.131,0,.09,0,.133,0,.081,0,.125v.013a4.673,4.673,0,0,0,.228,1.138,3.488,3.488,0,0,0,.452.9l.006.009.007.01a.141.141,0,0,1,.014.018,2.087,2.087,0,0,0,.606.567,1.314,1.314,0,0,0,.674.193,1.259,1.259,0,0,0,.486-.1,1.653,1.653,0,0,0,.465-.3l.009-.007a2.324,2.324,0,0,0,.193-.2l.014-.017a2.65,2.65,0,0,0,.214-.288,3.506,3.506,0,0,0,.335-.674Z" transform="translate(-1.533 -1.336)" fill="#ffe0a6" fill-rule="evenodd"/>
      <path id="Path_143" data-name="Path 143" d="M200.739,202.544l.02,0c.071-.014.138-.029.2-.045a4.482,4.482,0,0,0,.714-3.7A3.375,3.375,0,0,0,201,197.52a2.241,2.241,0,0,0-.933-.676.987.987,0,0,0-.913.084.482.482,0,0,0-.053.043.21.21,0,0,1-.093.06c-.107.029-.157-.015-.2-.183-.009-.034-.089-.046-.212-.036a2.068,2.068,0,0,0-.827.308,3.1,3.1,0,0,0-.914.841h0c-.66.919-.922,2.4.364,4.514.059.017.126.034.2.049l.024.005a3.932,3.932,0,0,1-.332-.733,4.923,4.923,0,0,1-.241-1.2v-.009c0-.048,0-.1,0-.147s0-.1,0-.142.005-.1.009-.141.009-.084.015-.134a2.79,2.79,0,0,1,1.081-1.816l0,0h0a.1.1,0,0,1,.03-.02.12.12,0,0,1,.16.056,1.247,1.247,0,0,0,.71.607,5.333,5.333,0,0,0,1.069.251,4.6,4.6,0,0,1,.884.2.679.679,0,0,1,.5.543h0v.008l0,.079h0c0,.023,0,.048,0,.075,0,.05,0,.107,0,.168,0,.034,0,.081,0,.138s0,.09,0,.128-.005.093-.008.13-.006.073-.01.117a.111.111,0,0,1,0,.025c-.012.1-.027.2-.044.295s-.039.2-.062.31-.05.209-.078.307-.058.2-.09.292h0l0,.012A3.844,3.844,0,0,1,200.739,202.544Z" transform="translate(-0.986 -0.165)" fill="#899ea3" fill-rule="evenodd"/>
      <path id="Path_144" data-name="Path 144" d="M196.241,209.434l0,0a2.271,2.271,0,0,0,1.067.952,4.192,4.192,0,0,0,1.758.4,3.878,3.878,0,0,0,1.666-.4,2.783,2.783,0,0,0,1.162-.956q-.069-.038-.142-.073a2.523,2.523,0,0,0-.394-.14l-.012.009a4.538,4.538,0,0,1-2.192.91,3.615,3.615,0,0,1-2.364-.923,2.564,2.564,0,0,0-.409.144C196.334,209.384,196.286,209.409,196.241,209.434Z" transform="translate(-0.959 -5.227)" fill="#899ea3" fill-rule="evenodd"/>
      <g id="Group_26" data-name="Group 26" transform="translate(193.883 196.367)">
        <path id="Path_145" data-name="Path 145" d="M196.713,203.322a.12.12,0,0,1,.128-.109l-.128.109Zm-.831-2.888v0Zm-.6,3.773,0,0a2.274,2.274,0,0,0,1.067.953,4.2,4.2,0,0,0,1.758.4,3.9,3.9,0,0,0,1.666-.4,2.784,2.784,0,0,0,1.162-.957c-.045-.026-.093-.049-.142-.072a2.532,2.532,0,0,0-.394-.141l-.012.009a4.538,4.538,0,0,1-2.192.91,3.614,3.614,0,0,1-2.364-.922,2.527,2.527,0,0,0-.409.144c-.049.023-.1.047-.142.072Zm1.359-1.563c.031.042.063.083.1.122l-.024.556v0a.348.348,0,0,1-.071.195.237.237,0,0,1-.137.088H196.5l-.1.017a4.329,4.329,0,0,0-1.078.29,2.25,2.25,0,0,0-1.236,1.481h0a6.928,6.928,0,0,0-.2,1.993v.154a.721.721,0,0,0,.211.509h0a.721.721,0,0,0,.511.212h7.006a.724.724,0,0,0,.723-.723V207.4h0a6.984,6.984,0,0,0-.2-2,2.251,2.251,0,0,0-1.236-1.481,4.311,4.311,0,0,0-1.077-.29l-.1-.017h0a.243.243,0,0,1-.144-.09.348.348,0,0,1-.071-.195h0l-.024-.559c.03-.036.059-.073.088-.112.089-.013.173-.028.25-.043.095-.019.182-.039.26-.06h0a.12.12,0,0,0,.069-.05,4.732,4.732,0,0,0,.771-3.939,3.612,3.612,0,0,0-.721-1.363,2.482,2.482,0,0,0-1.037-.746,1.219,1.219,0,0,0-1.128.112c-.066-.123-.226-.176-.443-.158a2.306,2.306,0,0,0-.931.342,3.345,3.345,0,0,0-.986.906h0c-.711.991-1,2.582.376,4.814a.114.114,0,0,0,.069.056c.08.025.167.047.262.068s.168.034.26.049Zm3.113-.264.02,0c.071-.014.138-.028.2-.044a4.482,4.482,0,0,0,.714-3.7,3.373,3.373,0,0,0-.672-1.274,2.241,2.241,0,0,0-.933-.675.986.986,0,0,0-.913.083.48.48,0,0,0-.053.044.209.209,0,0,1-.093.059c-.107.029-.157-.015-.2-.183-.01-.034-.09-.046-.213-.036a2.083,2.083,0,0,0-.828.308,3.1,3.1,0,0,0-.913.841h0c-.66.919-.922,2.405.364,4.514.059.017.126.033.2.049l.024,0a3.87,3.87,0,0,1-.333-.733,4.95,4.95,0,0,1-.241-1.2v-.009c0-.049,0-.1,0-.147s0-.1,0-.142.006-.1.009-.142.008-.084.015-.134a2.788,2.788,0,0,1,1.081-1.816l0,0h0a.12.12,0,0,1,.19.036,1.245,1.245,0,0,0,.71.607,5.333,5.333,0,0,0,1.069.252,4.589,4.589,0,0,1,.884.2.68.68,0,0,1,.5.543h0v.008l0,.08h0c0,.023,0,.047,0,.075,0,.051,0,.107,0,.168,0,.034,0,.081,0,.138s0,.09,0,.128,0,.093-.008.131-.006.074-.01.118a.11.11,0,0,1,0,.024c-.012.1-.027.2-.044.295s-.039.2-.062.31-.05.209-.078.307-.058.2-.09.292h0l-.005.012a3.775,3.775,0,0,1-.293.613Zm.072-.707q.045-.134.085-.275c.028-.1.053-.2.075-.3s.042-.2.059-.3.032-.2.043-.294l0-.01c0-.031.006-.067.009-.11h0c0-.046.006-.087.008-.124s0-.081,0-.121,0-.074,0-.133c0-.078,0-.132,0-.161s0-.043,0-.07l0-.073c-.02-.165-.153-.271-.346-.346a4.4,4.4,0,0,0-.834-.19,5.515,5.515,0,0,1-1.119-.265,1.531,1.531,0,0,1-.763-.591,2.486,2.486,0,0,0-.9,1.574c0,.034-.009.075-.013.125s-.008.092-.009.131,0,.09,0,.133,0,.082,0,.125v.014a4.7,4.7,0,0,0,.228,1.138,3.485,3.485,0,0,0,.452.9l.007.009.007.009a.1.1,0,0,1,.014.018,2.1,2.1,0,0,0,.606.568,1.319,1.319,0,0,0,.674.193,1.259,1.259,0,0,0,.486-.1,1.665,1.665,0,0,0,.466-.3l.009-.007a2.237,2.237,0,0,0,.192-.2.117.117,0,0,1,.014-.016,2.72,2.72,0,0,0,.214-.289,3.488,3.488,0,0,0,.335-.674Zm-.574,1.337-.031.028h0l-.008.007a1.889,1.889,0,0,1-.525.333,1.5,1.5,0,0,1-.578.118,1.556,1.556,0,0,1-.8-.227,2.051,2.051,0,0,1-.346-.259l-.014.323v.008a.586.586,0,0,1-.123.329.483.483,0,0,1-.279.174l-.012,0-.1.017c-.1.018-.2.036-.3.055a3.221,3.221,0,0,0,2.041.753,4.008,4.008,0,0,0,1.891-.753c-.1-.02-.2-.037-.3-.055l-.1-.017h0a.478.478,0,0,1-.291-.176.586.586,0,0,1-.123-.329h0v0l-.014-.329Zm1.888,1.326a2.091,2.091,0,0,1,.761,1.131,6.743,6.743,0,0,1,.194,1.933h0v.144a.483.483,0,0,1-.482.482h-7.006a.481.481,0,0,1-.341-.141h0a.48.48,0,0,1-.141-.34v-.155a6.734,6.734,0,0,1,.194-1.922h0a2.09,2.09,0,0,1,.761-1.131,2.517,2.517,0,0,0,1.167,1.043,4.437,4.437,0,0,0,1.862.42,4.126,4.126,0,0,0,1.771-.419A3.036,3.036,0,0,0,201.14,204.336Z" transform="translate(-193.883 -196.367)" fill="#30383b" fill-rule="evenodd"/>
      </g>
    </g>
  </g>
</svg>
