<svg id="Group_26" data-name="Group 26" xmlns="http://www.w3.org/2000/svg" width="10.145" height="14.283" viewBox="0 0 10.145 14.283">
  <path id="Path_145" data-name="Path 145" d="M197.28,204.715a.144.144,0,0,1,.153-.131l-.153.131Zm-1-3.467v0Zm-.72,4.528,0,0a2.73,2.73,0,0,0,1.28,1.143,5.042,5.042,0,0,0,2.11.476,4.676,4.676,0,0,0,2-.475,3.341,3.341,0,0,0,1.395-1.148c-.054-.031-.111-.059-.17-.087a3.039,3.039,0,0,0-.473-.169l-.014.011a5.446,5.446,0,0,1-2.631,1.092,4.337,4.337,0,0,1-2.837-1.107,3.037,3.037,0,0,0-.491.173c-.058.028-.115.056-.17.087Zm1.631-1.876c.037.051.075.1.115.147l-.029.668v0a.418.418,0,0,1-.085.234.285.285,0,0,1-.164.105h-.009l-.115.021a5.2,5.2,0,0,0-1.294.347,2.7,2.7,0,0,0-1.483,1.777h0a8.316,8.316,0,0,0-.246,2.392v.185a.865.865,0,0,0,.253.611h0a.866.866,0,0,0,.613.255h8.409a.869.869,0,0,0,.868-.868v-.173h0a8.384,8.384,0,0,0-.245-2.4,2.7,2.7,0,0,0-1.484-1.777,5.173,5.173,0,0,0-1.293-.347l-.115-.021h0a.292.292,0,0,1-.173-.108.418.418,0,0,1-.085-.234h0l-.029-.671c.036-.043.071-.088.106-.134.107-.016.207-.033.3-.051.114-.023.219-.046.313-.072h0a.144.144,0,0,0,.083-.06,5.679,5.679,0,0,0,.925-4.728,4.335,4.335,0,0,0-.866-1.636,2.98,2.98,0,0,0-1.245-.9,1.463,1.463,0,0,0-1.354.135c-.079-.147-.271-.211-.532-.189a2.769,2.769,0,0,0-1.118.411,4.014,4.014,0,0,0-1.183,1.087h0c-.853,1.189-1.2,3.1.451,5.779a.137.137,0,0,0,.083.068q.144.045.314.082c.1.021.2.041.313.058Zm3.736-.317.023,0c.085-.016.165-.034.24-.053a5.38,5.38,0,0,0,.857-4.444,4.047,4.047,0,0,0-.807-1.529,2.689,2.689,0,0,0-1.119-.81,1.183,1.183,0,0,0-1.1.1.58.58,0,0,0-.063.053.251.251,0,0,1-.111.071c-.129.035-.188-.019-.242-.22-.011-.041-.108-.056-.256-.043a2.5,2.5,0,0,0-.993.37,3.715,3.715,0,0,0-1.1,1.009h0c-.792,1.1-1.106,2.887.437,5.418.071.02.151.04.239.059l.029.006a4.647,4.647,0,0,1-.4-.879,5.941,5.941,0,0,1-.289-1.437v-.011c0-.058,0-.117,0-.177s0-.117,0-.171.007-.121.011-.17.01-.1.018-.161a3.347,3.347,0,0,1,1.3-2.179l0,0h0a.144.144,0,0,1,.228.043,1.494,1.494,0,0,0,.852.729,6.4,6.4,0,0,0,1.283.3,5.514,5.514,0,0,1,1.061.243.816.816,0,0,1,.6.652h0v.009l0,.1h0c0,.028,0,.057,0,.09,0,.061,0,.128,0,.2,0,.041,0,.1,0,.166s0,.108-.005.153-.006.111-.009.157-.007.088-.012.142a.131.131,0,0,1,0,.029c-.014.117-.032.236-.053.354s-.046.246-.075.372-.06.251-.093.369-.07.238-.108.351h0l-.006.014a4.533,4.533,0,0,1-.352.735Zm.086-.848c.036-.108.07-.218.1-.33s.063-.237.09-.355.05-.234.071-.357.038-.236.052-.353l0-.012c0-.038.007-.08.011-.132h0c0-.055.007-.1.009-.149s0-.1,0-.145,0-.088,0-.16c0-.093,0-.158,0-.193s0-.051,0-.084l0-.088c-.024-.2-.184-.325-.416-.416a5.278,5.278,0,0,0-1-.228,6.621,6.621,0,0,1-1.343-.318,1.837,1.837,0,0,1-.916-.71,2.984,2.984,0,0,0-1.076,1.89c-.006.041-.011.09-.016.15s-.009.11-.011.157,0,.108,0,.16,0,.1,0,.15v.016a5.642,5.642,0,0,0,.274,1.366,4.182,4.182,0,0,0,.543,1.084l.008.011.008.011a.122.122,0,0,1,.016.021,2.516,2.516,0,0,0,.728.681,1.583,1.583,0,0,0,.809.231,1.511,1.511,0,0,0,.583-.119,2,2,0,0,0,.559-.357l.011-.009a2.681,2.681,0,0,0,.231-.236.143.143,0,0,1,.016-.019,3.27,3.27,0,0,0,.257-.347,4.188,4.188,0,0,0,.4-.81Zm-.688,1.6-.037.033h0l-.01.008a2.268,2.268,0,0,1-.63.4,1.8,1.8,0,0,1-.694.142,1.867,1.867,0,0,1-.955-.273,2.462,2.462,0,0,1-.416-.311l-.016.388v.01a.7.7,0,0,1-.147.4.579.579,0,0,1-.335.209l-.014,0-.115.021c-.12.021-.24.043-.36.066a3.866,3.866,0,0,0,2.45.9,4.811,4.811,0,0,0,2.269-.9c-.12-.024-.239-.045-.358-.066l-.115-.021h0a.574.574,0,0,1-.349-.211.7.7,0,0,1-.147-.4h0v0l-.017-.394Zm2.266,1.592a2.509,2.509,0,0,1,.913,1.357,8.094,8.094,0,0,1,.233,2.32h0v.173a.58.58,0,0,1-.579.579h-8.409a.577.577,0,0,1-.409-.169h0a.576.576,0,0,1-.169-.409V209.6a8.08,8.08,0,0,1,.233-2.307h0a2.508,2.508,0,0,1,.913-1.357,3.021,3.021,0,0,0,1.4,1.252,5.325,5.325,0,0,0,2.235.5,4.952,4.952,0,0,0,2.126-.5A3.644,3.644,0,0,0,202.594,205.932Z" transform="translate(-193.883 -196.367)" fill="#30383b" fill-rule="evenodd"/>
</svg>
