<svg xmlns="http://www.w3.org/2000/svg" width="70" height="70" viewBox="0 0 70 70">
  <g id="icon" transform="translate(-0.525 -0.511)">
    <rect id="Mask" width="70" height="70" rx="16" transform="translate(0.525 0.511)" fill="#fff"/>
    <path id="allemo_logo" data-name="allemo logo" d="M45.19,24.67a19.83,19.83,0,0,1-12.84,18.5l-.76.27c-.85.22-1.69.42-2.54.58a17.12,17.12,0,0,1-3.31.33,13.21,13.21,0,0,1-2.19-.18,8.69,8.69,0,0,1-2.1-.66,9.31,9.31,0,0,1-1.89-1.21,8.83,8.83,0,0,1-1-1,10.161,10.161,0,0,1-.65-.86,10,10,0,0,1-1-2c-.05-.13-.09-.27-.14-.4a8,8,0,0,1-.42-2.55,7.35,7.35,0,0,1,.27-2A8.35,8.35,0,0,1,17,32.44c.08-.17.16-.34.25-.51a.61.61,0,0,1,.05-.12h0A11.59,11.59,0,0,1,20,28.45a13.88,13.88,0,0,1-1.29-2.64A8.59,8.59,0,0,1,18.16,23a7.35,7.35,0,0,1,1-3.76,8.25,8.25,0,0,1,2.71-2.74l.92-.58V16a7,7,0,0,1,.88-.3,7.76,7.76,0,0,1,3.86,0,8.08,8.08,0,0,1,1.79.72l.35.2v.39c-.07.62-.13,1.21-.2,1.75s-.14,1.11-.21,1.71l-.11.81-.8-.28a4,4,0,0,0-.87-.29,4.35,4.35,0,0,0-2.21.08,3.23,3.23,0,0,0-1.07.52,2.49,2.49,0,0,0-.72.8,2,2,0,0,0-.26,1q0,.135,0,.3a1.17,1.17,0,0,0,0,.26,6.62,6.62,0,0,0,.41,1.12c.19.41.39.81.59,1.17l.27.53c1-.29,2-.56,3-.8,1.17-.28,2.36-.54,3.53-.76l.85-.16L31,30.2l-1,.23-.58.11-1.79.37c-.47.11-1,.24-1.51.41l-.32.11a16.359,16.359,0,0,0-1.75.7,6.73,6.73,0,0,0-1.4.9,3.94,3.94,0,0,0-.92,1.12,2.73,2.73,0,0,0-.32,1.36,4.59,4.59,0,0,0,.3,1.76,3.56,3.56,0,0,0,.84,1.19,3.82,3.82,0,0,0,1.25.75,7.06,7.06,0,0,0,1.57.37h.76a10.586,10.586,0,0,0,2.238-.24c.852-.19,1.6-.37,2.292-.55l.37-.1.42-.1h.05a15.21,15.21,0,1,0-19.2-6.33c.18.33.38.63.58.93l.49.71-4.7,1.19-.23-.38a19.74,19.74,0,1,1,36.74-10Z" transform="translate(10.055 10.868)" fill="#0079fe"/>
  </g>
</svg>
