<svg xmlns="http://www.w3.org/2000/svg" width="33.158" height="33.162" viewBox="0 0 33.158 33.162">
  <path id="home-menu" d="M32.267,14.423l0,0L18.738.894a3.052,3.052,0,0,0-4.318,0L.9,14.414l-.014.014a3.052,3.052,0,0,0,2.032,5.2q.047,0,.094,0h.539v9.955a3.577,3.577,0,0,0,3.573,3.573h5.292a.972.972,0,0,0,.972-.972v-7.8a1.632,1.632,0,0,1,1.63-1.63H18.14a1.632,1.632,0,0,1,1.63,1.63v7.8a.971.971,0,0,0,.972.972h5.292a3.577,3.577,0,0,0,3.573-3.573V19.633h.5a3.053,3.053,0,0,0,2.16-5.21Zm0,0" transform="translate(0 0.001)" fill="#fff"/>
</svg>
