<svg xmlns="http://www.w3.org/2000/svg" width="19.001" height="19.003" viewBox="0 0 19.001 19.003">
  <path id="home-run_1_" data-name="home-run (1)" d="M18.49,8.265h0L10.737.512a1.749,1.749,0,0,0-2.474,0L.516,8.259l-.008.008a1.749,1.749,0,0,0,1.164,2.98l.054,0h.309v5.7A2.05,2.05,0,0,0,4.082,19H7.115a.557.557,0,0,0,.557-.557V13.973a.935.935,0,0,1,.934-.934h1.789a.935.935,0,0,1,.934.934v4.472a.557.557,0,0,0,.557.557h3.033a2.05,2.05,0,0,0,2.048-2.047v-5.7h.286A1.75,1.75,0,0,0,18.49,8.265Zm0,0" transform="translate(0 0.001)" fill="#d82221"/>
</svg>
