<svg id="Component_1383_36" data-name="Component 1383 – 36" xmlns="http://www.w3.org/2000/svg" width="13.204" height="13.283" viewBox="0 0 13.204 13.283">
  <path id="Path_72" data-name="Path 72" d="M64.267,143.824H56.184v1.325H68.571v-1.325h-4.3Z" transform="translate(-55.775 -132.067)" fill="#bfc7c9" fill-rule="evenodd"/>
  <rect id="Rectangle_9" data-name="Rectangle 9" width="3.824" height="4.995" transform="translate(4.686 6.762)" fill="#fac957"/>
  <path id="Path_73" data-name="Path 73" d="M57.569,141.67h2.848v-5.036a.181.181,0,0,1,.186-.176h3.87a.182.182,0,0,1,.187.176v5.036h2.857v-5.322a.181.181,0,0,1,.186-.176h1.2v-.782l-6.394-5.344-6.325,5.334v.793h1.2a.181.181,0,0,1,.186.176Z" transform="translate(-55.945 -129.775)" fill="#ebebeb" fill-rule="evenodd"/>
  <path id="Path_74" data-name="Path 74" d="M55.961,141.229h1.176v-4.983h-1.18a.177.177,0,0,1-.182-.171v-1.015a.168.168,0,0,1,.074-.138l6.373-5.308a.191.191,0,0,1,.24,0h0l6.452,5.328a.167.167,0,0,1,.062.128h0v1.006a.177.177,0,0,1-.182.171H67.62v4.983H68.8a.177.177,0,0,1,.182.171v1.284a.177.177,0,0,1-.182.171H55.961a.177.177,0,0,1-.183-.171V141.4a.177.177,0,0,1,.183-.171Zm1.541,0h2.792v-4.876a.177.177,0,0,1,.182-.171h3.795a.177.177,0,0,1,.182.171v4.876h2.8v-5.153a.177.177,0,0,1,.182-.171h1.174v-.758l-6.27-5.177-6.2,5.167v.768H57.32a.177.177,0,0,1,.182.171v5.153Zm3.156,0h3.431v-4.706H60.658v4.706Zm3.622.343H56.143v.941H68.614v-.941H64.28Z" transform="translate(-55.775 -129.572)" fill="#30383b" fill-rule="evenodd"/>
</svg>
