<svg xmlns="http://www.w3.org/2000/svg" width="56.911" height="52.538" viewBox="0 0 56.911 52.538">
  <g id="how-it-work" transform="translate(-26.265 -38.423)">
    <g id="freepik--background-simple--inject-36" transform="translate(26.265 38.423)">
      <path id="Path_4662" data-name="Path 4662" d="M64.847,39.1a25.114,25.114,0,0,0-18.593,2.817c-9.239,5.572-13.944,15.96-17.985,24.3s-1.8,16.5,5.2,19.931,11.814-2.369,21.672-3.125,12.5.474,20.711-5.3,9.776-18.525,3.386-27.59S64.847,39.1,64.847,39.1Z" transform="translate(-26.265 -38.423)" fill="#1fa5f4"/>
      <path id="Path_4663" data-name="Path 4663" d="M64.847,39.1a25.114,25.114,0,0,0-18.593,2.817c-9.239,5.572-13.944,15.96-17.985,24.3s-1.8,16.5,5.2,19.931,11.814-2.369,21.672-3.125,12.5.474,20.711-5.3,9.776-18.525,3.386-27.59S64.847,39.1,64.847,39.1Z" transform="translate(-26.265 -38.423)" fill="#fff" opacity="0.7"/>
    </g>
    <g id="freepik--Clouds--inject-36" transform="translate(29.691 40.852)">
      <path id="Path_4664" data-name="Path 4664" d="M66.893,68.521l-.082-.11a1.249,1.249,0,0,0-1.619-.343l-.086.049-.008-.1a2.508,2.508,0,0,0-4.953-.3l-.024.114-.083-.082a1.613,1.613,0,0,0-2.194-.06l-.084-.1a1.736,1.736,0,0,1,2.286-.011,2.635,2.635,0,0,1,5.17.331,1.377,1.377,0,0,1,1.618.323,2.3,2.3,0,0,1,.51-.9l.094.086a2.17,2.17,0,0,0-.512.965Z" transform="translate(-57.175 -64.563)" fill="#263238"/>
      <path id="Path_4665" data-name="Path 4665" d="M139.675,60.361l-.082-.081a2.14,2.14,0,0,0-2.6-.31l-.066-.109a2.268,2.268,0,0,1,2.678.252,3.456,3.456,0,0,1,3.888-2.575l-.02.126a3.332,3.332,0,0,0-3.769,2.584Z" transform="translate(-126.257 -57.496)" fill="#263238"/>
      <path id="Path_4666" data-name="Path 4666" d="M197.555,61.493a3.327,3.327,0,0,0-.8-.61l.061-.112a3.454,3.454,0,0,1,.826.633Z" transform="translate(-178.473 -60.355)" fill="#263238"/>
      <path id="Path_4667" data-name="Path 4667" d="M200.161,71.612H193.78v-.127h6.148a1.035,1.035,0,0,0-1.452-.189l-.07.054-.029-.084a1.67,1.67,0,0,0-2.4-.909l-.086.049-.009-.1a3.3,3.3,0,0,0-.631-1.668l.1-.076A3.429,3.429,0,0,1,196,70.2a1.8,1.8,0,0,1,2.468.944,1.163,1.163,0,0,1,1.635.37Z" transform="translate(-175.873 -67.154)" fill="#263238"/>
      <path id="Path_4668" data-name="Path 4668" d="M69.843,84.838H53.17v-.126a1.728,1.728,0,0,1,.316-1l.1.073a1.6,1.6,0,0,0-.293.925H69.843Z" transform="translate(-53.17 -80.374)" fill="#263238"/>
      <path id="Path_4669" data-name="Path 4669" d="M175.3,99.48H164.4l0-.059a.251.251,0,0,1,0-.033.809.809,0,0,1,1.3-.643,1.21,1.21,0,0,1,2.342.157.66.66,0,0,1,.237-.045.648.648,0,0,1,.44.172,1.044,1.044,0,0,1,1.635-.465,1.57,1.57,0,0,1,2.529-.762l-.083.1a1.443,1.443,0,0,0-2.348.8l-.024.113-.083-.081a.917.917,0,0,0-1.536.444l-.031.134-.082-.11a.52.52,0,0,0-.417-.21h0a.532.532,0,0,0-.257.067l-.084.047-.01-.1a1.082,1.082,0,0,0-2.131-.13l-.026.111-.081-.08a.681.681,0,0,0-1.158.449h9.9l-.015-.043a.7.7,0,0,0-.664-.476h-.005a.719.719,0,0,0-.35.091l-.086.048-.009-.1a1.435,1.435,0,0,0-.065-.317l.121-.039a1.562,1.562,0,0,1,.06.254.846.846,0,0,1,.328-.067h.006a.826.826,0,0,1,.754.487.553.553,0,0,1,.741.19Zm-.809-.127h.558a.425.425,0,0,0-.541-.014Z" transform="translate(-150.231 -92.342)" fill="#263238"/>
      <path id="Path_4670" data-name="Path 4670" d="M334.953,244.729l-.082-.11a.922.922,0,0,0-.737-.37h0a.906.906,0,0,0-.449.119l-.086.049-.009-.1a1.859,1.859,0,0,0-3.668-.224l-.025.113-.082-.081a1.191,1.191,0,0,0-1.617-.045l-.084-.1a1.314,1.314,0,0,1,1.71-.024,1.987,1.987,0,0,1,3.883.252,1.034,1.034,0,0,1,.427-.093h0a1.05,1.05,0,0,1,.758.326,1.7,1.7,0,0,1,.376-.651l.093.087a1.573,1.573,0,0,0-.378.712Z" transform="translate(-293.095 -218.941)" fill="#263238"/>
      <path id="Path_4671" data-name="Path 4671" d="M389.339,238.54l-.083-.081a1.584,1.584,0,0,0-1.928-.228l-.066-.109a1.711,1.711,0,0,1,2,.172,2.6,2.6,0,0,1,2.514-1.943,2.748,2.748,0,0,1,.4.031l-.019.126a2.616,2.616,0,0,0-.384-.03,2.484,2.484,0,0,0-2.414,1.95Z" transform="translate(-344.715 -213.573)" fill="#263238"/>
      <path id="Path_4672" data-name="Path 4672" d="M432.557,239.376a2.47,2.47,0,0,0-.6-.453l.061-.112a2.6,2.6,0,0,1,.627.477Z" transform="translate(-383.721 -215.72)" fill="#263238"/>
      <path id="Path_4673" data-name="Path 4673" d="M434.626,247h-4.8v-.127h4.559a.759.759,0,0,0-1.041-.112l-.07.053-.029-.083a1.231,1.231,0,0,0-1.77-.664l-.086.049-.009-.1a2.457,2.457,0,0,0-.469-1.241l.1-.076a2.584,2.584,0,0,1,.484,1.212,1.359,1.359,0,0,1,1.839.7.886.886,0,0,1,1.228.292Z" transform="translate(-381.862 -220.862)" fill="#263238"/>
      <path id="Path_4674" data-name="Path 4674" d="M337.094,256.829H324.62v-.109a1.309,1.309,0,0,1,.238-.756l.1.073a1.182,1.182,0,0,0-.215.665h12.347Z" transform="translate(-290.05 -230.688)" fill="#263238"/>
      <path id="Path_4675" data-name="Path 4675" d="M415.934,267.769h-8.182l-.005-.058a.172.172,0,0,1,0-.029.619.619,0,0,1,.974-.506.918.918,0,0,1,1.774.122.5.5,0,0,1,.161-.027h0a.5.5,0,0,1,.322.117.8.8,0,0,1,1.219-.348,1.192,1.192,0,0,1,1.139-.841h0a1.18,1.18,0,0,1,.767.284l-.083.1a1.052,1.052,0,0,0-.688-.253,1.07,1.07,0,0,0-1.041.841l-.024.113-.083-.081a.669.669,0,0,0-1.12.324l-.027.117h4.189l-.006-.015a.517.517,0,0,0-.485-.34h0a.508.508,0,0,0-.251.067l-.086.049-.009-.1a1.067,1.067,0,0,0-.048-.234l.121-.039a1.2,1.2,0,0,1,.042.173.635.635,0,0,1,.231-.044h0a.645.645,0,0,1,.574.352.427.427,0,0,1,.561.162Zm-.589-.127h.331a.3.3,0,0,0-.331,0Zm-7.469,0h3.152l-.07-.093a.376.376,0,0,0-.3-.15h0a.369.369,0,0,0-.182.048l-.086.049-.009-.1a.791.791,0,0,0-1.562-.094l-.024.114-.083-.082a.492.492,0,0,0-.836.308Z" transform="translate(-362.59 -239.621)" fill="#263238"/>
    </g>
    <g id="freepik--Binder--inject-36" transform="translate(35.312 51.53)">
      <rect id="Rectangle_600" data-name="Rectangle 600" width="17.381" height="25.664" transform="translate(0.064 1.937)" fill="#263238"/>
      <path id="Rectangle_600_-_Outline" data-name="Rectangle 600 - Outline" d="M-.436-.5H16.945a.064.064,0,0,1,.064.064V25.228a.064.064,0,0,1-.064.064H-.436A.064.064,0,0,1-.5,25.228V-.436A.064.064,0,0,1-.436-.5Zm17.317.127H-.373V25.164H16.881Z" transform="translate(0.5 2.373)" fill="#263238"/>
      <rect id="Rectangle_601" data-name="Rectangle 601" width="15.145" height="23.204" transform="translate(1.182 3.181)" fill="#fff"/>
      <path id="Rectangle_601_-_Outline" data-name="Rectangle 601 - Outline" d="M-.436-.5H14.708a.064.064,0,0,1,.064.064v23.2a.064.064,0,0,1-.064.064H-.436A.064.064,0,0,1-.5,22.767V-.436A.064.064,0,0,1-.436-.5Zm15.081.127H-.373V22.7H14.645Z" transform="translate(1.618 3.618)" fill="#263238"/>
      <path id="Path_4676" data-name="Path 4676" d="M136.844,150.32h5.965a.844.844,0,0,1,.844.844v1.8H136v-1.791a.844.844,0,0,1,.844-.851Z" transform="translate(-131.073 -149.176)" fill="#7d7d7d"/>
      <path id="Path_4676_-_Outline" data-name="Path 4676 - Outline" d="M136.408,149.82v0h5.965a.908.908,0,0,1,.908.908v1.8a.064.064,0,0,1-.064.064h-7.654a.064.064,0,0,1-.064-.064v-1.791a.908.908,0,0,1,.908-.914Zm6.746,2.641v-1.733a.781.781,0,0,0-.781-.781h-5.966a.781.781,0,0,0-.78.787v1.727Z" transform="translate(-130.636 -148.74)" fill="#263238"/>
      <path id="Path_4677" data-name="Path 4677" d="M155.813,141.84h1.019a.907.907,0,0,1,.917.912v.166H154.91v-.166a.907.907,0,0,1,.9-.912Z" transform="translate(-147.574 -141.776)" fill="#7d7d7d"/>
      <path id="Path_4677_-_Outline" data-name="Path 4677 - Outline" d="M156.406,141.34a.964.964,0,0,1,.684.282.976.976,0,0,1,.286.694v.165a.064.064,0,0,1-.064.064h-2.839a.064.064,0,0,1-.064-.064v-.166a.97.97,0,0,1,.966-.976h1.029Zm.843,1.077v-.1a.848.848,0,0,0-.249-.6.838.838,0,0,0-.6-.245h-1.02a.843.843,0,0,0-.839.848v.1Z" transform="translate(-147.138 -141.34)" fill="#263238"/>
      <circle id="Ellipse_368" data-name="Ellipse 368" cx="2.45" cy="2.45" r="2.45" transform="translate(10.13 4.405)" fill="#263238"/>
      <path id="Ellipse_368_-_Outline" data-name="Ellipse 368 - Outline" d="M2.014-.5A2.512,2.512,0,0,1,4.528,2.014,2.512,2.512,0,0,1,2.014,4.528,2.512,2.512,0,0,1-.5,2.014,2.512,2.512,0,0,1,2.014-.5Zm0,4.9A2.387,2.387,0,1,0-.373,2.014,2.389,2.389,0,0,0,2.014,4.4Z" transform="translate(10.566 4.841)" fill="#263238"/>
      <path id="Path_4678" data-name="Path 4678" d="M186.675,183.2h-1.046V182.16H184.4V183.2H183.36v1.225H184.4v1.046h1.225v-1.046h1.046Z" transform="translate(-172.401 -176.961)" fill="#1fa5f4"/>
      <path id="Path_4678_-_Outline" data-name="Path 4678 - Outline" d="M183.968,181.66h1.225a.064.064,0,0,1,.064.064v.981h.982a.064.064,0,0,1,.064.064v1.225a.064.064,0,0,1-.064.064h-.982v.982a.064.064,0,0,1-.064.064h-1.225a.064.064,0,0,1-.064-.064v-.982h-.981a.064.064,0,0,1-.064-.064v-1.225a.064.064,0,0,1,.064-.064h.981v-.981A.064.064,0,0,1,183.968,181.66Zm1.161.127h-1.1v.981a.064.064,0,0,1-.064.064h-.981v1.1h.981a.064.064,0,0,1,.064.064v.982h1.1v-.982a.064.064,0,0,1,.064-.064h.982v-1.1h-.982a.064.064,0,0,1-.064-.064Z" transform="translate(-171.965 -176.525)" fill="#263238"/>
      <path id="Line_21" data-name="Line 21" d="M5.473-.373H-.436A.064.064,0,0,1-.5-.436.064.064,0,0,1-.436-.5H5.473a.064.064,0,0,1,.064.064A.064.064,0,0,1,5.473-.373Z" transform="translate(2.927 7.22)" fill="#263238"/>
      <path id="Line_22" data-name="Line 22" d="M5.473-.373H-.436A.064.064,0,0,1-.5-.436.064.064,0,0,1-.436-.5H5.473a.064.064,0,0,1,.064.064A.064.064,0,0,1,5.473-.373Z" transform="translate(2.927 8.446)" fill="#263238"/>
      <path id="Line_23" data-name="Line 23" d="M12.03-.373H-.436A.064.064,0,0,1-.5-.436.064.064,0,0,1-.436-.5H12.03a.064.064,0,0,1,.064.064A.064.064,0,0,1,12.03-.373Z" transform="translate(2.927 12.481)" fill="#263238"/>
      <path id="Rectangle_602" data-name="Rectangle 602" d="M-.436-.5H1.005a.064.064,0,0,1,.064.064V1.077a.064.064,0,0,1-.064.064H-.436A.064.064,0,0,1-.5,1.077V-.436A.064.064,0,0,1-.436-.5ZM.942-.373H-.373V1.013H.942Z" transform="translate(3 13.634)" fill="#263238"/>
      <path id="Rectangle_603" data-name="Rectangle 603" d="M-.436-.5H1.005a.064.064,0,0,1,.064.064V1.077a.064.064,0,0,1-.064.064H-.436A.064.064,0,0,1-.5,1.077V-.436A.064.064,0,0,1-.436-.5ZM.942-.373H-.373V1.013H.942Z" transform="translate(9.701 13.634)" fill="#263238"/>
      <path id="Line_24" data-name="Line 24" d="M3.1-.373H-.436A.064.064,0,0,1-.5-.436.064.064,0,0,1-.436-.5H3.1a.064.064,0,0,1,.064.064A.064.064,0,0,1,3.1-.373Z" transform="translate(5.017 15.147)" fill="#263238"/>
      <path id="Line_25" data-name="Line 25" d="M3.1-.373H-.436A.064.064,0,0,1-.5-.436.064.064,0,0,1-.436-.5H3.1a.064.064,0,0,1,.064.064A.064.064,0,0,1,3.1-.373Z" transform="translate(11.718 15.147)" fill="#263238"/>
      <path id="Rectangle_604" data-name="Rectangle 604" d="M-.436-.5H1.005a.064.064,0,0,1,.064.064V1.077a.064.064,0,0,1-.064.064H-.436A.064.064,0,0,1-.5,1.077V-.436A.064.064,0,0,1-.436-.5ZM.942-.373H-.373V1.013H.942Z" transform="translate(3 16.588)" fill="#263238"/>
      <path id="Rectangle_605" data-name="Rectangle 605" d="M-.436-.5H1.005a.064.064,0,0,1,.064.064V1.077a.064.064,0,0,1-.064.064H-.436A.064.064,0,0,1-.5,1.077V-.436A.064.064,0,0,1-.436-.5ZM.942-.373H-.373V1.013H.942Z" transform="translate(9.701 16.588)" fill="#263238"/>
      <path id="Line_26" data-name="Line 26" d="M3.1-.373H-.436A.064.064,0,0,1-.5-.436.064.064,0,0,1-.436-.5H3.1a.064.064,0,0,1,.064.064A.064.064,0,0,1,3.1-.373Z" transform="translate(5.017 18.101)" fill="#263238"/>
      <path id="Line_27" data-name="Line 27" d="M3.1-.373H-.436A.064.064,0,0,1-.5-.436.064.064,0,0,1-.436-.5H3.1a.064.064,0,0,1,.064.064A.064.064,0,0,1,3.1-.373Z" transform="translate(11.718 18.101)" fill="#263238"/>
      <path id="Rectangle_606" data-name="Rectangle 606" d="M-.436-.5H1.005a.064.064,0,0,1,.064.064V1.077a.064.064,0,0,1-.064.064H-.436A.064.064,0,0,1-.5,1.077V-.436A.064.064,0,0,1-.436-.5ZM.942-.373H-.373V1.013H.942Z" transform="translate(3 19.543)" fill="#263238"/>
      <path id="Rectangle_607" data-name="Rectangle 607" d="M-.436-.5H1.005a.064.064,0,0,1,.064.064V1.077a.064.064,0,0,1-.064.064H-.436A.064.064,0,0,1-.5,1.077V-.436A.064.064,0,0,1-.436-.5ZM.942-.373H-.373V1.013H.942Z" transform="translate(9.701 19.543)" fill="#263238"/>
      <path id="Line_28" data-name="Line 28" d="M3.1-.373H-.436A.064.064,0,0,1-.5-.436.064.064,0,0,1-.436-.5H3.1a.064.064,0,0,1,.064.064A.064.064,0,0,1,3.1-.373Z" transform="translate(5.017 21.056)" fill="#263238"/>
      <path id="Line_29" data-name="Line 29" d="M3.1-.373H-.436A.064.064,0,0,1-.5-.436.064.064,0,0,1-.436-.5H3.1a.064.064,0,0,1,.064.064A.064.064,0,0,1,3.1-.373Z" transform="translate(11.718 21.056)" fill="#263238"/>
      <path id="Rectangle_608" data-name="Rectangle 608" d="M-.436-.5H1.005a.064.064,0,0,1,.064.064V1.077a.064.064,0,0,1-.064.064H-.436A.064.064,0,0,1-.5,1.077V-.436A.064.064,0,0,1-.436-.5ZM.942-.373H-.373V1.013H.942Z" transform="translate(3 22.498)" fill="#263238"/>
      <path id="Rectangle_609" data-name="Rectangle 609" d="M-.436-.5H1.005a.064.064,0,0,1,.064.064V1.077a.064.064,0,0,1-.064.064H-.436A.064.064,0,0,1-.5,1.077V-.436A.064.064,0,0,1-.436-.5ZM.942-.373H-.373V1.013H.942Z" transform="translate(9.701 22.498)" fill="#263238"/>
      <path id="Line_30" data-name="Line 30" d="M3.1-.373H-.436A.064.064,0,0,1-.5-.436.064.064,0,0,1-.436-.5H3.1a.064.064,0,0,1,.064.064A.064.064,0,0,1,3.1-.373Z" transform="translate(5.017 24.011)" fill="#263238"/>
      <path id="Line_31" data-name="Line 31" d="M3.1-.373H-.436A.064.064,0,0,1-.5-.436.064.064,0,0,1-.436-.5H3.1a.064.064,0,0,1,.064.064A.064.064,0,0,1,3.1-.373Z" transform="translate(11.718 24.011)" fill="#263238"/>
    </g>
    <g id="freepik--Money--inject-36" transform="translate(49.834 46.294)">
      <rect id="Rectangle_610" data-name="Rectangle 610" width="13.307" height="24.994" transform="translate(5.223 0.064)" fill="#1fa5f4"/>
      <path id="Rectangle_610_-_Outline" data-name="Rectangle 610 - Outline" d="M-.436-.5H12.871a.064.064,0,0,1,.064.064V24.558a.064.064,0,0,1-.064.064H-.436A.064.064,0,0,1-.5,24.558V-.436A.064.064,0,0,1-.436-.5Zm13.243.127H-.373V24.494h13.18Z" transform="translate(5.659 0.5)" fill="#263238"/>
      <path id="Path_4679" data-name="Path 4679" d="M273.063,115.41a1.28,1.28,0,0,1-1.28-1.28h-8.1a1.28,1.28,0,0,1-1.28,1.28v18.937a1.28,1.28,0,0,1,1.28,1.28v.085h8.114v-.085a1.28,1.28,0,0,1,1.28-1.28h.085V115.4C273.121,115.407,273.092,115.41,273.063,115.41ZM267.774,128.8a3.882,3.882,0,1,1,3.882-3.882A3.882,3.882,0,0,1,267.774,128.8Z" transform="translate(-255.897 -112.36)" fill="#fff"/>
      <path id="Path_4679_-_Outline" data-name="Path 4679 - Outline" d="M263.244,113.63h8.1a.064.064,0,0,1,.064.064,1.218,1.218,0,0,0,1.216,1.216c.021,0,.042,0,.068,0l.023,0a.064.064,0,0,1,.068.064v18.942a.064.064,0,0,1-.064.064h-.085a1.218,1.218,0,0,0-1.216,1.216v.085a.064.064,0,0,1-.064.064h-8.114a.064.064,0,0,1-.064-.064v-.085a1.218,1.218,0,0,0-1.216-1.216.064.064,0,0,1-.064-.064V114.974a.064.064,0,0,1,.064-.064,1.218,1.218,0,0,0,1.216-1.216A.064.064,0,0,1,263.244,113.63Zm8.041.127h-7.979a1.345,1.345,0,0,1-1.278,1.278v18.813a1.345,1.345,0,0,1,1.28,1.342v.022h7.986v-.022a1.345,1.345,0,0,1,1.344-1.344h.022V115.036h-.032A1.345,1.345,0,0,1,271.285,113.757Zm-3.947,6.782a3.933,3.933,0,1,1-1.536.31A3.921,3.921,0,0,1,267.338,120.539Zm0,7.763a3.818,3.818,0,1,0-3.818-3.818A3.822,3.822,0,0,0,267.338,128.3Z" transform="translate(-255.461 -111.923)" fill="#263238"/>
      <rect id="Rectangle_611" data-name="Rectangle 611" width="13.307" height="24.994" transform="translate(9.042 0.339) rotate(8.87)" fill="#1fa5f4"/>
      <path id="Rectangle_611_-_Outline" data-name="Rectangle 611 - Outline" d="M.064,0H13.371a.064.064,0,0,1,.064.064V25.058a.064.064,0,0,1-.064.064H.064A.064.064,0,0,1,0,25.058V.064A.064.064,0,0,1,.064,0ZM13.307.127H.127V24.994h13.18Z" transform="translate(8.989 0.266) rotate(8.87)" fill="#263238"/>
      <path id="Path_4680" data-name="Path 4680" d="M279.157,121.951a1.273,1.273,0,0,1-1.066-1.461l-8.007-1.251a1.281,1.281,0,0,1-1.462,1.067L265.7,139.018a1.28,1.28,0,0,1,1.067,1.459.37.37,0,0,1-.018.083l8.016,1.252a.27.27,0,0,1,.009-.084,1.274,1.274,0,0,1,1.462-1.067.491.491,0,0,1,.084.017l2.929-18.721A.419.419,0,0,1,279.157,121.951Zm-7.292,12.413a3.882,3.882,0,1,1,4.434-3.236A3.882,3.882,0,0,1,271.865,134.364Z" transform="translate(-258.777 -116.819)" fill="#fff"/>
      <path id="Path_4680_-_Outline" data-name="Path 4680 - Outline" d="M269.648,118.74h.01l8.007,1.251a.064.064,0,0,1,.053.073,1.21,1.21,0,0,0,1.013,1.388h0a.353.353,0,0,0,.078,0,.064.064,0,0,1,.065.073l-2.929,18.721a.064.064,0,0,1-.074.053l-.035-.008a.174.174,0,0,0-.038-.007h-.01a1.215,1.215,0,0,0-.193-.015,1.2,1.2,0,0,0-.713.233,1.218,1.218,0,0,0-.483.8.063.063,0,0,1,0,.01.219.219,0,0,0-.006.065.064.064,0,0,1-.074.063l-8.016-1.252a.064.064,0,0,1-.052-.078c0-.009,0-.018.007-.027a.172.172,0,0,0,.009-.041.065.065,0,0,1,0-.01,1.218,1.218,0,0,0-1.014-1.387.064.064,0,0,1-.053-.073l2.923-18.711a.064.064,0,0,1,.073-.053,1.232,1.232,0,0,0,.188.015,1.211,1.211,0,0,0,1.2-1.029A.064.064,0,0,1,269.648,118.74Zm7.935,1.368-7.884-1.231a1.343,1.343,0,0,1-1.46,1.066l-2.9,18.588a1.344,1.344,0,0,1,1.058,1.516.191.191,0,0,1,0,.025l7.878,1.23a.237.237,0,0,1,.006-.025,1.337,1.337,0,0,1,1.53-1.117l.026,0,2.907-18.582-.028,0a1.337,1.337,0,0,1-1.127-1.47Zm-5.56,6.039a3.989,3.989,0,0,1,.614.048,3.946,3.946,0,0,1-.6,7.844,3.988,3.988,0,0,1-.615-.048,3.946,3.946,0,0,1,.6-7.844Zm.011,7.765a3.818,3.818,0,0,0,.583-7.591,3.862,3.862,0,0,0-.594-.046,3.818,3.818,0,0,0-.585,7.591A3.859,3.859,0,0,0,272.034,133.912Z" transform="translate(-258.341 -116.383)" fill="#263238"/>
      <rect id="Rectangle_612" data-name="Rectangle 612" width="13.307" height="24.994" transform="translate(14.352 1.755) rotate(21.62)" fill="#1fa5f4"/>
      <path id="Rectangle_612_-_Outline" data-name="Rectangle 612 - Outline" d="M.064,0H13.371a.064.064,0,0,1,.064.064V25.058a.064.064,0,0,1-.064.064H.064A.064.064,0,0,1,0,25.058V.064A.064.064,0,0,1,.064,0ZM13.307.127H.127V24.994h13.18Z" transform="translate(14.316 1.672) rotate(21.62)" fill="#263238"/>
      <path id="Path_4681" data-name="Path 4681" d="M286.837,138.573a1.28,1.28,0,0,1-.718-1.656l-7.534-2.988a1.273,1.273,0,0,1-1.656.718l-6.979,17.605a1.274,1.274,0,0,1,.718,1.656c-.011.027-.023.052-.036.078l7.542,2.99c.009-.027.017-.055.027-.082a1.281,1.281,0,0,1,1.662-.717c.027.01.052.023.078.034l6.981-17.613A.839.839,0,0,1,286.837,138.573Zm-9.852,10.5a3.882,3.882,0,1,1,5.038-2.178A3.882,3.882,0,0,1,276.985,149.075Z" transform="translate(-262.486 -129.638)" fill="#fff"/>
      <path id="Path_4681_-_Outline" data-name="Path 4681 - Outline" d="M278.148,133.43a.064.064,0,0,1,.023,0l7.534,2.988a.064.064,0,0,1,.036.082,1.219,1.219,0,0,0,.682,1.573.769.769,0,0,0,.078.024.064.064,0,0,1,.043.085L279.564,155.8a.064.064,0,0,1-.085.035l-.023-.01-.051-.022h0a1.216,1.216,0,0,0-1.579.681c-.006.015-.011.031-.016.048l-.01.031a.064.064,0,0,1-.084.039l-7.542-2.99a.064.064,0,0,1-.033-.088c.011-.022.021-.044.034-.073a1.21,1.21,0,0,0-.683-1.572.064.064,0,0,1-.036-.083l6.979-17.605a.064.064,0,0,1,.083-.036,1.21,1.21,0,0,0,.928-.014,1.218,1.218,0,0,0,.645-.668.064.064,0,0,1,.059-.04Zm7.453,3.088-7.419-2.942a1.337,1.337,0,0,1-1.654.717L269.6,151.783a1.337,1.337,0,0,1,.7,1.714v0l-.008.018,7.416,2.94.007-.02h0a1.344,1.344,0,0,1,1.744-.753l.02.008L286.4,138.2l-.023-.008h0a1.344,1.344,0,0,1-.776-1.678Zm-7.622,4.566a3.958,3.958,0,1,1-1.149.172A3.926,3.926,0,0,1,277.979,141.083Zm0,7.765a3.821,3.821,0,1,0-1.4-.269A3.8,3.8,0,0,0,277.977,148.848Z" transform="translate(-262.05 -129.202)" fill="#263238"/>
      <rect id="Rectangle_613" data-name="Rectangle 613" width="13.307" height="24.994" transform="translate(19.583 4.566) rotate(35.41)" fill="#1fa5f4"/>
      <path id="Rectangle_613_-_Outline" data-name="Rectangle 613 - Outline" d="M.064,0H13.371a.064.064,0,0,1,.064.064V25.058a.064.064,0,0,1-.064.064H.064A.064.064,0,0,1,0,25.058V.064A.064.064,0,0,1,.064,0ZM13.307.127H.127V24.994h13.18Z" transform="translate(19.568 4.477) rotate(35.41)" fill="#263238"/>
      <path id="Path_4682" data-name="Path 4682" d="M293.2,165.138a1.274,1.274,0,0,1-.3-1.783l-6.606-4.7a1.28,1.28,0,0,1-1.783.3L273.54,174.394a1.274,1.274,0,0,1,.3,1.783c-.017.024-.034.045-.052.068l6.611,4.7c.015-.024.029-.048.047-.073a1.274,1.274,0,0,1,1.783-.3c.023.017.045.034.066.052l10.979-15.441Q293.24,165.164,293.2,165.138Zm-12.07,7.851a3.882,3.882,0,1,1,5.412-.914A3.882,3.882,0,0,1,281.133,172.99Z" transform="translate(-265.619 -151.219)" fill="#fff"/>
      <path id="Path_4682_-_Outline" data-name="Path 4682 - Outline" d="M285.861,158.16a.063.063,0,0,1,.037.012l6.606,4.7a.064.064,0,0,1,.015.089,1.21,1.21,0,0,0,.285,1.694c.023.016.045.03.066.041a.064.064,0,0,1,.021.093l-10.979,15.441a.064.064,0,0,1-.092.012c-.02-.017-.042-.034-.063-.05a1.2,1.2,0,0,0-.705-.227,1.21,1.21,0,0,0-.989.512h0c-.012.016-.022.033-.033.05l-.012.019a.064.064,0,0,1-.091.018l-6.611-4.7a.064.064,0,0,1-.013-.091l.018-.022c.011-.014.022-.028.032-.042h0a1.21,1.21,0,0,0-.285-1.694.064.064,0,0,1-.015-.089l10.974-15.433a.064.064,0,0,1,.089-.015,1.216,1.216,0,0,0,1.694-.287A.064.064,0,0,1,285.861,158.16Zm6.518,4.775-6.5-4.623a1.347,1.347,0,0,1-1.057.514,1.333,1.333,0,0,1-.723-.212l-10.9,15.331a1.337,1.337,0,0,1,.265,1.833l-.013.018,6.5,4.623.013-.019a1.337,1.337,0,0,1,1.872-.315l.016.012,10.9-15.331-.016-.011h0a1.337,1.337,0,0,1-.352-1.819Zm-9.43,2.509a3.944,3.944,0,0,1,3.212,6.232,3.941,3.941,0,0,1-3.219,1.659,3.944,3.944,0,0,1-3.212-6.232,3.941,3.941,0,0,1,3.219-1.66Zm-.007,7.764a3.819,3.819,0,1,0-2.209-.706A3.828,3.828,0,0,0,282.942,173.208Z" transform="translate(-265.182 -150.782)" fill="#263238"/>
      <circle id="Ellipse_369" data-name="Ellipse 369" cx="8.275" cy="8.275" r="8.275" transform="translate(0.064 9.954)" fill="#fff"/>
      <path id="Ellipse_369_-_Outline" data-name="Ellipse 369 - Outline" d="M7.839-.5A8.3,8.3,0,0,1,12.5.924a8.363,8.363,0,0,1,3.021,3.669,8.328,8.328,0,0,1-.769,7.908,8.363,8.363,0,0,1-3.669,3.021,8.328,8.328,0,0,1-7.908-.769A8.363,8.363,0,0,1,.155,11.085,8.328,8.328,0,0,1,.924,3.177,8.363,8.363,0,0,1,4.593.155,8.287,8.287,0,0,1,7.839-.5Zm0,16.551A8.212,8.212,0,1,0-.373,7.839,8.221,8.221,0,0,0,7.839,16.051Z" transform="translate(0.5 10.39)" fill="#263238"/>
      <path id="Line_32" data-name="Line 32" d="M.454-.373h-.89A.064.064,0,0,1-.5-.436.064.064,0,0,1-.436-.5h.89a.064.064,0,0,1,.064.064A.064.064,0,0,1,.454-.373Z" transform="translate(2.172 13.759)" fill="#263238"/>
      <path id="Line_33" data-name="Line 33" d="M.4-.373H-.436A.064.064,0,0,1-.5-.436.064.064,0,0,1-.436-.5H.4A.064.064,0,0,1,.46-.436.064.064,0,0,1,.4-.373Z" transform="translate(2.59 13.217)" fill="#263238"/>
      <path id="Line_34" data-name="Line 34" d="M.39-.373H-.436A.064.064,0,0,1-.5-.436.064.064,0,0,1-.436-.5H.39a.064.064,0,0,1,.064.064A.064.064,0,0,1,.39-.373Z" transform="translate(2.987 12.797)" fill="#263238"/>
      <path id="Line_35" data-name="Line 35" d="M.292-.373H-.436A.064.064,0,0,1-.5-.436.064.064,0,0,1-.436-.5H.292a.064.064,0,0,1,.064.064A.064.064,0,0,1,.292-.373Z" transform="translate(3.499 12.351)" fill="#263238"/>
      <path id="Line_36" data-name="Line 36" d="M.4-.373H-.436A.064.064,0,0,1-.5-.436.064.064,0,0,1-.436-.5H.4a.064.064,0,0,1,.064.064A.064.064,0,0,1,.4-.373Z" transform="translate(1.63 14.57)" fill="#263238"/>
      <path id="Line_37" data-name="Line 37" d="M.4-.373H-.436A.064.064,0,0,1-.5-.436.064.064,0,0,1-.436-.5H.4a.064.064,0,0,1,.064.064A.064.064,0,0,1,.4-.373Z" transform="translate(1.025 15.861)" fill="#263238"/>
      <path id="Line_38" data-name="Line 38" d="M.454-.373h-.89A.064.064,0,0,1-.5-.436.064.064,0,0,1-.436-.5h.89a.064.064,0,0,1,.064.064A.064.064,0,0,1,.454-.373Z" transform="translate(0.61 17.424)" fill="#263238"/>
      <path id="Line_39" data-name="Line 39" d="M.454-.373h-.89A.064.064,0,0,1-.5-.436.064.064,0,0,1-.436-.5h.89a.064.064,0,0,1,.064.064A.064.064,0,0,1,.454-.373Z" transform="translate(0.55 19.167)" fill="#263238"/>
      <circle id="Ellipse_370" data-name="Ellipse 370" cx="8.275" cy="8.275" r="8.275" transform="translate(0.846 9.954)" fill="#fff"/>
      <path id="Ellipse_370_-_Outline" data-name="Ellipse 370 - Outline" d="M7.839-.5A8.3,8.3,0,0,1,12.5.924a8.363,8.363,0,0,1,3.021,3.669,8.328,8.328,0,0,1-.769,7.908,8.363,8.363,0,0,1-3.669,3.021,8.328,8.328,0,0,1-7.908-.769A8.363,8.363,0,0,1,.155,11.085,8.328,8.328,0,0,1,.924,3.177,8.363,8.363,0,0,1,4.593.155,8.287,8.287,0,0,1,7.839-.5Zm0,16.551A8.212,8.212,0,1,0-.373,7.839,8.221,8.221,0,0,0,7.839,16.051Z" transform="translate(1.282 10.39)" fill="#263238"/>
      <circle id="Ellipse_371" data-name="Ellipse 371" cx="6.59" cy="6.59" r="6.59" transform="translate(1.218 23.169) rotate(-77.01)" fill="#fff"/>
      <path id="Ellipse_371_-_Outline" data-name="Ellipse 371 - Outline" d="M6.654,0a6.656,6.656,0,0,1,2.59,12.785A6.656,6.656,0,0,1,4.064.523,6.613,6.613,0,0,1,6.654,0Zm0,13.181A6.527,6.527,0,1,0,.127,6.654,6.534,6.534,0,0,0,6.654,13.181Z" transform="translate(1.142 23.217) rotate(-77.01)" fill="#263238"/>
      <path id="Path_4683" data-name="Path 4683" d="M282.127,191.581H282a6.588,6.588,0,1,1,0,13.175h.127a6.59,6.59,0,1,0,0-13.18Z" transform="translate(-273.001 -179.942)" fill="#fff"/>
      <path id="Path_4683_-_Outline" data-name="Path 4683 - Outline" d="M281.691,191.075a6.654,6.654,0,1,1,0,13.308h-.128a.064.064,0,0,1,0-.127h.067a6.524,6.524,0,0,0-.065-13.048h0a.064.064,0,1,1,0-.127h.1A.063.063,0,0,1,281.691,191.075Zm6.45,7.655a6.572,6.572,0,0,0-.033-2.2,6.757,6.757,0,0,1,.033,2.2Z" transform="translate(-272.565 -179.506)" fill="#263238"/>
      <path id="Path_4684" data-name="Path 4684" d="M262.429,211.749a.088.088,0,0,0-.07.083l.011.534a.176.176,0,0,1-.2.2h-.7a.176.176,0,0,1-.2-.2l.023-.545a.085.085,0,0,0-.071-.083,2.139,2.139,0,0,1-2.133-2.12v-.509a.182.182,0,0,1,.2-.2h1.232c.127,0,.2.06.2.154v.166a1.089,1.089,0,0,0,1.2,1.126.943.943,0,0,0,1.079-.936c0-.841-1.541-.972-2.674-1.707a2.315,2.315,0,0,1,.889-4.361.087.087,0,0,0,.071-.083l-.024-.637a.177.177,0,0,1,.2-.2h.676a.182.182,0,0,1,.2.2l-.011.628a.085.085,0,0,0,.071.083,2.215,2.215,0,0,1,2.227,2.24v.391a.181.181,0,0,1-.2.2h-1.244c-.127,0-.2-.047-.2-.118v-.117a1.108,1.108,0,0,0-1.184-1.2c-.663,0-1.066.344-1.066.876,0,.77,1.077.891,2.192,1.375a2.468,2.468,0,0,1,1.754,2.346A2.332,2.332,0,0,1,262.429,211.749Z" transform="translate(-253 -189.41)" fill="#fff"/>
      <path id="Path_4684_-_Outline" data-name="Path 4684 - Outline" d="M261.761,212.2l-.032,0h-.69l-.032,0a.239.239,0,0,1-.237-.273l.023-.539a.022.022,0,0,0-.017-.02,2.69,2.69,0,0,1-1.608-.714,2.035,2.035,0,0,1-.579-1.469v-.506a.246.246,0,0,1,.245-.269h1.253c.162,0,.266.085.266.218v.166a1.029,1.029,0,0,0,1.132,1.062c.748,0,1.015-.451,1.015-.872a.688.688,0,0,0-.374-.574,5.471,5.471,0,0,0-.947-.444,7.652,7.652,0,0,1-1.324-.634,2.868,2.868,0,0,1-.917-.828,2.2,2.2,0,0,1-.357-1.263,2.6,2.6,0,0,1,.145-.881,2.126,2.126,0,0,1,.427-.714,2.287,2.287,0,0,1,.688-.512,3.128,3.128,0,0,1,.926-.279.023.023,0,0,0,.018-.02l-.024-.631a.241.241,0,0,1,.238-.274l.031,0h.669a.248.248,0,0,1,.2.071.245.245,0,0,1,.07.2l-.011.623a.022.022,0,0,0,.017.02,3.255,3.255,0,0,1,.964.248,2.294,2.294,0,0,1,.719.49,2.184,2.184,0,0,1,.6,1.565v.387a.244.244,0,0,1-.243.27h-1.266c-.2,0-.266-.1-.266-.182V205.5a1.048,1.048,0,0,0-1.121-1.133c-.618,0-1,.311-1,.813a.671.671,0,0,0,.367.591,4.863,4.863,0,0,0,.959.41c.267.095.542.192.827.316h0a3.294,3.294,0,0,1,1.36,1.007,2.27,2.27,0,0,1,.432,1.4,2.725,2.725,0,0,1-.151.92,2.2,2.2,0,0,1-.445.745,2.341,2.341,0,0,1-.723.53,3.232,3.232,0,0,1-.977.28.024.024,0,0,0-.018.021l.011.527a.239.239,0,0,1-.237.272Zm-.727-.13h.709a.112.112,0,0,0,.128-.128.063.063,0,0,1,0-.009l-.011-.534s0,0,0,0a.151.151,0,0,1,.121-.143h0a2.281,2.281,0,0,0,2.189-2.349,2.412,2.412,0,0,0-1.716-2.288c-.28-.122-.554-.219-.818-.313a4.937,4.937,0,0,1-.986-.424.8.8,0,0,1-.426-.7.861.861,0,0,1,.307-.687,1.27,1.27,0,0,1,.822-.253,1.215,1.215,0,0,1,.951.385,1.307,1.307,0,0,1,.3.876v.117c0,.032.058.055.139.055H264a.119.119,0,0,0,.1-.033.116.116,0,0,0,.033-.1.064.064,0,0,1,0-.008v-.391a2.154,2.154,0,0,0-2.171-2.177h0a.149.149,0,0,1-.125-.145v0l.011-.628a.055.055,0,0,1,0-.006.118.118,0,0,0-.034-.1.12.12,0,0,0-.1-.034h-.693a.113.113,0,0,0-.129.13.067.067,0,0,1,0,.007l.024.637s0,0,0,0a.151.151,0,0,1-.124.144h0a2.207,2.207,0,0,0-2.079,2.26,2.176,2.176,0,0,0,1.214,1.983h0a7.552,7.552,0,0,0,1.3.623c.751.3,1.4.561,1.4,1.137a.967.967,0,0,1-.271.691,1.2,1.2,0,0,1-.871.309,1.273,1.273,0,0,1-.946-.356,1.188,1.188,0,0,1-.314-.834v-.166c0-.079-.087-.09-.139-.09h-1.253a.118.118,0,0,0-.118.132.062.062,0,0,1,0,.007v.509a2.072,2.072,0,0,0,2.077,2.057h0a.149.149,0,0,1,.125.145s0,0,0,0l-.023.545a.054.054,0,0,1,0,.007.112.112,0,0,0,.031.1.111.111,0,0,0,.079.033h.028Z" transform="translate(-252.564 -188.974)" fill="#263238"/>
      <path id="Path_4685" data-name="Path 4685" d="M264.419,211.749a.089.089,0,0,0-.071.083l.011.534a.176.176,0,0,1-.2.2h-.7a.176.176,0,0,1-.2-.2l.024-.545a.087.087,0,0,0-.071-.083,2.139,2.139,0,0,1-2.133-2.12v-.509a.181.181,0,0,1,.2-.2h1.233c.127,0,.2.06.2.154v.166a1.089,1.089,0,0,0,1.2,1.126.946.946,0,0,0,1.079-.936c0-.841-1.541-.972-2.674-1.707a2.315,2.315,0,0,1,.888-4.361.085.085,0,0,0,.071-.083l-.023-.637a.177.177,0,0,1,.2-.2h.666a.181.181,0,0,1,.2.2l-.011.628a.087.087,0,0,0,.071.083,2.215,2.215,0,0,1,2.227,2.24v.391a.181.181,0,0,1-.2.2h-1.244c-.127,0-.2-.047-.2-.118v-.117a1.108,1.108,0,0,0-1.186-1.2c-.663,0-1.066.344-1.066.876,0,.77,1.079.891,2.192,1.375a2.468,2.468,0,0,1,1.755,2.346A2.318,2.318,0,0,1,264.419,211.749Z" transform="translate(-254.737 -189.41)" fill="#263238"/>
    </g>
    <g id="freepik--House--inject-36" transform="translate(29.792 67.313)">
      <path id="Path_4686" data-name="Path 4686" d="M66.4,361.354H58.57v-8.506l3.68-3.808,4.153,3.808Z" transform="translate(-57.983 -338.372)" fill="#999"/>
      <path id="Path_4686_-_Outline" data-name="Path 4686 - Outline" d="M65.967,360.981H58.134a.064.064,0,0,1-.064-.064v-8.506a.064.064,0,0,1,.018-.044l3.68-3.808a.064.064,0,0,1,.089,0l4.153,3.808a.064.064,0,0,1,.021.047v8.506A.064.064,0,0,1,65.967,360.981Zm-7.77-.127H65.9V352.44l-4.087-3.747L58.2,352.437Z" transform="translate(-57.547 -337.936)" fill="#263238"/>
      <path id="Path_4687" data-name="Path 4687" d="M193.182,290.128H174.41V271.944l10.834-4.524,7.938,4.524Z" transform="translate(-159.07 -267.147)" fill="#999"/>
      <path id="Path_4687_-_Outline" data-name="Path 4687 - Outline" d="M192.745,289.756H173.974a.064.064,0,0,1-.064-.064V271.507a.064.064,0,0,1,.039-.059l10.834-4.524a.064.064,0,0,1,.056,0l7.938,4.524a.064.064,0,0,1,.032.055v18.185A.064.064,0,0,1,192.745,289.756Zm-18.708-.127h18.644V271.544l-7.879-4.49-10.766,4.5Z" transform="translate(-158.634 -266.71)" fill="#263238"/>
      <rect id="Rectangle_614" data-name="Rectangle 614" width="9.772" height="10.121" transform="translate(8.073 12.872)" fill="#fff"/>
      <path id="Rectangle_614_-_Outline" data-name="Rectangle 614 - Outline" d="M-.436-.5H9.335A.064.064,0,0,1,9.4-.436V9.684a.064.064,0,0,1-.064.064H-.436A.064.064,0,0,1-.5,9.684V-.436A.064.064,0,0,1-.436-.5Zm9.708.127H-.373V9.621H9.272Z" transform="translate(8.509 13.309)" fill="#263238"/>
      <rect id="Rectangle_615" data-name="Rectangle 615" width="5.368" height="8.517" transform="translate(23.756 14.476)" fill="#c2c2c2"/>
      <path id="Rectangle_615_-_Outline" data-name="Rectangle 615 - Outline" d="M-.436-.5H4.932A.064.064,0,0,1,5-.436V8.081a.064.064,0,0,1-.064.064H-.436A.064.064,0,0,1-.5,8.081V-.436A.064.064,0,0,1-.436-.5Zm5.3.127H-.373v8.39H4.868Z" transform="translate(24.193 14.912)" fill="#263238"/>
      <rect id="Rectangle_616" data-name="Rectangle 616" width="2.463" height="7.315" transform="translate(24.958 15.678)" fill="#fff"/>
      <path id="Rectangle_616_-_Outline" data-name="Rectangle 616 - Outline" d="M-.436-.5H2.027a.064.064,0,0,1,.064.064V6.879a.064.064,0,0,1-.064.064H-.436A.064.064,0,0,1-.5,6.879V-.436A.064.064,0,0,1-.436-.5Zm2.4.127H-.373V6.815H1.963Z" transform="translate(25.395 16.114)" fill="#263238"/>
      <rect id="Rectangle_617" data-name="Rectangle 617" width="1.686" height="7.315" transform="translate(25.347 15.678)" fill="#263238"/>
      <path id="Rectangle_617_-_Outline" data-name="Rectangle 617 - Outline" d="M-.436-.5H1.25a.064.064,0,0,1,.064.064V6.879a.064.064,0,0,1-.064.064H-.436A.064.064,0,0,1-.5,6.879V-.436A.064.064,0,0,1-.436-.5Zm1.622.127H-.373V6.815H1.186Z" transform="translate(25.783 16.114)" fill="#263238"/>
      <rect id="Rectangle_618" data-name="Rectangle 618" width="4.615" height="0.47" transform="translate(22.418 22.216)" fill="#fff"/>
      <path id="Rectangle_618_-_Outline" data-name="Rectangle 618 - Outline" d="M-.436-.5H4.179a.064.064,0,0,1,.064.064v.47A.064.064,0,0,1,4.179.1H-.436A.064.064,0,0,1-.5.034v-.47A.064.064,0,0,1-.436-.5Zm4.552.127H-.373V-.03H4.115Z" transform="translate(22.854 22.652)" fill="#263238"/>
      <rect id="Rectangle_619" data-name="Rectangle 619" width="2.463" height="0.601" transform="translate(24.958 15.678)" fill="#fff"/>
      <path id="Rectangle_619_-_Outline" data-name="Rectangle 619 - Outline" d="M-.436-.5H2.027a.064.064,0,0,1,.064.064v.6a.064.064,0,0,1-.064.064H-.436A.064.064,0,0,1-.5.165v-.6A.064.064,0,0,1-.436-.5Zm2.4.127H-.373V.1H1.963Z" transform="translate(25.395 16.114)" fill="#263238"/>
      <rect id="Rectangle_620" data-name="Rectangle 620" width="3.95" height="7.315" transform="translate(2.62 15.678)" fill="#fff"/>
      <path id="Rectangle_620_-_Outline" data-name="Rectangle 620 - Outline" d="M-.436-.5h3.95a.064.064,0,0,1,.064.064V6.879a.064.064,0,0,1-.064.064H-.436A.064.064,0,0,1-.5,6.879V-.436A.064.064,0,0,1-.436-.5ZM3.45-.373H-.373V6.815H3.45Z" transform="translate(3.056 16.114)" fill="#263238"/>
      <rect id="Rectangle_621" data-name="Rectangle 621" width="2.705" height="7.315" transform="translate(3.241 15.678)" fill="#263238"/>
      <path id="Rectangle_621_-_Outline" data-name="Rectangle 621 - Outline" d="M-.436-.5h2.7a.064.064,0,0,1,.064.064V6.879a.064.064,0,0,1-.064.064h-2.7A.064.064,0,0,1-.5,6.879V-.436A.064.064,0,0,1-.436-.5ZM2.2-.373H-.373V6.815H2.2Z" transform="translate(3.677 16.114)" fill="#263238"/>
      <rect id="Rectangle_622" data-name="Rectangle 622" width="3.95" height="0.601" transform="translate(2.62 15.678)" fill="#fff"/>
      <path id="Rectangle_622_-_Outline" data-name="Rectangle 622 - Outline" d="M-.436-.5h3.95a.064.064,0,0,1,.064.064v.6a.064.064,0,0,1-.064.064H-.436A.064.064,0,0,1-.5.165v-.6A.064.064,0,0,1-.436-.5ZM3.45-.373H-.373V.1H3.45Z" transform="translate(3.056 16.114)" fill="#263238"/>
      <rect id="Rectangle_623" data-name="Rectangle 623" width="3.139" height="5.682" transform="translate(17.443 14.304)" fill="#c2c2c2"/>
      <path id="Rectangle_623_-_Outline" data-name="Rectangle 623 - Outline" d="M-.436-.5H2.7a.064.064,0,0,1,.064.064V5.246A.064.064,0,0,1,2.7,5.31H-.436A.064.064,0,0,1-.5,5.246V-.436A.064.064,0,0,1-.436-.5Zm3.076.127H-.373V5.182H2.639Z" transform="translate(17.88 14.74)" fill="#263238"/>
      <path id="Path_4688" data-name="Path 4688" d="M306.973,290.128H293.48V271.944l6.667-4.524,6.826,4.524Z" transform="translate(-262.977 -267.147)" fill="#fff"/>
      <path id="Path_4688_-_Outline" data-name="Path 4688 - Outline" d="M306.537,289.756H293.044a.064.064,0,0,1-.064-.064V271.507a.064.064,0,0,1,.028-.053l6.667-4.524a.064.064,0,0,1,.071,0l6.826,4.524a.064.064,0,0,1,.029.053v18.185A.064.064,0,0,1,306.537,289.756Zm-13.429-.127h13.366V271.541l-6.762-4.481-6.6,4.481Z" transform="translate(-262.54 -266.71)" fill="#263238"/>
      <path id="Path_4689" data-name="Path 4689" d="M306.758,272.257l-7.008-4.547-6.71,4.586v.443l6.759-4.586,6.96,4.546Z" transform="translate(-262.593 -267.4)" fill="#fff"/>
      <path id="Path_4689_-_Outline" data-name="Path 4689 - Outline" d="M292.6,272.366a.064.064,0,0,1-.064-.064v-.443a.064.064,0,0,1,.028-.053l6.71-4.586a.064.064,0,0,1,.071,0l7.008,4.546a.064.064,0,0,1,.029.053v.443a.064.064,0,0,1-.1.053l-6.924-4.523-6.724,4.562A.064.064,0,0,1,292.6,272.366Zm.064-.473v.289l6.659-4.518a.064.064,0,0,1,.071,0l6.861,4.482v-.291l-6.944-4.5Z" transform="translate(-262.156 -266.963)" fill="#263238"/>
      <path id="Path_4690" data-name="Path 4690" d="M293.057,269.924l-5.727,9.158.783.1,5.961-9.772,7.532,11.112.4-.017-7.514-11.556Z" transform="translate(-257.61 -268.482)" fill="#263238"/>
      <path id="Path_4690_-_Outline" data-name="Path 4690 - Outline" d="M294.057,268.45h.013a.064.064,0,0,1,.041.028l7.514,11.556a.064.064,0,0,1-.051.1l-.4.017a.064.064,0,0,1-.055-.028l-7.476-11.03-5.91,9.687a.064.064,0,0,1-.062.03l-.783-.1a.064.064,0,0,1-.046-.1l5.727-9.158a.063.063,0,0,1,.018-.019l1.437-.974A.064.064,0,0,1,294.057,268.45Zm7.4,11.561L294.039,268.6l-1.372.93L287,278.6l.644.083,5.94-9.736a.064.064,0,0,1,.107,0l7.512,11.082Z" transform="translate(-257.173 -268.045)" fill="#263238"/>
      <path id="Path_4691" data-name="Path 4691" d="M184.076,271.944H168.11l6.312-4.524,16.309.092Z" transform="translate(-153.573 -267.147)" fill="#263238"/>
      <path id="Path_4691_-_Outline" data-name="Path 4691 - Outline" d="M183.64,271.571H167.674a.064.064,0,0,1-.037-.115l6.312-4.524a.065.065,0,0,1,.037-.012l16.309.092a.064.064,0,0,1,.035.117l-6.654,4.432A.064.064,0,0,1,183.64,271.571Zm-15.768-.127h15.749l6.465-4.306-16.08-.09Z" transform="translate(-153.136 -266.71)" fill="#263238"/>
      <rect id="Rectangle_624" data-name="Rectangle 624" width="7.57" height="10.338" transform="translate(32.865 12.643)" fill="#bababa"/>
      <path id="Rectangle_624_-_Outline" data-name="Rectangle 624 - Outline" d="M-.436-.5h7.57A.064.064,0,0,1,7.2-.436V9.9a.064.064,0,0,1-.064.064H-.436A.064.064,0,0,1-.5,9.9V-.436A.064.064,0,0,1-.436-.5ZM7.07-.373H-.373V9.838H7.07Z" transform="translate(33.301 13.079)" fill="#263238"/>
      <rect id="Rectangle_625" data-name="Rectangle 625" width="7.57" height="10.338" transform="translate(33.466 12.643)" fill="#fff"/>
      <path id="Rectangle_625_-_Outline" data-name="Rectangle 625 - Outline" d="M-.436-.5h7.57A.064.064,0,0,1,7.2-.436V9.9a.064.064,0,0,1-.064.064H-.436A.064.064,0,0,1-.5,9.9V-.436A.064.064,0,0,1-.436-.5ZM7.07-.373H-.373V9.838H7.07Z" transform="translate(33.902 13.079)" fill="#263238"/>
      <rect id="Rectangle_626" data-name="Rectangle 626" width="5.271" height="5.446" transform="translate(34.614 14.212)" fill="#fff"/>
      <path id="Rectangle_626_-_Outline" data-name="Rectangle 626 - Outline" d="M-.873-1H4.4a.127.127,0,0,1,.127.127V4.573A.127.127,0,0,1,4.4,4.7H-.873A.127.127,0,0,1-1,4.573V-.873A.127.127,0,0,1-.873-1Zm5.144.255H-.745V4.446H4.271Z" transform="translate(35.487 15.085)" fill="#263238"/>
      <rect id="Rectangle_627" data-name="Rectangle 627" width="2.216" height="5.446" transform="translate(36.143 14.212)" fill="#fff"/>
      <path id="Rectangle_627_-_Outline" data-name="Rectangle 627 - Outline" d="M-.873-1H1.343a.127.127,0,0,1,.127.127V4.573a.127.127,0,0,1-.127.127H-.873A.127.127,0,0,1-1,4.573V-.873A.127.127,0,0,1-.873-1Zm2.089.255H-.745V4.446H1.216Z" transform="translate(37.015 15.085)" fill="#263238"/>
      <rect id="Rectangle_628" data-name="Rectangle 628" width="9.23" height="0.923" transform="translate(32.034 12.181)" fill="#bababa"/>
      <path id="Rectangle_628_-_Outline" data-name="Rectangle 628 - Outline" d="M-.436-.5h9.23a.064.064,0,0,1,.064.064V.487a.064.064,0,0,1-.064.064H-.436A.064.064,0,0,1-.5.487V-.436A.064.064,0,0,1-.436-.5ZM8.73-.373h-9.1v.8h9.1Z" transform="translate(32.47 12.617)" fill="#263238"/>
      <rect id="Rectangle_629" data-name="Rectangle 629" width="9.23" height="0.923" transform="translate(32.635 12.181)" fill="#fff"/>
      <path id="Rectangle_629_-_Outline" data-name="Rectangle 629 - Outline" d="M-.436-.5h9.23a.064.064,0,0,1,.064.064V.487a.064.064,0,0,1-.064.064H-.436A.064.064,0,0,1-.5.487V-.436A.064.064,0,0,1-.436-.5ZM8.73-.373h-9.1v.8h9.1Z" transform="translate(33.072 12.617)" fill="#263238"/>
      <rect id="Rectangle_630" data-name="Rectangle 630" width="0.469" height="4.985" transform="translate(27.196 14.304)" fill="#fff"/>
      <path id="Rectangle_630_-_Outline" data-name="Rectangle 630 - Outline" d="M-.436-.5H.032A.064.064,0,0,1,.1-.436V4.548a.064.064,0,0,1-.064.064H-.436A.064.064,0,0,1-.5,4.548V-.436A.064.064,0,0,1-.436-.5Zm.4.127H-.373V4.485h.341Z" transform="translate(27.632 14.74)" fill="#263238"/>
      <rect id="Rectangle_631" data-name="Rectangle 631" width="0.469" height="4.985" transform="translate(28.501 14.304)" fill="#fff"/>
      <path id="Rectangle_631_-_Outline" data-name="Rectangle 631 - Outline" d="M-.436-.5H.032A.064.064,0,0,1,.1-.436V4.548a.064.064,0,0,1-.064.064H-.436A.064.064,0,0,1-.5,4.548V-.436A.064.064,0,0,1-.436-.5Zm.4.127H-.373V4.485h.341Z" transform="translate(28.938 14.74)" fill="#263238"/>
      <rect id="Rectangle_632" data-name="Rectangle 632" width="0.776" height="0.559" transform="translate(27.033 19.22)" fill="#fff"/>
      <path id="Rectangle_632_-_Outline" data-name="Rectangle 632 - Outline" d="M-.436-.5H.339A.064.064,0,0,1,.4-.436V.123A.064.064,0,0,1,.339.186H-.436A.064.064,0,0,1-.5.123V-.436A.064.064,0,0,1-.436-.5Zm.712.127H-.373V.059H.276Z" transform="translate(27.469 19.656)" fill="#263238"/>
      <rect id="Rectangle_633" data-name="Rectangle 633" width="0.776" height="0.559" transform="translate(28.347 19.22)" fill="#fff"/>
      <path id="Rectangle_633_-_Outline" data-name="Rectangle 633 - Outline" d="M-.436-.5H.339A.064.064,0,0,1,.4-.436V.123A.064.064,0,0,1,.339.186H-.436A.064.064,0,0,1-.5.123V-.436A.064.064,0,0,1-.436-.5Zm.712.127H-.373V.059H.276Z" transform="translate(28.784 19.656)" fill="#263238"/>
      <rect id="Rectangle_634" data-name="Rectangle 634" width="0.776" height="0.315" transform="translate(27.033 14.802)" fill="#fff"/>
      <path id="Rectangle_634_-_Outline" data-name="Rectangle 634 - Outline" d="M-.436-.5H.339A.064.064,0,0,1,.4-.436v.315a.064.064,0,0,1-.064.064H-.436A.064.064,0,0,1-.5-.122V-.436A.064.064,0,0,1-.436-.5Zm.712.127H-.373v.187H.276Z" transform="translate(27.469 15.238)" fill="#263238"/>
      <rect id="Rectangle_635" data-name="Rectangle 635" width="0.776" height="0.315" transform="translate(28.347 14.802)" fill="#fff"/>
      <path id="Rectangle_635_-_Outline" data-name="Rectangle 635 - Outline" d="M-.436-.5H.339A.064.064,0,0,1,.4-.436v.315a.064.064,0,0,1-.064.064H-.436A.064.064,0,0,1-.5-.122V-.436A.064.064,0,0,1-.436-.5Zm.712.127H-.373v.187H.276Z" transform="translate(28.784 15.238)" fill="#263238"/>
      <rect id="Rectangle_636" data-name="Rectangle 636" width="2.742" height="3.25" transform="translate(26.661 19.732)" fill="#fff"/>
      <path id="Rectangle_636_-_Outline" data-name="Rectangle 636 - Outline" d="M-.436-.5H2.306a.064.064,0,0,1,.064.064v3.25a.064.064,0,0,1-.064.064H-.436A.064.064,0,0,1-.5,2.814V-.436A.064.064,0,0,1-.436-.5Zm2.678.127H-.373V2.75H2.242Z" transform="translate(27.098 20.168)" fill="#263238"/>
      <rect id="Rectangle_637" data-name="Rectangle 637" width="0.469" height="4.985" transform="translate(20.583 14.304)" fill="#fff"/>
      <path id="Rectangle_637_-_Outline" data-name="Rectangle 637 - Outline" d="M-.436-.5H.032A.064.064,0,0,1,.1-.436V4.548a.064.064,0,0,1-.064.064H-.436A.064.064,0,0,1-.5,4.548V-.436A.064.064,0,0,1-.436-.5Zm.4.127H-.373V4.485h.341Z" transform="translate(21.019 14.74)" fill="#263238"/>
      <rect id="Rectangle_638" data-name="Rectangle 638" width="0.469" height="4.985" transform="translate(21.888 14.304)" fill="#fff"/>
      <path id="Rectangle_638_-_Outline" data-name="Rectangle 638 - Outline" d="M-.436-.5H.032A.064.064,0,0,1,.1-.436V4.548a.064.064,0,0,1-.064.064H-.436A.064.064,0,0,1-.5,4.548V-.436A.064.064,0,0,1-.436-.5Zm.4.127H-.373V4.485h.341Z" transform="translate(22.324 14.74)" fill="#263238"/>
      <rect id="Rectangle_639" data-name="Rectangle 639" width="0.776" height="0.559" transform="translate(20.42 19.22)" fill="#fff"/>
      <path id="Rectangle_639_-_Outline" data-name="Rectangle 639 - Outline" d="M-.436-.5H.339A.064.064,0,0,1,.4-.436V.123A.064.064,0,0,1,.339.186H-.436A.064.064,0,0,1-.5.123V-.436A.064.064,0,0,1-.436-.5Zm.712.127H-.373V.059H.276Z" transform="translate(20.856 19.656)" fill="#263238"/>
      <rect id="Rectangle_640" data-name="Rectangle 640" width="0.776" height="0.559" transform="translate(21.734 19.22)" fill="#fff"/>
      <path id="Rectangle_640_-_Outline" data-name="Rectangle 640 - Outline" d="M-.436-.5H.339A.064.064,0,0,1,.4-.436V.123A.064.064,0,0,1,.339.186H-.436A.064.064,0,0,1-.5.123V-.436A.064.064,0,0,1-.436-.5Zm.712.127H-.373V.059H.276Z" transform="translate(22.17 19.656)" fill="#263238"/>
      <rect id="Rectangle_641" data-name="Rectangle 641" width="0.776" height="0.315" transform="translate(20.42 14.802)" fill="#fff"/>
      <path id="Rectangle_641_-_Outline" data-name="Rectangle 641 - Outline" d="M-.436-.5H.339A.064.064,0,0,1,.4-.436v.315a.064.064,0,0,1-.064.064H-.436A.064.064,0,0,1-.5-.122V-.436A.064.064,0,0,1-.436-.5Zm.712.127H-.373v.187H.276Z" transform="translate(20.856 15.238)" fill="#263238"/>
      <rect id="Rectangle_642" data-name="Rectangle 642" width="0.776" height="0.315" transform="translate(21.734 14.802)" fill="#fff"/>
      <path id="Rectangle_642_-_Outline" data-name="Rectangle 642 - Outline" d="M-.436-.5H.339A.064.064,0,0,1,.4-.436v.315a.064.064,0,0,1-.064.064H-.436A.064.064,0,0,1-.5-.122V-.436A.064.064,0,0,1-.436-.5Zm.712.127H-.373v.187H.276Z" transform="translate(22.17 15.238)" fill="#263238"/>
      <rect id="Rectangle_643" data-name="Rectangle 643" width="2.742" height="3.25" transform="translate(20.049 19.732)" fill="#fff"/>
      <path id="Rectangle_643_-_Outline" data-name="Rectangle 643 - Outline" d="M-.436-.5H2.306a.064.064,0,0,1,.064.064v3.25a.064.064,0,0,1-.064.064H-.436A.064.064,0,0,1-.5,2.814V-.436A.064.064,0,0,1-.436-.5Zm2.678.127H-.373V2.75H2.242Z" transform="translate(20.485 20.168)" fill="#263238"/>
      <rect id="Rectangle_644" data-name="Rectangle 644" width="3.343" height="3.25" transform="translate(16.774 19.732)" fill="#999"/>
      <path id="Rectangle_644_-_Outline" data-name="Rectangle 644 - Outline" d="M-.436-.5H2.907a.064.064,0,0,1,.064.064v3.25a.064.064,0,0,1-.064.064H-.436A.064.064,0,0,1-.5,2.814V-.436A.064.064,0,0,1-.436-.5Zm3.279.127H-.373V2.75H2.843Z" transform="translate(17.21 20.168)" fill="#263238"/>
      <path id="Path_4692" data-name="Path 4692" d="M214.008,374.893H203.67l1.754-.923h8.585Z" transform="translate(-184.604 -360.127)" fill="#fff"/>
      <path id="Path_4692_-_Outline" data-name="Path 4692 - Outline" d="M213.572,374.521H203.234a.064.064,0,0,1-.03-.12l1.754-.923a.064.064,0,0,1,.03-.007h8.585a.064.064,0,0,1,.064.064v.923A.064.064,0,0,1,213.572,374.521Zm-10.081-.127h10.017v-.8H205Z" transform="translate(-184.168 -359.691)" fill="#263238"/>
      <path id="Line_40" data-name="Line 40" d="M4.733-.373H-.436A.064.064,0,0,1-.5-.436.064.064,0,0,1-.436-.5H4.733A.064.064,0,0,1,4.8-.436.064.064,0,0,1,4.733-.373Z" transform="translate(35.102 16.033)" fill="#263238"/>
      <path id="Line_41" data-name="Line 41" d="M4.733-.373H-.436A.064.064,0,0,1-.5-.436.064.064,0,0,1-.436-.5H4.733A.064.064,0,0,1,4.8-.436.064.064,0,0,1,4.733-.373Z" transform="translate(35.102 17.325)" fill="#263238"/>
      <path id="Line_42" data-name="Line 42" d="M4.733-.373H-.436A.064.064,0,0,1-.5-.436.064.064,0,0,1-.436-.5H4.733A.064.064,0,0,1,4.8-.436.064.064,0,0,1,4.733-.373Z" transform="translate(35.102 18.618)" fill="#263238"/>
      <path id="Path_4693" data-name="Path 4693" d="M58.207,347.66l-3.747,4.064h.313l3.679-3.888Z" transform="translate(-54.396 -337.168)" fill="#263238"/>
      <path id="Path_4693_-_Outline" data-name="Path 4693 - Outline" d="M57.77,347.16a.064.064,0,0,1,.037.012l.246.176a.064.064,0,0,1,.009.1l-3.679,3.888a.064.064,0,0,1-.046.02h-.313a.064.064,0,0,1-.047-.107l3.747-4.064A.064.064,0,0,1,57.77,347.16Zm.149.249-.141-.1-3.61,3.916h.141Z" transform="translate(-53.96 -336.732)" fill="#263238"/>
      <path id="Path_4694" data-name="Path 4694" d="M87.842,351.543H98.114l7.7-3.883H83.88Z" transform="translate(-80.07 -337.168)" fill="#263238"/>
      <path id="Path_4694_-_Outline" data-name="Path 4694 - Outline" d="M97.678,351.17H87.406a.064.064,0,0,1-.045-.018L83.4,347.269a.064.064,0,0,1,.045-.109h21.93a.064.064,0,0,1,.029.121l-7.7,3.883A.064.064,0,0,1,97.678,351.17Zm-10.246-.127H97.663l7.443-3.756H83.6Z" transform="translate(-79.633 -336.732)" fill="#263238"/>
      <path id="Path_4695" data-name="Path 4695" d="M184.661,347.66h-5.949l-10.6,3.883h5.311Z" transform="translate(-153.573 -337.168)" fill="#263238"/>
      <path id="Path_4695_-_Outline" data-name="Path 4695 - Outline" d="M178.276,347.16h5.949a.064.064,0,0,1,.021.124l-11.24,3.883a.064.064,0,0,1-.021,0h-5.311a.064.064,0,0,1-.022-.123l10.6-3.883A.064.064,0,0,1,178.276,347.16Zm5.569.127h-5.558l-10.254,3.756h4.941Z" transform="translate(-153.136 -336.732)" fill="#263238"/>
      <path id="Path_4696" data-name="Path 4696" d="M224.752,276.634l-6.988-10.722a.3.3,0,0,0-.509.008L210.967,276.3,198.8,280.218v.628l12.452-4a.3.3,0,0,0,.169-.127l6.1-10.076,7.231,11.095Z" transform="translate(-180.354 -265.71)" fill="#fff"/>
      <path id="Path_4696_-_Outline" data-name="Path 4696 - Outline" d="M198.364,280.474a.064.064,0,0,1-.064-.064v-.628a.064.064,0,0,1,.044-.061l12.145-3.908,6.275-10.364a.363.363,0,0,1,.618-.009l6.987,10.721a.064.064,0,0,1,.01.035v1.1a.064.064,0,0,1-.117.035l-7.176-11.01-6.046,9.989h0a.364.364,0,0,1-.2.154l-12.452,4A.064.064,0,0,1,198.364,280.474Zm.064-.645v.494l12.369-3.973h0a.237.237,0,0,0,.133-.1l6.1-10.075a.064.064,0,0,1,.108,0l7.114,10.915v-.871l-6.977-10.706a.235.235,0,0,0-.2-.109h0a.234.234,0,0,0-.2.115L210.585,275.9a.064.064,0,0,1-.035.028Z" transform="translate(-179.918 -265.273)" fill="#263238"/>
      <path id="Rectangle_645" data-name="Rectangle 645" d="M-.873-1H1.25a.127.127,0,0,1,.127.127V2.635a.127.127,0,0,1-.127.127H-.873A.127.127,0,0,1-1,2.635V-.873A.127.127,0,0,1-.873-1Zm2,.255H-.745V2.507H1.123Z" transform="translate(27.385 6.346)" fill="#263238"/>
      <path id="Line_43" data-name="Line 43" d="M-.436,2.95A.064.064,0,0,1-.5,2.886V-.436A.064.064,0,0,1-.436-.5a.064.064,0,0,1,.064.064V2.886A.064.064,0,0,1-.436,2.95Z" transform="translate(28.009 6.002)" fill="#263238"/>
      <path id="Line_44" data-name="Line 44" d="M1.594-.373H-.436A.064.064,0,0,1-.5-.436.064.064,0,0,1-.436-.5h2.03a.064.064,0,0,1,.064.064A.064.064,0,0,1,1.594-.373Z" transform="translate(26.994 7.663)" fill="#263238"/>
      <path id="Rectangle_646" data-name="Rectangle 646" d="M-.873-1H1.25a.127.127,0,0,1,.127.127V2.635a.127.127,0,0,1-.127.127H-.873A.127.127,0,0,1-1,2.635V-.873A.127.127,0,0,1-.873-1Zm2,.255H-.745V2.507H1.123Z" transform="translate(12.445 16.6)" fill="#263238"/>
      <path id="Line_45" data-name="Line 45" d="M-.436,2.951A.064.064,0,0,1-.5,2.888V-.436A.064.064,0,0,1-.436-.5a.064.064,0,0,1,.064.064V2.888A.064.064,0,0,1-.436,2.951Z" transform="translate(13.07 16.256)" fill="#263238"/>
      <path id="Line_46" data-name="Line 46" d="M1.595-.373H-.436A.064.064,0,0,1-.5-.436.064.064,0,0,1-.436-.5H1.595a.064.064,0,0,1,.064.064A.064.064,0,0,1,1.595-.373Z" transform="translate(12.055 17.918)" fill="#263238"/>
      <path id="Rectangle_647" data-name="Rectangle 647" d="M-.873-1H1.25a.127.127,0,0,1,.127.127V2.635a.127.127,0,0,1-.127.127H-.873A.127.127,0,0,1-1,2.635V-.873A.127.127,0,0,1-.873-1Zm2,.255H-.745V2.507H1.123Z" transform="translate(36.894 6.28)" fill="#263238"/>
      <path id="Line_47" data-name="Line 47" d="M-.436,2.951A.064.064,0,0,1-.5,2.888V-.436A.064.064,0,0,1-.436-.5a.064.064,0,0,1,.064.064V2.888A.064.064,0,0,1-.436,2.951Z" transform="translate(37.519 5.935)" fill="#263238"/>
      <path id="Line_48" data-name="Line 48" d="M1.594-.373H-.436A.064.064,0,0,1-.5-.436.064.064,0,0,1-.436-.5h2.03a.064.064,0,0,1,.064.064A.064.064,0,0,1,1.594-.373Z" transform="translate(36.504 7.597)" fill="#263238"/>
      <path id="Rectangle_648" data-name="Rectangle 648" d="M-.873-1H1.25a.127.127,0,0,1,.127.127V2.635a.127.127,0,0,1-.127.127H-.873A.127.127,0,0,1-1,2.635V-.873A.127.127,0,0,1-.873-1Zm2,.255H-.745V2.507H1.123Z" transform="translate(22.846 6.346)" fill="#263238"/>
      <path id="Line_49" data-name="Line 49" d="M-.436,2.95A.064.064,0,0,1-.5,2.886V-.436A.064.064,0,0,1-.436-.5a.064.064,0,0,1,.064.064V2.886A.064.064,0,0,1-.436,2.95Z" transform="translate(23.471 6.002)" fill="#263238"/>
      <path id="Line_50" data-name="Line 50" d="M1.595-.373H-.436A.064.064,0,0,1-.5-.436.064.064,0,0,1-.436-.5H1.595a.064.064,0,0,1,.064.064A.064.064,0,0,1,1.595-.373Z" transform="translate(22.456 7.663)" fill="#263238"/>
      <path id="Rectangle_649" data-name="Rectangle 649" d="M-.873-1H1.25a.127.127,0,0,1,.127.127V2.635a.127.127,0,0,1-.127.127H-.873A.127.127,0,0,1-1,2.635V-.873A.127.127,0,0,1-.873-1Zm2,.255H-.745V2.507H1.123Z" transform="translate(18.307 6.346)" fill="#263238"/>
      <path id="Line_51" data-name="Line 51" d="M-.436,2.95A.064.064,0,0,1-.5,2.886V-.436A.064.064,0,0,1-.436-.5a.064.064,0,0,1,.064.064V2.886A.064.064,0,0,1-.436,2.95Z" transform="translate(18.933 6.002)" fill="#263238"/>
      <path id="Line_52" data-name="Line 52" d="M1.595-.373H-.436A.064.064,0,0,1-.5-.436.064.064,0,0,1-.436-.5H1.595a.064.064,0,0,1,.064.064A.064.064,0,0,1,1.595-.373Z" transform="translate(17.917 7.663)" fill="#263238"/>
      <path id="Path_4697" data-name="Path 4697" d="M115.644,357.523h-1.2l-1.4-1.4h1.2Z" transform="translate(-105.516 -344.55)" fill="#6e6e6e"/>
      <path id="Path_4698" data-name="Path 4698" d="M144.754,357.523h-1.2l-1.4-1.4h1.2Z" transform="translate(-130.919 -344.55)" fill="#6e6e6e"/>
      <rect id="Rectangle_650" data-name="Rectangle 650" width="0.436" height="1.403" transform="translate(3.379 16.779)" fill="#b5b5b5"/>
      <path id="Rectangle_650_-_Outline" data-name="Rectangle 650 - Outline" d="M-.436-.5H0a.064.064,0,0,1,.064.064v1.4A.064.064,0,0,1,0,1.031H-.436A.064.064,0,0,1-.5.967v-1.4A.064.064,0,0,1-.436-.5Zm.372.127H-.373V.9h.308Z" transform="translate(3.815 17.216)" fill="#263238"/>
      <rect id="Rectangle_651" data-name="Rectangle 651" width="0.436" height="1.403" transform="translate(3.863 16.779)" fill="#b5b5b5"/>
      <path id="Rectangle_651_-_Outline" data-name="Rectangle 651 - Outline" d="M-.436-.5H0a.064.064,0,0,1,.064.064v1.4A.064.064,0,0,1,0,1.031H-.436A.064.064,0,0,1-.5.967v-1.4A.064.064,0,0,1-.436-.5Zm.372.127H-.373V.9h.308Z" transform="translate(4.299 17.216)" fill="#263238"/>
      <rect id="Rectangle_652" data-name="Rectangle 652" width="0.437" height="1.403" transform="translate(4.347 16.779)" fill="#b5b5b5"/>
      <path id="Rectangle_652_-_Outline" data-name="Rectangle 652 - Outline" d="M-.436-.5H0a.064.064,0,0,1,.064.064v1.4A.064.064,0,0,1,0,1.031H-.436A.064.064,0,0,1-.5.967v-1.4A.064.064,0,0,1-.436-.5Zm.373.127H-.373V.9h.309Z" transform="translate(4.783 17.216)" fill="#263238"/>
      <rect id="Rectangle_653" data-name="Rectangle 653" width="0.437" height="1.403" transform="translate(4.832 16.779)" fill="#b5b5b5"/>
      <path id="Rectangle_653_-_Outline" data-name="Rectangle 653 - Outline" d="M-.436-.5H0a.064.064,0,0,1,.064.064v1.4A.064.064,0,0,1,0,1.031H-.436A.064.064,0,0,1-.5.967v-1.4A.064.064,0,0,1-.436-.5Zm.373.127H-.373V.9h.309Z" transform="translate(5.268 17.216)" fill="#263238"/>
      <rect id="Rectangle_654" data-name="Rectangle 654" width="0.436" height="1.403" transform="translate(5.316 16.779)" fill="#b5b5b5"/>
      <path id="Rectangle_654_-_Outline" data-name="Rectangle 654 - Outline" d="M-.436-.5H0a.064.064,0,0,1,.064.064v1.4A.064.064,0,0,1,0,1.031H-.436A.064.064,0,0,1-.5.967v-1.4A.064.064,0,0,1-.436-.5Zm.372.127H-.373V.9h.308Z" transform="translate(5.752 17.216)" fill="#263238"/>
      <rect id="Rectangle_655" data-name="Rectangle 655" width="10.774" height="0.707" transform="translate(7.672 14.43)" fill="#fff"/>
      <path id="Rectangle_655_-_Outline" data-name="Rectangle 655 - Outline" d="M-.436-.5H10.338a.064.064,0,0,1,.064.064V.27a.064.064,0,0,1-.064.064H-.436A.064.064,0,0,1-.5.27V-.436A.064.064,0,0,1-.436-.5Zm10.71.127H-.373V.207H10.274Z" transform="translate(8.108 14.866)" fill="#263238"/>
      <rect id="Rectangle_656" data-name="Rectangle 656" width="4.043" height="0.707" transform="translate(14.402 14.43)" fill="#bababa"/>
      <path id="Rectangle_656_-_Outline" data-name="Rectangle 656 - Outline" d="M-.436-.5H3.607a.064.064,0,0,1,.064.064V.27a.064.064,0,0,1-.064.064H-.436A.064.064,0,0,1-.5.27V-.436A.064.064,0,0,1-.436-.5Zm3.98.127H-.373V.207H3.543Z" transform="translate(14.839 14.866)" fill="#263238"/>
      <path id="Path_4699" data-name="Path 4699" d="M62.068,351.6l-3.861-3.938-3.747,4.064h.523l3.237-3.451,3.847,4.032Z" transform="translate(-54.396 -337.168)" fill="#bababa"/>
      <path id="Path_4699_-_Outline" data-name="Path 4699 - Outline" d="M61.632,351.932a.064.064,0,0,1-.046-.02l-3.8-3.983-3.191,3.4a.064.064,0,0,1-.046.02h-.523a.064.064,0,0,1-.047-.107l3.747-4.064a.064.064,0,0,1,.092,0l3.861,3.938a.064.064,0,0,1,.018.045v.707a.064.064,0,0,1-.064.064Zm-3.847-4.159a.064.064,0,0,1,.046.02l3.738,3.917v-.522l-3.8-3.871-3.6,3.908h.351l3.218-3.431A.064.064,0,0,1,57.784,347.773Z" transform="translate(-53.96 -336.732)" fill="#263238"/>
      <rect id="Rectangle_657" data-name="Rectangle 657" width="4.615" height="0.439" transform="translate(22.418 22.554)" fill="#fff"/>
      <path id="Rectangle_657_-_Outline" data-name="Rectangle 657 - Outline" d="M-.436-.5H4.179a.064.064,0,0,1,.064.064V0a.064.064,0,0,1-.064.064H-.436A.064.064,0,0,1-.5,0V-.436A.064.064,0,0,1-.436-.5Zm4.552.127H-.373v.312H4.115Z" transform="translate(22.854 22.99)" fill="#263238"/>
      <rect id="Rectangle_658" data-name="Rectangle 658" width="15.971" height="0.442" transform="translate(14.476 4.896)" fill="#bababa"/>
      <path id="Rectangle_658_-_Outline" data-name="Rectangle 658 - Outline" d="M-.436-.5H15.535a.064.064,0,0,1,.064.064V.006a.064.064,0,0,1-.064.064H-.436A.064.064,0,0,1-.5.006V-.436A.064.064,0,0,1-.436-.5Zm15.908.127H-.373v.315H15.471Z" transform="translate(14.912 5.333)" fill="#263238"/>
    </g>
    <g id="freepik--Car--inject-36" transform="translate(36.901 84.113)">
      <rect id="Rectangle_659" data-name="Rectangle 659" width="1.131" height="0.707" rx="0.353" transform="translate(4.777 1.808)" fill="#263238"/>
      <path id="Rectangle_659_-_Outline" data-name="Rectangle 659 - Outline" d="M-.136-.5h.53a.365.365,0,0,1,.364.364V-.03A.365.365,0,0,1,.394.334h-.53A.365.365,0,0,1-.5-.03V-.136A.365.365,0,0,1-.136-.5Zm.53.707A.237.237,0,0,0,.631-.03V-.136A.237.237,0,0,0,.394-.373h-.53a.237.237,0,0,0-.237.237V-.03A.237.237,0,0,0-.136.207Z" transform="translate(5.213 2.245)" fill="#263238"/>
      <path id="Path_4700" data-name="Path 4700" d="M119.864,397.69h4.631l2.357,1.745,4.054.707v2.122H112.756l-1.366-.613v-.8l5.657-1.178,2.413-1.844A.668.668,0,0,1,119.864,397.69Z" transform="translate(-111.185 -397.626)" fill="#1fa5f4"/>
      <path id="Path_4700_-_Outline" data-name="Path 4700 - Outline" d="M119.428,397.19h4.631a.064.064,0,0,1,.038.013l2.345,1.736,4.039.7a.064.064,0,0,1,.053.063v2.122a.064.064,0,0,1-.064.064H112.32a.064.064,0,0,1-.026-.006l-1.366-.613a.064.064,0,0,1-.038-.058v-.8a.064.064,0,0,1,.051-.062l5.643-1.175,2.4-1.835A.735.735,0,0,1,119.428,397.19Zm4.61.127h-4.609a.607.607,0,0,0-.365.123l-2.413,1.844a.063.063,0,0,1-.026.012l-5.606,1.167v.709l1.316.59h18.072v-2l-4-.7a.064.064,0,0,1-.027-.012Z" transform="translate(-110.749 -397.19)" fill="#263238"/>
      <path id="Path_4701" data-name="Path 4701" d="M159.117,399.67H155.44l2.413-1.844a.667.667,0,0,1,.4-.136h3.452Z" transform="translate(-149.625 -397.626)" fill="#fff"/>
      <path id="Path_4701_-_Outline" data-name="Path 4701 - Outline" d="M158.68,399.3H155a.064.064,0,0,1-.039-.114l2.413-1.844a.735.735,0,0,1,.442-.149h3.453a.064.064,0,0,1,.039.114l-2.593,1.98A.064.064,0,0,1,158.68,399.3Zm-3.488-.127h3.467l2.426-1.853h-3.264a.607.607,0,0,0-.365.123Z" transform="translate(-149.189 -397.19)" fill="#263238"/>
      <circle id="Ellipse_372" data-name="Ellipse 372" cx="1.366" cy="1.366" r="1.366" transform="translate(5.249 4.825) rotate(-45)" fill="#fff"/>
      <path id="Ellipse_372_-_Outline" data-name="Ellipse 372 - Outline" d="M1.43,0A1.43,1.43,0,0,1,2.441,2.441,1.43,1.43,0,0,1,.419.419,1.421,1.421,0,0,1,1.43,0Zm0,2.733a1.3,1.3,0,1,0-1.3-1.3A1.3,1.3,0,0,0,1.43,2.733Z" transform="translate(5.159 4.825) rotate(-45)" fill="#263238"/>
      <circle id="Ellipse_373" data-name="Ellipse 373" cx="1.366" cy="1.366" r="1.366" transform="translate(5.825 4.078) rotate(-22.35)" fill="#263238"/>
      <path id="Ellipse_373_-_Outline" data-name="Ellipse 373 - Outline" d="M1.43,0A1.43,1.43,0,0,1,2.441,2.441,1.43,1.43,0,0,1,.419.419,1.421,1.421,0,0,1,1.43,0Zm0,2.733a1.3,1.3,0,1,0-1.3-1.3A1.3,1.3,0,0,0,1.43,2.733Z" transform="translate(5.742 4.043) rotate(-22.35)" fill="#263238"/>
      <path id="Path_4702" data-name="Path 4702" d="M165.364,430.237a.706.706,0,1,1-.207-.5.707.707,0,0,1,.207.5Z" transform="translate(-157.051 -425.411)" fill="#fff"/>
      <path id="Path_4702_-_Outline" data-name="Path 4702 - Outline" d="M164.22,430.571a.77.77,0,1,1,0-1.541h0a.764.764,0,0,1,.544.225.775.775,0,0,1,.225.545.77.77,0,0,1-.77.77Zm0-1.414h0a.642.642,0,1,0,.455.188A.644.644,0,0,0,164.221,429.157Z" transform="translate(-156.615 -424.975)" fill="#263238"/>
      <path id="Path_4703" data-name="Path 4703" d="M129.176,424.346a1.307,1.307,0,0,0-.213.018,1.275,1.275,0,0,0-.211-.018,1.368,1.368,0,1,0,0,2.734,1.269,1.269,0,0,0,.211-.019,1.3,1.3,0,0,0,.213.019,1.368,1.368,0,0,0,0-2.734Z" transform="translate(-125.106 -420.887)" fill="#263238"/>
      <path id="Path_4703_-_Outline" data-name="Path 4703 - Outline" d="M128.274,423.845h.043a1.339,1.339,0,0,1,.21.017,1.373,1.373,0,0,1,.212-.017h0a1.431,1.431,0,0,1,0,2.862h0a1.373,1.373,0,0,1-.212-.018,1.334,1.334,0,0,1-.21.018,1.431,1.431,0,1,1-.043-2.862Zm.253.146h-.011a1.213,1.213,0,0,0-.2-.017h-.042a1.3,1.3,0,0,0,0,2.608h.041a1.217,1.217,0,0,0,.2-.018.065.065,0,0,1,.022,0,1.244,1.244,0,0,0,.2.018,1.3,1.3,0,0,0,0-2.607,1.25,1.25,0,0,0-.2.017Z" transform="translate(-124.669 -420.45)" fill="#263238"/>
      <path id="Path_4704" data-name="Path 4704" d="M211.55,424.35a1.275,1.275,0,0,1-.425,0,1.368,1.368,0,0,0,0,2.734,1.193,1.193,0,0,1,.425,0,1.368,1.368,0,0,0,0-2.734Z" transform="translate(-197.061 -420.891)" fill="#263238"/>
      <path id="Path_4704_-_Outline" data-name="Path 4704 - Outline" d="M211.113,423.85h0a1.431,1.431,0,0,1,0,2.862h0a1.249,1.249,0,0,0-.424,0h0a1.431,1.431,0,0,1,0-2.862h0a1.341,1.341,0,0,0,.425,0Zm0,2.734a1.3,1.3,0,0,0,0-2.607,1.234,1.234,0,0,0-.2.017.064.064,0,0,1-.021,0,1.235,1.235,0,0,0-.2-.017,1.3,1.3,0,0,0,0,2.607,1.236,1.236,0,0,0,.2-.018.064.064,0,0,1,.022,0A1.237,1.237,0,0,0,211.113,426.584Z" transform="translate(-196.624 -420.455)" fill="#263238"/>
      <circle id="Ellipse_374" data-name="Ellipse 374" cx="1.366" cy="1.366" r="1.366" transform="translate(15.72 5.845) rotate(-76.65)" fill="#fff"/>
      <path id="Ellipse_374_-_Outline" data-name="Ellipse 374 - Outline" d="M1.43,0A1.43,1.43,0,0,1,2.441,2.441,1.43,1.43,0,0,1,.419.419,1.421,1.421,0,0,1,1.43,0Zm0,2.733a1.3,1.3,0,1,0-1.3-1.3A1.3,1.3,0,0,0,1.43,2.733Z" transform="translate(15.643 5.892) rotate(-76.65)" fill="#263238"/>
      <circle id="Ellipse_375" data-name="Ellipse 375" cx="1.366" cy="1.366" r="1.366" transform="translate(16.008 4.077) rotate(-22.35)" fill="#263238"/>
      <path id="Ellipse_375_-_Outline" data-name="Ellipse 375 - Outline" d="M1.43,0A1.43,1.43,0,0,1,2.441,2.441,1.43,1.43,0,0,1,.419.419,1.421,1.421,0,0,1,1.43,0Zm0,2.733a1.3,1.3,0,1,0-1.3-1.3A1.3,1.3,0,0,0,1.43,2.733Z" transform="translate(15.925 4.042) rotate(-22.35)" fill="#263238"/>
      <path id="Path_4705" data-name="Path 4705" d="M245.3,430.237a.708.708,0,1,1-.707-.707A.708.708,0,0,1,245.3,430.237Z" transform="translate(-226.802 -425.411)" fill="#fff"/>
      <path id="Path_4705_-_Outline" data-name="Path 4705 - Outline" d="M244.149,429.03h0a.772.772,0,1,1-.714.476A.771.771,0,0,1,244.15,429.03Zm0,1.416a.644.644,0,1,0,0-1.289h0a.644.644,0,1,0,0,1.289Z" transform="translate(-226.363 -424.975)" fill="#263238"/>
      <path id="Path_4706" data-name="Path 4706" d="M155.352,399.435l-2.086-1.545a1.019,1.019,0,0,0-.607-.2H148.14l-2.593,1.98-5.657,1.178v.8l1.366.613h.918a1.056,1.056,0,0,1-.022-.213V402a1.019,1.019,0,0,1,1.019-1.012h1.038A1.019,1.019,0,0,1,145.229,402v.047c0,.074-.009.144-.023.731h7.128c-.014-.587-.022-.657-.022-.731V402a1.019,1.019,0,0,1,1.012-1.012h1.038A1.019,1.019,0,0,1,155.381,402v.047a1.057,1.057,0,0,1-.023.213h1.508v-1.574a.861.861,0,0,0-.5-.779Z" transform="translate(-136.055 -397.626)" fill="#1fa5f4"/>
      <path id="Path_4706_-_Outline" data-name="Path 4706 - Outline" d="M147.7,397.19h4.52a1.09,1.09,0,0,1,.644.212l2.081,1.541,1.013.472a.925.925,0,0,1,.532.837v1.574a.064.064,0,0,1-.064.064h-1.508a.064.064,0,0,1-.062-.077,1,1,0,0,0,.022-.2v-.047a.957.957,0,0,0-.955-.949h-1.038a.959.959,0,0,0-.949.949v.047c0,.026,0,.051,0,.1,0,.089.01.254.019.627a.064.064,0,0,1-.064.065h-7.128a.064.064,0,0,1-.064-.065c.009-.383.016-.547.02-.635,0-.046,0-.071,0-.095v-.047a.957.957,0,0,0-.955-.949h-1.038a.957.957,0,0,0-.955.949v.047a1,1,0,0,0,.02.2.064.064,0,0,1-.062.076h-.918a.064.064,0,0,1-.026-.006l-1.366-.613a.064.064,0,0,1-.038-.058v-.8a.064.064,0,0,1,.051-.062l5.643-1.175,2.581-1.972A.064.064,0,0,1,147.7,397.19Zm8.662,4.573v-1.51a.8.8,0,0,0-.459-.722l-1.019-.475-.011-.007-2.086-1.545a.962.962,0,0,0-.568-.187h-4.5l-2.576,1.967a.063.063,0,0,1-.026.012l-5.606,1.167v.709l1.316.59h.829a1.122,1.122,0,0,1-.01-.149v-.047a1.083,1.083,0,0,1,1.082-1.076h1.038a1.083,1.083,0,0,1,1.082,1.076v.047c0,.027,0,.053,0,.1,0,.082-.01.231-.018.567h7c-.008-.327-.014-.477-.017-.56,0-.053,0-.079,0-.107v-.047a1.083,1.083,0,0,1,1.076-1.076h1.038a1.083,1.083,0,0,1,1.082,1.076v.047a1.123,1.123,0,0,1-.011.149Z" transform="translate(-135.619 -397.19)" fill="#263238"/>
      <path id="Path_4707" data-name="Path 4707" d="M192.826,400.29h-2.105l-2.161,1.649h4.266Z" transform="translate(-178.527 -399.895)" fill="#fff"/>
      <path id="Path_4707_-_Outline" data-name="Path 4707 - Outline" d="M190.285,399.79h2.105a.064.064,0,0,1,.064.064V401.5a.064.064,0,0,1-.064.064h-4.266a.064.064,0,0,1-.039-.114l2.161-1.649A.064.064,0,0,1,190.285,399.79Zm2.041.127h-2.02l-1.994,1.522h4.014Z" transform="translate(-178.091 -399.459)" fill="#263238"/>
      <path id="Path_4708" data-name="Path 4708" d="M224.84,400.29h1.714a1.019,1.019,0,0,1,.619.209l1.89,1.44H224.84Z" transform="translate(-210.187 -399.895)" fill="#fff"/>
      <path id="Path_4708_-_Outline" data-name="Path 4708 - Outline" d="M224.4,399.79h1.715a1.088,1.088,0,0,1,.657.222l1.89,1.44a.064.064,0,0,1-.039.114H224.4a.064.064,0,0,1-.064-.064v-1.649A.064.064,0,0,1,224.4,399.79Zm4.034,1.649-1.74-1.326a.961.961,0,0,0-.579-.2h-1.651v1.522Z" transform="translate(-209.751 -399.459)" fill="#263238"/>
      <rect id="Rectangle_660" data-name="Rectangle 660" width="3.63" height="0.801" transform="translate(0.205 3.222)" fill="#fff"/>
      <path id="Rectangle_660_-_Outline" data-name="Rectangle 660 - Outline" d="M-.436-.5h3.63a.064.064,0,0,1,.064.064v.8a.064.064,0,0,1-.064.064H-.436A.064.064,0,0,1-.5.365v-.8A.064.064,0,0,1-.436-.5ZM3.13-.373h-3.5V.3h3.5Z" transform="translate(0.641 3.658)" fill="#263238"/>
      <rect id="Rectangle_661" data-name="Rectangle 661" width="1.178" height="0.66" transform="translate(19.909 4.166)" fill="#263238"/>
      <path id="Rectangle_661_-_Outline" data-name="Rectangle 661 - Outline" d="M-.436-.5H.742a.064.064,0,0,1,.064.064v.66A.064.064,0,0,1,.742.287H-.436A.064.064,0,0,1-.5.223v-.66A.064.064,0,0,1-.436-.5ZM.678-.373H-.373V.16H.678Z" transform="translate(20.345 4.602)" fill="#263238"/>
      <rect id="Rectangle_662" data-name="Rectangle 662" width="5.044" height="0.801" transform="translate(0.064 4.024)" fill="#263238"/>
      <path id="Rectangle_662_-_Outline" data-name="Rectangle 662 - Outline" d="M-.436-.5H4.608a.064.064,0,0,1,.064.064v.8a.064.064,0,0,1-.064.064H-.436A.064.064,0,0,1-.5.365v-.8A.064.064,0,0,1-.436-.5Zm4.981.127H-.373V.3H4.544Z" transform="translate(0.5 4.461)" fill="#263238"/>
      <rect id="Rectangle_663" data-name="Rectangle 663" width="1.131" height="0.707" rx="0.353" transform="translate(10.151 1.808)" fill="#263238"/>
      <path id="Rectangle_663_-_Outline" data-name="Rectangle 663 - Outline" d="M-.136-.5h.53a.365.365,0,0,1,.364.364V-.03A.365.365,0,0,1,.394.334h-.53A.365.365,0,0,1-.5-.03V-.136A.365.365,0,0,1-.136-.5Zm.53.707A.237.237,0,0,0,.631-.03V-.136A.237.237,0,0,0,.394-.373h-.53a.237.237,0,0,0-.237.237V-.03A.237.237,0,0,0-.136.207Z" transform="translate(10.588 2.245)" fill="#263238"/>
      <rect id="Rectangle_664" data-name="Rectangle 664" width="0.848" height="0.66" transform="translate(2.797 3.27)" fill="#fff"/>
      <path id="Rectangle_664_-_Outline" data-name="Rectangle 664 - Outline" d="M-.436-.5H.412a.064.064,0,0,1,.064.064v.66A.064.064,0,0,1,.412.287H-.436A.064.064,0,0,1-.5.223v-.66A.064.064,0,0,1-.436-.5Zm.784.127H-.373V.16H.348Z" transform="translate(3.233 3.707)" fill="#263238"/>
      <rect id="Rectangle_665" data-name="Rectangle 665" width="0.848" height="0.66" transform="translate(0.346 3.27)" fill="#fff"/>
      <path id="Rectangle_665_-_Outline" data-name="Rectangle 665 - Outline" d="M-.436-.5H.412a.064.064,0,0,1,.064.064v.66A.064.064,0,0,1,.412.287H-.436A.064.064,0,0,1-.5.223v-.66A.064.064,0,0,1-.436-.5Zm.784.127H-.373V.16H.348Z" transform="translate(0.783 3.707)" fill="#263238"/>
      <path id="Line_53" data-name="Line 53" d="M1.119-.373H-.436A.064.064,0,0,1-.5-.436.064.064,0,0,1-.436-.5H1.119a.064.064,0,0,1,.064.064A.064.064,0,0,1,1.119-.373Z" transform="translate(1.631 3.942)" fill="#263238"/>
      <path id="Line_54" data-name="Line 54" d="M1.119-.373H-.436A.064.064,0,0,1-.5-.436.064.064,0,0,1-.436-.5H1.119a.064.064,0,0,1,.064.064A.064.064,0,0,1,1.119-.373Z" transform="translate(1.631 4.183)" fill="#263238"/>
      <path id="Line_55" data-name="Line 55" d="M5.312-.745H-.873A.127.127,0,0,1-1-.873.127.127,0,0,1-.873-1H5.312a.127.127,0,0,1,.127.127A.127.127,0,0,1,5.312-.745Z" transform="translate(10.587 5.226)" fill="#263238"/>
      <path id="Path_4709" data-name="Path 4709" d="M186.7,403.139h-4.839a.064.064,0,0,1-.064-.064v-.544a1.588,1.588,0,0,0-.261-.873l-.149-.227a.064.064,0,0,1,.011-.082l.839-.751a.064.064,0,1,1,.085.095l-.8.715.119.181a1.715,1.715,0,0,1,.282.943v.48h4.712V398.5a.064.064,0,0,1,.127,0v4.572A.064.064,0,0,1,186.7,403.139Z" transform="translate(-172.262 -398.281)" fill="#263238"/>
      <path id="Path_4710" data-name="Path 4710" d="M226.191,416.233h-1.368a.064.064,0,1,1,0-.127h1.3v-.484a.973.973,0,0,1,.286-.692l.1-.1a.973.973,0,0,1,.692-.287h1.768v-.974a.064.064,0,1,1,.127,0V414.6a.064.064,0,0,1-.064.064H227.21a.846.846,0,0,0-.6.25l-.1.1a.846.846,0,0,0-.249.6v.548A.064.064,0,0,1,226.191,416.233Z" transform="translate(-210.117 -411.423)" fill="#263238"/>
      <rect id="Rectangle_666" data-name="Rectangle 666" width="0.574" height="0.329" transform="translate(13.717 2.542)" fill="#263238"/>
      <path id="Rectangle_666_-_Outline" data-name="Rectangle 666 - Outline" d="M-.436-.5H.138A.064.064,0,0,1,.2-.436v.329a.064.064,0,0,1-.064.064H-.436A.064.064,0,0,1-.5-.108V-.436A.064.064,0,0,1-.436-.5Zm.511.127H-.373v.2H.074Z" transform="translate(14.153 2.978)" fill="#263238"/>
      <rect id="Rectangle_667" data-name="Rectangle 667" width="0.574" height="0.329" transform="translate(18.174 2.542)" fill="#263238"/>
      <path id="Rectangle_667_-_Outline" data-name="Rectangle 667 - Outline" d="M-.436-.5H.138A.064.064,0,0,1,.2-.436v.329a.064.064,0,0,1-.064.064H-.436A.064.064,0,0,1-.5-.108V-.436A.064.064,0,0,1-.436-.5Zm.511.127H-.373v.2H.074Z" transform="translate(18.611 2.978)" fill="#263238"/>
    </g>
    <g id="freepik--Plants--inject-36" transform="translate(26.819 86.81)">
      <path id="Path_4711" data-name="Path 4711" d="M403,421.84s-1.1-1.1-.79-1.933,1.146.4,1.146.4.088-1.933.7-1.933.484,1.625.484,1.625.35-.439.746-.176.043,1.625.043,1.625.264-1.186.835-1.186.043,1.537.043,1.537" transform="translate(-354.835 -418.37)" fill="#1fa5f4"/>
      <path id="Path_4712" data-name="Path 4712" d="M406.453,430.453a.064.064,0,0,1-.057-.092c.079-.157.236-.6.02-.754a.169.169,0,0,0-.139-.029c-.19.039-.405.337-.472.448a.064.064,0,0,1-.112,0s-.252-.491-.646-.491c-.286,0-.38.347-.408.513-.005.052-.011.086-.012.092a.064.064,0,0,1-.126-.015s0-.039.012-.093c.021-.205.045-.718-.207-.906a.135.135,0,0,0-.127-.027c-.205.061-.414.526-.478.7a.064.064,0,0,1-.123-.032,4.235,4.235,0,0,0,.047-.569,1.242,1.242,0,0,0-.179-.8.281.281,0,0,0-.241-.094.379.379,0,0,0-.289.149,1.77,1.77,0,0,0-.135,1.1.064.064,0,0,1-.118.043c-.073-.126-.234-.334-.353-.355a.09.09,0,0,0-.078.021c-.027.022-.025.092,0,.188a1.984,1.984,0,0,0,.171.373,5.823,5.823,0,0,0,.32.5.064.064,0,0,1-.1.075,5.847,5.847,0,0,1-.328-.512c-.22-.392-.266-.621-.145-.721a.218.218,0,0,1,.182-.048.576.576,0,0,1,.3.211,1.489,1.489,0,0,1,.188-.947.507.507,0,0,1,.381-.2.407.407,0,0,1,.343.136,1.66,1.66,0,0,1,.2,1.085.81.81,0,0,1,.4-.421.263.263,0,0,1,.24.047.846.846,0,0,1,.264.623.457.457,0,0,1,.4-.239.914.914,0,0,1,.706.469,1.015,1.015,0,0,1,.5-.419.294.294,0,0,1,.239.05c.349.249.033.887.02.915A.064.064,0,0,1,406.453,430.453Z" transform="translate(-354.778 -426.924)" fill="#263238"/>
      <path id="Path_4713" data-name="Path 4713" d="M295.417,428.769s-.778-.778-.56-1.369.809.28.809.28.062-1.37.5-1.37.343,1.153.343,1.153.255-.312.53-.127.031,1.146.031,1.146.187-.841.591-.841.032,1.089.032,1.089" transform="translate(-261.171 -425.299)" fill="#1fa5f4"/>
      <path id="Path_4714" data-name="Path 4714" d="M297.745,434.838a.064.064,0,0,1-.057-.092s.188-.39.02-.511a.1.1,0,0,0-.084-.018c-.128.026-.276.232-.323.309a.064.064,0,0,1-.111,0s-.174-.338-.441-.338c-.188,0-.252.234-.271.347,0,.037-.008.061-.009.066a.064.064,0,0,1-.126-.015s0-.031.01-.074c.018-.177.016-.5-.14-.617a.078.078,0,0,0-.074-.016c-.123.036-.265.317-.326.485a.064.064,0,0,1-.123-.032c.034-.2.083-.764-.088-.954a.183.183,0,0,0-.156-.061.251.251,0,0,0-.192.1,1.236,1.236,0,0,0-.092.761.064.064,0,0,1-.118.042c-.054-.094-.163-.232-.238-.247a.045.045,0,0,0-.04.01s-.048.058.127.369a4.132,4.132,0,0,0,.226.352.064.064,0,0,1-.1.075,4.169,4.169,0,0,1-.233-.364c-.161-.287-.192-.456-.1-.532a.173.173,0,0,1,.144-.036.374.374,0,0,1,.184.118,1.01,1.01,0,0,1,.14-.629.377.377,0,0,1,.284-.146.307.307,0,0,1,.259.1.959.959,0,0,1,.154.642q0,.031,0,.062a.53.53,0,0,1,.253-.24.2.2,0,0,1,.187.036.577.577,0,0,1,.189.4.331.331,0,0,1,.27-.136.65.65,0,0,1,.5.318.694.694,0,0,1,.349-.283.229.229,0,0,1,.184.039c.259.186.03.651.02.671A.064.064,0,0,1,297.745,434.838Z" transform="translate(-261.01 -431.298)" fill="#263238"/>
      <path id="Path_4715" data-name="Path 4715" d="M31.411,427.966s-.815-.815-.587-1.435.848.293.848.293.066-1.434.522-1.434.359,1.206.359,1.206.255-.326.554-.127.033,1.206.033,1.206.195-.88.619-.88.033,1.146.033,1.146" transform="translate(-30.762 -424.496)" fill="#1fa5f4"/>
      <path id="Path_4716" data-name="Path 4716" d="M33.873,434.3a.064.064,0,0,1-.057-.092s.2-.413.02-.54a.107.107,0,0,0-.09-.019c-.135.028-.291.245-.339.326a.064.064,0,0,1-.112,0s-.183-.356-.465-.356c-.2,0-.263.235-.286.358,0,.045-.01.074-.011.079a.064.064,0,0,1-.126-.015.844.844,0,0,1,.012-.087c.02-.188.017-.52-.149-.641a.089.089,0,0,0-.084-.017c-.13.04-.278.334-.34.509a.064.064,0,0,1-.123-.032c.035-.212.087-.808-.093-1.008a.194.194,0,0,0-.166-.065.267.267,0,0,0-.2.1,1.3,1.3,0,0,0-.1.8.064.064,0,0,1-.118.043c-.053-.09-.167-.24-.251-.255a.051.051,0,0,0-.045.012s-.055.058.134.392a4.336,4.336,0,0,0,.237.369.064.064,0,0,1-.1.075,4.387,4.387,0,0,1-.245-.381c-.168-.3-.2-.475-.1-.554a.178.178,0,0,1,.148-.038.4.4,0,0,1,.2.127,1.067,1.067,0,0,1,.145-.668.393.393,0,0,1,.3-.153.318.318,0,0,1,.268.106,1.006,1.006,0,0,1,.161.674c0,.026,0,.051,0,.076a.561.561,0,0,1,.265-.256.216.216,0,0,1,.2.036.6.6,0,0,1,.2.427.345.345,0,0,1,.283-.145.681.681,0,0,1,.525.336.729.729,0,0,1,.365-.3.236.236,0,0,1,.19.04c.269.192.03.68.02.7A.064.064,0,0,1,33.873,434.3Z" transform="translate(-30.615 -430.757)" fill="#263238"/>
    </g>
    <g id="freepik--Floor--inject-36" transform="translate(26.549 90.242)">
      <path id="Line_56" data-name="Line 56" d="M51.905-.373H-.436A.064.064,0,0,1-.5-.436.064.064,0,0,1-.436-.5H51.905a.064.064,0,0,1,.064.064A.064.064,0,0,1,51.905-.373Z" transform="translate(0.5 0.5)" fill="#263238"/>
    </g>
  </g>
</svg>
