<svg id="Group_22187" data-name="Group 22187" xmlns="http://www.w3.org/2000/svg" width="17" height="14" viewBox="0 0 17 14">
  <g id="Group_22186" data-name="Group 22186">
    <path id="Path_133650" data-name="Path 133650" d="M8.746,241.613a2.135,2.135,0,0,1-1.34-.5L4.93,238.933a1.09,1.09,0,0,0-1.408-.068L0,241.454v1.681A.818.818,0,0,0,.772,244c.023,0,.047,0,.07,0h12.47a.956.956,0,0,0,1-.863v-4.407l-4.475,2.589A2.067,2.067,0,0,1,8.746,241.613Z" transform="translate(0 -229.999)" fill="#d82221"/>
    <circle id="Ellipse_1238" data-name="Ellipse 1238" cx="0.999" cy="0.999" r="0.999" transform="translate(7.625 5.526)" fill="#d82221"/>
    <path id="Path_133651" data-name="Path 133651" d="M70.79,28.095a.86.86,0,0,0-.618-.325l-12.48-1.364A1.1,1.1,0,0,0,57,26.58a.985.985,0,0,0-.344.563l-.206,1.688H67.4a1.919,1.919,0,0,1,1.924,1.8v7.64c0-.043.206-.087.3-.173a.722.722,0,0,0,.3-.584L71,28.722A.814.814,0,0,0,70.79,28.095Z" transform="translate(-54.001 -26.403)" fill="#d82221"/>
    <path id="Path_133652" data-name="Path 133652" d="M13.341,105.9H.87a.873.873,0,0,0-.84.9v5.989l3-2.017a2.125,2.125,0,0,1,2.521.105l2.5,2.017a1.234,1.234,0,0,0,1.34.105l4.952-2.669V106.8A1.01,1.01,0,0,0,13.341,105.9Zm-4.747,4.854a1.771,1.771,0,1,1,0-3.53,1.771,1.771,0,1,1,0,3.53Z" transform="translate(-0.029 -102.443)" fill="#d82221"/>
  </g>
</svg>
