<svg xmlns="http://www.w3.org/2000/svg" width="43.765" height="34.762" viewBox="0 0 43.765 34.762">
  <g id="in-way" transform="translate(-460.935 -181.455)">
    <g id="Group_1" data-name="Group 1">
      <path id="Path_1" data-name="Path 1" d="M473.007,212.438a3.773,3.773,0,1,0-3.773,3.779,3.775,3.775,0,0,0,3.773-3.779" fill="#797979"/>
      <path id="Path_2" data-name="Path 2" d="M500.172,212.438a3.773,3.773,0,1,0-3.773,3.779,3.775,3.775,0,0,0,3.773-3.779" fill="#797979"/>
    </g>
    <path id="Path_3" data-name="Path 3" d="M485.835,201.6v-9.563H475.272v10.58h6.793a7.49,7.49,0,0,0,3.77-1.017" fill="#a98258"/>
    <g id="Group_2" data-name="Group 2">
      <path id="Path_4" data-name="Path 4" d="M469.235,213.95a1.511,1.511,0,1,1,1.509-1.511,1.51,1.51,0,0,1-1.509,1.511" fill="silver"/>
      <path id="Path_5" data-name="Path 5" d="M496.4,213.95a1.511,1.511,0,1,1,1.509-1.511,1.51,1.51,0,0,1-1.509,1.511" fill="silver"/>
    </g>
    <path id="Path_6" data-name="Path 6" d="M504.226,204.692l-3.3-1.322-1.979-7.923a1.508,1.508,0,0,0-1.463-1.144h-7.877v.758a7.548,7.548,0,0,1-7.544,7.554H460.935v9.069a.754.754,0,0,0,.755.756h3.773a3.773,3.773,0,1,1,7.546,0h19.618a3.773,3.773,0,1,1,7.546,0h3.773a.754.754,0,0,0,.754-.756v-6.289a.755.755,0,0,0-.474-.7" fill="#ffba00"/>
    <path id="Path_7" data-name="Path 7" d="M464.708,202.615h10.564v-10.58H464.708Z" fill="#896745"/>
    <path id="Path_8" data-name="Path 8" d="M469.99,192.035h10.564v-10.58H469.99Z" fill="#c69666"/>
    <g id="Group_3" data-name="Group 3">
      <path id="Path_9" data-name="Path 9" d="M477.535,185.99l-2.264-1.511-2.264,1.511v-4.534h4.527Z" fill="#e8d5b2"/>
      <path id="Path_10" data-name="Path 10" d="M472.253,196.569l-2.264-1.511-2.264,1.511v-4.534h4.527Z" fill="#e8d5b2"/>
      <path id="Path_11" data-name="Path 11" d="M482.817,196.569l-2.264-1.511-2.264,1.511v-4.534h4.527Z" fill="#e8d5b2"/>
    </g>
    <path id="Path_12" data-name="Path 12" d="M494.136,207.149h-1.509a.756.756,0,0,1,0-1.511h1.509a.756.756,0,0,1,0,1.511" fill="#f49136"/>
    <path id="Path_13" data-name="Path 13" d="M490.363,195.058a.755.755,0,0,1-.754-.756v-6.046a.755.755,0,1,1,1.509,0V194.3a.756.756,0,0,1-.755.756" fill="#f49136"/>
    <path id="Path_14" data-name="Path 14" d="M502.814,204.126l-1.886-.756-.189-.756h-6.4a.961.961,0,0,1-.958-.961V198.08a.755.755,0,1,0-1.509,0v3.574a2.473,2.473,0,0,0,2.467,2.472Z" fill="#f49136"/>
  </g>
</svg>
