<svg id="instagram-drawer" xmlns="http://www.w3.org/2000/svg" width="20" height="20" viewBox="0 0 20 20">
  <rect id="Rectangle_17336" data-name="Rectangle 17336" width="20" height="20" rx="10" transform="translate(0 0)" opacity="0"/>
  <g id="instagram" transform="translate(1 1)">
    <path id="Path_122336" data-name="Path 122336" d="M17.946,5.289A6.607,6.607,0,0,0,17.527,3.1,4.411,4.411,0,0,0,16.489,1.51,4.412,4.412,0,0,0,14.9.472,6.606,6.606,0,0,0,12.71.054C11.751.01,11.444,0,9,0S6.249.01,5.289.054A6.608,6.608,0,0,0,3.1.472,4.411,4.411,0,0,0,1.51,1.51,4.412,4.412,0,0,0,.472,3.1,6.607,6.607,0,0,0,.054,5.289C.01,6.249,0,6.555,0,9s.01,2.751.054,3.711A6.606,6.606,0,0,0,.472,14.9a4.41,4.41,0,0,0,1.038,1.594A4.41,4.41,0,0,0,3.1,17.527a6.6,6.6,0,0,0,2.185.418C6.249,17.989,6.556,18,9,18s2.751-.01,3.711-.054a6.6,6.6,0,0,0,2.185-.418A4.6,4.6,0,0,0,17.527,14.9a6.605,6.605,0,0,0,.418-2.185C17.989,11.751,18,11.444,18,9s-.01-2.751-.054-3.711Zm-1.62,7.347a4.98,4.98,0,0,1-.31,1.671,2.98,2.98,0,0,1-1.708,1.708,4.979,4.979,0,0,1-1.671.31c-.949.043-1.233.052-3.637.052s-2.688-.009-3.637-.052a4.981,4.981,0,0,1-1.671-.31,2.789,2.789,0,0,1-1.035-.673,2.788,2.788,0,0,1-.673-1.035,4.98,4.98,0,0,1-.31-1.671C1.631,11.688,1.621,11.4,1.621,9s.009-2.688.052-3.637a4.983,4.983,0,0,1,.31-1.671,2.79,2.79,0,0,1,.673-1.035,2.787,2.787,0,0,1,1.035-.673,4.979,4.979,0,0,1,1.671-.31C6.312,1.631,6.6,1.621,9,1.621H9c2.4,0,2.688.009,3.637.053a4.98,4.98,0,0,1,1.671.31,2.79,2.79,0,0,1,1.035.673,2.786,2.786,0,0,1,.673,1.035,4.975,4.975,0,0,1,.31,1.671c.043.949.052,1.234.052,3.637S16.369,11.688,16.326,12.637Zm0,0" transform="translate(0 0)"/>
    <path id="Path_122337" data-name="Path 122337" d="M129.131,124.539a4.592,4.592,0,1,0,4.592,4.592A4.592,4.592,0,0,0,129.131,124.539Zm0,7.573a2.981,2.981,0,1,1,2.981-2.981A2.981,2.981,0,0,1,129.131,132.112Zm0,0" transform="translate(-120.131 -120.131)"/>
    <path id="Path_122338" data-name="Path 122338" d="M364.1,89.713a1.087,1.087,0,1,1-1.087-1.087A1.087,1.087,0,0,1,364.1,89.713Zm0,0" transform="translate(-349.217 -85.512)"/>
  </g>
</svg>
