<svg id="instagram" xmlns="http://www.w3.org/2000/svg" width="16" height="16" viewBox="0 0 16 16">
  <path id="Path_535" data-name="Path 535" d="M11,0H5A5,5,0,0,0,0,5v6a5,5,0,0,0,5,5h6a5,5,0,0,0,5-5V5A5,5,0,0,0,11,0Zm3.5,11A3.5,3.5,0,0,1,11,14.5H5A3.5,3.5,0,0,1,1.5,11V5A3.5,3.5,0,0,1,5,1.5h6A3.5,3.5,0,0,1,14.5,5Z" fill="#d82221"/>
  <path id="Path_536" data-name="Path 536" d="M132.144,128a4.009,4.009,0,1,0,4.144,4.006A4.077,4.077,0,0,0,132.144,128Zm0,6.511a2.505,2.505,0,1,1,2.59-2.5A2.552,2.552,0,0,1,132.144,134.511Z" transform="translate(-124.144 -124.006)" fill="#d82221"/>
  <circle id="Ellipse_54" data-name="Ellipse 54" cx="0.552" cy="0.552" r="0.552" transform="translate(11.737 3.159)" fill="#d82221"/>
</svg>
