<svg id="global" xmlns="http://www.w3.org/2000/svg" width="20" height="19.998" viewBox="0 0 20 19.998">
  <path id="Path_31749" data-name="Path 31749" d="M139.906,274.938V270.96h-4.434a20.116,20.116,0,0,0,.595,4.411A22.053,22.053,0,0,1,139.906,274.938Z" transform="translate(-130.284 -260.561)" fill="#d82221"/>
  <path id="Path_31750" data-name="Path 31750" d="M160.53,399.765a3.175,3.175,0,0,0,1.183.659V395.6a20.894,20.894,0,0,0-3.477.383,12.667,12.667,0,0,0,.638,1.532A7.015,7.015,0,0,0,160.53,399.765Z" transform="translate(-152.143 -380.426)" fill="#d82221"/>
  <path id="Path_31751" data-name="Path 31751" d="M273.8,397.52a12.657,12.657,0,0,0,.638-1.532,20.879,20.879,0,0,0-3.477-.383v4.819a3.175,3.175,0,0,0,1.183-.659A7.015,7.015,0,0,0,273.8,397.52Z" transform="translate(-260.529 -380.426)" fill="#d82221"/>
  <path id="Path_31752" data-name="Path 31752" d="M338.253,16.026a13.48,13.48,0,0,0,2.437-.916c-.051-.054-.1-.107-.156-.16a10.731,10.731,0,0,0-4.244-2.62,9.5,9.5,0,0,1,1.221,1.892A13.986,13.986,0,0,1,338.253,16.026Z" transform="translate(-323.671 -11.882)" fill="#d82221"/>
  <path id="Path_31753" data-name="Path 31753" d="M270.96,270.96v3.978a22.056,22.056,0,0,1,3.839.434,20.126,20.126,0,0,0,.595-4.412Z" transform="translate(-260.582 -260.561)" fill="#d82221"/>
  <path id="Path_31754" data-name="Path 31754" d="M158.873,4.572a12.675,12.675,0,0,0-.638,1.532,20.866,20.866,0,0,0,3.477.383V1.668a3.174,3.174,0,0,0-1.183.658A7.017,7.017,0,0,0,158.873,4.572Z" transform="translate(-152.143 -1.668)" fill="#d82221"/>
  <path id="Path_31755" data-name="Path 31755" d="M139.907,140.417v-3.978a22.053,22.053,0,0,1-3.839-.434,20.116,20.116,0,0,0-.595,4.411Z" transform="translate(-130.284 -130.817)" fill="#d82221"/>
  <path id="Path_31756" data-name="Path 31756" d="M73.379,411.664a13.489,13.489,0,0,0-2.437.916c.051.054.1.107.156.16a10.73,10.73,0,0,0,4.244,2.62,9.5,9.5,0,0,1-1.221-1.892A14.006,14.006,0,0,1,73.379,411.664Z" transform="translate(-67.96 -395.81)" fill="#d82221"/>
  <path id="Path_31757" data-name="Path 31757" d="M391.451,275.666a14.44,14.44,0,0,1,2.921,1.139,10.677,10.677,0,0,0,2.142-5.845h-4.433A21.438,21.438,0,0,1,391.451,275.666Z" transform="translate(-376.515 -260.645)" fill="#d82221"/>
  <path id="Path_31758" data-name="Path 31758" d="M338.253,411.664a13.994,13.994,0,0,1-.743,1.8,9.507,9.507,0,0,1-1.221,1.892,10.73,10.73,0,0,0,4.244-2.62c.053-.053.1-.106.156-.16A13.478,13.478,0,0,0,338.253,411.664Z" transform="translate(-323.671 -395.81)" fill="#d82221"/>
  <path id="Path_31759" data-name="Path 31759" d="M391.451,103.032a21.437,21.437,0,0,1,.631,4.707h4.433a10.677,10.677,0,0,0-2.142-5.845A14.435,14.435,0,0,1,391.451,103.032Z" transform="translate(-376.515 -98.054)" fill="#d82221"/>
  <path id="Path_31760" data-name="Path 31760" d="M270.96,136.439v3.978h4.434A20.125,20.125,0,0,0,274.8,136,22.059,22.059,0,0,1,270.96,136.439Z" transform="translate(-260.582 -130.817)" fill="#d82221"/>
  <path id="Path_31761" data-name="Path 31761" d="M272.143,2.326a3.176,3.176,0,0,0-1.183-.658V6.487a20.869,20.869,0,0,0,3.477-.383,12.658,12.658,0,0,0-.638-1.532A7.017,7.017,0,0,0,272.143,2.326Z" transform="translate(-260.529 -1.668)" fill="#d82221"/>
  <path id="Path_31762" data-name="Path 31762" d="M73.379,16.025a14,14,0,0,1,.743-1.8,9.5,9.5,0,0,1,1.221-1.892,10.731,10.731,0,0,0-4.244,2.62c-.053.053-.1.106-.156.16A13.482,13.482,0,0,0,73.379,16.025Z" transform="translate(-67.96 -11.881)" fill="#d82221"/>
  <path id="Path_31763" data-name="Path 31763" d="M5.064,275.667a21.437,21.437,0,0,1-.631-4.706H0a10.677,10.677,0,0,0,2.142,5.845A14.439,14.439,0,0,1,5.064,275.667Z" transform="translate(0 -260.646)" fill="#d82221"/>
  <path id="Path_31764" data-name="Path 31764" d="M5.064,103.033a14.437,14.437,0,0,1-2.922-1.139A10.678,10.678,0,0,0,0,107.739H4.433A21.434,21.434,0,0,1,5.064,103.033Z" transform="translate(0 -98.055)" fill="#d82221"/>
</svg>
