<svg xmlns="http://www.w3.org/2000/svg" width="19" height="19" viewBox="0 0 19 19">
  <g id="languags-drawer" transform="translate(5 0)">
    <rect id="Rectangle_6624" data-name="Rectangle 6624" width="19" height="19" transform="translate(-5 0)" opacity="0"/>
    <g id="translation" transform="translate(-5 0)">
      <g id="Group_45740" data-name="Group 45740" transform="translate(6.812 6.7)">
        <g id="Group_45739" data-name="Group 45739">
          <path id="Path_127093" data-name="Path 127093" d="M335.446,345.93l.493,1.16H334.91Z" transform="translate(-329.293 -339.793)"/>
          <path id="Path_127094" data-name="Path 127094" d="M194.059,183.527l-.323-2.49a.557.557,0,0,0-.756-.446l-3.273,1.291-.1.039a6.529,6.529,0,0,1-5.817,3.939,5.406,5.406,0,0,0,5.167,6.993h1.377a5.405,5.405,0,0,0,3.722-9.325Zm-2.3,6.562a.556.556,0,0,1-.73-.295l-.354-.832h-2.017l-.392.848a.557.557,0,1,1-1.01-.467l.541-1.17h0l1.429-3.089a.557.557,0,0,1,1.018.016l1.313,3.089h0l.5,1.17A.557.557,0,0,1,191.756,190.089Z" transform="translate(-183.554 -180.552)"/>
        </g>
      </g>
      <g id="Group_45742" data-name="Group 45742" transform="translate(0)">
        <g id="Group_45741" data-name="Group 45741">
          <path id="Path_127098" data-name="Path 127098" d="M-4510.032,1030.352h0a.56.56,0,0,1-.368-.139.549.549,0,0,1-.186-.36l-.327-3.107a5.536,5.536,0,0,1-.465-.733,5.345,5.345,0,0,1-.342-.8,5.532,5.532,0,0,1-.211-.87,6.192,6.192,0,0,1-.071-.937,5.411,5.411,0,0,1,5.405-5.4h1.476a5.411,5.411,0,0,1,5.4,5.4v.087a5.411,5.411,0,0,1-5.4,5.4h-1.474l-3.215,1.409A.552.552,0,0,1-4510.032,1030.352Zm3.394-10.253a1.1,1.1,0,0,0-.583.165,1.772,1.772,0,0,0-.47.42,2.129,2.129,0,0,0-.314.561,1.694,1.694,0,0,0-.113.591.891.891,0,0,0,.066.336,1.341,1.341,0,0,0,.182.312,1.716,1.716,0,0,0,.269.273,1.835,1.835,0,0,0,.334.216,2.323,2.323,0,0,0-.358.379,3.062,3.062,0,0,0-.3.5,2.914,2.914,0,0,0-.209.585,2.67,2.67,0,0,0-.078.648,2.466,2.466,0,0,0,.142.836,1.713,1.713,0,0,0,.464.693,2.34,2.34,0,0,0,.858.473,4.3,4.3,0,0,0,1.316.175,1.752,1.752,0,0,0,.417-.059c.159-.039.324-.089.491-.147s.332-.123.49-.192.3-.134.425-.194a.117.117,0,0,0,.065-.065.572.572,0,0,0,.019-.183.368.368,0,0,0-.018-.137.065.065,0,0,0-.063-.039c-.031,0-.091,0-.177.01s-.2.014-.335.02-.289.01-.46.01-.356-.007-.548-.021a6.29,6.29,0,0,1-1.07-.147,2.824,2.824,0,0,1-.77-.293,1.464,1.464,0,0,1-.272-.2,1.154,1.154,0,0,1-.195-.24,1.073,1.073,0,0,1-.117-.278,1.261,1.261,0,0,1-.038-.315,1.177,1.177,0,0,1,.042-.31,1.355,1.355,0,0,1,.125-.3,2.158,2.158,0,0,1,.482-.571,4.268,4.268,0,0,1,.771-.514,7.55,7.55,0,0,1,1.029-.446.317.317,0,0,0,.143-.149,1.826,1.826,0,0,0,.126-.267,2.321,2.321,0,0,0,.087-.294,1.215,1.215,0,0,0,.032-.228.18.18,0,0,0-.041-.141.073.073,0,0,0-.049-.015.3.3,0,0,0-.1.025l-1,.4c-.1.043-.2.089-.289.135a.559.559,0,0,1-.253.069.494.494,0,0,1-.15-.032,2.173,2.173,0,0,1-.207-.086,1.962,1.962,0,0,1-.225-.126,1.687,1.687,0,0,1-.208-.155.893.893,0,0,1-.153-.167.3.3,0,0,1-.059-.167.9.9,0,0,1,.19-.2,1.727,1.727,0,0,1,.292-.185,1.941,1.941,0,0,1,.351-.136,1.325,1.325,0,0,1,.365-.053.793.793,0,0,1,.259.043,1.919,1.919,0,0,1,.229.094c.068.034.128.065.179.094a.264.264,0,0,0,.111.043c.068,0,.1-.066.1-.2a.688.688,0,0,0-.028-.23.353.353,0,0,0-.106-.137c-.07-.059-.144-.119-.223-.177a1.729,1.729,0,0,0-.248-.157,1.384,1.384,0,0,0-.286-.11A1.3,1.3,0,0,0-4506.638,1020.1Z" transform="translate(4512.001 -1018)"/>
        </g>
      </g>
      <path id="Path_127096" data-name="Path 127096" d="M335.446,345.93l-.536,1.16h1.029Zm0,0-.536,1.16h1.029Z" transform="translate(-322.482 -333.093)"/>
    </g>
  </g>
</svg>
