<svg xmlns="http://www.w3.org/2000/svg" width="20.025" height="15.073" viewBox="0 0 20.025 15.073">
  <g id="list" transform="translate(0 -7.434)">
    <path id="Path_4202" data-name="Path 4202" d="M28.31,47.891H14.919a1,1,0,1,1,0-2h13.39a1,1,0,0,1,0,2Z" transform="translate(-9.284 -25.65)" fill="#757575"/>
    <path id="Path_4203" data-name="Path 4203" d="M28.31,29.06H14.919a1,1,0,0,1,0-2h13.39a1,1,0,0,1,0,2Z" transform="translate(-9.284 -13.091)" fill="#757575"/>
    <path id="Path_4204" data-name="Path 4204" d="M28.31,10.229H14.919a1,1,0,0,1,0-2h13.39a1,1,0,0,1,0,2Z" transform="translate(-9.284 -0.532)" fill="#757575"/>
    <circle id="Ellipse_347" data-name="Ellipse 347" cx="1.342" cy="1.342" r="1.342" transform="translate(0 7.434)" fill="#757575"/>
    <circle id="Ellipse_348" data-name="Ellipse 348" cx="1.342" cy="1.342" r="1.342" transform="translate(0 13.629)" fill="#757575"/>
    <circle id="Ellipse_349" data-name="Ellipse 349" cx="1.342" cy="1.342" r="1.342" transform="translate(0 19.823)" fill="#757575"/>
  </g>
</svg>
