<svg xmlns="http://www.w3.org/2000/svg" width="25" height="25" viewBox="0 0 25 25">
  <g id="locate" transform="translate(-222 -618)">
    <rect id="Rectangle_17238" data-name="Rectangle 17238" width="25" height="25" rx="12.5" transform="translate(222 618)" fill="#fff"/>
    <g id="Group_46404" data-name="Group 46404" transform="translate(30.4 68)">
      <rect id="Rectangle_6686" data-name="Rectangle 6686" width="15" height="15" transform="translate(196.6 555)" opacity="0"/>
      <g id="map-selected" transform="translate(197.35 555)">
        <path id="Shape" d="M12.15,5.8a5.552,5.552,0,0,1,.123,1,5.711,5.711,0,0,1-.552,2.5,1.741,1.741,0,0,1-2.332-.125,1.576,1.576,0,0,0-1.6-.437,2.692,2.692,0,0,0-1.473,1.5,4.312,4.312,0,0,0-.184,2.185,5.135,5.135,0,0,1-3.13-1.5,2.623,2.623,0,0,0-.123-2.684,2.437,2.437,0,0,0-.491-.624.692.692,0,0,1,.184-1.061,3.678,3.678,0,0,0,1.411-1c.736-1.124-.123-2.746-.307-3.058a.86.86,0,0,1-.184-.25,6.017,6.017,0,0,1,2.025-.936A4.087,4.087,0,0,1,5.891,0,6.834,6.834,0,0,0,0,6.8a6.789,6.789,0,0,0,6.75,6.866A6.789,6.789,0,0,0,13.5,6.8a7.179,7.179,0,0,0-.368-2.247A9.7,9.7,0,0,1,12.15,5.8Z" transform="translate(0 1.33)"/>
        <path id="Path_122434" data-name="Path 122434" d="M-2509.205,786.6a.609.609,0,0,1-.461-.19c-.337-.242-2.834-2.507-2.834-4.245a3.206,3.206,0,0,1,3.3-3.168,3.205,3.205,0,0,1,3.295,3.168c0,1.738-2.5,4-2.834,4.245A.607.607,0,0,1-2509.205,786.6Zm0-6.083a1.776,1.776,0,0,0-1.774,1.774,1.776,1.776,0,0,0,1.774,1.774,1.776,1.776,0,0,0,1.774-1.774A1.777,1.777,0,0,0-2509.205,780.521Z" transform="translate(2519.157 -779.001)"/>
      </g>
    </g>
  </g>
</svg>
