<svg xmlns="http://www.w3.org/2000/svg" width="20" height="17.778" viewBox="0 0 20 17.778">
  <path id="location-on" d="M10,0A4.375,4.375,0,0,0,5.625,4.375c0,1.953,2.859,5.514,3.955,6.806a.548.548,0,0,0,.84,0c1.1-1.292,3.955-4.853,3.955-6.806A4.375,4.375,0,0,0,10,0Zm0,5.833a1.458,1.458,0,1,1,1.458-1.458A1.458,1.458,0,0,1,10,5.833ZM.7,7.5A1.111,1.111,0,0,0,0,8.53v8.692a.556.556,0,0,0,.762.516l4.794-2.182V7.462a10.515,10.515,0,0,1-.738-1.612Zm9.3,4.99A1.659,1.659,0,0,1,8.732,11.9c-.683-.806-1.409-1.723-2.066-2.664v6.319l6.667,2.222V9.236c-.657.941-1.383,1.858-2.066,2.664A1.66,1.66,0,0,1,10,12.489ZM19.238,5.6,14.444,7.778v10L19.3,15.835A1.111,1.111,0,0,0,20,14.8V6.112A.556.556,0,0,0,19.238,5.6Z" fill="#fff"/>
</svg>
