<svg id="lock" xmlns="http://www.w3.org/2000/svg" width="15" height="15" viewBox="0 0 15 15">
  <rect id="Rectangle_17197" data-name="Rectangle 17197" width="15" height="15" opacity="0"/>
  <path id="Path_134025" data-name="Path 134025" d="M66.765,5.755H66.48v-1.3A4.486,4.486,0,0,0,62.072,0c-.067,0-.2,0-.267,0A4.486,4.486,0,0,0,57.4,4.455v1.3h-.285a.908.908,0,0,0-.8.987V13.26a.912.912,0,0,0,.8.99h9.654a.912.912,0,0,0,.8-.99V6.742A.908.908,0,0,0,66.765,5.755ZM62.842,9.994v1.969a.426.426,0,0,1-.426.416h-.957a.426.426,0,0,1-.426-.416V9.994a1.157,1.157,0,0,1-.356-.843A1.188,1.188,0,0,1,61.8,7.965c.067,0,.2,0,.267,0A1.188,1.188,0,0,1,63.2,9.151,1.157,1.157,0,0,1,62.842,9.994ZM64.6,5.755H59.276v-1.3a2.662,2.662,0,0,1,5.324,0v1.3Z" transform="translate(-54.438 0.375)"/>
</svg>
