<svg xmlns="http://www.w3.org/2000/svg" width="29.877" height="29.877" viewBox="0 0 29.877 29.877">
  <g id="logout" transform="translate(170 -259)">
    <path id="home" d="M1.76.786h0L1.022.048a.166.166,0,0,0-.236,0L.049.786h0a.166.166,0,0,0,.111.284H.194v.543a.2.2,0,0,0,.195.195H.677A.053.053,0,0,0,.73,1.755V1.33a.089.089,0,0,1,.089-.089h.17a.089.089,0,0,1,.089.089v.426a.053.053,0,0,0,.053.053H1.42a.2.2,0,0,0,.195-.195V1.07h.027A.167.167,0,0,0,1.76.786Zm0,0" transform="translate(-158.388 259.993)" fill="#fff"/>
    <text id="Log_Out" data-name="Log Out" transform="translate(-156 261.877)" fill="#fff" font-size="1" font-family="Montserrat-Medium, Montserrat" font-weight="500"><tspan x="0" y="0">Log Out</tspan></text>
    <g id="logout-2" data-name="logout" transform="translate(-170 259)">
      <path id="Path_3772" data-name="Path 3772" d="M18.673,16.187a1.245,1.245,0,0,0-1.245,1.245v4.98a1.246,1.246,0,0,1-1.245,1.245H12.449V4.983a2.509,2.509,0,0,0-1.7-2.366l-.369-.123h5.8a1.246,1.246,0,0,1,1.245,1.245V7.473a1.245,1.245,0,1,0,2.49,0V3.738A3.739,3.739,0,0,0,16.183,0H2.8a.978.978,0,0,0-.133.027C2.608.026,2.551,0,2.49,0A2.492,2.492,0,0,0,0,2.493V24.9a2.509,2.509,0,0,0,1.7,2.366l7.492,2.5a2.577,2.577,0,0,0,.772.116,2.492,2.492,0,0,0,2.49-2.49V26.146h3.735a3.739,3.739,0,0,0,3.735-3.735v-4.98a1.245,1.245,0,0,0-1.245-1.245Zm0,0" transform="translate(0 -0.004)" fill="#fff"/>
      <path id="Path_3773" data-name="Path 3773" d="M290.661,112.01l-4.98-4.979a1.244,1.244,0,0,0-2.125.88v3.735h-4.979a1.245,1.245,0,1,0,0,2.49h4.979v3.735a1.245,1.245,0,0,0,2.125.88l4.98-4.98A1.244,1.244,0,0,0,290.661,112.01Zm0,0" transform="translate(-261.149 -100.442)" fill="#fff"/>
    </g>
  </g>
</svg>
