<svg xmlns="http://www.w3.org/2000/svg" width="36.156" height="38.479" viewBox="0 0 36.156 38.479">
  <g id="logo" transform="translate(-198.04 -137.73)">
    <path id="Path_134230" data-name="Path 134230" d="M212.4,176.037a1.632,1.632,0,0,1,.082-.634,1.623,1.623,0,0,0,.1-.5,1.158,1.158,0,0,0-.4.261c-.434.357-.867.371-.916.027-.035-.255.559-.949,1.035-1.212.385-.213.444-.387.651-1.931.325-2.414.367-2.743.348-2.743s-.507.089-1.1.2a13.435,13.435,0,0,1-2.6.2c-3.758,0-5.7-.795-8.715-3.572-1.775-1.634-2.185-2.181-2.611-3.482a4.313,4.313,0,0,1-.239-1.638,4.91,4.91,0,0,1,1.228-3.547c.427-.464.481-.493.911-.495.41,0,.467.023.548.246a2.93,2.93,0,0,0,1.2,1.4,1.839,1.839,0,0,0,1.77.027,3.334,3.334,0,0,0,1.521-1.928,39.532,39.532,0,0,1,2.817-5.418,20.515,20.515,0,0,1,3.008-3.9,13.261,13.261,0,0,1,3.364-2.583l.939-.493-.564-.959c-.31-.528-.883-1.4-1.269-1.946-.762-1.066-.854-1.366-.477-1.542.295-.137.625-.035,2.058.635l1.092.511.241-.627c.512-1.328,1.42-2.657,1.815-2.655.271,0,.5.352.7,1.061a10.611,10.611,0,0,0,.774,2.1c.116.158.161.106.517-.6a6.873,6.873,0,0,1,1.122-1.567c.646-.7.765-.791,1.015-.766l.283.03-.01.709c-.005.391-.042,1.589-.082,2.665l-.074,1.956.357.062a14.684,14.684,0,0,1,2.74.711,9.458,9.458,0,0,1,4.1,3.408,7.88,7.88,0,0,1,.923,2.065l.216.664,1.043-.018a10.875,10.875,0,0,0,1.475-.111c.779-.164.99.094.755.929a6.253,6.253,0,0,1-2.283,3.274c-.444.313-.507.4-.548.743a13.932,13.932,0,0,1-1.052,4.409,9.38,9.38,0,0,1-1.978,2.905,19.179,19.179,0,0,1-5.649,4.064l-1.251.65-.065.593a2.459,2.459,0,0,1-.149.7,3.927,3.927,0,0,0-.174.945c-.05.461-.194,1.4-.32,2.087l-.229,1.249.414.917c.445.987.487,1.184.283,1.358s-.447-.012-.737-.523c-.136-.24-.27-.412-.3-.384a3.557,3.557,0,0,0-.152.692c-.09.568-.127.644-.32.672-.315.045-.387-.143-.322-.838l.057-.615-.32.354c-.337.37-.611.444-.8.215s-.023-.5.8-1.355l.782-.813.213-1.185c.117-.652.266-1.743.333-2.424l.121-1.239-.643.225c-.854.3-3.125.9-4.49,1.192-.6.129-1.186.255-1.289.278-.151.035-.183.1-.152.317a32.277,32.277,0,0,1-.439,3.807c-.06.22-.049.3.057.339a5.7,5.7,0,0,1,1.3,1.782c-.047.344-.4.287-.889-.144-.25-.218-.492-.37-.541-.34a1.511,1.511,0,0,0-.2.553,2.446,2.446,0,0,1-.2.615.358.358,0,0,1-.564-.064Z" transform="translate(0 0)" fill="#f4eccf"/>
    <path id="Path_134231" data-name="Path 134231" d="M214.8,199.782c1.333-.172,4.738-.9,6.449-1.376a20.211,20.211,0,0,0,5-2.076,16.745,16.745,0,0,0,5.88-4.827,11.892,11.892,0,0,0,1.636-4.283,13.258,13.258,0,0,0-.107-5.3c-.64-2.3-.991-3.041-1.943-4.089a8.645,8.645,0,0,0-5.528-2.848,22.29,22.29,0,0,0-4.466-.02,15.419,15.419,0,0,0-5.111,2.245,20.37,20.37,0,0,0-3.108,3.066,32.954,32.954,0,0,0-4,6.838,6.906,6.906,0,0,1-1.4,2.483,2.613,2.613,0,0,1-1.839.792,1.976,1.976,0,0,1-1.2-.223,3.086,3.086,0,0,1-1.418-1.353l-.218-.4-.477.586a4.333,4.333,0,0,0-.931,2.846,5.013,5.013,0,0,0,1.879,3.921,14.664,14.664,0,0,0,4.192,3.2,12.382,12.382,0,0,0,6.707.817Z" transform="translate(-3.314 -30.91)" fill="#fff" fill-rule="evenodd"/>
    <path id="Path_134232" data-name="Path 134232" d="M236.556,302.907c-.511-.261-.62-.815-.129-.653a2.576,2.576,0,0,1,.934.72c0,.144-.465.105-.805-.067Z" transform="translate(-31.696 -136.929)" fill="#f4eccf" fill-rule="evenodd"/>
    <path id="Path_134233" data-name="Path 134233" d="M266.205,238.2a2.107,2.107,0,0,1-1.2-1.956l.059-.318-.439-.067a2.864,2.864,0,0,1-2.234-1.415,2.21,2.21,0,0,1,.018-1.725,3.564,3.564,0,0,1,2.617-1.684l.559-.059-.188-.437a3.09,3.09,0,0,1,.037-2.279,2.094,2.094,0,0,1,2.155-1.5q1.959.008,3.237,2.686a5.765,5.765,0,0,1,.556,4.559,4.824,4.824,0,0,0-.182.636,6.06,6.06,0,0,1-2.882,3.419,2.363,2.363,0,0,1-2.116.142Z" transform="translate(-53.438 -74.107)" fill="#f4eccf" fill-rule="evenodd"/>
    <path id="Path_134234" data-name="Path 134234" d="M210.111,274.418a4.93,4.93,0,0,1-1.71-1.74,2.106,2.106,0,0,1-.174-1.716c.214-.337.419-.156.42.372,0,.695.5,1.552,1.594,2.744a2.426,2.426,0,0,1,.42.546c0,.114.025.124-.551-.206Z" transform="translate(-8.384 -110.762)" fill="#f4eccf" fill-rule="evenodd"/>
    <path id="Path_134235" data-name="Path 134235" d="M271.137,240.826a6.2,6.2,0,0,0,2.259-2.177,3.839,3.839,0,0,0,.35-.8,1.163,1.163,0,0,1,.126-.385,4.757,4.757,0,0,0,.241-.995,3.132,3.132,0,0,0-.042-1.5c-.412-1.934-1.455-3.591-2.565-4.075a1.962,1.962,0,0,0-1.4-.01c-1.2.643-1.365,2.3-.352,3.593.4.516.435.579.37.755-.072.194-.387.189-.775-.012a2.5,2.5,0,0,0-1.84.039,3.276,3.276,0,0,0-1.318,1.159,1.151,1.151,0,0,0,.057,1.134c.154.313.3.437.8.68a2.545,2.545,0,0,0,1.437.306c.762.008.83.025.854.2a.715.715,0,0,1-.206.452c-.636.707.094,1.85,1.187,1.859a2.312,2.312,0,0,0,.824-.219Z" transform="translate(-56.631 -77.432)" fill="#fff" fill-rule="evenodd"/>
    <path id="Path_134236" data-name="Path 134236" d="M294.16,241.8a3.051,3.051,0,0,0-1.221-1.1c-.07,0-.129-.085-.129-.189,0-.139.06-.189.233-.187a1.55,1.55,0,0,1,1.078.66.985.985,0,0,1,.337.764c0,.46-.1.479-.3.05Z" transform="translate(-78.899 -85.406)" fill="#f4eccf" fill-rule="evenodd"/>
    <path id="Path_134237" data-name="Path 134237" d="M342.585,236.16c-.511-.092-.735-.239-.869-.574-.246-.613.181-1.058,1.346-1.4a4.054,4.054,0,0,1,1.8-.248c.553.089.785.342.785.859,0,.837-.236,1.026-1.633,1.316a2.8,2.8,0,0,1-1.435.05Z" transform="translate(-119.559 -80.06)" fill="#f4eccf" fill-rule="evenodd"/>
    <path id="Path_134238" data-name="Path 134238" d="M347.146,237.83a2.065,2.065,0,0,0-1.072.315c-.693.337-.83.517-.532.7a4.467,4.467,0,0,0,2.038-.064l.6-.154v-.757l-.7-.03c-.121-.005-.224-.008-.315-.008Z" transform="translate(-122.676 -83.325)" fill="#f4eccf" fill-rule="evenodd"/>
    <path id="Path_134239" data-name="Path 134239" d="M397.612,221.047a5.028,5.028,0,0,0,1.052-1.641c0-.055-.293.105-.653.36a5.5,5.5,0,0,1-.961.564l-.31.1v.658c0,.65,0,.656.2.546a4.255,4.255,0,0,0,.67-.591Z" transform="translate(-165.424 -67.98)" fill="#fff" fill-rule="evenodd"/>
    <path id="Path_134240" data-name="Path 134240" d="M350.5,210.484a2.152,2.152,0,0,1-.2-.512c-.254-.921-.825-1.165-1.363-.586a2.559,2.559,0,0,0-.425.66c-.258.648-.814.343-.591-.323a1.882,1.882,0,0,1,.748-1.036,1.157,1.157,0,0,1,.847-.266.926.926,0,0,1,.8.286c.606.551.918,1.808.465,1.874a.325.325,0,0,1-.283-.1Z" transform="translate(-124.74 -58.844)" fill="#f4eccf" fill-rule="evenodd"/>
    <path id="Path_134241" data-name="Path 134241" d="M396.485,216.474c.126-.142.075-.152-.64-.127l-.775.027.06.348a2.454,2.454,0,0,0,.1.42,3.29,3.29,0,0,0,1.254-.668Z" transform="translate(-164.034 -65.433)" fill="#fff" fill-rule="evenodd"/>
    <path id="Path_134242" data-name="Path 134242" d="M296.308,148.289a12.25,12.25,0,0,1,3.58-.387l.991.039.049-2.08c.027-1.144.037-2.093.023-2.108a7.194,7.194,0,0,0-1.3,1.944c-.469.983-.72,1.206-1.03.914a8.29,8.29,0,0,1-1.144-2.443,3.052,3.052,0,0,0-.313-.829A8.589,8.589,0,0,0,296,145.487c-.377,1.046-.526,1.075-1.984.39a6.6,6.6,0,0,0-1.058-.439,3.394,3.394,0,0,0,.465.715,11.71,11.71,0,0,1,1.432,2.5c0,.136.03.136.343,0,.189-.082.686-.244,1.105-.363Z" transform="translate(-79.024 -4.671)" fill="#f4eccf" fill-rule="evenodd"/>
  </g>
</svg>
