<svg id="logo-html" xmlns="http://www.w3.org/2000/svg" width="112" height="170.999" viewBox="0 0 112 170.999">
  <path id="Path_134230" data-name="Path 134230" d="M242.539,256.713a5.081,5.081,0,0,1,.254-1.968,5.053,5.053,0,0,0,.306-1.552,3.588,3.588,0,0,0-1.235.812c-1.344,1.109-2.687,1.151-2.838.083-.109-.791,1.733-2.947,3.206-3.765,1.193-.661,1.375-1.2,2.018-6,1.006-7.5,1.136-8.519,1.079-8.519-.031,0-1.572.276-3.419.609a41.509,41.509,0,0,1-8.046.609c-11.641,0-17.653-2.468-27-11.1-5.5-5.077-6.77-6.774-8.087-10.815a13.429,13.429,0,0,1-.742-5.087c.005-4.723,1.2-8.175,3.8-11.018,1.323-1.442,1.489-1.531,2.822-1.536,1.271-.005,1.447.073,1.7.765a9.093,9.093,0,0,0,3.73,4.337,5.684,5.684,0,0,0,5.483.083c1.925-.922,3.232-2.583,4.71-5.988a122.9,122.9,0,0,1,8.725-16.829c3.792-5.926,5.779-8.508,9.317-12.111a41.1,41.1,0,0,1,10.422-8.024l2.91-1.531L249.91,155.2c-.96-1.64-2.734-4.358-3.932-6.045-2.36-3.312-2.646-4.244-1.478-4.79.913-.427,1.935-.109,6.376,1.973l3.382,1.588.747-1.947c1.587-4.124,4.4-8.253,5.623-8.248.84.005,1.561,1.093,2.179,3.3a33.013,33.013,0,0,0,2.4,6.514c.358.489.5.328,1.6-1.864a21.349,21.349,0,0,1,3.476-4.868c2-2.182,2.371-2.458,3.144-2.38l.877.094-.031,2.2c-.016,1.213-.13,4.936-.254,8.279l-.228,6.076,1.1.193a45.386,45.386,0,0,1,8.487,2.208,29.317,29.317,0,0,1,12.71,10.586,24.506,24.506,0,0,1,2.858,6.415l.669,2.062,3.232-.057a33.581,33.581,0,0,0,4.57-.344c2.412-.51,3.066.292,2.34,2.885a19.423,19.423,0,0,1-7.071,10.169c-1.375.974-1.572,1.239-1.7,2.307-.773,6.535-1.437,9.315-3.258,13.694a29.143,29.143,0,0,1-6.127,9.024c-4.441,4.811-9.415,8.4-17.5,12.622l-3.875,2.02-.2,1.843a7.65,7.65,0,0,1-.462,2.176,12.232,12.232,0,0,0-.539,2.937c-.156,1.432-.6,4.348-.991,6.483l-.711,3.879,1.281,2.848c1.38,3.067,1.51,3.676.877,4.218-.607.516-1.385-.036-2.283-1.625-.42-.745-.835-1.281-.923-1.192a11.072,11.072,0,0,0-.472,2.15c-.28,1.765-.394,2-.991,2.088-.975.141-1.2-.443-1-2.6l.176-1.911-.991,1.1c-1.043,1.151-1.893,1.38-2.464.666s-.073-1.567,2.464-4.207l2.423-2.525.659-3.681c.363-2.026.825-5.415,1.032-7.529l.374-3.848-1.992.7c-2.646.922-9.68,2.8-13.908,3.7-1.873.4-3.673.791-3.994.864-.467.109-.565.307-.472.984a100.5,100.5,0,0,1-1.359,11.825c-.187.682-.15.922.176,1.052.778.312,4.114,4.9,4.026,5.535-.145,1.067-1.229.89-2.755-.448-.773-.677-1.525-1.151-1.676-1.057A4.7,4.7,0,0,0,244.92,255a7.617,7.617,0,0,1-.633,1.911,1.108,1.108,0,0,1-1.748-.2Z" transform="translate(-198.04 -137.73)" fill="#f4eccf"/>
  <path id="Path_134231" data-name="Path 134231" d="M241.583,252.345a203.808,203.808,0,0,0,19.968-4.279,62.437,62.437,0,0,0,15.488-6.455c8.582-4.737,13.606-8.88,18.205-15.007,1.991-2.655,4.273-8.656,5.066-13.315.985-5.809.856-12.186-.332-16.485-1.981-7.152-3.07-9.453-6.015-12.711-4.589-5.07-9.733-7.73-17.116-8.854a68.728,68.728,0,0,0-13.829-.062,47.644,47.644,0,0,0-15.825,6.98,63.194,63.194,0,0,0-9.624,9.531,102.549,102.549,0,0,0-12.377,21.259c-2.048,4.815-2.836,6.226-4.33,7.719a8.075,8.075,0,0,1-5.693,2.462,6.1,6.1,0,0,1-3.723-.692,9.572,9.572,0,0,1-4.392-4.206l-.674-1.244-1.478,1.822a13.5,13.5,0,0,0-2.883,8.849c0,4.737,1.566,8.011,5.818,12.191,5.714,5.611,8.291,7.589,12.979,9.958,5.076,2.571,13.046,3.545,20.767,2.54Z" transform="translate(-199.948 -155.531)" fill="#fff" fill-rule="evenodd"/>
  <path id="Path_134232" data-name="Path 134232" d="M237.5,304.346c-1.588-.812-1.926-2.535-.4-2.03.8.265,2.9,1.884,2.9,2.238,0,.448-1.447.328-2.5-.208Z" transform="translate(-216.364 -216.582)" fill="#f4eccf" fill-rule="evenodd"/>
  <path id="Path_134233" data-name="Path 134233" d="M274.592,262.333c-2.316-1.1-4.1-4.008-3.722-6.08l.182-.989-1.364-.208c-3.285-.51-5.986-2.217-6.944-4.4a6.87,6.87,0,0,1,.057-5.362c1.187-2.525,4.877-4.9,8.136-5.237l1.739-.182-.583-1.359a9.608,9.608,0,0,1,.115-7.084c1.536-3.409,3.363-4.685,6.7-4.674q6.09.023,10.062,8.349c2.634,5.518,3.259,10.666,1.728,14.174a14.989,14.989,0,0,0-.567,1.978c-.838,3.737-4.872,8.526-8.958,10.629a7.345,7.345,0,0,1-6.58.442Z" transform="translate(-228.97 -180.405)" fill="#f4eccf" fill-rule="evenodd"/>
  <path id="Path_134234" data-name="Path 134234" d="M214.33,282.065a15.327,15.327,0,0,1-5.315-5.408c-.947-1.916-1.192-4.31-.541-5.335.666-1.046,1.3-.484,1.307,1.156.005,2.16,1.551,4.825,4.955,8.532a7.54,7.54,0,0,1,1.307,1.7c-.005.354.078.385-1.713-.64Z" transform="translate(-202.868 -201.513)" fill="#f4eccf" fill-rule="evenodd"/>
  <path id="Path_134235" data-name="Path 134235" d="M281.838,262.067a19.28,19.28,0,0,0,7.022-6.767,11.939,11.939,0,0,0,1.088-2.493,3.614,3.614,0,0,1,.39-1.2,14.78,14.78,0,0,0,.75-3.092,9.737,9.737,0,0,0-.13-4.674c-1.28-6.012-4.523-11.165-7.975-12.67a6.1,6.1,0,0,0-4.367-.031c-3.737,2-4.242,7.142-1.093,11.171,1.254,1.6,1.353,1.8,1.15,2.348-.224.6-1.2.588-2.41-.036a7.782,7.782,0,0,0-5.721.12,10.186,10.186,0,0,0-4.1,3.6,3.58,3.58,0,0,0,.177,3.524c.479.973.937,1.359,2.483,2.113a7.911,7.911,0,0,0,4.466.953c2.368.026,2.582.078,2.655.63a2.224,2.224,0,0,1-.64,1.405c-1.978,2.2.292,5.752,3.691,5.778a7.186,7.186,0,0,0,2.561-.682Z" transform="translate(-230.81 -182.319)" fill="#fff" fill-rule="evenodd"/>
  <path id="Path_134236" data-name="Path 134236" d="M297.006,244.911c-.489-1.062-3.1-3.409-3.795-3.409-.219,0-.4-.265-.4-.588,0-.432.187-.588.724-.583,1.051.005,2.16.682,3.352,2.051a3.064,3.064,0,0,1,1.046,2.374c.005,1.431-.307,1.489-.927.156Z" transform="translate(-243.655 -186.912)" fill="#f4eccf" fill-rule="evenodd"/>
  <path id="Path_134237" data-name="Path 134237" d="M344.559,240.91c-1.588-.286-2.285-.744-2.7-1.785-.765-1.905.562-3.29,4.185-4.362,2.665-.786,4.185-.994,5.611-.77,1.718.276,2.441,1.062,2.441,2.67,0,2.6-.734,3.191-5.075,4.091a8.707,8.707,0,0,1-4.461.156Z" transform="translate(-267.182 -183.833)" fill="#f4eccf" fill-rule="evenodd"/>
  <path id="Path_134238" data-name="Path 134238" d="M350.841,237.83a6.418,6.418,0,0,0-3.331.979c-2.155,1.046-2.582,1.608-1.655,2.171.744.453,4.237.344,6.335-.2l1.853-.479V237.95l-2.191-.094c-.375-.016-.7-.026-.979-.026Z" transform="translate(-268.974 -185.714)" fill="#f4eccf" fill-rule="evenodd"/>
  <path id="Path_134239" data-name="Path 134239" d="M399.452,224.53c1.348-1.39,3.269-4.388,3.269-5.1,0-.172-.911.328-2.03,1.119A17.093,17.093,0,0,1,397.7,222.3l-.963.323v2.046c0,2.02.005,2.041.63,1.7a13.235,13.235,0,0,0,2.082-1.837Z" transform="translate(-293.693 -176.876)" fill="#fff" fill-rule="evenodd"/>
  <path id="Path_134240" data-name="Path 134240" d="M356.044,214.838a6.688,6.688,0,0,1-.614-1.593c-.791-2.863-2.566-3.623-4.237-1.822a7.96,7.96,0,0,0-1.322,2.051c-.8,2.014-2.53,1.067-1.837-1a5.85,5.85,0,0,1,2.327-3.222,3.6,3.6,0,0,1,2.634-.828,2.88,2.88,0,0,1,2.483.89c1.884,1.712,2.853,5.622,1.447,5.825a1.01,1.01,0,0,1-.88-.3Z" transform="translate(-270.171 -171.616)" fill="#f4eccf" fill-rule="evenodd"/>
  <path id="Path_134241" data-name="Path 134241" d="M399.468,216.765c.39-.442.234-.474-1.988-.4l-2.41.083.187,1.083a7.657,7.657,0,0,0,.312,1.307c.156.276,3.305-1.405,3.9-2.077Z" transform="translate(-292.892 -175.41)" fill="#fff" fill-rule="evenodd"/>
  <path id="Path_134242" data-name="Path 134242" d="M303.366,158.727a38.081,38.081,0,0,1,11.129-1.2l3.082.12.151-6.465c.083-3.555.115-6.507.073-6.554-.255-.281-2.936,3.727-4.045,6.043-1.457,3.056-2.238,3.748-3.2,2.842-.88-.822-2.733-4.789-3.555-7.595a9.488,9.488,0,0,0-.973-2.577c-.39,0-2.816,4.487-3.6,6.673-1.171,3.253-1.634,3.342-6.168,1.213a20.533,20.533,0,0,0-3.29-1.364,10.547,10.547,0,0,0,1.447,2.223c1.754,2.348,4.451,7.058,4.451,7.772,0,.422.094.422,1.067,0,.588-.255,2.134-.76,3.435-1.13Z" transform="translate(-243.767 -140.42)" fill="#f4eccf" fill-rule="evenodd"/>
  <text id="Pido" transform="translate(28.651 154.999)" fill="#f4eccf" font-size="37" font-family="Caroline"><tspan x="0" y="0">Pido</tspan></text>
</svg>
