<svg id="Component_1377_27" data-name="Component 1377 – 27" xmlns="http://www.w3.org/2000/svg" width="10.285" height="13.569" viewBox="0 0 10.285 13.569">
  <path id="Path_62" data-name="Path 62" d="M161.429,209.331a4.987,4.987,0,0,0-1.994.9,1.721,1.721,0,0,0-.7,1.338v1.969a.613.613,0,0,0,.154.412h0a.5.5,0,0,0,.372.17h9.044a.5.5,0,0,0,.371-.17.618.618,0,0,0,.155-.412v-1.969h0a1.732,1.732,0,0,0-.7-1.343,4.949,4.949,0,0,0-1.993-.9,2.555,2.555,0,0,1-.958.846,3.01,3.01,0,0,1-1.4.367,3.231,3.231,0,0,1-1.47-.367A2.133,2.133,0,0,1,161.429,209.331Z" transform="translate(-158.644 -200.651)" fill="#fac957" fill-rule="evenodd"/>
  <path id="Path_63" data-name="Path 63" d="M163.607,208.838l-.27.236-.066.057a2.123,2.123,0,0,0,.772.853,2.631,2.631,0,0,0,1.382.417,2.451,2.451,0,0,0,1.31-.416,2.577,2.577,0,0,0,.842-.866l-.065-.054-.263-.217c-.088.076-.175.149-.26.217a2.787,2.787,0,0,1-1.471.712,2.24,2.24,0,0,1-1.659-.705C163.777,209,163.693,208.923,163.607,208.838Z" transform="translate(-160.291 -200.646)" fill="#fac957" fill-rule="evenodd"/>
  <path id="Path_64" data-name="Path 64" d="M167.585,200.775l0-.294c.028-2.1.051-3.708-2.55-3.708s-2.578,1.607-2.549,3.708l0,.292c.016-.1.026-.209.033-.312h0c.009-.15.012-.285.014-.417a4.609,4.609,0,0,1,.029-.547,1.428,1.428,0,0,1,.168-.529c.292-.5.961-.3,1.57-.119a2.973,2.973,0,0,0,.73.162,2.873,2.873,0,0,0,.79-.182c.6-.192,1.2-.388,1.51.139a1.411,1.411,0,0,1,.166.513l0,.016a4.749,4.749,0,0,1,.03.547c0,.132,0,.268.014.418C167.558,200.565,167.568,200.669,167.585,200.775Z" transform="translate(-159.898 -196.773)" fill="#899ea3" fill-rule="evenodd"/>
  <path id="Path_65" data-name="Path 65" d="M164.106,206.883l0,.047c-.018.386-.042.9-.086,1.166l.073.062a3.972,3.972,0,0,0,.534.381,1.855,1.855,0,0,0,1.086.3,2.157,2.157,0,0,0,.9-.3,5.385,5.385,0,0,0,.56-.366l.091-.066c-.047-.272-.076-.772-.1-1.154l0-.058a3.038,3.038,0,0,1-.482.407,1.712,1.712,0,0,1-2.082,0A3.077,3.077,0,0,1,164.106,206.883Z" transform="translate(-160.483 -199.887)" fill="#ffe0a6" fill-rule="evenodd"/>
  <path id="Path_66" data-name="Path 66" d="M163.633,204.184h0l0,.006a3.155,3.155,0,0,0,.687.551,1.819,1.819,0,0,0,1.969,0,3.373,3.373,0,0,0,.935-.838,4.287,4.287,0,0,0,.65-1.168,3.807,3.807,0,0,0,.216-.933l-.229-.705,0-.008a2.409,2.409,0,0,1-.068-.4c-.01-.12-.012-.245-.015-.367a2.71,2.71,0,0,0-.029-.414l0-.011a.708.708,0,0,0-.13-.309c-.224-.294-.806-.152-1.374-.013a4.256,4.256,0,0,1-.936.161,4.373,4.373,0,0,1-.867-.144c-.587-.135-1.231-.282-1.443,0a.714.714,0,0,0-.131.32,2.7,2.7,0,0,0-.03.414c0,.122-.006.247-.016.367h0a2.426,2.426,0,0,1-.067.4l0,.008h0l-.229.7a3.775,3.775,0,0,0,.216.935,4.3,4.3,0,0,0,.649,1.168Q163.508,204.052,163.633,204.184Z" transform="translate(-159.966 -197.474)" fill="#ffe0a6" fill-rule="evenodd"/>
  <path id="Path_67" data-name="Path 67" d="M165.2,203.237c.006.083.012.179.019.285a9.956,9.956,0,0,0,.1,1.038l.432.287a5.172,5.172,0,0,1,2.095.917,1.891,1.891,0,0,1,.776,1.487h0v1.86a.857.857,0,0,1-.224.582h0a.735.735,0,0,1-.539.242H159.1a.735.735,0,0,1-.539-.242h0a.859.859,0,0,1-.222-.581v-1.86a1.879,1.879,0,0,1,.776-1.483,5.187,5.187,0,0,1,2.1-.913l.434-.306a9.826,9.826,0,0,0,.083-1.04c.006-.111.011-.211.015-.284-.069-.081-.135-.164-.2-.251a4.581,4.581,0,0,1-.625-1.216,4.085,4.085,0,0,1-.224-1.3v-.021a.115.115,0,0,1,0-.026c0-.057,0-.11,0-.156,0-.229,0-.413-.006-.591-.031-1.869-.055-3.3,2.788-3.3s2.82,1.429,2.788,3.3c0,.178-.006.362-.006.591,0,.016,0,.045,0,.089l0,.068a.107.107,0,0,1,0,.024h0v.021a4.085,4.085,0,0,1-.223,1.3,4.6,4.6,0,0,1-.625,1.216q-.1.137-.209.263Zm-3.24-.162h0l0,0,0,.005a2.928,2.928,0,0,0,.62.536,1.54,1.54,0,0,0,1.777,0,3.136,3.136,0,0,0,.845-.816,4.285,4.285,0,0,0,.586-1.139,3.959,3.959,0,0,0,.194-.909l-.207-.687,0-.007a2.5,2.5,0,0,1-.061-.394c-.009-.117-.012-.239-.014-.358a2.859,2.859,0,0,0-.026-.4V198.9a.727.727,0,0,0-.118-.3c-.2-.287-.727-.148-1.24-.014a3.577,3.577,0,0,1-.845.158,3.675,3.675,0,0,1-.782-.141c-.53-.131-1.112-.275-1.3,0a.733.733,0,0,0-.118.311,2.951,2.951,0,0,0-.027.4c0,.119,0,.241-.014.358h0a2.581,2.581,0,0,1-.061.393l0,.008h0l-.206.685a3.942,3.942,0,0,0,.194.911,4.286,4.286,0,0,0,.586,1.139c.069.1.142.186.217.271Zm.022.4,0,.043c-.018.35-.041.812-.084,1.057l.071.056a3.963,3.963,0,0,0,.521.346,1.918,1.918,0,0,0,1.06.267,2.2,2.2,0,0,0,.878-.271,5.415,5.415,0,0,0,.546-.331l.088-.061c-.046-.246-.074-.7-.1-1.046l0-.053a3,3,0,0,1-.471.369,1.772,1.772,0,0,1-2.031,0,2.962,2.962,0,0,1-.478-.377Zm4.024-3.58,0-.239c.029-1.711.051-3.019-2.535-3.019s-2.563,1.308-2.534,3.019l0,.238a2.427,2.427,0,0,0,.033-.254h0c.01-.122.012-.233.014-.34a3.08,3.08,0,0,1,.029-.445,1.006,1.006,0,0,1,.167-.43c.291-.411.956-.247,1.561-.1a3.537,3.537,0,0,0,.726.133,3.436,3.436,0,0,0,.785-.148c.592-.156,1.2-.317,1.5.113a1,1,0,0,1,.165.418l0,.012a3.167,3.167,0,0,1,.029.445c0,.108,0,.218.014.341a2.428,2.428,0,0,0,.033.254Zm-4.258,4.9-.257.181-.063.045a1.809,1.809,0,0,0,.733.653,2.949,2.949,0,0,0,1.313.321,2.738,2.738,0,0,0,1.245-.319,2.241,2.241,0,0,0,.8-.665l-.062-.041-.249-.166q-.126.088-.248.167a2.952,2.952,0,0,1-1.4.546,2.419,2.419,0,0,1-1.576-.54c-.078-.055-.157-.116-.238-.18Zm-.555.336a4.866,4.866,0,0,0-1.932.848,1.612,1.612,0,0,0-.674,1.264v1.86a.57.57,0,0,0,.149.388h0a.488.488,0,0,0,.36.161h8.756a.489.489,0,0,0,.36-.161.571.571,0,0,0,.15-.389v-1.86h0a1.625,1.625,0,0,0-.674-1.268,4.865,4.865,0,0,0-1.93-.853,2.453,2.453,0,0,1-.927.8,2.967,2.967,0,0,1-1.356.346,3.183,3.183,0,0,1-1.424-.347A2.038,2.038,0,0,1,161.193,205.14Z" transform="translate(-158.333 -196.367)" fill="#30383b" fill-rule="evenodd"/>
</svg>
