<svg xmlns="http://www.w3.org/2000/svg" width="22.09" height="22.09" viewBox="0 0 22.09 22.09">
  <g id="map" transform="translate(-12.955 -12.955)">
    <g id="Group_62823" data-name="Group 62823">
      <path id="Path_43718" data-name="Path 43718" d="M24,12.955A11.045,11.045,0,1,0,35.045,24,11.058,11.058,0,0,0,24,12.955ZM23.544,27.4c.062.187-.483.732-.529.763s-1.059-.529-1.23-.607a5.486,5.486,0,0,1-.561-1.339l-.374-.358s-.856-.638-.934-.67-.234-1.23-.283-1.339a2.6,2.6,0,0,0-.479-.514,5.01,5.01,0,0,1-.14-1.121,2.46,2.46,0,0,1,.358-1.059,1.834,1.834,0,0,0,.2-1.386c-.093-.156-.7.07-.7.07a2.254,2.254,0,0,0-.519-.2l-.316-.587s-1.881-.134-1.85-.18A9.771,9.771,0,0,1,25.4,14.81h.109c.337.025.648.025.825.338.035.061.667.616.651.616H25.257l-.358.311,1.574.94c-.216.059-.653.2-.949.289a1.828,1.828,0,0,0-.548.282l-.622.467-.579.825.843.623s.981.747,1.028.779.249-.623.249-.623l-.062-1.51.467.156.685-.062s.685.529.763.592a5.775,5.775,0,0,1,.389.732c-.01.1-.083.677.05.7a.13.13,0,0,0,.075-.019c.236-.115.461-.249.687-.382.107-.063.335-.266.465-.266a2.517,2.517,0,0,1-.234.607c-.024.037-.608,1.008-.855,1.421a1.8,1.8,0,0,1-.264.339l-.812.825.28.483-.677.8a1.844,1.844,0,0,1-.185.189l-.726.644s-.794.187-.841.187-.638.14-.638.14-1.121-.109-1.277.483A3.293,3.293,0,0,0,23.544,27.4Zm8.271-2.888c.142-.031-.378.661-.409.771a5.25,5.25,0,0,1-.566.661l-.881.11a1.848,1.848,0,0,1,1.656-1.518C31.714,24.522,31.787,24.514,31.815,24.507ZM26.8,27.273l-.413-.611c-.033-.05.165-.264.165-.264s1.569-.231,1.718-.215.4.479.4.479-.545.71-.727.71S26.8,27.273,26.8,27.273Zm.417,2.143s-.189.079-.378.173-.425.173-.456.11a2.14,2.14,0,0,0-.425-.346,4.553,4.553,0,0,0-.755-.441,1.889,1.889,0,0,1-.629-.519c-.04-.091.157-.362.189-.5s-.016-.564.079-.518.3-.077.5,0a1.357,1.357,0,0,1,.582.361,1.468,1.468,0,0,0,.393.519c.173.11.488.236.472.44s.236.472.236.472Zm.308,2.944c-.857-.38-1.072-.809-1.006-.892a10.5,10.5,0,0,0,.776-.76c.165-.231,1.024-1.206,1.024-1.206l-.264-.528.738-.436a1.841,1.841,0,0,1,.759-.247l.718-.07q.064-.006.128-.008l1.158-.031s1.052-.272.892.017C30.04,32.552,27.529,32.36,27.529,32.36Z" fill="#8f9bb2"/>
    </g>
  </g>
</svg>
