<svg xmlns="http://www.w3.org/2000/svg" xmlns:xlink="http://www.w3.org/1999/xlink" width="54" height="33" viewBox="0 0 54 33">
  <defs>
    <clipPath id="clip-path">
      <rect id="Rectangle_364" data-name="Rectangle 364" width="54" height="33" transform="translate(0.028 -0.388)" fill="#404040"/>
    </clipPath>
  </defs>
  <g id="Mask_Group_48" data-name="Mask Group 48" transform="translate(-0.028 0.388)" clip-path="url(#clip-path)">
    <g id="mastercard" transform="translate(0.005 0.329)">
      <path id="Path_20419" data-name="Path 20419" d="M56.473,28.088a16.434,16.434,0,0,1-32.867,0h0a16.434,16.434,0,0,1,32.867,0Z" transform="translate(-1.695 -11.803)" fill="#ffb600"/>
      <path id="Path_20420" data-name="Path 20420" d="M40.039,11.8A16.4,16.4,0,0,1,56.473,28.088h0a16.434,16.434,0,0,1-32.867,0" transform="translate(-1.695 -11.803)" fill="#f7981d"/>
      <path id="Path_20421" data-name="Path 20421" d="M41.311,11.8A16.4,16.4,0,0,1,57.744,28.088h0A16.347,16.347,0,0,1,41.311,44.374" transform="translate(-2.966 -11.803)" fill="#ff8500"/>
      <path id="Path_20422" data-name="Path 20422" d="M16.259,11.8a16.286,16.286,0,1,0,.174,32.571,16.71,16.71,0,0,0,11.043-4.222h0a15.545,15.545,0,0,0,1.652-1.723H25.737a19.884,19.884,0,0,1-1.217-1.637h5.826a11.009,11.009,0,0,0,.956-1.723H23.563a10.217,10.217,0,0,1-.7-1.723H31.91a16.97,16.97,0,0,0,.869-5.17,22.048,22.048,0,0,0-.348-3.447H22.346A12.5,12.5,0,0,1,22.781,23h9.043a10.216,10.216,0,0,0-.7-1.723H23.476a17.043,17.043,0,0,1,.956-1.723h5.826a8.2,8.2,0,0,0-1.3-1.723H25.737A14.754,14.754,0,0,1,27.389,16.2a16.126,16.126,0,0,0-11.043-4.222C16.346,11.8,16.346,11.8,16.259,11.8Z" transform="translate(0 -11.803)" fill="#ff5050"/>
      <path id="Path_20423" data-name="Path 20423" d="M0,28.1A16.347,16.347,0,0,0,16.433,44.389a16.71,16.71,0,0,0,11.043-4.222h0a15.543,15.543,0,0,0,1.652-1.723H25.737a19.888,19.888,0,0,1-1.217-1.637h5.826a11.009,11.009,0,0,0,.956-1.723H23.563a10.216,10.216,0,0,1-.7-1.723H31.91a16.97,16.97,0,0,0,.869-5.17,22.048,22.048,0,0,0-.348-3.447H22.346a12.5,12.5,0,0,1,.435-1.723h9.043a10.216,10.216,0,0,0-.7-1.723H23.476a17.043,17.043,0,0,1,.956-1.723h5.826a8.2,8.2,0,0,0-1.3-1.723H25.737a14.755,14.755,0,0,1,1.652-1.637A16.126,16.126,0,0,0,16.346,11.99h-.087" transform="translate(0 -11.818)" fill="#e52836"/>
      <path id="Path_20424" data-name="Path 20424" d="M17.691,44.389a16.71,16.71,0,0,0,11.043-4.222h0a15.544,15.544,0,0,0,1.652-1.723H26.995a19.887,19.887,0,0,1-1.217-1.637H31.6a11.009,11.009,0,0,0,.956-1.723H24.821a10.216,10.216,0,0,1-.7-1.723h9.043a16.97,16.97,0,0,0,.869-5.17,22.047,22.047,0,0,0-.348-3.447H23.6a12.5,12.5,0,0,1,.435-1.723h9.043a10.217,10.217,0,0,0-.7-1.723H24.734a17.042,17.042,0,0,1,.956-1.723h5.826a8.2,8.2,0,0,0-1.3-1.723H26.995a14.754,14.754,0,0,1,1.652-1.637A16.126,16.126,0,0,0,17.6,11.99h-.087" transform="translate(-1.258 -11.818)" fill="#cb2026"/>
      <g id="Group_8488" data-name="Group 8488" transform="translate(1.565 12.063)">
        <path id="Path_20425" data-name="Path 20425" d="M23.786,33.343l.261-1.465a3.8,3.8,0,0,1-.435.086c-.609,0-.7-.345-.609-.517l.522-3.016h.956l.261-1.637h-.869l.174-1.034H22.308s-1.043,5.687-1.043,6.376A1.3,1.3,0,0,0,22.655,33.6,2.689,2.689,0,0,0,23.786,33.343Z" transform="translate(-3.092 -24.985)" fill="#fff"/>
        <path id="Path_20426" data-name="Path 20426" d="M24.637,30.668a2.755,2.755,0,0,0,3.043,3.016,4.55,4.55,0,0,0,1.826-.259l.348-1.637a5.25,5.25,0,0,1-1.826.431c-1.913,0-1.565-1.379-1.565-1.379h3.565a11.08,11.08,0,0,0,.261-1.551,2.344,2.344,0,0,0-2.522-2.5C25.941,26.618,24.637,28.513,24.637,30.668Zm3.043-2.5c.956,0,.783,1.12.783,1.206H26.549C26.549,29.289,26.723,28.169,27.68,28.169Z" transform="translate(-3.334 -25.067)" fill="#fff"/>
        <path id="Path_20427" data-name="Path 20427" d="M39.442,33.276l.348-1.9a4.3,4.3,0,0,1-1.478.431,1.75,1.75,0,0,1-1.739-1.982c0-2.068,1.043-3.188,2.261-3.188a2.92,2.92,0,0,1,1.565.517l.261-1.809a6.159,6.159,0,0,0-2-.431c-2,0-4,1.723-4,5,0,2.154,1.043,3.619,3.13,3.619A7.868,7.868,0,0,0,39.442,33.276Z" transform="translate(-4.054 -24.918)" fill="#fff"/>
        <path id="Path_20428" data-name="Path 20428" d="M13.421,26.6a6.207,6.207,0,0,0-2.087.345l-.261,1.465a5.18,5.18,0,0,1,1.913-.345c.609,0,1.13.086,1.13.6,0,.345-.087.431-.087.431h-.783c-1.478,0-3.13.6-3.13,2.585a1.653,1.653,0,0,0,1.652,1.9,2.622,2.622,0,0,0,1.826-.775l-.087.689h1.565l.7-4.739A2.055,2.055,0,0,0,13.421,26.6Zm.348,3.877c0,.259-.174,1.637-1.217,1.637a.675.675,0,0,1-.7-.689c0-.431.261-1.034,1.565-1.034A1.382,1.382,0,0,0,13.769,30.481Z" transform="translate(-2.291 -25.053)" fill="#fff"/>
        <path id="Path_20429" data-name="Path 20429" d="M17.831,33.576a2.224,2.224,0,0,0,2.608-2.24c0-2.154-2.087-1.723-2.087-2.585,0-.431.348-.6.956-.6.261,0,1.217.086,1.217.086l.261-1.551a6.662,6.662,0,0,0-1.652-.172c-1.3,0-2.608.517-2.608,2.24,0,1.982,2.174,1.809,2.174,2.585,0,.517-.609.6-1.043.6a5.732,5.732,0,0,1-1.565-.258l-.261,1.551C15.918,33.4,16.353,33.576,17.831,33.576Z" transform="translate(-2.702 -25.045)" fill="#fff"/>
        <path id="Path_20430" data-name="Path 20430" d="M54.979,25.1l-.348,2.326a2.415,2.415,0,0,0-1.652-.862c-1.565,0-2.956,1.9-2.956,4.136,0,1.379.7,2.843,2.174,2.843a2.329,2.329,0,0,0,1.652-.689l-.087.6H55.5l1.3-8.272ZM54.2,29.672c0,.948-.435,2.154-1.391,2.154-.609,0-.956-.517-.956-1.379,0-1.379.609-2.24,1.391-2.24C53.848,28.207,54.2,28.638,54.2,29.672Z" transform="translate(-5.157 -24.933)" fill="#fff"/>
        <path id="Path_20431" data-name="Path 20431" d="M3.338,33.377l1.043-6.2.174,6.2H5.773l2.261-6.2-.956,6.2H8.9L10.294,25.1H7.425L5.686,30.189,5.6,25.1H3.077L1.686,33.377Z" transform="translate(-1.686 -24.933)" fill="#fff"/>
        <path id="Path_20432" data-name="Path 20432" d="M32.357,33.512c.522-2.843.609-5.17,1.826-4.739a6.719,6.719,0,0,1,.609-1.982h-.348c-.783,0-1.391,1.034-1.391,1.034l.174-.948H31.575L30.444,33.6h1.913Z" transform="translate(-3.751 -25.068)" fill="#fff"/>
        <path id="Path_20433" data-name="Path 20433" d="M43.865,26.6a6.207,6.207,0,0,0-2.087.345l-.261,1.465a5.18,5.18,0,0,1,1.913-.345c.609,0,1.13.086,1.13.6,0,.345-.087.431-.087.431h-.783c-1.478,0-3.13.6-3.13,2.585a1.653,1.653,0,0,0,1.652,1.9,2.621,2.621,0,0,0,1.826-.775l-.087.689h1.565l.7-4.739A2.025,2.025,0,0,0,43.865,26.6Zm.435,3.877c0,.259-.174,1.637-1.217,1.637a.675.675,0,0,1-.7-.689c0-.431.261-1.034,1.565-1.034C44.213,30.481,44.213,30.481,44.3,30.481Z" transform="translate(-4.477 -25.053)" fill="#fff"/>
        <path id="Path_20434" data-name="Path 20434" d="M48.095,33.512c.522-2.843.609-5.17,1.826-4.739a6.719,6.719,0,0,1,.609-1.982h-.348c-.783,0-1.391,1.034-1.391,1.034l.174-.948H47.312L46.182,33.6h1.913Z" transform="translate(-4.881 -25.068)" fill="#fff"/>
      </g>
      <g id="Group_8489" data-name="Group 8489" transform="translate(1.565 12.063)">
        <path id="Path_20435" data-name="Path 20435" d="M21.077,32.137A1.3,1.3,0,0,0,22.468,33.6a3.335,3.335,0,0,0,1.3-.258l.261-1.465a3.8,3.8,0,0,1-.435.086c-.609,0-.7-.345-.609-.517l.522-3.016h.956l.261-1.637h-.869l.174-1.034" transform="translate(-3.078 -24.985)" fill="#dce5e5"/>
        <path id="Path_20436" data-name="Path 20436" d="M25.573,30.668c0,2.413.783,3.016,2.174,3.016a4.55,4.55,0,0,0,1.826-.259l.348-1.637a5.25,5.25,0,0,1-1.826.431c-1.913,0-1.565-1.379-1.565-1.379h3.565a11.08,11.08,0,0,0,.261-1.551,2.344,2.344,0,0,0-2.522-2.5C26.008,26.618,25.573,28.513,25.573,30.668Zm2.174-2.5c.956,0,1.13,1.12,1.13,1.206H26.617C26.617,29.289,26.791,28.169,27.747,28.169Z" transform="translate(-3.401 -25.067)" fill="#dce5e5"/>
        <path id="Path_20437" data-name="Path 20437" d="M39.509,33.276l.348-1.9a4.3,4.3,0,0,1-1.478.431,1.75,1.75,0,0,1-1.739-1.982c0-2.068,1.043-3.188,2.261-3.188a2.92,2.92,0,0,1,1.565.517l.261-1.809a6.159,6.159,0,0,0-2-.431c-2,0-3.13,1.723-3.13,5,0,2.154.174,3.619,2.261,3.619A7.868,7.868,0,0,0,39.509,33.276Z" transform="translate(-4.121 -24.918)" fill="#dce5e5"/>
        <path id="Path_20438" data-name="Path 20438" d="M11.073,28.514a5.18,5.18,0,0,1,1.913-.345c.609,0,1.13.086,1.13.6,0,.345-.087.431-.087.431h-.783c-1.478,0-3.13.6-3.13,2.585a1.653,1.653,0,0,0,1.652,1.9,2.622,2.622,0,0,0,1.826-.775l-.087.689h1.565l.7-4.739c0-1.982-1.739-2.068-2.435-2.068m1.3,3.705a2.84,2.84,0,0,1-2.087,1.637.675.675,0,0,1-.7-.689c0-.431.261-1.034,1.565-1.034A7.167,7.167,0,0,0,14.638,30.5Z" transform="translate(-2.291 -25.068)" fill="#dce5e5"/>
        <path id="Path_20439" data-name="Path 20439" d="M15.925,33.4a7.423,7.423,0,0,0,2,.172,2.224,2.224,0,0,0,2.608-2.24c0-2.154-2.087-1.723-2.087-2.585,0-.431.348-.6.956-.6.261,0,1.217.086,1.217.086l.261-1.551a6.661,6.661,0,0,0-1.652-.172c-1.3,0-1.739.517-1.739,2.24,0,1.982,1.3,1.809,1.3,2.585,0,.517-.609.6-1.043.6" transform="translate(-2.708 -25.045)" fill="#dce5e5"/>
        <path id="Path_20440" data-name="Path 20440" d="M54.7,27.439a2.415,2.415,0,0,0-1.652-.862c-1.565,0-2.087,1.9-2.087,4.136,0,1.379-.174,2.843,1.3,2.843a2.329,2.329,0,0,0,1.652-.689l-.087.6h1.739l1.3-8.272m-2.261,4.481c0,.948-.783,2.154-1.739,2.154-.609,0-.956-.517-.956-1.379,0-1.379.609-2.24,1.391-2.24A1.322,1.322,0,0,1,54.611,29.679Z" transform="translate(-5.224 -24.94)" fill="#dce5e5"/>
        <path id="Path_20441" data-name="Path 20441" d="M3.338,33.377l1.043-6.2.174,6.2H5.773l2.261-6.2-.956,6.2H8.9L10.294,25.1H8.12L5.686,30.189,5.6,25.1H4.642L1.686,33.377Z" transform="translate(-1.686 -24.933)" fill="#dce5e5"/>
        <path id="Path_20442" data-name="Path 20442" d="M30.538,33.512h1.826c.522-2.843.609-5.17,1.826-4.739a6.719,6.719,0,0,1,.609-1.982h-.348c-.783,0-1.391,1.034-1.391,1.034l.174-.948" transform="translate(-3.758 -25.068)" fill="#dce5e5"/>
        <path id="Path_20443" data-name="Path 20443" d="M41.518,28.514a5.18,5.18,0,0,1,1.913-.345c.609,0,1.13.086,1.13.6,0,.345-.087.431-.087.431h-.783c-1.478,0-3.13.6-3.13,2.585a1.653,1.653,0,0,0,1.652,1.9,2.621,2.621,0,0,0,1.826-.775l-.087.689h1.565l.7-4.739c0-1.982-1.739-2.068-2.435-2.068m1.3,3.705A2.84,2.84,0,0,1,43,32.133a.675.675,0,0,1-.7-.689c0-.431.261-1.034,1.565-1.034A7.718,7.718,0,0,0,45.083,30.5Z" transform="translate(-4.477 -25.068)" fill="#dce5e5"/>
        <path id="Path_20444" data-name="Path 20444" d="M46.275,33.512H48.1c.522-2.843.609-5.17,1.826-4.739a6.72,6.72,0,0,1,.609-1.982h-.348c-.783,0-1.391,1.034-1.391,1.034l.174-.948" transform="translate(-4.888 -25.068)" fill="#dce5e5"/>
      </g>
    </g>
  </g>
</svg>
