<svg xmlns="http://www.w3.org/2000/svg" width="17.001" height="17" viewBox="0 0 17.001 17">
  <g id="Group_21045" data-name="Group 21045" transform="translate(-313 -272)">
    <g id="Group_7401" data-name="Group 7401" transform="translate(313 272)">
      <g id="Group_7400" data-name="Group 7400">
        <path id="Path_771" data-name="Path 771" d="M14.414,0H2.587A2.59,2.59,0,0,0,0,2.587v8.13A2.59,2.59,0,0,0,2.587,13.3h7.978l3.587,3.588a.372.372,0,0,0,.262.108.378.378,0,0,0,.141-.028.37.37,0,0,0,.228-.341V13.278A2.592,2.592,0,0,0,17,10.717V2.587A2.59,2.59,0,0,0,14.414,0Z" fill="#d82221"/>
      </g>
    </g>
    <line id="Line_18" data-name="Line 18" x2="7.846" transform="translate(317.577 275.269)" fill="none" stroke="#fff" stroke-linecap="round" stroke-width="0.6"/>
    <line id="Line_19" data-name="Line 19" x2="13.077" transform="translate(314.962 277.885)" fill="none" stroke="#fff" stroke-linecap="round" stroke-width="0.6"/>
    <line id="Line_20" data-name="Line 20" x2="10.462" transform="translate(316.27 280.5)" fill="none" stroke="#fff" stroke-linecap="round" stroke-width="0.6"/>
  </g>
</svg>
