<svg xmlns="http://www.w3.org/2000/svg" width="16.998" height="31" viewBox="0 0 16.998 31">
  <path id="microphone" d="M5007.919,383.652a1.369,1.369,0,0,0,1.389,1.348h12.441a1.348,1.348,0,1,0,0-2.7h-5.028l0-2.286a1.211,1.211,0,0,0-1.217-1.178,1.2,1.2,0,0,0-1.211,1.179l0,2.284h-4.985A1.369,1.369,0,0,0,5007.919,383.652Zm.294-19.88h0a1.2,1.2,0,0,1,1.215,1.179l.007,8.753a1.869,1.869,0,0,0,.547,1.33,1.778,1.778,0,0,0,1.265.533h0l8.511-.005a1.783,1.783,0,0,0,1.266-.536,1.869,1.869,0,0,0,.545-1.329l-.008-8.75a1.191,1.191,0,0,1,1.213-1.173h0a1.193,1.193,0,0,1,1.214,1.173l.007,8.75a4.225,4.225,0,0,1-4.237,4.222l-8.511.008h0a4.232,4.232,0,0,1-4.24-4.223l-.007-8.753A1.194,1.194,0,0,1,5008.213,363.772Zm10.957,9.189a3.014,3.014,0,0,0,.764-1.916l-.007-14.063a3.106,3.106,0,0,0-.766-1.953,2.687,2.687,0,0,0-2-1.028h-3.314a3.054,3.054,0,0,0-2.765,2.951l.007,14.027a3.012,3.012,0,0,0,2.768,2.9h0l3.314.071A2.636,2.636,0,0,0,5019.17,372.961Zm-2.011-1.914a.688.688,0,0,1-.171.286h-2.952a.69.69,0,0,1-.172-.292l-.007-14.056a.693.693,0,0,1,.172-.286h2.951a.664.664,0,0,1,.172.294Z" transform="translate(-5007 -354)" opacity="0.169"/>
</svg>
