<svg xmlns="http://www.w3.org/2000/svg" width="20" height="20" viewBox="0 0 20 20">
  <g id="mobile" transform="translate(-78 -396)">
    <rect id="Rectangle_6638" data-name="Rectangle 6638" width="20" height="20" transform="translate(78 396)" opacity="0"/>
    <path id="mobile-phone" d="M84.5.594A1.921,1.921,0,0,0,83.09,0h-8a1.922,1.922,0,0,0-1.406.594A1.921,1.921,0,0,0,73.09,2V18a2.028,2.028,0,0,0,2,2h8a2.028,2.028,0,0,0,2-2V2A1.921,1.921,0,0,0,84.5.594ZM77.84,2h2.5a.221.221,0,0,1,.25.25.221.221,0,0,1-.25.25h-2.5a.221.221,0,0,1-.25-.25A.221.221,0,0,1,77.84,2Zm2.133,16.883A1.245,1.245,0,1,1,80.34,18,1.2,1.2,0,0,1,79.973,18.883ZM83.59,15.5a.507.507,0,0,1-.5.5h-8a.506.506,0,0,1-.5-.5V4.5a.507.507,0,0,1,.5-.5h8a.507.507,0,0,1,.5.5v11h0Z" transform="translate(8.91 396)"/>
  </g>
</svg>
