<svg id="_1._Icons_Line_prototype-mobile" data-name="1. Icons / Line /  prototype-mobile" xmlns="http://www.w3.org/2000/svg" width="12.011" height="20" viewBox="0 0 12.011 20">
  <path id="prototype-mobile" d="M9.511,20H2.5A2.5,2.5,0,0,1,0,17.5V2.5A2.5,2.5,0,0,1,2.5,0H9.511a2.5,2.5,0,0,1,2.5,2.5v15A2.5,2.5,0,0,1,9.511,20ZM2.5,1A1.5,1.5,0,0,0,1,2.5v15A1.5,1.5,0,0,0,2.5,19H9.511a1.5,1.5,0,0,0,1.5-1.5V2.5A1.5,1.5,0,0,0,9.511,1ZM6,18a1,1,0,1,1,1-1A1,1,0,0,1,6,18Zm1.5-4h-5a.5.5,0,0,1,0-1h5a.5.5,0,1,1,0,1Zm2-2h-7a.5.5,0,1,1,0-1h7a.5.5,0,0,1,0,1Zm0-2h-7A.5.5,0,0,1,2,9.5v-5A.5.5,0,0,1,2.5,4h7a.5.5,0,0,1,.5.5v5A.5.5,0,0,1,9.5,10ZM3,5V9H9V5Z" transform="translate(0 0)" fill="#fff"/>
</svg>
