<svg xmlns="http://www.w3.org/2000/svg" width="286" height="213.104" viewBox="0 0 286 213.104">
  <g id="must-login" transform="translate(0 -55)">
    <g id="freepik--background-complete--inject-1" transform="translate(0 55)">
      <rect id="Rectangle_529" data-name="Rectangle 529" width="286" height="0.143" transform="translate(0 187.273)" fill="#e6e6e6"/>
      <rect id="Rectangle_530" data-name="Rectangle 530" width="18.945" height="0.143" transform="translate(52.452 195.927)" fill="#e6e6e6"/>
      <rect id="Rectangle_531" data-name="Rectangle 531" width="10.977" height="0.143" transform="translate(35.481 195.927)" fill="#e6e6e6"/>
      <rect id="Rectangle_532" data-name="Rectangle 532" width="10.977" height="0.143" transform="translate(109.458 198.032)" fill="#e6e6e6"/>
      <rect id="Rectangle_533" data-name="Rectangle 533" width="24.705" height="0.143" transform="translate(152.964 201.224)" fill="#e6e6e6"/>
      <rect id="Rectangle_534" data-name="Rectangle 534" width="3.621" height="0.143" transform="translate(144.253 201.224)" fill="#e6e6e6"/>
      <rect id="Rectangle_535" data-name="Rectangle 535" width="53.585" height="0.143" transform="translate(205.731 198.032)" fill="#e6e6e6"/>
      <path id="Path_4450" data-name="Path 4450" d="M151.918,216.762H41.47a3.266,3.266,0,0,1-3.26-3.266V58.238A3.266,3.266,0,0,1,41.47,55H151.918a3.266,3.266,0,0,1,3.266,3.266V213.5A3.266,3.266,0,0,1,151.918,216.762ZM41.47,55.114a3.123,3.123,0,0,0-3.117,3.123V213.5a3.123,3.123,0,0,0,3.117,3.123H151.918a3.129,3.129,0,0,0,3.123-3.123V58.238a3.129,3.129,0,0,0-3.123-3.123Z" transform="translate(-16.354 -55)" fill="#e6e6e6"/>
      <path id="Path_4451" data-name="Path 4451" d="M368.219,216.762H257.766A3.272,3.272,0,0,1,254.5,213.5V58.238A3.272,3.272,0,0,1,257.766,55H368.219a3.266,3.266,0,0,1,3.255,3.238V213.5A3.266,3.266,0,0,1,368.219,216.762ZM257.766,55.114a3.129,3.129,0,0,0-3.123,3.123V213.5a3.129,3.129,0,0,0,3.123,3.123H368.219a3.129,3.129,0,0,0,3.123-3.123V58.238a3.129,3.129,0,0,0-3.123-3.123Z" transform="translate(-108.926 -55)" fill="#e6e6e6"/>
      <rect id="Rectangle_536" data-name="Rectangle 536" width="12.578" height="49.896" transform="translate(140.375 138.413)" fill="#e0e0e0"/>
      <path id="Path_4452" data-name="Path 4452" d="M261.345,379.125h2.391v-6.8h-4.9Z" transform="translate(-110.784 -190.817)" fill="#fafafa"/>
      <rect id="Rectangle_537" data-name="Rectangle 537" width="12.578" height="49.896" transform="translate(85.257 138.413)" fill="#e0e0e0"/>
      <rect id="Rectangle_538" data-name="Rectangle 538" width="57.2" height="45.726" transform="translate(95.753 138.413)" fill="#fafafa"/>
      <path id="Path_4453" data-name="Path 4453" d="M223.91,300.743v12.1H170.846v-12.1h53.047m.223-.223H170.64v12.538h53.493V300.52Z" transform="translate(-73.034 -160.083)" fill="#e0e0e0"/>
      <path id="Path_4454" data-name="Path 4454" d="M169.785,379.125H167.4v-6.8h4.891Z" transform="translate(-71.647 -190.817)" fill="#fafafa"/>
      <path id="Path_4455" data-name="Path 4455" d="M215.19,310.534a1.264,1.264,0,1,0,1.264-1.264,1.264,1.264,0,0,0-1.264,1.264Z" transform="translate(-92.101 -163.828)" fill="#e6e6e6"/>
      <path id="Path_4456" data-name="Path 4456" d="M223.91,326.207v12.1H170.846v-12.1h53.047m.223-.217H170.64v12.538h53.493V326Z" transform="translate(-73.034 -170.984)" fill="#e0e0e0"/>
      <path id="Path_4457" data-name="Path 4457" d="M215.19,336.054a1.264,1.264,0,1,0,1.264-1.264,1.264,1.264,0,0,0-1.264,1.264Z" transform="translate(-92.101 -174.75)" fill="#e6e6e6"/>
      <path id="Path_4458" data-name="Path 4458" d="M223.91,351.673v12.1H170.846v-12.1h53.047m.223-.223H170.64v12.544h53.493V351.45Z" transform="translate(-73.034 -181.881)" fill="#e0e0e0"/>
      <path id="Path_4459" data-name="Path 4459" d="M215.19,361.47a1.264,1.264,0,1,0,.368-.9A1.264,1.264,0,0,0,215.19,361.47Z" transform="translate(-92.101 -185.626)" fill="#e6e6e6"/>
      <rect id="Rectangle_539" data-name="Rectangle 539" width="12.578" height="78.879" transform="translate(77.575 109.435)" fill="#e0e0e0"/>
      <path id="Path_4460" data-name="Path 4460" d="M151.56,379.125h2.391v-6.8H149.06Z" transform="translate(-63.798 -190.817)" fill="#fafafa"/>
      <rect id="Rectangle_540" data-name="Rectangle 540" width="12.578" height="78.879" transform="translate(30.568 109.435)" fill="#e0e0e0"/>
      <rect id="Rectangle_541" data-name="Rectangle 541" width="49.095" height="74.709" transform="translate(41.058 109.435)" fill="#fafafa"/>
      <path id="Path_4461" data-name="Path 4461" d="M120.137,249.807v16.914H75.275V249.807h44.862m.263-.257H75v17.417h45.388V249.556Z" transform="translate(-32.1 -138.267)" fill="#e0e0e0"/>
      <path id="Path_4462" data-name="Path 4462" d="M137.727,282.983v44.862h-21.37V282.983h21.37m.263-.263H116.1v45.388h21.89Z" transform="translate(-49.691 -152.464)" fill="#e0e0e0"/>
      <path id="Path_4463" data-name="Path 4463" d="M96.644,282.983v44.862H75.275V282.983h21.37m.257-.263H75v45.388H96.89V282.72Z" transform="translate(-32.1 -152.464)" fill="#e0e0e0"/>
      <path id="Path_4464" data-name="Path 4464" d="M74.171,379.125H71.78v-6.8h4.9Z" transform="translate(-30.722 -190.817)" fill="#fafafa"/>
      <path id="Path_4465" data-name="Path 4465" d="M112.48,263.854a1.27,1.27,0,1,0,1.27-1.264A1.27,1.27,0,0,0,112.48,263.854Z" transform="translate(-48.141 -143.849)" fill="#e6e6e6"/>
      <path id="Path_4466" data-name="Path 4466" d="M120.4,319.58a1.264,1.264,0,1,0,.368-.9A1.27,1.27,0,0,0,120.4,319.58Z" transform="translate(-51.531 -167.697)" fill="#e6e6e6"/>
      <path id="Path_4467" data-name="Path 4467" d="M104.57,319.58a1.264,1.264,0,1,0,.368-.9A1.264,1.264,0,0,0,104.57,319.58Z" transform="translate(-44.756 -167.697)" fill="#e6e6e6"/>
      <path id="Path_4468" data-name="Path 4468" d="M97.761,207.87h-5.3a56.023,56.023,0,0,1,.921,7.791c0,2.86-4.038,14.2,1.716,14.2s1.716-11.314,1.716-14.2a56.022,56.022,0,0,1,.95-7.791Z" transform="translate(-39.377 -120.428)" fill="#e0e0e0"/>
      <path id="Path_4469" data-name="Path 4469" d="M66.8,228.15v3.432a6.967,6.967,0,0,0,6.944,6.944h3.432a6.967,6.967,0,0,0,6.944-6.944V228.15Z" transform="translate(-28.59 -129.108)" fill="#f5f5f5"/>
      <path id="Path_4470" data-name="Path 4470" d="M195.67,284.26c0,4,4.479,7.276,9.953,7.276h4.942c5.474,0,9.953-3.272,9.953-7.276Z" transform="translate(-83.747 -153.123)" fill="#e0e0e0"/>
      <path id="Path_4471" data-name="Path 4471" d="M398.665,221.426a52.293,52.293,0,0,0-10.925,13.23,34.048,34.048,0,0,0-4.719,14.4c0-6.578.04-13.642.063-20.312.761-1.716,2.5-5.674,3.747-8.8,4.158-10.428,5.72-13,9.455-21.988,4.994-12.012,10.107-26.232,8.643-25.094-2.986,2.317-14.426,23.738-15.661,26.8a85.8,85.8,0,0,0-6.172,25.654c0-6.292.046-12.012.069-16.451.08-14.477.326-19.151.446-20.592.463-.732,1.007-1.584,1.327-2.042,2.688-3.89,3.724-7.2,6.252-13,3.592-8.208,6.681-22.788,5.777-22.056-3.764,3.066-6.727,9.644-10.628,18.035s-2.786,13.213-3.558,20.375c-.16,1.407-.286,6.715-.378,14.065-1.007-7.836-2.906-13-6.366-17.686-4.256-5.771-8.374-9.667-11.394-11.7s5.217,12.138,9.152,18.3c3.506,5.514,6.738,10.37,8.58,15.158-.1,9.97-.143,22.588-.143,34.32a69.047,69.047,0,0,0-4.347-15.558c-2.368-5.354-6.006-13.568-8.906-16.353-.692-.669,3.032,15.307,5.423,19.551s4.147,8.254,5.651,10.662c.349.572,1.516,2.728,2.179,3.975,0,14.34.08,26.993.206,31.3h.618c-.04-1.11-.052-8.408-.034-18.064,1.493-5.24,4.9-11.223,7.716-16.68C393.8,234.982,401.662,219,398.665,221.426Z" transform="translate(-155.788 -96.158)" fill="#e0e0e0"/>
      <path id="Path_4472" data-name="Path 4472" d="M398.012,371.062H380.086L378.73,353.49h20.638Z" transform="translate(-162.096 -182.754)" fill="#f0f0f0"/>
      <path id="Path_4473" data-name="Path 4473" d="M399.2,352.632H375.894l-.664-5.932h24.642Z" transform="translate(-160.598 -179.848)" fill="#f5f5f5"/>
      <rect id="Rectangle_542" data-name="Rectangle 542" width="32.061" height="35.207" transform="translate(39.016 11.726)" fill="#e0e0e0"/>
      <rect id="Rectangle_543" data-name="Rectangle 543" width="33.119" height="35.207" transform="translate(41.43 11.726)" fill="#f5f5f5"/>
      <rect id="Rectangle_544" data-name="Rectangle 544" width="29.658" height="27.57" transform="translate(71.775 14.5) rotate(90)" fill="#fff"/>
      <rect id="Rectangle_545" data-name="Rectangle 545" width="15.278" height="14.203" transform="translate(65.088 21.685) rotate(90)" fill="#f5f5f5"/>
      <rect id="Rectangle_546" data-name="Rectangle 546" width="29.784" height="32.707" transform="translate(204.765 15.827)" fill="#e0e0e0"/>
      <rect id="Rectangle_547" data-name="Rectangle 547" width="30.762" height="32.707" transform="translate(207.013 15.827)" fill="#f5f5f5"/>
      <rect id="Rectangle_548" data-name="Rectangle 548" width="27.548" height="25.608" transform="translate(235.201 18.407) rotate(90)" fill="#fff"/>
      <circle id="Ellipse_359" data-name="Ellipse 359" cx="7.991" cy="7.991" r="7.991" transform="translate(214.403 24.19)" fill="#f5f5f5"/>
      <rect id="Rectangle_549" data-name="Rectangle 549" width="23.784" height="26.118" transform="translate(80.601 32.718)" fill="#e0e0e0"/>
      <rect id="Rectangle_550" data-name="Rectangle 550" width="24.567" height="26.118" transform="translate(82.391 32.718)" fill="#f5f5f5"/>
      <rect id="Rectangle_551" data-name="Rectangle 551" width="21.999" height="20.449" transform="translate(104.899 34.778) rotate(90)" fill="#fff"/>
      <path id="Path_4474" data-name="Path 4474" d="M161.334,125.3l-5.594,9.69h11.188Z" transform="translate(-66.657 -85.088)" fill="#f5f5f5"/>
    </g>
    <g id="freepik--Shadow--inject-1" transform="translate(32.095 255.154)">
      <ellipse id="Ellipse_360" data-name="Ellipse 360" cx="110.905" cy="6.475" rx="110.905" ry="6.475" fill="#f5f5f5"/>
    </g>
    <g id="freepik--character-2--inject-1" transform="translate(164.261 79.332)">
      <path id="Path_4475" data-name="Path 4475" d="M327.508,161.718l-5.674-2.288s-7.487,13.654-9.632,14.346c-2.917.938-8.958,3.546-12.538,4a6.449,6.449,0,0,0-1.207,3c4.811,1.607,15.381-.526,17.646-2.208C321.256,174.754,327.508,161.718,327.508,161.718Z" transform="translate(-291.998 -124.028)" fill="#e58a7b"/>
      <path id="Path_4476" data-name="Path 4476" d="M343.184,155.635c1.058,3.907-4.673,11.766-4.673,11.766l-7.51-4.21s1.407-3.232,3.123-6.521C336.874,151.357,341.977,151.18,343.184,155.635Z" transform="translate(-305.929 -121.051)" fill="#407bff"/>
      <path id="Path_4477" data-name="Path 4477" d="M343.184,155.635c1.058,3.907-4.673,11.766-4.673,11.766l-7.51-4.21s1.407-3.232,3.123-6.521C336.874,151.357,341.977,151.18,343.184,155.635Z" transform="translate(-305.929 -121.051)" opacity="0.2"/>
      <path id="Path_4478" data-name="Path 4478" d="M336.21,168.6l2.957,1.659.521-9.078C337.966,162.5,336.753,166.482,336.21,168.6Z" transform="translate(-308.159 -124.777)" opacity="0.2"/>
      <path id="Path_4479" data-name="Path 4479" d="M341.038,151.859s-5.846,13.007-2.437,37.226h23.034c.366-3.535-.847-20.786,3.541-37.443a58.6,58.6,0,0,0-7.653-.978,84.589,84.589,0,0,0-9.787,0,45.152,45.152,0,0,0-6.7,1.2Z" transform="translate(-308.726 -120.215)" fill="#407bff"/>
      <path id="Path_4480" data-name="Path 4480" d="M341.038,151.859s-5.846,13.007-2.437,37.226h23.034c.366-3.535-.847-20.786,3.541-37.443a58.6,58.6,0,0,0-7.653-.978,84.589,84.589,0,0,0-9.787,0,45.152,45.152,0,0,0-6.7,1.2Z" transform="translate(-308.726 -120.215)" opacity="0.2"/>
      <path id="Path_4481" data-name="Path 4481" d="M334.32,416.31c-.034.618,8.7,1.115,19.505,1.115s19.6-.5,19.637-1.115-8.694-1.11-19.505-1.11S334.36,415.7,334.32,416.31Z" transform="translate(-307.35 -233.497)" fill="#e8ecf1"/>
      <rect id="Rectangle_552" data-name="Rectangle 552" width="4.381" height="9.749" transform="translate(38.26 168.162) rotate(-21.161)" fill="#e58a7b"/>
      <path id="Path_4482" data-name="Path 4482" d="M388.646,401.99h-4.307l-1.579-9.97h4.307Z" transform="translate(-328.083 -223.576)" fill="#e58a7b"/>
      <path id="Path_4483" data-name="Path 4483" d="M379.81,408.58h4.839a.355.355,0,0,1,.349.3l.623,3.827a.675.675,0,0,1-.675.766c-1.687-.029-2.5-.132-4.627-.132-1.31,0-4,.137-5.823.137s-1.939-1.785-1.19-1.951a11.379,11.379,0,0,0,5.789-2.677A1.081,1.081,0,0,1,379.81,408.58Z" transform="translate(-323.851 -230.664)" fill="#263238"/>
      <path id="Path_4484" data-name="Path 4484" d="M353.155,404.988l4.576-1.339a.372.372,0,0,1,.429.183l1.716,3.432a.658.658,0,0,1-.429.909c-1.665.458-2.78.738-4.862,1.344-1.436.418-2.9,1.1-4.319,1.55a20.57,20.57,0,0,1-4.49.326c-1.768,0-2.162-1.865-1.4-1.951,1.916-.212,2.174-.114,3.232-.646a14.7,14.7,0,0,0,4.622-3.192A2.145,2.145,0,0,1,353.155,404.988Z" transform="translate(-311.496 -228.548)" fill="#263238"/>
      <path id="Path_4485" data-name="Path 4485" d="M296.827,189.985,292.091,188l-1.951,5.251a19.448,19.448,0,0,0,5.857,0Z" transform="translate(-288.441 -136.256)" fill="#e58a7b"/>
      <path id="Path_4486" data-name="Path 4486" d="M287.3,187.76l-.126,3.489,1.7,1.888,1.951-5.251Z" transform="translate(-287.17 -136.153)" fill="#e58a7b"/>
      <rect id="Rectangle_553" data-name="Rectangle 553" width="4.393" height="5.039" transform="translate(38.808 168.934) rotate(-21.11)" fill="#cf6f64"/>
      <path id="Path_4487" data-name="Path 4487" d="M387.067,392.02H382.76l.818,5.142h4.307Z" transform="translate(-328.083 -223.576)" fill="#cf6f64"/>
      <path id="Path_4488" data-name="Path 4488" d="M338.12,193.667c.086,1.035.183,2.094.309,3.18l17.126-5.56a12.263,12.263,0,0,0,6.589-4.765c.069-1.527.154-3.135.286-4.811.057-.812.126-1.647.2-2.494s.177-1.785.286-2.688Z" transform="translate(-308.977 -131.347)" opacity="0.2"/>
      <path id="Path_4489" data-name="Path 4489" d="M347.472,169.854l-.572-.069c.337-2.86,2.471-5.114,4.719-5.056v.572C349.651,165.261,347.775,167.292,347.472,169.854Z" transform="translate(-312.734 -126.295)" fill="#fff"/>
      <path id="Path_4490" data-name="Path 4490" d="M353.157,179.1h-.1v-.572c1.968.074,3.815-1.979,4.118-4.536l.572.069C357.447,176.856,355.382,179.1,353.157,179.1Z" transform="translate(-315.371 -130.26)" fill="#fff"/>
      <path id="Path_4491" data-name="Path 4491" d="M364.263,131.5c-.807,3.152-1.756,8.923.32,11.022,0,0-1.453,3.2-7.3,3.2-5.348,0-2.482-3.2-2.482-3.2,3.558-.835,3.621-3.432,3.152-5.892Z" transform="translate(-315.786 -112.074)" fill="#e58a7b"/>
      <path id="Path_4492" data-name="Path 4492" d="M364.625,135.16,360.89,138.2a10.066,10.066,0,0,1,.2,1.716c1.093,1.087,3.283-1.665,3.506-3.072A4.576,4.576,0,0,0,364.625,135.16Z" transform="translate(-318.722 -113.64)" fill="#cf6f64"/>
      <path id="Path_4493" data-name="Path 4493" d="M349.456,129.272a3.781,3.781,0,0,0,2.431,1.8c1.373.3,2.059-.961,1.682-2.231-.337-1.144-1.464-2.683-2.86-2.42a1.91,1.91,0,0,0-1.253,2.854Z" transform="translate(-313.712 -109.886)" fill="#cf6f64"/>
      <path id="Path_4494" data-name="Path 4494" d="M352.185,113.671c-2.139.978-2.894,9.478-.206,10.736S356.235,111.812,352.185,113.671Z" transform="translate(-314.17 -104.37)" fill="#263238"/>
      <path id="Path_4495" data-name="Path 4495" d="M363.765,118.507c-.515,4.267-.572,6.778-2.86,8.963a5.5,5.5,0,0,1-9.358-2.917c-.692-3.832.263-10.164,4.542-11.863a5.508,5.508,0,0,1,7.676,5.817Z" transform="translate(-314.636 -103.822)" fill="#e58a7b"/>
      <path id="Path_4496" data-name="Path 4496" d="M354.287,109.048c3.169-.807,5.5-1.356,4.662,1.281-1.1,3.524-2.431,6.933-.652,7.087,1.087.1,5.892-1.939,5.28-4-.532-1.8,1.716-2.288,2.116-3.2,1.481-3.295-2.757-2.86-2-4.862s-3.432-5.228-5.72-3.621c-3.724,2.6-10.113,2.557-6.755-1.716,2.408-3.049-1.888-2.425-1.888-2.425s2.6,1.539-1.773,3.918C342.933,104.049,347.172,110.873,354.287,109.048Z" transform="translate(-312.188 -97.538)" fill="#263238"/>
      <path id="Path_4497" data-name="Path 4497" d="M372.811,129.272a4.433,4.433,0,0,1-2.637,1.8c-1.413.3-1.956-.961-1.424-2.231.475-1.144,1.779-2.683,3.129-2.42S373.538,128.151,372.811,129.272Z" transform="translate(-322 -109.886)" fill="#e58a7b"/>
      <path id="Path_4498" data-name="Path 4498" d="M336.276,217.94s-3.867,34.606-4.17,47.739c-.309,13.659,13.1,56.279,13.1,56.279l6.864-2.86s-8.008-38.942-6.864-52.355c1.213-14.626,6.223-48.78,6.223-48.78Z" transform="translate(-306.4 -149.07)" fill="#407bff"/>
      <path id="Path_4499" data-name="Path 4499" d="M355.014,233.513c-3.083,6.395-1.007,19.042.664,26.535.635-5.291,1.39-11.034,2.1-16.348C357.714,235.532,357.079,229.223,355.014,233.513Z" transform="translate(-315.529 -155.142)" opacity="0.2"/>
      <path id="Path_4500" data-name="Path 4500" d="M360.241,390.83c.034,0,.812,2.185.812,2.185l-7.916,3.329-1.247-2.322Z" transform="translate(-314.87 -223.067)" fill="#407bff"/>
      <path id="Path_4501" data-name="Path 4501" d="M353.69,217.94s2.957,32.913,4.913,45.239c2.151,13.5,10.582,58.481,10.582,58.481h7.888s-4.725-43.884-5.617-57.257c-.972-14.506-2.906-46.464-2.906-46.464Z" transform="translate(-315.641 -149.07)" fill="#407bff"/>
      <path id="Path_4502" data-name="Path 4502" d="M388.026,395.436c.034,0,.263,2.2.263,2.2h-8.672L379,395.11Z" transform="translate(-326.473 -224.899)" fill="#407bff"/>
      <path id="Path_4503" data-name="Path 4503" d="M383.649,320.474a.074.074,0,0,1-.074-.063c-.046-.4-4.307-40.04-5.108-52.052-.869-13.03-2.62-41.933-2.637-42.225a.069.069,0,0,1,.069-.074h0a.074.074,0,0,1,.074.069c0,.292,1.767,29.172,2.637,42.225.8,12.012,5.062,51.623,5.1,52.052a.069.069,0,0,1-.063.08Z" transform="translate(-325.116 -152.546)" opacity="0.2"/>
      <path id="Path_4504" data-name="Path 4504" d="M361.006,124.819c0,.349-.217.629-.446.629s-.395-.28-.372-.629.217-.629.446-.629S361.029,124.476,361.006,124.819Z" transform="translate(-318.421 -108.945)" fill="#263238"/>
      <path id="Path_4505" data-name="Path 4505" d="M354.143,124.819c0,.349-.223.629-.446.629s-.395-.28-.378-.629.223-.629.452-.629S354.166,124.476,354.143,124.819Z" transform="translate(-315.481 -108.945)" fill="#263238"/>
      <path id="Path_4506" data-name="Path 4506" d="M355.55,125.6a13.328,13.328,0,0,1-1.83,2.969,1.957,1.957,0,0,0,1.642.309Z" transform="translate(-315.653 -109.549)" fill="#df5753"/>
      <path id="Path_4507" data-name="Path 4507" d="M357.027,132.9a.1.1,0,0,1-.1-.1.109.109,0,0,1,.109-.1,2.929,2.929,0,0,0,2.288-1.075.109.109,0,0,1,.143,0,.1.1,0,0,1,0,.143A3.123,3.123,0,0,1,357.027,132.9Z" transform="translate(-317.027 -112.114)" fill="#263238"/>
      <path id="Path_4508" data-name="Path 4508" d="M361.407,122.949a.194.194,0,0,1-.177,0,1.624,1.624,0,0,0-1.459-.154.194.194,0,0,1-.263-.092.212.212,0,0,1,.109-.275,2.008,2.008,0,0,1,1.848.172.2.2,0,0,1,.052.28A.229.229,0,0,1,361.407,122.949Z" transform="translate(-318.124 -108.127)" fill="#263238"/>
      <path id="Path_4509" data-name="Path 4509" d="M352.005,120.666a.166.166,0,0,1-.08-.046.2.2,0,0,1,0-.286,2.139,2.139,0,0,1,1.762-.709.194.194,0,0,1,.16.235.223.223,0,0,1-.24.172h0a1.716,1.716,0,0,0-1.39.572.212.212,0,0,1-.212.063Z" transform="translate(-314.859 -106.989)" fill="#263238"/>
      <path id="Path_4510" data-name="Path 4510" d="M369.647,161.134,363.7,159.55s-5.834,14.363-7.9,15.3a129.464,129.464,0,0,0-12.921,7.819,5.982,5.982,0,0,0,.343,3.129c5.148-.938,15-4.73,17.063-6.658C364.979,174.737,369.647,161.134,369.647,161.134Z" transform="translate(-310.983 -124.079)" fill="#e58a7b"/>
      <path id="Path_4511" data-name="Path 4511" d="M381.717,409.084a1.253,1.253,0,0,1-.818-.223.572.572,0,0,1-.177-.538.337.337,0,0,1,.195-.286c.48-.246,1.825.606,1.979.7a.092.092,0,0,1,.04.1.12.12,0,0,1-.08.086A5.421,5.421,0,0,1,381.717,409.084Zm-.572-.892a.3.3,0,0,0-.132,0,.126.126,0,0,0-.069.12.389.389,0,0,0,.114.372,2.046,2.046,0,0,0,1.522.08,3.793,3.793,0,0,0-1.453-.572Z" transform="translate(-327.205 -230.413)" fill="#407bff"/>
      <path id="Path_4512" data-name="Path 4512" d="M383.532,408.18a.074.074,0,0,1-.046,0c-.429-.24-1.236-1.184-1.115-1.665a.349.349,0,0,1,.337-.269.538.538,0,0,1,.429.132c.475.406.5,1.653.5,1.716a.086.086,0,0,1-.051.092.1.1,0,0,1-.057-.006Zm-.766-1.745h-.04c-.132,0-.149.074-.154.1-.069.28.44,1,.864,1.333a2.368,2.368,0,0,0-.429-1.35.349.349,0,0,0-.24-.086Z" transform="translate(-327.911 -229.663)" fill="#407bff"/>
      <path id="Path_4513" data-name="Path 4513" d="M354.9,407.963a1.642,1.642,0,0,1-1.081,0,.538.538,0,0,1-.28-.435.338.338,0,0,1,.12-.3c.458-.412,2.328,0,2.54.08a.091.091,0,0,1,.069.091.109.109,0,0,1-.063.1,8.373,8.373,0,0,1-1.3.463Zm-.932-.681a.394.394,0,0,0-.177.086.12.12,0,0,0-.046.12.36.36,0,0,0,.183.292,2.848,2.848,0,0,0,1.916-.349A5.628,5.628,0,0,0,353.967,407.282Z" transform="translate(-315.574 -230.007)" fill="#407bff"/>
      <path id="Path_4514" data-name="Path 4514" d="M356.826,406.6h-.046c-.572-.1-1.716-.761-1.75-1.253,0-.114.051-.275.326-.366a.732.732,0,0,1,.572.034c.618.3.944,1.4.961,1.453a.152.152,0,0,1-.063.132Zm-1.356-1.447h-.057c-.177.063-.177.137-.177.16,0,.3.829.841,1.407,1.024a2.162,2.162,0,0,0-.8-1.144A.526.526,0,0,0,355.47,405.15Z" transform="translate(-316.214 -229.104)" fill="#407bff"/>
      <path id="Path_4515" data-name="Path 4515" d="M338.8,199.37l-5.966,2.746-.692,1.716,2.2,1.481s4.118-.446,5.291-3.095Z" transform="translate(-306.417 -141.122)" fill="#e58a7b"/>
      <path id="Path_4516" data-name="Path 4516" d="M343.39,202.647a8.042,8.042,0,0,0-1.11-3.238l.944-.709a9.2,9.2,0,0,1,1.327,3.747Z" transform="translate(-310.757 -140.835)" fill="#263238"/>
      <path id="Path_4517" data-name="Path 4517" d="M344.422,200.371a1.144,1.144,0,1,1-1.4-.446,1.041,1.041,0,0,1,1.4.446Z" transform="translate(-310.771 -141.311)" fill="#263238"/>
      <path id="Path_4518" data-name="Path 4518" d="M326.3,206.389l.8.8,5.354-2.288-2.116-.732Z" transform="translate(-303.918 -143.177)" fill="#e58a7b"/>
      <path id="Path_4519" data-name="Path 4519" d="M360.241,390.83c.034,0,.812,2.185.812,2.185l-7.916,3.329-1.247-2.322Z" transform="translate(-314.87 -223.067)" opacity="0.2"/>
      <path id="Path_4520" data-name="Path 4520" d="M388.026,395.436c.034,0,.263,2.2.263,2.2h-8.672L379,395.11Z" transform="translate(-326.473 -224.899)" opacity="0.2"/>
      <path id="Path_4521" data-name="Path 4521" d="M382.66,156.4c1.573,5.074-4.576,12.012-4.576,12.012l-8.494-3.466a88.133,88.133,0,0,1,3.478-8.62C375.676,150.7,381.07,151.276,382.66,156.4Z" transform="translate(-322.446 -120.987)" fill="#407bff"/>
      <path id="Path_4522" data-name="Path 4522" d="M382.66,156.4c1.573,5.074-4.576,12.012-4.576,12.012l-8.494-3.466a88.133,88.133,0,0,1,3.478-8.62C375.676,150.7,381.07,151.276,382.66,156.4Z" transform="translate(-322.446 -120.987)" opacity="0.2"/>
    </g>
    <g id="freepik--Screen--inject-1" transform="translate(108.44 63.906)">
      <rect id="Rectangle_554" data-name="Rectangle 554" width="3.655" height="0.589" transform="translate(27.977)" fill="#407bff"/>
      <rect id="Rectangle_555" data-name="Rectangle 555" width="9.827" height="0.589" transform="translate(78.504 33.134) rotate(-87.42)" fill="#407bff"/>
      <path id="Path_4523" data-name="Path 4523" d="M270.407,75.19h-67.5L196.63,215.742h67.5Z" transform="translate(-192.597 -72.547)" fill="#407bff"/>
      <path id="Path_4524" data-name="Path 4524" d="M266.887,78.57h-67.5L193.11,219.122h67.5Z" transform="translate(-191.091 -73.994)" fill="#fafafa" opacity="0.56"/>
      <path id="Path_4525" data-name="Path 4525" d="M263.362,81.94h-67.5L189.58,222.492h67.5Z" transform="translate(-189.58 -75.436)" fill="#407bff" opacity="0.07"/>
      <path id="Path_4526" data-name="Path 4526" d="M261.672,189.11H204.06l-.48,10.754h57.612Z" transform="translate(-195.572 -121.305)" fill="#fff"/>
      <path id="Path_4527" data-name="Path 4527" d="M236.206,175.39H204.872l-.212,4.811h31.334Z" transform="translate(-196.034 -115.433)" fill="#407bff"/>
      <path id="Path_4528" data-name="Path 4528" d="M259.4,239.85H201.79l-.48,10.754h57.612Z" transform="translate(-194.6 -143.022)" fill="#fff"/>
      <path id="Path_4529" data-name="Path 4529" d="M254.979,284.04H216.238l-.578,12.887H254.4Z" transform="translate(-200.742 -161.935)" fill="#407bff" opacity="0.47"/>
      <path id="Path_4530" data-name="Path 4530" d="M250.84,300.333H212.1a.1.1,0,0,1-.051,0,.08.08,0,0,1,0-.051l.572-12.893a.063.063,0,0,1,.069-.063h38.742a.052.052,0,0,1,.046,0,.046.046,0,0,1,0,.046l-.561,12.921A.074.074,0,0,1,250.84,300.333Zm-38.673-.137h38.6l.572-12.756h-38.6Z" transform="translate(-199.194 -163.339)" fill="#fff"/>
      <path id="Path_4531" data-name="Path 4531" d="M228.467,226.13H202.6l-.212,4.816h25.86Z" transform="translate(-195.063 -137.15)" fill="#407bff"/>
      <path id="Path_4532" data-name="Path 4532" d="M261.168,117.414a15.175,15.175,0,0,1-3.186,8.609,15.375,15.375,0,0,1-12.126,6.046,13.905,13.905,0,0,1-13.991-14.655,15.444,15.444,0,0,1,15.3-14.655,13.894,13.894,0,0,1,14,14.655Z" transform="translate(-207.669 -84.347)" fill="#fff"/>
      <path id="Path_4533" data-name="Path 4533" d="M279.688,105.209a4,4,0,0,1-.847,2.288,4.1,4.1,0,0,1-3.226,1.607,3.707,3.707,0,0,1-3.077-1.607,3.781,3.781,0,0,1-.641-2.288,4.107,4.107,0,0,1,4.067-3.89,3.7,3.7,0,0,1,3.724,3.89Z" transform="translate(-224.81 -83.731)" fill="#407bff"/>
      <path id="Path_4534" data-name="Path 4534" d="M212.687,197.226a1.825,1.825,0,0,1-1.8,1.716,1.63,1.63,0,0,1-1.647-1.716,1.813,1.813,0,0,1,1.8-1.716,1.636,1.636,0,0,1,1.647,1.716Z" transform="translate(-197.993 -124.044)" fill="#263238"/>
      <path id="Path_4535" data-name="Path 4535" d="M226.172,197.226a1.819,1.819,0,0,1-1.8,1.716,1.63,1.63,0,0,1-1.642-1.716,1.813,1.813,0,0,1,1.8-1.716,1.63,1.63,0,0,1,1.647,1.716Z" transform="translate(-203.767 -124.044)" fill="#263238"/>
      <path id="Path_4536" data-name="Path 4536" d="M239.658,197.226a1.819,1.819,0,0,1-1.8,1.716,1.636,1.636,0,0,1-1.647-1.716,1.819,1.819,0,0,1,1.8-1.716,1.63,1.63,0,0,1,1.647,1.716Z" transform="translate(-209.536 -124.044)" fill="#263238"/>
      <path id="Path_4537" data-name="Path 4537" d="M210.418,247.966a1.825,1.825,0,0,1-1.8,1.716,1.636,1.636,0,0,1-1.647-1.716,1.819,1.819,0,0,1,1.8-1.716,1.636,1.636,0,0,1,1.647,1.716Z" transform="translate(-197.021 -145.761)" fill="#263238"/>
      <path id="Path_4538" data-name="Path 4538" d="M223.9,247.966a1.819,1.819,0,0,1-1.8,1.716,1.63,1.63,0,0,1-1.647-1.716,1.819,1.819,0,0,1,1.8-1.716,1.63,1.63,0,0,1,1.642,1.716Z" transform="translate(-202.795 -145.761)" fill="#263238"/>
      <path id="Path_4539" data-name="Path 4539" d="M237.418,247.966a1.819,1.819,0,0,1-1.8,1.716,1.642,1.642,0,0,1-1.647-1.716,1.825,1.825,0,0,1,1.8-1.716,1.63,1.63,0,0,1,1.647,1.716Z" transform="translate(-208.578 -145.761)" fill="#263238"/>
      <path id="Path_4540" data-name="Path 4540" d="M250.878,247.966a1.825,1.825,0,0,1-1.8,1.716,1.642,1.642,0,0,1-1.647-1.716,1.825,1.825,0,0,1,1.8-1.716,1.636,1.636,0,0,1,1.647,1.716Z" transform="translate(-214.339 -145.761)" fill="#263238"/>
      <path id="Path_4541" data-name="Path 4541" d="M264.417,247.966a1.825,1.825,0,0,1-1.8,1.716,1.63,1.63,0,0,1-1.647-1.716,1.819,1.819,0,0,1,1.8-1.716,1.636,1.636,0,0,1,1.647,1.716Z" transform="translate(-220.133 -145.761)" fill="#263238"/>
      <ellipse id="Ellipse_361" data-name="Ellipse 361" cx="6.063" cy="5.794" rx="6.063" ry="5.794" transform="translate(30.676 28.258) rotate(-44.36)" fill="#407bff"/>
      <path id="Path_4542" data-name="Path 4542" d="M259.8,140.006a15.375,15.375,0,0,1-12.126,6.046,13.882,13.882,0,0,1-11.577-6.046,17.2,17.2,0,0,1,12.052-4.576C253.025,135.43,257.27,137.238,259.8,140.006Z" transform="translate(-209.491 -98.33)" fill="#407bff"/>
      <ellipse id="Ellipse_362" data-name="Ellipse 362" cx="6.063" cy="5.794" rx="6.063" ry="5.794" transform="translate(30.676 28.258) rotate(-44.36)" fill="#fff" opacity="0.1"/>
      <path id="Path_4543" data-name="Path 4543" d="M259.8,140.006a15.375,15.375,0,0,1-12.126,6.046,13.882,13.882,0,0,1-11.577-6.046,17.2,17.2,0,0,1,12.052-4.576C253.025,135.43,257.27,137.238,259.8,140.006Z" transform="translate(-209.491 -98.33)" fill="#fff" opacity="0.1"/>
    </g>
    <g id="freepik--character-1--inject-1" transform="translate(62.211 113.825)">
      <path id="Path_4544" data-name="Path 4544" d="M123.442,210.9c-.543,1.19-1.115,2.5-1.613,3.769s-1.007,2.58-1.447,3.884a49.328,49.328,0,0,0-2.048,7.894l-.126.841a1.23,1.23,0,0,0,.04.429,4.462,4.462,0,0,0,.629,1.327,16.749,16.749,0,0,0,2.54,2.86,38.527,38.527,0,0,0,3.157,2.637c1.1.847,2.254,1.67,3.392,2.448L126.9,239a40.538,40.538,0,0,1-7.693-4.41,18.527,18.527,0,0,1-3.432-3.249A8.151,8.151,0,0,1,114.4,228.9a5.548,5.548,0,0,1-.275-1.716v-.715l.057-.572a44.742,44.742,0,0,1,1.87-8.774c.446-1.407.921-2.809,1.464-4.176s1.1-2.706,1.8-4.1Z" transform="translate(-111.058 -179.673)" fill="#e58a7b"/>
      <path id="Path_4545" data-name="Path 4545" d="M136.114,255.9l4.044-2.048-1.047,4.439s-2.774.778-4.061-.572Z" transform="translate(-120.012 -198.933)" fill="#e58a7b"/>
      <path id="Path_4546" data-name="Path 4546" d="M146.9,254.576l-1.075,3.672-3.672.04,1.047-4.439Z" transform="translate(-123.051 -198.933)" fill="#e58a7b"/>
      <path id="Path_4547" data-name="Path 4547" d="M160.421,175a11.44,11.44,0,0,0,.9,2.288.932.932,0,0,1-.909.292Z" transform="translate(-130.866 -165.185)" fill="#df5753"/>
      <ellipse id="Ellipse_363" data-name="Ellipse 363" cx="0.429" cy="0.658" rx="0.429" ry="0.658" transform="translate(29.006 8.534)" fill="#263238"/>
      <path id="Path_4548" data-name="Path 4548" d="M160,172.616l.869-.246S160.446,173.045,160,172.616Z" transform="translate(-130.691 -164.059)" fill="#263238"/>
      <path id="Path_4549" data-name="Path 4549" d="M140.284,182.34c.521,2.66,1.041,7.539-.824,9.318,0,0,.732,2.7,5.68,2.7,5.44,0,2.6-2.7,2.6-2.7-2.969-.709-2.894-2.911-2.374-4.982Z" transform="translate(-121.9 -168.327)" fill="#e58a7b"/>
      <path id="Path_4550" data-name="Path 4550" d="M138.359,166.882c.275,4.444.3,6.332,2.54,8.614,3.381,3.432,8.78,2.128,9.838-2.288.955-4,.349-10.593-4-12.361a6.075,6.075,0,0,0-8.374,6.035Z" transform="translate(-121.422 -158.932)" fill="#e58a7b"/>
      <path id="Path_4551" data-name="Path 4551" d="M135.622,162.844c-2.231.812-5.205.206-4.038,7.087,1.236,7.287-.664,9.684-.664,9.684a45.418,45.418,0,0,0,17.1-.109s-2.637-4.61-1.9-8.008c.944-4.29.2-5.874.2-5.874S138.756,161.7,135.622,162.844Z" transform="translate(-118.244 -159.893)" fill="#263238"/>
      <path id="Path_4552" data-name="Path 4552" d="M155.64,174.854a4.467,4.467,0,0,0,.7,2.385c.606.927,1.321.572,1.5-.412.16-.864.04-2.391-.732-2.986S155.651,173.83,155.64,174.854Z" transform="translate(-128.825 -164.587)" fill="#e58a7b"/>
      <path id="Path_4553" data-name="Path 4553" d="M135.688,161.541c-.641-1.8,2.414-4.576,8.877-3.432s6.744,6.527,6.744,6.527L150,163.08l.057,1.636-6.641,1.276Z" transform="translate(-120.249 -157.841)" fill="#263238"/>
      <path id="Path_4554" data-name="Path 4554" d="M136.7,197.728h0a1.012,1.012,0,0,1,.829-1.144c2.013-.332,6.589-1.007,8.889-.686,1.716.24,2.162,1.236,2.237,2.053a1.007,1.007,0,0,1-1.058,1.087l-9.941-.446a1.018,1.018,0,0,1-.955-.864Z" transform="translate(-120.715 -174.093)" fill="#407bff"/>
      <path id="Path_4555" data-name="Path 4555" d="M136.7,197.728h0a1.012,1.012,0,0,1,.829-1.144c2.013-.332,6.589-1.007,8.889-.686,1.716.24,2.162,1.236,2.237,2.053a1.007,1.007,0,0,1-1.058,1.087l-9.941-.446a1.018,1.018,0,0,1-.955-.864Z" transform="translate(-120.715 -174.093)" opacity="0.6"/>
      <path id="Path_4556" data-name="Path 4556" d="M146.76,367.6l3.689,2.563,6.172-8.368-3.689-2.557Z" transform="translate(-125.024 -244.04)" fill="#e58a7b"/>
      <path id="Path_4557" data-name="Path 4557" d="M131.72,366.949l3.9,2.219,5.463-8.849-3.9-2.219Z" transform="translate(-118.587 -243.552)" fill="#e58a7b"/>
      <path id="Path_4558" data-name="Path 4558" d="M158.85,361.8l-3.18,4.313-3.689-2.557,3.18-4.313Z" transform="translate(-127.258 -244.04)" fill="#cf6f64"/>
      <path id="Path_4559" data-name="Path 4559" d="M139.154,358.1l3.9,2.225-2.814,4.559-3.9-2.225Z" transform="translate(-120.564 -243.552)" fill="#cf6f64"/>
      <path id="Path_4560" data-name="Path 4560" d="M141.426,248s14.4,18.15,11.7,35.51c-2.179,14.02-14.821,33-14.821,33l-5.943-2.952a194.057,194.057,0,0,0,10.7-25.992,19.214,19.214,0,0,0-2.288-16.645c-7.3-10.656-18.99-4.313-11.125-22.926Z" transform="translate(-116.578 -196.429)" fill="#407bff"/>
      <path id="Path_4561" data-name="Path 4561" d="M141.426,248s14.4,18.15,11.7,35.51c-2.179,14.02-14.821,33-14.821,33l-5.943-2.952a194.057,194.057,0,0,0,10.7-25.992,19.214,19.214,0,0,0-2.288-16.645c-7.3-10.656-18.99-4.313-11.125-22.926Z" transform="translate(-116.578 -196.429)" opacity="0.6"/>
      <path id="Path_4562" data-name="Path 4562" d="M162.984,266.822l-2.094-2.082c0,.166,4.055,25.2,5.194,32.238a42.629,42.629,0,0,0,1.539-6.292C168.961,282.169,166.164,273.469,162.984,266.822Z" transform="translate(-131.072 -203.594)" opacity="0.4"/>
      <path id="Path_4563" data-name="Path 4563" d="M150.84,248s17.343,22.811,17.835,36.488c.406,11.44-18.876,33.605-18.876,33.605l-5.606-3.626s11.286-15.741,14.128-28.6C157.223,273.122,134,248,134,248Z" transform="translate(-119.563 -196.429)" fill="#407bff"/>
      <path id="Path_4564" data-name="Path 4564" d="M150.84,248s17.343,22.811,17.835,36.488c.406,11.44-18.876,33.605-18.876,33.605l-5.606-3.626s11.286-15.741,14.128-28.6C157.223,273.122,134,248,134,248Z" transform="translate(-119.563 -196.429)" opacity="0.6"/>
      <path id="Path_4565" data-name="Path 4565" d="M123.212,200.351c-1.853.44-3.632,7.179-3.632,7.179l7.247,4.839s2.414-5.331,1.567-7.665C127.519,202.273,125.54,199.8,123.212,200.351Z" transform="translate(-113.391 -176.002)" fill="#407bff"/>
      <path id="Path_4566" data-name="Path 4566" d="M128.033,208l-.5,5.874,2.694,1.808a24.139,24.139,0,0,0,1.642-5.228Z" transform="translate(-116.794 -179.309)" opacity="0.2"/>
      <path id="Path_4567" data-name="Path 4567" d="M149.531,199.669s2.139.749-2.145,27.084H129.162c.309-7.436.315-12.012-3.232-27.216a53.931,53.931,0,0,1,7.739-1.018,57.867,57.867,0,0,1,8.277,0C145.5,198.845,149.531,199.669,149.531,199.669Z" transform="translate(-116.109 -175.188)" fill="#407bff"/>
      <path id="Path_4568" data-name="Path 4568" d="M167.186,206.618c.412,1.144.847,2.374,1.3,3.558s.892,2.4,1.356,3.6l1.4,3.592.355.9.183.446.086.223v.034a1.178,1.178,0,0,0-.4-.355,1.63,1.63,0,0,0-.744-.223,1.493,1.493,0,0,0-.635.12c-.263.12-.263.172-.257.166a.693.693,0,0,0,.126-.132,7.8,7.8,0,0,0,.818-1.333c.269-.526.526-1.087.784-1.653.5-1.144.967-2.328,1.43-3.524s.9-2.4,1.333-3.621l1.3-3.649,2.2.572c-.435,2.608-1,5.148-1.67,7.733-.326,1.287-.709,2.563-1.144,3.85-.217.646-.458,1.287-.732,1.945a12.326,12.326,0,0,1-1.052,2.048,5.331,5.331,0,0,1-.5.618,3.1,3.1,0,0,1-1.041.738,2.563,2.563,0,0,1-1.11.206,2.517,2.517,0,0,1-1.207-.36,3.078,3.078,0,0,1-1.041-1.081c-.086-.149-.16-.3-.212-.406l-.109-.217-.217-.446-.435-.887c-.572-1.19-1.144-2.391-1.642-3.6s-1.024-2.431-1.516-3.661-.932-2.46-1.35-3.787Z" transform="translate(-131.911 -177.927)" fill="#e58a7b"/>
      <path id="Path_4569" data-name="Path 4569" d="M163.2,200.512c2.191.521,4.656,7,4.656,7l-6.515,5.543s-4.216-7.058-3.363-9.387C158.861,201.238,160.337,199.831,163.2,200.512Z" transform="translate(-129.775 -176.031)" fill="#407bff"/>
      <path id="Path_4570" data-name="Path 4570" d="M186.205,199.76l2.288-1.91,1.59,2.477-1.173,2.065s-1.865,1.716-3.512.841h0A2.957,2.957,0,0,1,186.205,199.76Z" transform="translate(-141.452 -174.965)" fill="#e58a7b"/>
      <path id="Path_4571" data-name="Path 4571" d="M195.117,197.856l-.172.623-3.621.606-.355-1.236Z" transform="translate(-143.946 -174.965)" fill="#e58a7b"/>
      <path id="Path_4572" data-name="Path 4572" d="M157.512,366.368l-6.532-4.221,1.173-2.036,7.339,4.513Z" transform="translate(-126.83 -244.412)" fill="#407bff"/>
      <path id="Path_4573" data-name="Path 4573" d="M141.741,376.13a3.936,3.936,0,0,1-1.613-.572.1.1,0,0,1,0-.194c.177-.057,1.716-.532,2.162-.166a.366.366,0,0,1,.126.349.606.606,0,0,1-.326.492.749.749,0,0,1-.349.092Zm-1.287-.629c.715.366,1.287.5,1.562.36a.4.4,0,0,0,.206-.332c0-.091,0-.132-.051-.154-.24-.194-1.1-.046-1.727.126Z" transform="translate(-122.156 -250.811)" fill="#263238"/>
      <path id="Path_4574" data-name="Path 4574" d="M140.18,374.682a.114.114,0,0,1-.08-.034.109.109,0,0,1,0-.1c0-.051.372-1.293.955-1.573a.572.572,0,0,1,.475,0,.377.377,0,0,1,.263.383c-.04.515-1.087,1.224-1.567,1.344Zm1.11-1.562a.389.389,0,0,0-.16.04c-.355.172-.646.841-.789,1.247.5-.212,1.2-.772,1.218-1.087,0-.051,0-.114-.132-.172a.424.424,0,0,0-.137-.046Z" transform="translate(-122.168 -249.895)" fill="#263238"/>
      <path id="Path_4575" data-name="Path 4575" d="M155.732,380.116c-.646,0-1.544-.829-2.036-1.338a.1.1,0,0,1,0-.12.12.12,0,0,1,.109-.057c.229,0,2.214.3,2.494.858a.326.326,0,0,1,0,.332.572.572,0,0,1-.452.32Zm-1.659-1.258c.721.7,1.356,1.087,1.716,1.041a.389.389,0,0,0,.3-.212.12.12,0,0,0,0-.132c-.149-.309-1.207-.572-2.013-.7Z" transform="translate(-127.984 -252.326)" fill="#263238"/>
      <path id="Path_4576" data-name="Path 4576" d="M154.124,378.074a1.871,1.871,0,0,1-.383-.029.1.1,0,0,1-.08-.063.12.12,0,0,1,0-.109c.034-.04.807-.972,1.539-1.035a.8.8,0,0,1,.572.183c.223.194.212.366.154.475C155.782,377.885,154.793,378.074,154.124,378.074Zm-.149-.212c.641.034,1.665-.177,1.8-.458,0,0,.046-.092-.1-.217a.572.572,0,0,0-.435-.137,2.505,2.505,0,0,0-1.258.818Z" transform="translate(-127.972 -251.571)" fill="#263238"/>
      <path id="Path_4577" data-name="Path 4577" d="M135.306,373.881l-4.851-1.373a.355.355,0,0,0-.429.2l-1.636,3.678a.721.721,0,0,0,.475.967c1.716.446,2.54.572,4.673,1.184,1.316.366,3.192,1.047,5.005,1.562s2.42-1.253,1.716-1.63a8.861,8.861,0,0,1-4.3-4.118A1.178,1.178,0,0,0,135.306,373.881Z" transform="translate(-117.139 -249.712)" fill="#407bff"/>
      <path id="Path_4578" data-name="Path 4578" d="M148.3,375.549l-4.141-2.86a.355.355,0,0,0-.469.046l-2.746,2.951a.715.715,0,0,0,.137,1.064c1.459.978,2.214,1.373,4.038,2.637,1.144.778,3.358,2.505,4.9,3.581s2.694-.4,2.145-.984a12.135,12.135,0,0,1-3.4-5.766A1.184,1.184,0,0,0,148.3,375.549Z" transform="translate(-122.46 -249.767)" fill="#407bff"/>
      <path id="Path_4579" data-name="Path 4579" d="M142.485,364.147l-7.465-3.712.772-2.025,7.974,3.912Z" transform="translate(-119.999 -243.685)" fill="#407bff"/>
      <path id="Path_4580" data-name="Path 4580" d="M130.618,246.029l-.629,1.647c-.063.126.086.257.3.257h18.922c.166,0,.3-.08.315-.183l.16-1.636c0-.109-.132-.206-.309-.206H130.916a.349.349,0,0,0-.3.12Z" transform="translate(-117.84 -195.533)" fill="#407bff"/>
      <path id="Path_4581" data-name="Path 4581" d="M130.618,246.029l-.629,1.647c-.063.126.086.257.3.257h18.922c.166,0,.3-.08.315-.183l.16-1.636c0-.109-.132-.206-.309-.206H130.916a.349.349,0,0,0-.3.12Z" transform="translate(-117.84 -195.533)" fill="#fff" opacity="0.4"/>
      <path id="Path_4582" data-name="Path 4582" d="M135.813,247.975h-.5c-.1,0-.172-.051-.166-.114l.235-2.122c0-.057.092-.109.189-.109h.5c.1,0,.172.051.166.109L136,247.861C136,247.924,135.911,247.975,135.813,247.975Z" transform="translate(-120.055 -195.415)" fill="#407bff"/>
      <path id="Path_4583" data-name="Path 4583" d="M156.218,247.975h-.492c-.1,0-.172-.051-.166-.114l.229-2.122c0-.057.1-.109.194-.109h.492c.1,0,.177.051.166.109l-.229,2.122A.2.2,0,0,1,156.218,247.975Z" transform="translate(-128.79 -195.415)" fill="#407bff"/>
      <ellipse id="Ellipse_364" data-name="Ellipse 364" cx="15.324" cy="1.11" rx="15.324" ry="1.11" transform="translate(0 147.209)" fill="#f5f5f5"/>
      <path id="Path_4584" data-name="Path 4584" d="M137.479,358.7a38.088,38.088,0,0,1-7.539-2.86c-.051-.034-.109-.051-.16-.08V343.489h5.485a1.636,1.636,0,0,0,0-3.266h-5.457V284.27h-3.295v55.953h-5.451a1.636,1.636,0,1,0,0,3.266h5.451v12.258c-.051,0-.1.046-.154.08a36.757,36.757,0,0,1-7.545,2.86.8.8,0,0,0,.223,1.567h18.218a.8.8,0,0,0,.223-1.55Z" transform="translate(-112.82 -211.953)" fill="#e0e0e0"/>
      <rect id="Rectangle_556" data-name="Rectangle 556" width="26.266" height="11.972" rx="5.18" transform="translate(2.196 66.62)" fill="#407bff"/>
      <path id="Path_4585" data-name="Path 4585" d="M117.45,295.25v1.041c0,.858.932,1.556,2.076,1.556h16.588c1.144,0,2.076-.7,2.076-1.556V295.25Z" transform="translate(-112.479 -216.652)" fill="#407bff"/>
      <path id="Path_4586" data-name="Path 4586" d="M117.45,295.25v1.041c0,.858.932,1.556,2.076,1.556h16.588c1.144,0,2.076-.7,2.076-1.556V295.25Z" transform="translate(-112.479 -216.652)" fill="#fff" opacity="0.3"/>
    </g>
  </g>
</svg>
