<svg id="wallet" xmlns="http://www.w3.org/2000/svg" width="36.667" height="33" viewBox="0 0 36.667 33">
  <path id="Path_127105" data-name="Path 127105" d="M2.865,83H31.51a2.873,2.873,0,0,1,2.865,2.865V89.3a2.873,2.873,0,0,1-2.865,2.865H2.865A2.873,2.873,0,0,1,0,89.3V85.865A2.873,2.873,0,0,1,2.865,83Z" transform="translate(0 -78.947)" fill="#a86a3f"/>
  <path id="Path_127106" data-name="Path 127106" d="M56.614,63.983l17.932-4.756a1.15,1.15,0,0,1,1.4.8l2.979,11a1.151,1.151,0,0,1-.8,1.4L54.781,78.651a1.15,1.15,0,0,1-1.4-.8L51.2,69.77Z" transform="translate(-47.476 -56.864)" fill="#3db39e"/>
  <path id="Path_127107" data-name="Path 127107" d="M100.362,104.54l-3.868,1.031a.563.563,0,1,1-.286-1.089l3.323-.888-1.776-6.647-3.323.888a.563.563,0,1,1-.286-1.089l3.868-1.031a.533.533,0,0,1,.688.4l2.063,7.735A.533.533,0,0,1,100.362,104.54Zm-16.044,4.326L80.451,109.9a.533.533,0,0,1-.688-.4L77.7,101.761a.533.533,0,0,1,.4-.688l3.868-1.031a.563.563,0,0,1,.286,1.089l-3.323.888,1.776,6.647,3.323-.888a.533.533,0,0,1,.688.4A.556.556,0,0,1,84.319,108.866Z" transform="translate(-72.03 -90.637)" fill="#78cabb"/>
  <path id="Path_127108" data-name="Path 127108" d="M2.785,38.407c5.1-2.922,18.851-10.973,18.851-10.973a1.158,1.158,0,0,1,1.576.4l5.73,9.855a1.133,1.133,0,0,1-.43,1.547L7.541,51.27a1.158,1.158,0,0,1-1.576-.4S4.36,47.6,2.756,44.853C2.756,38.407,2.785,40.527,2.785,38.407Z" transform="translate(-2.556 -27.277)" fill="#5abeac"/>
  <path id="Path_127109" data-name="Path 127109" d="M30.009,74.043,26,67.109a.544.544,0,0,0-.774-.2l-3.467,2.005a.565.565,0,1,0,.573.974l2.98-1.719,3.438,5.959-2.98,1.719a.565.565,0,1,0,.573.974l3.467-2.005A.555.555,0,0,0,30.009,74.043ZM14.825,82.15l-2.98,1.719L8.407,77.91l2.98-1.719a.565.565,0,0,0-.573-.974L7.347,77.223a.544.544,0,0,0-.2.774l4.011,6.933a.544.544,0,0,0,.774.2L15.4,83.124a.544.544,0,0,0,.2-.774A.555.555,0,0,0,14.825,82.15Zm1.461-10.113a4.595,4.595,0,1,0,6.274,1.69A4.591,4.591,0,0,0,16.286,72.037Zm13.723,2.005L26,67.109a.544.544,0,0,0-.774-.2l-3.467,2.005a.565.565,0,1,0,.573.974l2.98-1.719,3.438,5.959-2.98,1.719a.565.565,0,1,0,.573.974l3.467-2.005A.555.555,0,0,0,30.009,74.043ZM14.825,82.15l-2.98,1.719L8.407,77.91l2.98-1.719a.565.565,0,0,0-.573-.974L7.347,77.223a.544.544,0,0,0-.2.774l4.011,6.933a.544.544,0,0,0,.774.2L15.4,83.124a.544.544,0,0,0,.2-.774A.555.555,0,0,0,14.825,82.15Zm1.461-10.113a4.595,4.595,0,1,0,6.274,1.69A4.591,4.591,0,0,0,16.286,72.037Z" transform="translate(-6.545 -63.944)" fill="#8cd2c5"/>
  <path id="Path_127110" data-name="Path 127110" d="M32.656,148.169H2.865A2.873,2.873,0,0,1,0,145.3V124.676H32.656a2.873,2.873,0,0,1,2.865,2.865V145.3A2.873,2.873,0,0,1,32.656,148.169ZM2.292,124.676H0v-2.292A2.3,2.3,0,0,0,2.292,124.676Z" transform="translate(0 -115.169)" fill="#c47e4d"/>
  <path id="Path_127111" data-name="Path 127111" d="M378.811,276.13h-4.584a4.011,4.011,0,0,1,0-8.022h4.584a1.149,1.149,0,0,1,1.146,1.146v5.73A1.149,1.149,0,0,1,378.811,276.13Z" transform="translate(-343.29 -250.378)" fill="#a86a3f"/>
  <path id="Path_127112" data-name="Path 127112" d="M396.138,291.738a2.292,2.292,0,1,1-2.292,2.292A2.3,2.3,0,0,1,396.138,291.738Z" transform="translate(-365.201 -272.297)" fill="#efc75e"/>
  <path id="Path_127113" data-name="Path 127113" d="M396.711,300.861a2.309,2.309,0,0,1-1.891-3.61,2.232,2.232,0,0,0-.974,1.891,2.3,2.3,0,0,0,2.292,2.292,2.386,2.386,0,0,0,1.891-.974A2.31,2.31,0,0,1,396.711,300.861Z" transform="translate(-365.201 -277.408)" fill="#d7b354"/>
  <path id="Path_127114" data-name="Path 127114" d="M32.656,424.572H2.865A2.873,2.873,0,0,1,0,421.707v1.146a2.873,2.873,0,0,0,2.865,2.865H32.656a2.873,2.873,0,0,0,2.865-2.865v-1.146A2.873,2.873,0,0,1,32.656,424.572Z" transform="translate(0 -392.718)" fill="#b27245"/>
  <path id="Path_127115" data-name="Path 127115" d="M32.656,124.676H2.292A2.3,2.3,0,0,1,0,122.384v1.146a2.3,2.3,0,0,0,2.292,2.292H32.656a2.873,2.873,0,0,1,2.865,2.865v-1.146A2.873,2.873,0,0,0,32.656,124.676Z" transform="translate(0 -115.388)" fill="#ca8b5f"/>
</svg>
