<svg xmlns="http://www.w3.org/2000/svg" width="17.166" height="17.167" viewBox="0 0 17.166 17.167">
  <g id="_5b284e56e2196d2ae09fa64f09eef2e2" data-name="5b284e56e2196d2ae09fa64f09eef2e2" transform="translate(0.08 0.079)">
    <path id="Path_43754" data-name="Path 43754" d="M14.4,14.4a8.333,8.333,0,1,1,0-11.784A8.333,8.333,0,0,1,14.4,14.4ZM3.8,3.8a6.646,6.646,0,0,0-.391,8.969l2.741-2.741H4.966l-.337,1.281H3.2L5.014,5.74H6.7l.922,2.825L9.182,7V5.74h1.26l2.33-2.33A6.646,6.646,0,0,0,3.8,3.8ZM6.429,9,6.3,8.525c-.156-.554-.308-1.221-.464-1.791H5.808c-.141.583-.3,1.236-.449,1.791L5.233,9Zm4.98-2.122-.82.82v2.529h.189c.944,0,1.612-.41,1.612-1.735C12.389,7.486,12,7.036,11.408,6.874Zm2.386-2.386L12.3,5.985A2.406,2.406,0,0,1,13.828,8.49,2.582,2.582,0,0,1,10.942,11.3H9.18V9.1L8.134,10.148l.378,1.162H7.032L7.02,11.26,4.486,13.792a6.641,6.641,0,0,0,9.308-9.3Z" fill="#fff" stroke="#d10000" stroke-width="0.5"/>
  </g>
</svg>
