<svg xmlns="http://www.w3.org/2000/svg" width="15" height="19.5" viewBox="0 0 15 19.5">
  <g id="Shape" transform="translate(15 19.5) rotate(180)" fill="#fff" stroke-miterlimit="10">
    <path d="M7.5,0A3.255,3.255,0,0,0,4.434,2.166H2.709A2.709,2.709,0,0,0,.233,5.975L1,7.7v3.135a6.511,6.511,0,0,0,4.333,6.13v.37a2.167,2.167,0,0,0,4.334,0v-.37A6.511,6.511,0,0,0,14,10.833V7.7l.766-1.724A2.708,2.708,0,0,0,13.391,2.4a2.726,2.726,0,0,0-1.1-.234H10.564A3.255,3.255,0,0,0,7.5,0ZM5.622,2.166a2.168,2.168,0,0,1,3.755,0ZM7.5,16.25a5.423,5.423,0,0,1-5.417-5.417V7.584l-.047-.22L1.224,5.535A1.625,1.625,0,0,1,2.709,3.25h9.582a1.608,1.608,0,0,1,.659.14,1.628,1.628,0,0,1,.826,2.145l-.813,1.828-.047.22v3.25A5.423,5.423,0,0,1,7.5,16.25Zm0,1.083a6.645,6.645,0,0,0,1.083-.09v.09a1.083,1.083,0,0,1-2.166,0v-.09A6.631,6.631,0,0,0,7.5,17.334Z" stroke="none"/>
    <path d="M 7.499701499938965 0 C 8.874739646911621 0 10.10666275024414 0.8709239959716797 10.56412506103516 2.166461944580078 L 12.29085540771484 2.166461944580078 C 12.6663932800293 2.166461944580078 13.04670143127441 2.247346878051758 13.39066314697266 2.400461196899414 C 14.05173969268799 2.694231033325195 14.55881690979004 3.22776985168457 14.81839370727539 3.902807235717773 C 15.0780086517334 4.577807426452637 15.05920124053955 5.313653945922852 14.76539325714111 5.974807739257812 L 13.99904727935791 7.698615074157715 L 13.99904727935791 10.83323097229004 C 13.99904727935791 13.58342361450195 12.25750923156738 16.0472297668457 9.666162490844727 16.96303939819336 L 9.666162490844727 17.33353805541992 C 9.666162490844727 18.52811622619629 8.694278717041016 19.5 7.499701499938965 19.5 C 6.304586410522461 19.5 5.332278251647949 18.52811622619629 5.332278251647949 17.33353805541992 L 5.332278251647949 16.96303939819336 C 2.74062442779541 16.04711532592773 0.9993934631347656 13.58373069763184 0.9993934631347656 10.83323097229004 L 0.9993934631347656 7.698615074157715 L 0.2330093383789062 5.974807739257812 C 0.07839393615722656 5.625192642211914 9.5367431640625e-06 5.255153656005859 9.5367431640625e-06 4.875 C 9.5367431640625e-06 3.381500244140625 1.215047836303711 2.166461944580078 2.708547592163086 2.166461944580078 L 4.434316635131836 2.166461944580078 C 4.891932487487793 0.8706150054931641 6.12381649017334 0 7.499701499938965 0 Z M 9.376585960388184 2.166461944580078 C 8.990201950073242 1.498308181762695 8.271047592163086 1.083230972290039 7.499701499938965 1.083230972290039 C 6.728317260742188 1.083230972290039 6.00877857208252 1.498308181762695 5.621854782104492 2.166461944580078 L 9.376585960388184 2.166461944580078 Z M 7.499701499938965 16.25030708312988 C 10.48616313934326 16.25030708312988 12.91581726074219 13.82023048400879 12.91581726074219 10.83323097229004 L 12.96262454986572 7.363192558288574 L 13.77577781677246 5.535077095031738 C 14.13908576965332 4.715961456298828 13.7686243057251 3.753692626953125 12.94993209838867 3.390077590942383 C 12.74108600616455 3.29692268371582 12.51931667327881 3.249692916870117 12.29085540771484 3.249692916870117 L 2.708547592163086 3.249692916870117 C 1.812355041503906 3.249692916870117 1.083239555358887 3.97880744934082 1.083239555358887 4.875 C 1.083239555358887 5.100884437561035 1.131778717041016 5.329154014587402 1.223624229431152 5.535077095031738 L 2.082586288452148 7.583538055419922 L 2.082586288452148 10.83323097229004 C 2.082586288452148 13.82023048400879 4.512701034545898 16.25030708312988 7.499701499938965 16.25030708312988 Z M 7.499701499938965 17.33353805541992 C 7.141663074493408 17.33353805541992 6.776778221130371 17.30373001098633 6.416470527648926 17.24384689331055 L 6.416470527648926 17.33353805541992 C 6.416470527648926 17.93084526062012 6.902393341064453 18.41676902770996 7.499701499938965 18.41676902770996 C 8.097009658813477 18.41676902770996 8.582931518554688 17.93084526062012 8.582931518554688 17.33357620239258 L 8.582931518554688 17.24384689331055 C 8.223855018615723 17.30338478088379 7.85939359664917 17.33353805541992 7.499701499938965 17.33353805541992 Z" stroke="none" fill="#fff"/>
  </g>
</svg>
