<svg xmlns="http://www.w3.org/2000/svg" width="19" height="19" viewBox="0 0 19 19">
  <g id="notification-drawer" transform="translate(-35 -445)">
    <rect id="Rectangle" width="19" height="19" transform="translate(35 445)" opacity="0"/>
    <g id="profile" transform="translate(36.118 445.864)">
      <rect id="Rectangle-2" data-name="Rectangle" width="17" height="17" transform="translate(-0.118 0.137)" opacity="0"/>
      <g id="bell_-_icon" data-name="bell - icon" transform="translate(1.041)">
        <path id="Path_45109" data-name="Path 45109" d="M0,0A2.929,2.929,0,0,0,2.675,1.727,2.929,2.929,0,0,0,5.35,0Z" transform="translate(4.666 15.545)"/>
        <path id="Path_45110" data-name="Path 45110" d="M1.911,1.891a4.766,4.766,0,0,1,1.911.4V2.2A2.048,2.048,0,0,0,1.987,0H1.835A2.048,2.048,0,0,0,0,2.2v.087A4.774,4.774,0,0,1,1.911,1.891Z" transform="translate(5.43 0)"/>
        <path id="Path_45111" data-name="Path 45111" d="M14.124,12.86H.558a.552.552,0,0,1-.545-.423.525.525,0,0,1,.29-.6,2.87,2.87,0,0,0,.876-1.186,13.661,13.661,0,0,0,.913-5.425,5.248,5.248,0,0,1,10.5-.021c0,.007,0,.014,0,.021a13.661,13.661,0,0,0,.913,5.425,2.869,2.869,0,0,0,.876,1.186.525.525,0,0,1,.29.6A.553.553,0,0,1,14.124,12.86Zm.261-1.017h0Z" transform="translate(0 2.293)"/>
      </g>
    </g>
  </g>
</svg>
