<svg xmlns="http://www.w3.org/2000/svg" width="17" height="20" viewBox="0 0 17 20">
  <g id="notification" transform="translate(-42.657)">
    <g id="Group_9200" data-name="Group 9200" transform="translate(42.657 3.033)">
      <g id="Group_9199" data-name="Group 9199">
        <path id="Path_26179" data-name="Path 26179" d="M59.6,88.412l-1.46-2.35a6.8,6.8,0,0,1-1.029-3.591V80.414a5.953,5.953,0,0,0-11.9,0v2.058a6.8,6.8,0,0,1-1.029,3.591l-1.46,2.35a.4.4,0,0,0-.006.413.429.429,0,0,0,.371.209H59.232a.429.429,0,0,0,.371-.209A.4.4,0,0,0,59.6,88.412Z" transform="translate(-42.657 -74.667)" fill="#d82221"/>
      </g>
    </g>
    <g id="Group_9202" data-name="Group 9202" transform="translate(49.424)">
      <g id="Group_9201" data-name="Group 9201">
        <path id="Path_26180" data-name="Path 26180" d="M215.066,0a1.735,1.735,0,0,0-1.733,1.733V3.467a.433.433,0,0,0,.867,0V1.733a.867.867,0,1,1,1.733,0V3.467a.433.433,0,0,0,.867,0V1.733A1.735,1.735,0,0,0,215.066,0Z" transform="translate(-213.333)" fill="#d82221"/>
      </g>
    </g>
    <g id="Group_9204" data-name="Group 9204" transform="translate(48.991 16.534)">
      <g id="Group_9203" data-name="Group 9203">
        <path id="Path_26181" data-name="Path 26181" d="M206.708,426.893a.434.434,0,0,0-.749.439,1.3,1.3,0,1,1-2.252,0,.434.434,0,0,0-.749-.439,2.168,2.168,0,1,0,3.749,0Z" transform="translate(-202.666 -426.68)" fill="#d82221"/>
      </g>
    </g>
  </g>
</svg>
