<svg xmlns="http://www.w3.org/2000/svg" width="15" height="17" viewBox="0 0 15 17">
  <path id="Path_127136" data-name="Path 127136" d="M.615-5.238A3.331,3.331,0,0,1,1.574-7.69a3.325,3.325,0,0,1,2.464-.965,3.305,3.305,0,0,1,2.475.97A3.446,3.446,0,0,1,7.461-5.17v.806A3.288,3.288,0,0,1,6.5-1.919a3.328,3.328,0,0,1-2.441.948,3.4,3.4,0,0,1-2.469-.948A3.358,3.358,0,0,1,.615-4.444ZM2.2-4.369a2.131,2.131,0,0,0,.505,1.462,1.715,1.715,0,0,0,1.355.574,1.681,1.681,0,0,0,1.315-.557,2.2,2.2,0,0,0,.5-1.524v-.83a2.184,2.184,0,0,0-.494-1.467,1.673,1.673,0,0,0-1.344-.58,1.673,1.673,0,0,0-1.344.58A2.253,2.253,0,0,0,2.2-5.2ZM8.758,4.056A3.312,3.312,0,0,1,9.717,1.61,3.335,3.335,0,0,1,12.181.651a3.29,3.29,0,0,1,3.434,3.484v.806a3.283,3.283,0,0,1-3.411,3.4A3.4,3.4,0,0,1,9.735,7.4a3.358,3.358,0,0,1-.976-2.525Zm1.585.881a2.148,2.148,0,0,0,.505,1.473,1.715,1.715,0,0,0,1.355.574,1.669,1.669,0,0,0,1.321-.563,2.239,2.239,0,0,0,.494-1.53V4.049a2.142,2.142,0,0,0-.5-1.467,1.692,1.692,0,0,0-1.338-.569,1.709,1.709,0,0,0-1.327.563,2.173,2.173,0,0,0-.511,1.519Zm-5.8,1.923L3.337,6.11,11.5-6.8l1.206.749Z" transform="translate(-0.615 8.654)" fill="#fff"/>
</svg>
