<svg id="Component_1376_22" data-name="Component 1376 – 22" xmlns="http://www.w3.org/2000/svg" width="11.841" height="13.387" viewBox="0 0 11.841 13.387">
  <g id="Group_19" data-name="Group 19" transform="translate(0.279 0.279)">
    <path id="Path_108" data-name="Path 108" d="M301.909,128.343h3.443v-.549h-3.443Z" transform="translate(-297.99 -127.794)" fill="#fac957" fill-rule="evenodd"/>
    <path id="Path_109" data-name="Path 109" d="M299.694,130.468a5.648,5.648,0,1,0,6.146,1.225q-.1-.1-.2-.195h0l-.012-.01h0a5.619,5.619,0,0,0-2.957-1.387.192.192,0,0,1-.034,0,6.054,6.054,0,0,0-.768-.058h-.012c-.143,0-.285.005-.426.016H301.4c-.1.008-.207.021-.31.037a.136.136,0,0,1-.034,0h-.017a5.58,5.58,0,0,0-1.342.369Zm4.925,1.068a5,5,0,0,1,.757.621,5.078,5.078,0,0,1,.622.757,4.993,4.993,0,0,1,.457.854l0,.006a4.993,4.993,0,0,1,0,3.805l0,.008a4.969,4.969,0,0,1-.461.861,5.023,5.023,0,0,1-.614.749l-.008.008a5.005,5.005,0,0,1-1.617,1.082,4.9,4.9,0,0,1-.932.282,5.046,5.046,0,0,1-1.948,0,4.909,4.909,0,0,1-.933-.282h0a5.012,5.012,0,0,1-1.61-1.075l-.008-.007a5.042,5.042,0,0,1-.621-.758,4.97,4.97,0,0,1-.744-1.793,5.035,5.035,0,0,1,0-1.946,4.994,4.994,0,0,1,1.365-2.551h0a5.054,5.054,0,0,1,.757-.621,4.964,4.964,0,0,1,.86-.461h0a5,5,0,0,1,3.8,0l.008,0A4.948,4.948,0,0,1,304.619,131.536Z" transform="translate(-296.211 -128.495)" fill="#bfc7c9" fill-rule="evenodd"/>
    <path id="Path_110" data-name="Path 110" d="M304.772,129.473V129h-1.318v.474a5.957,5.957,0,0,1,.658-.036A5.81,5.81,0,0,1,304.772,129.473Z" transform="translate(-298.472 -128.169)" fill="#fac957" fill-rule="evenodd"/>
    <path id="Path_111" data-name="Path 111" d="M310.348,131.825a5.149,5.149,0,0,1,.455.479,5.98,5.98,0,0,1,.394.53l.471-.4-.85-1.007Z" transform="translate(-300.623 -128.928)" fill="#f25e4b" fill-rule="evenodd"/>
    <path id="Path_112" data-name="Path 112" d="M305.6,132.781a4.767,4.767,0,0,0-.714-.587,4.69,4.69,0,0,0-.812-.435l-.007,0a4.616,4.616,0,0,0-.874-.263,4.77,4.77,0,0,0-1.839,0,4.7,4.7,0,0,0-.88.266h0a4.691,4.691,0,0,0-.812.435,4.708,4.708,0,0,0-1.3,1.3,4.686,4.686,0,0,0-.7,1.692,4.775,4.775,0,0,0,0,1.839,4.7,4.7,0,0,0,.7,1.692,4.739,4.739,0,0,0,.588.715l.006.008a4.817,4.817,0,0,0,.708.581,4.711,4.711,0,0,0,.812.434h0a4.66,4.66,0,0,0,.879.266,4.781,4.781,0,0,0,1.841,0,4.693,4.693,0,0,0,2.406-1.288l.008-.007a4.8,4.8,0,0,0,.579-.707,4.69,4.69,0,0,0,.435-.812l0-.007a4.653,4.653,0,0,0,.263-.872,4.782,4.782,0,0,0,0-1.841,4.642,4.642,0,0,0-.266-.879l0-.007a4.648,4.648,0,0,0-.432-.806A4.734,4.734,0,0,0,305.6,132.781Z" transform="translate(-296.636 -128.92)" fill="#ebebeb" fill-rule="evenodd"/>
  </g>
  <path id="Path_113" data-name="Path 113" d="M302.385,128.97V128.5h-1.317v.474a5.947,5.947,0,0,1,.658-.036,6.131,6.131,0,0,1,.659.036Zm-1.242,6.58a.139.139,0,1,1-.181-.211l3.808-3.242a.139.139,0,1,1,.18.212l-3.807,3.241Zm-2.812-.834a.14.14,0,0,1,0,.28h-.947a.14.14,0,0,1,0-.28Zm3.255,3.536a.14.14,0,0,1,.28,0v.947a.14.14,0,0,1-.28,0v-.947ZM305.121,135h.947a.14.14,0,0,0,0-.28h-.947a.14.14,0,0,0,0,.28Zm-3.256-3.535a.14.14,0,0,1-.28,0v-.947a.14.14,0,1,1,.28,0v.947Zm-4.326-.794a5.928,5.928,0,0,1,1.923-1.285,5.867,5.867,0,0,1,1.325-.375V128.5h-.922a.14.14,0,0,1-.14-.14v-.829a.14.14,0,0,1,.14-.14h3.722a.14.14,0,0,1,.14.14v.829a.14.14,0,0,1-.14.14h-.923v.512a5.91,5.91,0,0,1,2.935,1.37l.607-.512a.139.139,0,0,1,.2.017l1.03,1.22a.14.14,0,0,1-.017.2l-.61.515a5.928,5.928,0,0,1,.392,5.305,5.922,5.922,0,1,1-9.659-6.45Zm2.029-1.028a5.648,5.648,0,1,0,6.147,1.225c-.067-.066-.135-.131-.2-.195h0l-.012-.01h0a5.643,5.643,0,0,0-1.614-1.019,5.585,5.585,0,0,0-1.343-.368.193.193,0,0,1-.034,0,6.036,6.036,0,0,0-.768-.058h-.012c-.144,0-.285.005-.427.016h-.027c-.1.009-.207.021-.31.037a.137.137,0,0,1-.034,0h-.018a5.619,5.619,0,0,0-1.342.368Zm5.485,1.888a4.72,4.72,0,0,0-1.527-1.023l-.006,0a4.685,4.685,0,0,0-.874-.263,4.771,4.771,0,0,0-1.839,0,4.691,4.691,0,0,0-.88.266h0a4.719,4.719,0,0,0-2.549,2.549,4.651,4.651,0,0,0-.266.88,4.74,4.74,0,0,0,0,1.84,4.651,4.651,0,0,0,.266.88,4.693,4.693,0,0,0,1.022,1.526l.007.008a4.741,4.741,0,0,0,.708.58,4.62,4.62,0,0,0,.812.435h0a4.7,4.7,0,0,0,5.126-1.022l.008-.008a4.685,4.685,0,0,0,1.015-1.52l0-.006a4.67,4.67,0,0,0,.263-.872,4.785,4.785,0,0,0,0-1.841,4.65,4.65,0,0,0-.266-.878l0-.008a4.723,4.723,0,0,0-1.019-1.52Zm-.559-.819a5,5,0,0,0-.861-.461l-.008,0a4.968,4.968,0,0,0-.926-.279,5.032,5.032,0,0,0-1.945,0,4.929,4.929,0,0,0-.933.283h0a5,5,0,0,0-1.617,1.082h0a4.972,4.972,0,0,0-1.365,2.551,5.034,5.034,0,0,0,0,1.946,4.98,4.98,0,0,0,1.365,2.551l.008.008a4.976,4.976,0,0,0,1.61,1.074h0a4.905,4.905,0,0,0,.932.283,5.045,5.045,0,0,0,1.948,0,4.954,4.954,0,0,0,1.793-.743,5.051,5.051,0,0,0,.757-.622l.008-.008a5.052,5.052,0,0,0,.614-.749,4.972,4.972,0,0,0,.461-.861l0-.008a4.959,4.959,0,0,0,.279-.925,5.046,5.046,0,0,0,0-1.948,4.97,4.97,0,0,0-.283-.932l0-.007a5,5,0,0,0-1.836-2.232Zm1.317-.144a5.248,5.248,0,0,1,.455.479,6.057,6.057,0,0,1,.393.529l.471-.4-.85-1.007-.469.4ZM300,128.217h3.443v-.55H300Z" transform="translate(-295.805 -127.388)" fill="#30383b" fill-rule="evenodd"/>
</svg>
