<svg xmlns="http://www.w3.org/2000/svg" width="18" height="19" viewBox="0 0 18 19">
  <g id="order_2_" data-name="order (2)" transform="translate(0)" opacity="0.4">
    <path id="Path_20388" data-name="Path 20388" d="M72.571,163.765l-.458-.548-.832.7,1.178,1.408,1.959-1.756-.723-.807Zm0,0" transform="translate(-67.526 -156.693)"/>
    <path id="Path_20389" data-name="Path 20389" d="M180.668,187h4.191v1.084h-4.191Zm0,0" transform="translate(-170.807 -180.049)"/>
    <path id="Path_20390" data-name="Path 20390" d="M72.571,250.027l-.458-.548-.832.7,1.178,1.408,1.959-1.756-.723-.807Zm0,0" transform="translate(-67.526 -239.74)"/>
    <path id="Path_20391" data-name="Path 20391" d="M180.668,273.258h4.191v1.084h-4.191Zm0,0" transform="translate(-170.807 -263.101)"/>
    <path id="Path_20392" data-name="Path 20392" d="M72.571,336.285l-.458-.548-.832.7,1.178,1.408,1.959-1.756-.723-.807Zm0,0" transform="translate(-67.526 -322.783)"/>
    <path id="Path_20393" data-name="Path 20393" d="M180.668,359.52h4.191V360.6h-4.191Zm0,0" transform="translate(-170.807 -346.157)"/>
    <path id="Path_20394" data-name="Path 20394" d="M14.759,0H13.3V1.134H11.408V0H9.944V1.134H8.056V0H6.593V1.134H4.705V0H3.242V1.134H0V19H18V1.134H14.759Zm1.778,2.247v15.64H1.464V2.247H3.242V3.38H4.705V2.247H6.593V3.38H8.056V2.247H9.944V3.38h1.463V2.247H13.3V3.38h1.463V2.247Zm0,0" transform="translate(0)"/>
  </g>
</svg>
