<svg xmlns="http://www.w3.org/2000/svg" width="16" height="20" viewBox="0 0 16 20">
  <path id="Path_26233" data-name="Path 26233" d="M79.556,7.5H78.222V5.833a6.235,6.235,0,0,0-12.444,0V7.5H64.444A.431.431,0,0,0,64,7.917V18.333A1.727,1.727,0,0,0,65.778,20H78.222A1.727,1.727,0,0,0,80,18.333V7.917A.431.431,0,0,0,79.556,7.5Zm-6.225,8.7a.4.4,0,0,1-.111.324.458.458,0,0,1-.331.139H71.111a.458.458,0,0,1-.331-.139.4.4,0,0,1-.111-.324l.28-2.364a1.618,1.618,0,0,1-.727-1.34,1.782,1.782,0,0,1,3.556,0,1.618,1.618,0,0,1-.727,1.34Zm2.225-8.7H68.444V5.833a3.563,3.563,0,0,1,7.111,0Z" transform="translate(-64)" fill="#d82221"/>
</svg>
