<svg id="Component_1378_39" data-name="Component 1378 – 39" xmlns="http://www.w3.org/2000/svg" width="10.917" height="13.283" viewBox="0 0 10.917 13.283">
  <g id="Group_30" data-name="Group 30">
    <path id="Path_157" data-name="Path 157" d="M163.683,231.535c-1.144.388-1.212,1.322-1.2,2.481a1.819,1.819,0,0,0,.185-.479,1.442,1.442,0,0,1,.049-.387.712.712,0,0,1,.267-.374h0l.019-.014,0,0h0l.019-.013.007,0a1.687,1.687,0,0,0,.489-.47.947.947,0,0,0,.156-.52Z" transform="translate(-159.736 -231.071)" fill="#899ea3" fill-rule="evenodd"/>
    <path id="Path_158" data-name="Path 158" d="M166.315,243.79a2.553,2.553,0,0,1-.981.783,3.339,3.339,0,0,1-1.432.338,3.582,3.582,0,0,1-1.5-.34,2.106,2.106,0,0,1-.907-.773,5.351,5.351,0,0,0-2.041.83,1.549,1.549,0,0,0-.712,1.237v1.821a.539.539,0,0,0,.538.538h9.253a.54.54,0,0,0,.539-.538v-1.821h0a1.561,1.561,0,0,0-.713-1.241A5.34,5.34,0,0,0,166.315,243.79Z" transform="translate(-158.47 -235.212)" fill="#9bc957" fill-rule="evenodd"/>
    <path id="Path_159" data-name="Path 159" d="M164.018,242.428l.075.055a4.2,4.2,0,0,0,.551.339,2.152,2.152,0,0,0,1.119.262,2.49,2.49,0,0,0,.928-.265,5.936,5.936,0,0,0,.578-.325l.093-.059a9.977,9.977,0,0,1-.1-1.024l0-.052a3.07,3.07,0,0,1-.5.361,2,2,0,0,1-2.147,0,3.108,3.108,0,0,1-.505-.369l0,.042A9.983,9.983,0,0,1,164.018,242.428Z" transform="translate(-160.254 -234.388)" fill="#ffe0a6" fill-rule="evenodd"/>
    <path id="Path_160" data-name="Path 160" d="M169.981,233.961c.012-1.134-.072-2.045-1.2-2.426v.214a.947.947,0,0,0,.156.52,1.688,1.688,0,0,0,.489.47l.007,0,.019.013h0l0,0,.018.014h0a.721.721,0,0,1,.268.374,1.469,1.469,0,0,1,.048.387A1.5,1.5,0,0,0,169.981,233.961Z" transform="translate(-161.864 -231.071)" fill="#899ea3" fill-rule="evenodd"/>
    <path id="Path_161" data-name="Path 161" d="M162.742,235.928H162.5c0,.129,0,.255,0,.365,0,.06,0,.111,0,.157a.151.151,0,0,1,0,.038v0a3.465,3.465,0,0,0,.219,1.181,4.107,4.107,0,0,0,.619,1.115q.11.14.23.266h0l0,.006a3.025,3.025,0,0,0,.655.525,1.734,1.734,0,0,0,1.878,0,3.225,3.225,0,0,0,.892-.8,4.092,4.092,0,0,0,.62-1.115,3.466,3.466,0,0,0,.22-1.181v-.006a.15.15,0,0,1,0-.03c0-.028,0-.055,0-.079h0v-.084c0-.11,0-.236,0-.365h-.242v.556a.564.564,0,0,1-.038.2h0a.547.547,0,0,1-.1.16.184.184,0,0,1-.019.021.515.515,0,0,1-.159.109.5.5,0,0,1-.2.042H165.9a.679.679,0,0,1-.27-.057.711.711,0,0,1-.227-.16.734.734,0,0,1-.151-.238.754.754,0,0,1-.052-.277h0v-.561h-.054v.561h0a.754.754,0,0,1-.052.277.735.735,0,0,1-.151.236.694.694,0,0,1-.228.16.665.665,0,0,1-.27.057h-1.192a.5.5,0,0,1-.2-.042.512.512,0,0,1-.164-.115h0l-.01-.011a.54.54,0,0,1-.1-.164.546.546,0,0,1-.038-.2h0v-.554Zm1.307,2.522c-.056,0-.106,0-.164,0h0a.134.134,0,0,1-.126-.182.865.865,0,0,1,.207-.3,1.648,1.648,0,0,1,.6-.358.968.968,0,0,1,.61-.04l.035.016.036-.016a.964.964,0,0,1,.608.04,1.657,1.657,0,0,1,.6.358.868.868,0,0,1,.2.291.135.135,0,0,1-.121.193l-.164,0a2.513,2.513,0,0,1-1.165-.145A2.507,2.507,0,0,1,164.049,238.45Z" transform="translate(-159.741 -232.487)" fill="#ffe0a6" fill-rule="evenodd"/>
    <path id="Path_162" data-name="Path 162" d="M163.271,235.792v.689h0a.278.278,0,0,0,.068.183l0,0h0a.241.241,0,0,0,.079.056.224.224,0,0,0,.091.019h1.192a.414.414,0,0,0,.163-.033.445.445,0,0,0,.14-.1.465.465,0,0,0,.1-.15.482.482,0,0,0,.034-.179h0v-.561h-1.685a.51.51,0,0,0-.162.019.035.035,0,0,0-.022.036h0v.015Z" transform="translate(-160.001 -232.486)" fill="#afdff0" fill-rule="evenodd"/>
    <path id="Path_163" data-name="Path 163" d="M167.676,234.144h.122l-.032-.059a1.908,1.908,0,0,1-.271-.638,1.257,1.257,0,0,0-.037-.318.459.459,0,0,0-.172-.239h0l-.015-.011-.019-.013,0,0a1.955,1.955,0,0,1-.567-.55,1.206,1.206,0,0,1-.2-.665v-.271a.16.16,0,0,1,0-.019,6.306,6.306,0,0,0-2.441,0,.084.084,0,0,1,0,.019v.271a1.2,1.2,0,0,1-.2.665,1.935,1.935,0,0,1-.567.55l0,0-.019.013-.015.011h0a.459.459,0,0,0-.172.239,1.258,1.258,0,0,0-.037.318,2.336,2.336,0,0,1-.266.7h.082a.279.279,0,0,1,.174-.168.8.8,0,0,1,.286-.037h3.932a.7.7,0,0,1,.271.049A.292.292,0,0,1,167.676,234.144Z" transform="translate(-159.832 -230.972)" fill="#ffe0a6" fill-rule="evenodd"/>
    <path id="Path_164" data-name="Path 164" d="M168.854,235.8v-.01h0v-.016h0a.033.033,0,0,0-.024-.03.476.476,0,0,0-.179-.025h-1.666v.561h0a.48.48,0,0,0,.034.179.464.464,0,0,0,.095.15.431.431,0,0,0,.14.1.4.4,0,0,0,.163.034h1.193a.229.229,0,0,0,.091-.019.238.238,0,0,0,.073-.05l.005-.006a.27.27,0,0,0,.055-.086h0a.292.292,0,0,0,.019-.1Z" transform="translate(-161.256 -232.487)" fill="#afdff0" fill-rule="evenodd"/>
    <path id="Path_165" data-name="Path 165" d="M164.957,239.243c.338.009.84.014.991-.14a.134.134,0,0,1,.189,0l0,0h0c.15.154.652.15.99.14l-.028-.028a1.371,1.371,0,0,0-.5-.295.714.714,0,0,0-.428-.044.1.1,0,0,0-.034.02.134.134,0,0,1-.19,0l0,0a.1.1,0,0,0-.034-.02.718.718,0,0,0-.428.043,1.377,1.377,0,0,0-.5.3Z" transform="translate(-160.571 -233.546)" fill="#899ea3" fill-rule="evenodd"/>
    <path id="Path_166" data-name="Path 166" d="M167.266,243.314c-.089.058-.175.112-.262.164a3.277,3.277,0,0,1-1.477.534,2.689,2.689,0,0,1-1.665-.529c-.083-.054-.167-.113-.253-.177l-.272.178-.066.042a1.873,1.873,0,0,0,.775.64,3.308,3.308,0,0,0,1.388.313,3.079,3.079,0,0,0,1.316-.312,2.345,2.345,0,0,0,.846-.651l-.066-.04Z" transform="translate(-160.001 -235.049)" fill="#9bc957" fill-rule="evenodd"/>
    <path id="Path_167" data-name="Path 167" d="M165.932,234.154v-.01h0v-.016h0a.035.035,0,0,0-.025-.03.489.489,0,0,0-.179-.024h-1.667v.561h0a.482.482,0,0,0,.034.179.461.461,0,0,0,.1.15.427.427,0,0,0,.14.1.413.413,0,0,0,.162.034h1.193a.227.227,0,0,0,.091-.019.243.243,0,0,0,.074-.05l.006-.007a.273.273,0,0,0,.054-.086h0a.287.287,0,0,0,.019-.1v-.679Zm.246-.147h.122l-.032-.058a1.907,1.907,0,0,1-.271-.639,1.282,1.282,0,0,0-.038-.317.459.459,0,0,0-.172-.24h0l-.015-.011-.019-.013,0,0a1.936,1.936,0,0,1-.567-.549,1.21,1.21,0,0,1-.2-.665v-.271a.171.171,0,0,1,0-.019,6.337,6.337,0,0,0-2.44,0,.171.171,0,0,1,0,.019v.271a1.21,1.21,0,0,1-.2.665,1.936,1.936,0,0,1-.567.549l0,0-.018.013-.015.011h0a.465.465,0,0,0-.172.24,1.282,1.282,0,0,0-.037.317,2.33,2.33,0,0,1-.266.7h.082a.276.276,0,0,1,.174-.167.788.788,0,0,1,.286-.038h3.932a.7.7,0,0,1,.271.049.294.294,0,0,1,.161.154Zm-4.574.135v.688h0a.275.275,0,0,0,.019.1.25.25,0,0,0,.049.079l0,0h0a.253.253,0,0,0,.079.056.227.227,0,0,0,.091.019h1.193a.4.4,0,0,0,.162-.034.434.434,0,0,0,.14-.1.448.448,0,0,0,.1-.15.482.482,0,0,0,.034-.179h0v-.561h-1.685a.507.507,0,0,0-.162.019.034.034,0,0,0-.023.036h0v.016Zm-.269.134v.554h0a.544.544,0,0,0,.038.2.524.524,0,0,0,.1.164l.011.011h0a.514.514,0,0,0,.164.115.489.489,0,0,0,.2.042h1.193a.672.672,0,0,0,.269-.056.706.706,0,0,0,.228-.16.728.728,0,0,0,.151-.237.742.742,0,0,0,.053-.277h0v-.561h.054v.561h0a.757.757,0,0,0,.052.277.739.739,0,0,0,.151.237.708.708,0,0,0,.228.161.673.673,0,0,0,.269.056h1.193a.489.489,0,0,0,.2-.042.5.5,0,0,0,.159-.109.132.132,0,0,0,.019-.02.551.551,0,0,0,.1-.161h0a.544.544,0,0,0,.038-.2v-.556h.242c0,.13,0,.256,0,.366,0,.041,0,.068,0,.081v0h0c0,.023,0,.05,0,.078a.116.116,0,0,0,0,.03v.006a3.477,3.477,0,0,1-.219,1.181,4.081,4.081,0,0,1-.62,1.115,3.206,3.206,0,0,1-.893.8,1.731,1.731,0,0,1-1.878,0,3.022,3.022,0,0,1-.656-.525l0-.005h0c-.079-.084-.156-.173-.229-.266a4.081,4.081,0,0,1-.62-1.115,3.461,3.461,0,0,1-.219-1.181v0a.18.18,0,0,0,0-.038c0-.046,0-.1,0-.157,0-.11,0-.236,0-.366Zm5.116-.552a1.5,1.5,0,0,1-.187-.424,1.463,1.463,0,0,0-.048-.387.718.718,0,0,0-.268-.375h0l-.019-.013,0,0h0l-.019-.013-.007,0a1.685,1.685,0,0,1-.49-.471.944.944,0,0,1-.155-.52V231.3c1.126.381,1.208,1.292,1.2,2.425Zm-3.809,3.074a2.511,2.511,0,0,0,1.164-.144,2.492,2.492,0,0,0,1.164.145l.164,0a.135.135,0,0,0,.134-.134.13.13,0,0,0-.013-.058.871.871,0,0,0-.2-.291,1.646,1.646,0,0,0-.6-.357.964.964,0,0,0-.608-.04l-.036.015-.035-.015a.963.963,0,0,0-.61.04,1.654,1.654,0,0,0-.6.358.851.851,0,0,0-.207.3.134.134,0,0,0,.126.182h0c.058,0,.107,0,.164,0Zm.077-.266c.338.01.84.014.991-.14a.135.135,0,0,1,.19,0l0,0h0c.15.154.652.15.99.141a.372.372,0,0,0-.028-.028,1.373,1.373,0,0,0-.5-.3.712.712,0,0,0-.427-.044.1.1,0,0,0-.034.021.134.134,0,0,1-.189,0l0,0a.1.1,0,0,0-.035-.021.714.714,0,0,0-.428.044,1.368,1.368,0,0,0-.5.3l-.027.027ZM165.6,239.1a3.672,3.672,0,0,1-1.739.7,2.9,2.9,0,0,1-1.917-.706l-.338.22a1.866,1.866,0,0,0,.775.64,3.309,3.309,0,0,0,1.388.314,3.067,3.067,0,0,0,1.316-.313,2.326,2.326,0,0,0,.846-.651l-.329-.2Zm-3.5-.226a2.655,2.655,0,0,0,1.745.656,3.423,3.423,0,0,0,1.6-.65,10.125,10.125,0,0,1-.1-1.024l0-.052a3.149,3.149,0,0,1-.5.362,2,2,0,0,1-2.147,0,3.189,3.189,0,0,1-.505-.369l0,.042a9.969,9.969,0,0,1-.089,1.034Zm4.081.539a5.337,5.337,0,0,1,2.04.835,1.558,1.558,0,0,1,.712,1.241h0v1.821a.54.54,0,0,1-.539.538H159.14a.538.538,0,0,1-.538-.538v-1.821a1.548,1.548,0,0,1,.712-1.237,5.37,5.37,0,0,1,2.041-.83,2.1,2.1,0,0,0,.906.773,3.583,3.583,0,0,0,1.5.34,3.345,3.345,0,0,0,1.433-.339,2.543,2.543,0,0,0,.98-.783Zm.533-5.281v.023c0,.146,0,.3,0,.486,0,.015,0,.044,0,.087l0,.067a.107.107,0,0,1,0,.024h0v.021a3.736,3.736,0,0,1-.236,1.273,4.378,4.378,0,0,1-.661,1.189q-.106.135-.22.258c.007.081.013.175.02.279a9.028,9.028,0,0,0,.1,1.016l.456.281a5.668,5.668,0,0,1,2.213.9,1.812,1.812,0,0,1,.82,1.455h0v1.821a.81.81,0,0,1-.807.808H159.14a.81.81,0,0,1-.807-.808v-1.821a1.8,1.8,0,0,1,.82-1.451,5.706,5.706,0,0,1,2.218-.893l.459-.3a8.939,8.939,0,0,0,.088-1.018c.006-.108.011-.206.016-.278q-.109-.117-.209-.246a4.36,4.36,0,0,1-.661-1.189,3.738,3.738,0,0,1-.236-1.273v-.021a.114.114,0,0,1,0-.026c0-.056,0-.108,0-.153,0-.185,0-.339-.005-.485v-.093c-.033-1.829-.058-3.228,2.946-3.228s2.98,1.4,2.946,3.228v.069Zm-4.432-2.833v.213a.949.949,0,0,1-.155.52,1.693,1.693,0,0,1-.49.471l-.007,0-.019.013h0l0,0-.018.013h0a.72.72,0,0,0-.267.375,1.463,1.463,0,0,0-.049.387,1.778,1.778,0,0,1-.185.479C161.069,232.62,161.137,231.686,162.281,231.3Z" transform="translate(-158.333 -230.835)" fill="#30383b" fill-rule="evenodd"/>
  </g>
  <g id="Group_63056" data-name="Group 63056" transform="translate(4.199 5.073)">
    <path id="Path_62" data-name="Path 62" d="M160.44,209.327a3.321,3.321,0,0,0-1.261.513.958.958,0,0,0-.44.765v1.125a.331.331,0,0,0,.1.235h0a.331.331,0,0,0,.235.1h5.72a.333.333,0,0,0,.333-.333v-1.125h0a.964.964,0,0,0-.441-.767,3.294,3.294,0,0,0-1.261-.516,1.573,1.573,0,0,1-.606.484,2.064,2.064,0,0,1-.885.21,2.221,2.221,0,0,1-.93-.21A1.3,1.3,0,0,1,160.44,209.327Z" transform="translate(-158.572 -204.02)" fill="#6fc0de" fill-rule="evenodd"/>
    <path id="Path_63" data-name="Path 63" d="M163.48,208.838l-.168.11-.041.027a1.161,1.161,0,0,0,.479.4,2.051,2.051,0,0,0,.858.194,1.9,1.9,0,0,0,.813-.193,1.449,1.449,0,0,0,.523-.4l-.041-.025-.163-.1c-.055.035-.108.069-.162.1a2.022,2.022,0,0,1-.913.331,1.662,1.662,0,0,1-1.03-.327C163.585,208.913,163.533,208.877,163.48,208.838Z" transform="translate(-161.25 -203.734)" fill="#fac957" fill-rule="evenodd"/>
    <path id="Path_64" data-name="Path 64" d="M165.8,198.744l0-.145c.018-1.035.033-1.827-1.656-1.827s-1.674.792-1.656,1.827l0,.144a1.355,1.355,0,0,0,.022-.154h0c.006-.074.008-.14.009-.205a1.729,1.729,0,0,1,.019-.269.592.592,0,0,1,.109-.261c.19-.248.624-.149,1.02-.059a2.469,2.469,0,0,0,.474.08,2.379,2.379,0,0,0,.513-.09c.387-.095.783-.191.981.068a.587.587,0,0,1,.108.253l0,.008a1.777,1.777,0,0,1,.019.269c0,.065,0,.132.009.206A1.372,1.372,0,0,0,165.8,198.744Z" transform="translate(-160.785 -196.607)" fill="#899ea3" fill-rule="evenodd"/>
    <path id="Path_65" data-name="Path 65" d="M164.074,206.883v.026a6.173,6.173,0,0,1-.055.64l.047.034a2.564,2.564,0,0,0,.34.209,1.332,1.332,0,0,0,.692.162,1.533,1.533,0,0,0,.574-.164,3.527,3.527,0,0,0,.357-.2l.058-.036a6.163,6.163,0,0,1-.063-.633l0-.032a1.9,1.9,0,0,1-.307.223,1.234,1.234,0,0,1-1.327,0A1.916,1.916,0,0,1,164.074,206.883Z" transform="translate(-161.691 -202.579)" fill="#ffe0a6" fill-rule="evenodd"/>
    <path id="Path_66" data-name="Path 66" d="M163.179,202.225h0l0,0a1.861,1.861,0,0,0,.405.325,1.072,1.072,0,0,0,1.161,0,1.989,1.989,0,0,0,.551-.494,2.528,2.528,0,0,0,.383-.689,2.246,2.246,0,0,0,.127-.55l-.135-.416v0a1.42,1.42,0,0,1-.04-.238c-.006-.071-.007-.144-.009-.216a1.6,1.6,0,0,0-.017-.244V199.7a.418.418,0,0,0-.077-.182c-.132-.174-.475-.09-.81-.008a2.508,2.508,0,0,1-.552.095,2.579,2.579,0,0,1-.511-.085c-.346-.079-.726-.166-.851,0a.421.421,0,0,0-.077.189,1.6,1.6,0,0,0-.018.244c0,.072,0,.146-.009.216h0a1.427,1.427,0,0,1-.04.238v0h0l-.135.414a2.225,2.225,0,0,0,.127.551,2.537,2.537,0,0,0,.383.689Q163.105,202.147,163.179,202.225Z" transform="translate(-160.81 -198.166)" fill="#ffe0a6" fill-rule="evenodd"/>
    <path id="Path_67" data-name="Path 67" d="M162.818,200.524c0,.05.008.108.012.173a5.585,5.585,0,0,0,.063.628l.282.174a3.516,3.516,0,0,1,1.368.555,1.121,1.121,0,0,1,.507.9h0v1.126a.5.5,0,0,1-.146.352h0a.5.5,0,0,1-.352.147h-5.72a.5.5,0,0,1-.352-.147h0a.5.5,0,0,1-.145-.352v-1.126a1.114,1.114,0,0,1,.507-.9,3.527,3.527,0,0,1,1.371-.553l.284-.185a5.523,5.523,0,0,0,.054-.63c0-.067.007-.128.01-.172-.045-.049-.088-.1-.129-.152a2.7,2.7,0,0,1-.408-.735,2.309,2.309,0,0,1-.146-.787v-.013a.064.064,0,0,1,0-.016c0-.035,0-.067,0-.095,0-.138,0-.25,0-.357-.02-1.131-.036-2,1.821-2s1.842.865,1.821,2c0,.108,0,.219,0,.357,0,.009,0,.027,0,.054l0,.041a.06.06,0,0,1,0,.015h0v.013a2.308,2.308,0,0,1-.146.787,2.713,2.713,0,0,1-.408.735q-.066.083-.136.159Zm-2.116-.1h0l0,0a1.88,1.88,0,0,0,.405.325,1.072,1.072,0,0,0,1.161,0,1.989,1.989,0,0,0,.552-.494,2.529,2.529,0,0,0,.383-.689,2.244,2.244,0,0,0,.127-.55l-.135-.416v0a1.415,1.415,0,0,1-.04-.238c-.006-.071-.008-.144-.009-.217a1.6,1.6,0,0,0-.017-.244V197.9a.422.422,0,0,0-.077-.182c-.132-.174-.475-.09-.81-.008a2.5,2.5,0,0,1-.552.1,2.574,2.574,0,0,1-.511-.085c-.346-.079-.726-.166-.851,0a.424.424,0,0,0-.077.188,1.654,1.654,0,0,0-.018.244c0,.072,0,.146-.009.217h0a1.457,1.457,0,0,1-.04.238l0,0h0l-.135.414a2.234,2.234,0,0,0,.127.551,2.529,2.529,0,0,0,.383.689c.045.058.093.113.142.164Zm.014.245v.026a6.168,6.168,0,0,1-.055.639l.047.034a2.607,2.607,0,0,0,.34.21,1.332,1.332,0,0,0,.692.162,1.522,1.522,0,0,0,.574-.164,3.606,3.606,0,0,0,.357-.2l.058-.037a6.271,6.271,0,0,1-.063-.633l0-.032a1.942,1.942,0,0,1-.307.223,1.234,1.234,0,0,1-1.327,0,1.92,1.92,0,0,1-.312-.228Zm2.629-2.166,0-.144c.019-1.035.033-1.827-1.656-1.827s-1.674.791-1.656,1.827l0,.144a1.365,1.365,0,0,0,.022-.154h0c.007-.074.008-.141.009-.206a1.731,1.731,0,0,1,.019-.269.583.583,0,0,1,.109-.26c.19-.249.624-.149,1.02-.059a2.478,2.478,0,0,0,.474.08,2.4,2.4,0,0,0,.513-.09c.387-.095.783-.192.981.068a.582.582,0,0,1,.108.253l0,.007a1.777,1.777,0,0,1,.019.269c0,.065,0,.132.009.206a1.361,1.361,0,0,0,.022.154Zm-2.781,2.967-.168.109-.041.027a1.156,1.156,0,0,0,.479.4,2.052,2.052,0,0,0,.858.194A1.9,1.9,0,0,0,162.5,202a1.442,1.442,0,0,0,.523-.4l-.041-.025-.163-.1q-.082.053-.162.1a2.021,2.021,0,0,1-.913.33,1.664,1.664,0,0,1-1.03-.327c-.051-.034-.1-.07-.156-.109Zm-.362.2a3.307,3.307,0,0,0-1.262.513.957.957,0,0,0-.44.765v1.126a.331.331,0,0,0,.1.235h0a.331.331,0,0,0,.235.1h5.72a.334.334,0,0,0,.333-.333v-1.126h0a.964.964,0,0,0-.44-.767,3.305,3.305,0,0,0-1.261-.516,1.573,1.573,0,0,1-.606.484,2.061,2.061,0,0,1-.886.209,2.214,2.214,0,0,1-.93-.21A1.3,1.3,0,0,1,160.2,201.675Z" transform="translate(-158.333 -196.367)" fill="#30383b" fill-rule="evenodd"/>
  </g>
</svg>
