<svg xmlns="http://www.w3.org/2000/svg" width="14" height="17" viewBox="0 0 14 17">
  <g id="user" transform="translate(0 0)">
    <path id="Path_845" data-name="Path 845" d="M91,8.28a3.763,3.763,0,0,0,2.807-1.213A4.094,4.094,0,0,0,94.971,4.14a4.1,4.1,0,0,0-1.163-2.927,3.854,3.854,0,0,0-5.613,0A4.094,4.094,0,0,0,87.032,4.14a4.094,4.094,0,0,0,1.163,2.927A3.764,3.764,0,0,0,91,8.28Zm0,0" transform="translate(-84.11 0)" fill="#d82221"/>
    <path id="Path_846" data-name="Path 846" d="M13.966,252.231a10.464,10.464,0,0,0-.136-1.086,8.733,8.733,0,0,0-.261-1.092,5.462,5.462,0,0,0-.438-1.018,3.834,3.834,0,0,0-.661-.882,2.906,2.906,0,0,0-.949-.611,3.212,3.212,0,0,0-1.212-.225,1.214,1.214,0,0,0-.657.285c-.2.132-.427.284-.684.452a3.876,3.876,0,0,1-.885.4,3.36,3.36,0,0,1-2.166,0,3.866,3.866,0,0,1-.885-.4c-.255-.167-.485-.319-.685-.452a1.212,1.212,0,0,0-.657-.285,3.208,3.208,0,0,0-1.212.225,2.9,2.9,0,0,0-.949.611,3.834,3.834,0,0,0-.661.882,5.472,5.472,0,0,0-.438,1.019,8.747,8.747,0,0,0-.261,1.092,10.425,10.425,0,0,0-.136,1.087c-.022.329-.034.67-.034,1.015a2.891,2.891,0,0,0,.828,2.159,2.938,2.938,0,0,0,2.133.8h8.08a2.938,2.938,0,0,0,2.132-.8,2.89,2.89,0,0,0,.828-2.16c0-.346-.012-.688-.034-1.015Zm0,0" transform="translate(0 -239.202)" fill="#d82221"/>
  </g>
</svg>
