<svg id="_1._Icons_Line_add-to-list" data-name="1. Icons / Line /  add-to-list" xmlns="http://www.w3.org/2000/svg" width="24" height="24" viewBox="0 0 24 24">
  <path id="phone" d="M17.5,20.008h-2a15.4,15.4,0,0,1-10.96-4.54A15.4,15.4,0,0,1,0,4.508V2.5A2.5,2.5,0,0,1,2.5,0H5.806A2.492,2.492,0,0,1,8.272,2.089l.461,2.77A2.338,2.338,0,0,1,7.158,7.474l-.6.2a.5.5,0,0,0-.325.606l.627,2.3a3.926,3.926,0,0,0,2.55,2.695l1.526.509a.5.5,0,0,0,.574-.2l.729-1.094a2.5,2.5,0,0,1,2.87-.985l3.183,1.06A2.5,2.5,0,0,1,20,14.943v2.565a2.484,2.484,0,0,1-.732,1.768A2.521,2.521,0,0,1,17.5,20.008ZM2.5,1A1.5,1.5,0,0,0,1,2.5V4.507a14.516,14.516,0,0,0,14.5,14.5h2a1.5,1.5,0,0,0,1.5-1.5V14.942a1.5,1.5,0,0,0-1.026-1.424l-3.183-1.06a1.5,1.5,0,0,0-1.722.59l-.73,1.094a1.5,1.5,0,0,1-1.722.59l-1.525-.509a4.92,4.92,0,0,1-3.2-3.38l-.627-2.3a1.5,1.5,0,0,1,.972-1.817l.6-.2a1.344,1.344,0,0,0,.905-1.5l-.463-2.77A1.5,1.5,0,0,0,5.805,1Z" transform="translate(2 2)" fill="#fff"/>
</svg>
