<svg xmlns="http://www.w3.org/2000/svg" width="15" height="14.7" viewBox="0 0 15 14.7">
  <path id="price-tag" d="M8.748,14.7a2.423,2.423,0,0,1-1.709-.694L.121,7.229A.4.4,0,0,1,0,6.939v-4.9A2.065,2.065,0,0,1,2.083,0h5a.422.422,0,0,1,.3.119L14.292,6.9a2.335,2.335,0,0,1,0,3.349l-3.836,3.759A2.426,2.426,0,0,1,8.748,14.7ZM2.083.816A1.239,1.239,0,0,0,.833,2.041V6.77L7.627,13.43a1.606,1.606,0,0,0,2.24,0L13.7,9.67a1.529,1.529,0,0,0,0-2.195L6.908.816Zm2.083,4.9A1.633,1.633,0,1,1,5.832,4.082,1.652,1.652,0,0,1,4.166,5.715Zm0-2.45A.817.817,0,1,0,5,4.082.826.826,0,0,0,4.166,3.265Z" transform="translate(0)" fill="#8f9bb3"/>
</svg>
