<svg xmlns="http://www.w3.org/2000/svg" width="37.717" height="37.773" viewBox="0 0 37.717 37.773">
  <g id="processing" transform="translate(-314.553 -179.643)">
    <path id="Path_29" data-name="Path 29" d="M349.017,194.621h-3.251v4.559l-1.95-1.3-1.951,1.3v-4.559h-5.853V208.3a2.6,2.6,0,0,1-2.6,2.6h15.607a2.6,2.6,0,0,0,2.6-2.6V197.227a2.6,2.6,0,0,0-2.6-2.605" fill="#a98258"/>
    <path id="Path_30" data-name="Path 30" d="M337.963,180.294h-2.6v4.558l-1.951-1.3-1.95,1.3v-4.558h-2.6a2.6,2.6,0,0,0-2.6,2.605v7.815h2.6v.651h4.552a2.6,2.6,0,0,1,2.6,2.605v.651h1.951a2.6,2.6,0,0,0,2.6-2.6V182.9a2.6,2.6,0,0,0-2.6-2.605" fill="#c69666"/>
    <path id="Path_31" data-name="Path 31" d="M328.859,197.878l-3.251-2.605-3.251,2.605v-7.164h6.5Z" fill="#e8d5b2"/>
    <path id="Path_32" data-name="Path 32" d="M333.411,191.365h-4.553v6.512l-3.251-2.6-3.251,2.6v-6.512H317.8a2.6,2.6,0,0,0-2.6,2.605V208.3a2.6,2.6,0,0,0,2.6,2.6H333.41a2.6,2.6,0,0,0,2.6-2.6V193.97a2.6,2.6,0,0,0-2.6-2.605" fill="#60442b"/>
    <g id="Group_9" data-name="Group 9">
      <path id="Path_33" data-name="Path 33" d="M333.411,208.949h-2.6a.652.652,0,0,1,0-1.3h2.6a.652.652,0,0,1,0,1.3" fill="#896745"/>
      <path id="Path_34" data-name="Path 34" d="M333.411,206.344h-3.9a.651.651,0,0,1,0-1.3h3.9a.651.651,0,0,1,0,1.3" fill="#896745"/>
    </g>
    <path id="Path_35" data-name="Path 35" d="M335.362,184.853l-1.951-1.3-1.951,1.3v-5.21h3.9Z" fill="#e8d5b2"/>
    <g id="Group_10" data-name="Group 10">
      <path id="Path_36" data-name="Path 36" d="M349.017,209.6h-1.3a.651.651,0,0,1,0-1.3h1.3a.651.651,0,1,1,0,1.3" fill="#896745"/>
      <path id="Path_37" data-name="Path 37" d="M349.017,207.646h-2.6a.651.651,0,1,1,0-1.3h2.6a.651.651,0,1,1,0,1.3" fill="#896745"/>
    </g>
    <path id="Path_38" data-name="Path 38" d="M345.766,199.18l-1.951-1.3-1.951,1.3v-5.21h3.9Z" fill="#e8d5b2"/>
    <path id="Path_39" data-name="Path 39" d="M314.553,214.81h37.717V210.9H314.553Z" fill="#896745"/>
    <g id="Group_11" data-name="Group 11">
      <path id="Path_40" data-name="Path 40" d="M315.853,217.415h5.2V214.81h-5.2Z" fill="#60442b"/>
      <path id="Path_41" data-name="Path 41" d="M345.767,217.415h5.2V214.81h-5.2Z" fill="#60442b"/>
      <path id="Path_42" data-name="Path 42" d="M330.81,217.415h5.2V214.81h-5.2Z" fill="#60442b"/>
    </g>
  </g>
</svg>
