<svg id="manu" xmlns="http://www.w3.org/2000/svg" width="13" height="13" viewBox="0 0 13 13">
  <path id="Path_61644" data-name="Path 61644" d="M4.851,0H1.092A1.093,1.093,0,0,0,0,1.092V4.851A1.093,1.093,0,0,0,1.092,5.943H4.851A1.093,1.093,0,0,0,5.943,4.851V1.092A1.093,1.093,0,0,0,4.851,0Z" transform="translate(0 0)" fill="#d82221"/>
  <path id="Path_61645" data-name="Path 61645" d="M252.851,0h-3.759A1.093,1.093,0,0,0,248,1.092V4.851a1.093,1.093,0,0,0,1.092,1.092h3.759a1.093,1.093,0,0,0,1.092-1.092V1.092A1.093,1.093,0,0,0,252.851,0Z" transform="translate(-240.943 0)" fill="#d82221"/>
  <path id="Path_61646" data-name="Path 61646" d="M4.851,248H1.092A1.093,1.093,0,0,0,0,249.092v3.759a1.093,1.093,0,0,0,1.092,1.092H4.851a1.093,1.093,0,0,0,1.092-1.092v-3.759A1.093,1.093,0,0,0,4.851,248Z" transform="translate(0 -240.943)" fill="#d82221"/>
  <path id="Path_61647" data-name="Path 61647" d="M252.851,248h-3.759A1.093,1.093,0,0,0,248,249.092v3.759a1.093,1.093,0,0,0,1.092,1.092h3.759a1.093,1.093,0,0,0,1.092-1.092v-3.759A1.093,1.093,0,0,0,252.851,248Z" transform="translate(-240.943 -240.943)" fill="#d82221"/>
</svg>
