<svg id="promo" xmlns="http://www.w3.org/2000/svg" width="20" height="20" viewBox="0 0 20 20">
  <rect id="Rectangle_13" data-name="Rectangle 13" width="20" height="20" opacity="0"/>
  <g id="Group_46336" data-name="Group 46336" transform="translate(0.8 2.4)">
    <path id="Path_20235" data-name="Path 20235" d="M128.115,210.505c-2.313,0-4.627,0-6.94,0a2.234,2.234,0,0,1-2.252-2.25q0-5.348,0-10.7a2.227,2.227,0,0,1,2.231-2.241q6.956-.016,13.912,0a2.238,2.238,0,0,1,2.251,2.257q.006,5.364,0,10.729a2.233,2.233,0,0,1-2.232,2.205C132.763,210.51,130.439,210.5,128.115,210.505Zm-.027-1.5v0h6.78c.653,0,.932-.279.939-.931,0-.286,0-.573,0-.86q-.009-3.083-.018-6.165c0-1.134.015-2.269.012-3.4a.779.779,0,0,0-.838-.841c-.1,0-.193,0-.289,0H121.5c-.815,0-1.074.257-1.075,1.066q0,2.412,0,4.823,0,2.674,0,5.349c0,.683.284.96.978.96Z" transform="translate(-118.922 -195.307)"/>
    <path id="Path_20237" data-name="Path 20237" d="M280.128,237.346q0-2.853,0-5.706c0-.5.087-.576.611-.578.939,0,.935,0,.94.861.006.979.03,1.958.028,2.936,0,1.551-.017,3.1-.03,4.652,0,.336-.117.451-.473.459-1.212.027-1.074-.02-1.076-.948C280.128,238.463,280.129,237.9,280.128,237.346Z" transform="translate(-266.342 -227.911)"/>
    <path id="Path_20238" data-name="Path 20238" d="M156.276,235.477q0,1.973,0,3.946c0,.41-.1.507-.544.517-1,.024-1,.019-1-.928q0-2.314,0-4.629c0-.952,0-1.9,0-2.855,0-.387.115-.493.529-.5,1.129-.021,1.017.037,1.015.91,0,1.18,0,2.359,0,3.539Z" transform="translate(-151.668 -227.878)"/>
    <path id="Path_20239" data-name="Path 20239" d="M200.911,234.657c0,.988,0,1.976,0,2.963,0,.43-.12.548-.546.557-1.015.02-1.021.014-1.021-1.016q0-2.721,0-5.442c0-.545.1-.647.661-.648.907,0,.908,0,.908.919Q200.912,233.324,200.911,234.657Z" transform="translate(-192.466 -228.126)"/>
    <path id="Path_20240" data-name="Path 20240" d="M182.208,234.749q0,1.517,0,3.035c0,.332-.138.513-.378.512s-.389-.2-.389-.513q-.005-3.017,0-6.035c0-.044,0-.088,0-.132.022-.239.145-.41.39-.406s.382.17.381.438C182.2,232.682,182.208,233.715,182.208,234.749Z" transform="translate(-176.083 -228.253)"/>
    <path id="Path_20241" data-name="Path 20241" d="M244.269,234.742c0-1.011,0-2.022,0-3.033,0-.274.108-.467.39-.466s.388.21.388.474q0,3.068,0,6.135c0,.265-.114.467-.4.465s-.379-.211-.379-.477C244.27,236.808,244.269,235.775,244.269,234.742Z" transform="translate(-233.535 -228.283)"/>
    <path id="Path_20242" data-name="Path 20242" d="M262.252,236.061c0-1.449,0-2.9,0-4.348,0-.271.09-.472.378-.474s.39.2.392.468c0,.066,0,.132,0,.2q0,.479,0,.957,0,2.324,0,4.649c0,.077,0,.154,0,.231-.005.376-.141.578-.391.581s-.377-.186-.377-.578Q262.251,236.9,262.252,236.061Z" transform="translate(-249.978 -228.279)"/>
    <path id="Path_20243" data-name="Path 20243" d="M227.045,234.781q0,1.468,0,2.936c0,.1.027.23-.024.289-.111.127-.261.293-.4.3-.113,0-.241-.2-.345-.323-.033-.04-.01-.128-.01-.194q0-2.985,0-5.97c0-.044,0-.088,0-.132,0-.259.124-.436.387-.437s.389.184.391.437c.005.616,0,1.231,0,1.847Q227.044,234.156,227.045,234.781Z" transform="translate(-217.068 -228.287)"/>
    <path id="Path_20244" data-name="Path 20244" d="M182.316,318.9c-.2.343-.633.426-.8.07a1.515,1.515,0,0,1,.019-1.391.553.553,0,0,1,.416-.237.506.506,0,0,1,.366.257A1.917,1.917,0,0,1,182.316,318.9Zm-.4-1.259a1.131,1.131,0,0,0-.009,1.259A1.207,1.207,0,0,0,181.919,317.636Z" transform="translate(-176.012 -307.023)"/>
    <path id="Path_20245" data-name="Path 20245" d="M258.7,318.861h-.318l-.031-.411-.312-.017-.333-.02a4.184,4.184,0,0,1,.621-1.342c.035-.067.211-.059.374-.1,0,.306-.014.567.006.825C258.714,317.921,258.7,318.861,258.7,318.861Zm-.352-.757v-.5l-.045-.013-.252.515Z" transform="translate(-245.824 -306.692)"/>
    <path id="Path_20246" data-name="Path 20246" d="M219.914,317.288c.06-.071.113-.2.2-.228a.506.506,0,0,1,.708.594,5.085,5.085,0,0,1-.422.931l.435.03c.057.349-.033.376-.982.28a1.919,1.919,0,0,1,.13-.375,5.927,5.927,0,0,0,.356-.512.892.892,0,0,0,.092-.546C220.411,317.379,220.146,317.36,219.914,317.288Z" transform="translate(-211.215 -306.735)"/>
    <path id="Path_20247" data-name="Path 20247" d="M238.888,318.707c.092-.04.188-.074.276-.121.121-.065.237-.141.356-.212-.079-.112-.155-.227-.239-.336-.042-.054-.121-.087-.141-.144-.012-.035.053-.1.087-.149.076-.108.155-.215.233-.322l-.445-.2c.012-.025.032-.153.1-.182a.487.487,0,0,1,.628.119.455.455,0,0,1-.1.668c.275.365.314.624.132.853S239.29,318.953,238.888,318.707Z" transform="translate(-228.62 -306.692)"/>
    <path id="Path_20248" data-name="Path 20248" d="M202.024,316.8c.013.16.025.245.026.33,0,.513,0,1.026,0,1.561l-.34.04v-1.516l-.32.107-.092-.278Z" transform="translate(-194.246 -306.537)"/>
  </g>
</svg>
