<svg xmlns="http://www.w3.org/2000/svg" width="15.74" height="22.901" viewBox="0 0 15.74 22.901">
  <path id="question" d="M9.691,0a8.666,8.666,0,0,0-7.7,4.071,1.075,1.075,0,0,0,.232,1.47L4.154,7a1.073,1.073,0,0,0,1.487-.186c1.12-1.4,1.951-2.212,3.7-2.212,1.376,0,3.078.886,3.078,2.22,0,1.009-.833,1.527-2.191,2.288C8.645,10,6.548,11.11,6.548,13.875v.438a1.073,1.073,0,0,0,1.073,1.073h3.241a1.073,1.073,0,0,0,1.073-1.073v-.258c0-1.917,5.6-2,5.6-7.185C17.54,2.963,13.487,0,9.691,0ZM9.243,16.7a3.1,3.1,0,1,0,3.1,3.1A3.1,3.1,0,0,0,9.243,16.7Z" transform="translate(-1.8)"/>
</svg>
