<svg id="Component_1381_11" data-name="Component 1381 – 11" xmlns="http://www.w3.org/2000/svg" width="11.156" height="13.283" viewBox="0 0 11.156 13.283">
  <path id="Path_69" data-name="Path 69" d="M238.544,234.429h-.909v1.214a.157.157,0,0,1-.314,0v-1.214H230.49v1.214a.157.157,0,0,1-.314,0v-1.214h-.909a.627.627,0,0,0-.626.626v10.034a.624.624,0,0,0,.183.443h0a.627.627,0,0,0,.443.183h9.277a.627.627,0,0,0,.627-.626V235.055a.624.624,0,0,0-.184-.442v0a.628.628,0,0,0-.443-.183Zm-2.421,2.984h2.217a.157.157,0,0,1,.156.156v7.125a.156.156,0,0,1-.156.156h-8.868a.156.156,0,0,1-.156-.156v-7.125a.156.156,0,0,1,.156-.156h6.651Z" transform="translate(-228.328 -232.746)" fill="#f25e4b" fill-rule="evenodd"/>
  <rect id="Rectangle_3" data-name="Rectangle 3" width="1.904" height="2.062" transform="translate(3.517 9.73)" fill="#ebebeb"/>
  <rect id="Rectangle_4" data-name="Rectangle 4" width="1.904" height="2.062" transform="translate(1.3 9.73)" fill="#ebebeb"/>
  <rect id="Rectangle_5" data-name="Rectangle 5" width="1.904" height="2.062" transform="translate(1.3 7.355)" fill="#ebebeb"/>
  <rect id="Rectangle_6" data-name="Rectangle 6" width="1.904" height="2.062" transform="translate(3.517 4.98)" fill="#bfc7c9"/>
  <rect id="Rectangle_7" data-name="Rectangle 7" width="1.904" height="2.062" transform="translate(1.3 4.98)" fill="#bfc7c9"/>
  <rect id="Rectangle_8" data-name="Rectangle 8" width="1.904" height="2.062" transform="translate(5.734 9.73)" fill="#ebebeb"/>
  <rect id="Rectangle_9" data-name="Rectangle 9" width="1.904" height="2.062" transform="translate(7.951 9.73)" fill="#bfc7c9"/>
  <rect id="Rectangle_10" data-name="Rectangle 10" width="1.904" height="2.062" transform="translate(5.734 7.355)" fill="#ebebeb"/>
  <rect id="Rectangle_11" data-name="Rectangle 11" width="1.904" height="2.062" transform="translate(7.951 7.355)" fill="#ebebeb"/>
  <rect id="Rectangle_12" data-name="Rectangle 12" width="1.904" height="2.062" transform="translate(5.734 4.98)" fill="#ebebeb"/>
  <rect id="Rectangle_13" data-name="Rectangle 13" width="1.904" height="2.062" transform="translate(7.951 4.98)" fill="#ebebeb"/>
  <rect id="Rectangle_14" data-name="Rectangle 14" width="1.904" height="2.062" transform="translate(3.517 7.355)" fill="#ebebeb"/>
  <path id="Path_70" data-name="Path 70" d="M231.752,241.661h1.9V239.6h-1.9v2.062Zm6.7-7.734a.625.625,0,0,1,.443.183h0a.626.626,0,0,1,.183.442v10.035a.627.627,0,0,1-.626.626h-9.277a.625.625,0,0,1-.443-.183h0a.623.623,0,0,1-.183-.442V234.554a.627.627,0,0,1,.626-.626h.909v1.214a.157.157,0,0,0,.314,0v-1.214h6.832v1.214a.157.157,0,0,0,.314,0v-1.214Zm-9.277-.313h.909V232.4a.157.157,0,0,1,.314,0v1.214h6.832V232.4a.157.157,0,0,1,.314,0v1.214h.909a.935.935,0,0,1,.663.276h0a.933.933,0,0,1,.276.663v10.035a.94.94,0,0,1-.94.939h-9.277a.939.939,0,0,1-.662-.273l0,0h0a.938.938,0,0,1-.276-.663V234.554a.942.942,0,0,1,.94-.939Zm6.855,3.3h2.217a.157.157,0,0,1,.156.156v7.125a.156.156,0,0,1-.156.156h-8.868a.156.156,0,0,1-.156-.156v-7.125a.157.157,0,0,1,.156-.156h6.651Zm2.061.314h-1.9v2.061h1.9v-2.061Zm-2.217,0h-1.9v2.061h1.9v-2.061Zm2.217,4.437V239.6h-1.9v2.062Zm-2.217,0V239.6h-1.9v2.062Zm2.217.313h-1.9v2.062h1.9v-2.062Zm-2.217,0h-1.9v2.062h1.9v-2.062Zm-4.434-4.749h-1.9v2.061h1.9v-2.061Zm2.217,0h-1.9v2.061h1.9v-2.061ZM231.44,239.6h-1.9v2.062h1.9V239.6Zm0,4.437v-2.062h-1.9v2.062Zm2.217-2.062h-1.9v2.062h1.9Z" transform="translate(-228.235 -232.244)" fill="#30383b" fill-rule="evenodd"/>
</svg>
