<svg id="search" xmlns="http://www.w3.org/2000/svg" width="20" height="20" viewBox="0 0 20 20">
  <g id="Rectangle_6682" data-name="Rectangle 6682" transform="translate(0)" stroke="#707070" stroke-width="1" opacity="0">
    <rect width="20" height="20" stroke="none"/>
    <rect x="0.5" y="0.5" width="19" height="19" fill="none"/>
  </g>
  <path id="search-2" data-name="search" d="M11.256,9.494A5.942,5.942,0,0,0,9.794,1.107,6.216,6.216,0,0,0,1.238,2.541,5.941,5.941,0,0,0,2.7,10.928a6.24,6.24,0,0,0,6.668.27l4.525,4.41a1.3,1.3,0,0,0,1.816.045,1.242,1.242,0,0,0,.047-1.78c-.015-.016-.03-.031-.047-.046Zm-5.013.411a3.92,3.92,0,0,1-3.96-3.879A3.92,3.92,0,0,1,6.241,2.145,3.92,3.92,0,0,1,10.2,6.018,3.921,3.921,0,0,1,6.246,9.905Zm0,0" transform="translate(1.891 2)"/>
</svg>
