<svg xmlns="http://www.w3.org/2000/svg" width="29.017" height="29" viewBox="0 0 29.017 29">
  <path id="search-home" d="M5657.42,356a10.4,10.4,0,0,1,10.447,10.329,10.2,10.2,0,0,1-2.217,6.35l9.906,9.812a1.451,1.451,0,0,1-.015,2.085,1.535,1.535,0,0,1-2.135-.014l-9.923-9.829A10.372,10.372,0,1,1,5657.42,356Zm0,18.036a7.707,7.707,0,1,0-7.763-7.707A7.744,7.744,0,0,0,5657.42,374.036Zm-5.236-7.587a1.166,1.166,0,0,0,1.163,1,1.223,1.223,0,0,0,.157-.01,1.153,1.153,0,0,0,1.009-1.288c-.234-1.716,1.725-2.613,1.808-2.651a1.14,1.14,0,0,0,.585-1.516,1.184,1.184,0,0,0-1.544-.579C5655.212,361.465,5651.716,363.021,5652.184,366.448Zm2.473,2.515a1.286,1.286,0,0,0,0,1.851,1.367,1.367,0,0,0,1.9,0,1.289,1.289,0,0,0,0-1.851,1.358,1.358,0,0,0-1.9,0Z" transform="translate(-5646.974 -356)" opacity="0.169"/>
</svg>
