<svg xmlns="http://www.w3.org/2000/svg" width="37.717" height="37.773" viewBox="0 0 37.717 37.773">
  <g id="sent" transform="translate(-168.171 -179.643)">
    <path id="Path_15" data-name="Path 15" d="M202.636,194.621h-3.251v4.559l-1.951-1.3-1.951,1.3v-4.559h-5.853V208.3a2.6,2.6,0,0,1-2.6,2.6h15.607a2.6,2.6,0,0,0,2.6-2.6V197.227a2.6,2.6,0,0,0-2.6-2.605" fill="#a98258"/>
    <path id="Path_16" data-name="Path 16" d="M191.58,180.294h-2.6v4.558l-1.95-1.3-1.951,1.3v-4.558h-2.6a2.6,2.6,0,0,0-2.6,2.605v7.815h2.6v.651h4.553a2.6,2.6,0,0,1,2.6,2.605v.651h1.951a2.6,2.6,0,0,0,2.6-2.6V182.9a2.6,2.6,0,0,0-2.6-2.605" fill="#c69666"/>
    <path id="Path_17" data-name="Path 17" d="M182.477,197.878l-3.251-2.605-3.251,2.605v-7.164h6.5Z" fill="#e8d5b2"/>
    <path id="Path_18" data-name="Path 18" d="M187.029,191.365h-4.553v6.512l-3.251-2.6-3.251,2.6v-6.512h-4.552a2.6,2.6,0,0,0-2.6,2.605V208.3a2.6,2.6,0,0,0,2.6,2.6h15.607a2.6,2.6,0,0,0,2.6-2.6V193.97a2.6,2.6,0,0,0-2.6-2.605" fill="#60442b"/>
    <g id="Group_5" data-name="Group 5">
      <path id="Path_19" data-name="Path 19" d="M187.029,208.949h-2.6a.652.652,0,0,1,0-1.3h2.6a.652.652,0,0,1,0,1.3" fill="#896745"/>
      <path id="Path_20" data-name="Path 20" d="M187.029,206.344h-3.9a.651.651,0,0,1,0-1.3h3.9a.651.651,0,0,1,0,1.3" fill="#896745"/>
    </g>
    <path id="Path_21" data-name="Path 21" d="M188.979,184.853l-1.951-1.3-1.951,1.3v-5.21h3.9Z" fill="#e8d5b2"/>
    <g id="Group_6" data-name="Group 6">
      <path id="Path_22" data-name="Path 22" d="M202.636,209.6h-1.3a.651.651,0,0,1,0-1.3h1.3a.651.651,0,0,1,0,1.3" fill="#896745"/>
      <path id="Path_23" data-name="Path 23" d="M202.636,207.646h-2.6a.651.651,0,0,1,0-1.3h2.6a.651.651,0,0,1,0,1.3" fill="#896745"/>
    </g>
    <path id="Path_24" data-name="Path 24" d="M199.384,199.18l-1.951-1.3-1.951,1.3v-5.21h3.9Z" fill="#e8d5b2"/>
    <path id="Path_25" data-name="Path 25" d="M168.171,214.81h37.717V210.9H168.171Z" fill="#896745"/>
    <g id="Group_7" data-name="Group 7">
      <path id="Path_26" data-name="Path 26" d="M169.471,217.415h5.2V214.81h-5.2Z" fill="#60442b"/>
      <path id="Path_27" data-name="Path 27" d="M199.384,217.415h5.2V214.81h-5.2Z" fill="#60442b"/>
      <path id="Path_28" data-name="Path 28" d="M184.428,217.415h5.2V214.81h-5.2Z" fill="#60442b"/>
    </g>
  </g>
</svg>
