<svg xmlns="http://www.w3.org/2000/svg" width="18.072" height="18.072" viewBox="0 0 18.072 18.072">
  <g id="Group_62830" data-name="Group 62830" transform="translate(0.369 0.369)">
    <g id="Setting" transform="translate(-0.267 -0.267)">
      <path id="Path_43740" data-name="Path 43740" d="M15.99,8.423a10.794,10.794,0,0,1,0,1.1,1.328,1.328,0,0,0,.669,1.264l.037.019a1.294,1.294,0,0,1,.576,1.655h0a1.29,1.29,0,0,1-1.58.725l-.037-.019a1.314,1.314,0,0,0-1.376.39,7.559,7.559,0,0,1-.781.762,1.322,1.322,0,0,0-.409,1.376l.019.037a1.319,1.319,0,0,1-.744,1.58h0a1.279,1.279,0,0,1-1.636-.595l-.019-.037a1.31,1.31,0,0,0-1.264-.688,10.794,10.794,0,0,1-1.1,0,1.328,1.328,0,0,0-1.264.669l-.019.037a1.294,1.294,0,0,1-1.655.576h0a1.29,1.29,0,0,1-.725-1.58l.019-.037a1.314,1.314,0,0,0-.39-1.376,7.559,7.559,0,0,1-.762-.781,1.322,1.322,0,0,0-1.376-.409l-.037.019a1.319,1.319,0,0,1-1.58-.744h0a1.279,1.279,0,0,1,.595-1.636l.037-.019a1.31,1.31,0,0,0,.688-1.264,10.794,10.794,0,0,1,0-1.1,1.328,1.328,0,0,0-.669-1.264l-.037-.019A1.294,1.294,0,0,1,.595,5.411h0a1.29,1.29,0,0,1,1.58-.725l.037.019a1.314,1.314,0,0,0,1.376-.39,7.559,7.559,0,0,1,.781-.762,1.322,1.322,0,0,0,.409-1.376L4.76,2.138A1.319,1.319,0,0,1,5.5.558h0a1.279,1.279,0,0,1,1.636.595l.019.037a1.31,1.31,0,0,0,1.264.688,10.794,10.794,0,0,1,1.1,0,1.328,1.328,0,0,0,1.264-.669l.019-.037A1.294,1.294,0,0,1,12.458.595h0a1.29,1.29,0,0,1,.725,1.58l-.019.037a1.314,1.314,0,0,0,.39,1.376,7.559,7.559,0,0,1,.762.781,1.322,1.322,0,0,0,1.376.409l.037-.019a1.319,1.319,0,0,1,1.58.744h0a1.279,1.279,0,0,1-.595,1.636l-.037.019A1.31,1.31,0,0,0,15.99,8.423Z" fill="none" stroke="#c5cee0" stroke-linecap="round" stroke-linejoin="round" stroke-miterlimit="10" stroke-width="1"/>
      <circle id="Ellipse_472" data-name="Ellipse 472" cx="3.719" cy="3.719" r="3.719" transform="translate(5.206 5.206)" fill="none" stroke="#c5cee0" stroke-linecap="round" stroke-linejoin="round" stroke-miterlimit="10" stroke-width="1"/>
    </g>
  </g>
</svg>
