<svg xmlns="http://www.w3.org/2000/svg" width="31" height="31" viewBox="0 0 31 31">
  <g id="settings" transform="translate(-5.768)">
    <g id="Group_9257" data-name="Group 9257" transform="translate(5.768)">
      <path id="Path_3774" data-name="Path 3774" d="M36.462,19.577,33.1,17.011a11.849,11.849,0,0,0,.111-1.511,11.849,11.849,0,0,0-.111-1.511l3.369-2.565a.759.759,0,0,0,.191-.992L33.475,5.061a.8.8,0,0,0-.972-.333L28.536,6.285a12.171,12.171,0,0,0-2.692-1.527l-.6-4.107A.813.813,0,0,0,24.45,0H18.078a.8.8,0,0,0-.789.651l-.6,4.107A11.87,11.87,0,0,0,14,6.285L10.033,4.727a.808.808,0,0,0-.972.333L5.875,10.431a.762.762,0,0,0,.191.992l3.361,2.565A11.849,11.849,0,0,0,9.316,15.5a11.849,11.849,0,0,0,.111,1.511L6.066,19.577a.759.759,0,0,0-.191.992l3.186,5.371a.8.8,0,0,0,.972.333L14,24.715a12.171,12.171,0,0,0,2.692,1.527l.6,4.107a.8.8,0,0,0,.789.651H24.45a.8.8,0,0,0,.789-.651l.6-4.107a11.87,11.87,0,0,0,2.692-1.527L32.5,26.273a.808.808,0,0,0,.972-.333l3.186-5.371A.762.762,0,0,0,36.462,19.577Zm-15.2,1.349A5.427,5.427,0,1,1,26.84,15.5,5.5,5.5,0,0,1,21.264,20.925Z" transform="translate(-5.768)" fill="#fff"/>
    </g>
  </g>
</svg>
