<svg id="share" xmlns="http://www.w3.org/2000/svg" width="20" height="20" viewBox="0 0 20 20">
  <path id="Path_133905" data-name="Path 133905" d="M32.25,12.969A3.82,3.82,0,0,0,29.243,14.4l-5.91-2.837a3.123,3.123,0,0,0-.11-2.3l6.185-3.489A3.829,3.829,0,0,0,32.25,7.031,3.642,3.642,0,0,0,36,3.516a3.758,3.758,0,0,0-7.5,0,3.294,3.294,0,0,0,.261,1.264l-6.2,3.5A3.834,3.834,0,0,0,19.75,7.07,3.642,3.642,0,0,0,16,10.586,3.642,3.642,0,0,0,19.75,14.1a3.82,3.82,0,0,0,3.043-1.477l5.891,2.828a3.272,3.272,0,0,0-.184,1.032,3.758,3.758,0,0,0,7.5,0A3.642,3.642,0,0,0,32.25,12.969Z" transform="translate(-16 0)"/>
</svg>
