<svg id="single" xmlns="http://www.w3.org/2000/svg" width="16.487" height="20.061" viewBox="0 0 16.487 20.061">
  <g id="Group_30" data-name="Group 30" transform="translate(-158.333 -230.835)">
    <path id="Path_157" data-name="Path 157" d="M164.294,231.535c-1.728.586-1.83,2-1.807,3.747a2.746,2.746,0,0,0,.28-.724,2.178,2.178,0,0,1,.074-.585,1.075,1.075,0,0,1,.4-.565l0,0h0l.028-.021.006,0h0l.029-.019.011-.007a2.549,2.549,0,0,0,.739-.71,1.431,1.431,0,0,0,.235-.786Z" fill="#899ea3" fill-rule="evenodd"/>
    <path id="Path_158" data-name="Path 158" d="M170.182,243.79a3.855,3.855,0,0,1-1.481,1.183,5.042,5.042,0,0,1-2.163.511,5.41,5.41,0,0,1-2.272-.513,3.18,3.18,0,0,1-1.37-1.167,8.082,8.082,0,0,0-3.082,1.254,2.339,2.339,0,0,0-1.076,1.868v2.75a.814.814,0,0,0,.813.813h13.975a.816.816,0,0,0,.814-.813v-2.75h0a2.357,2.357,0,0,0-1.077-1.875A8.065,8.065,0,0,0,170.182,243.79Z" fill="#9bc957" fill-rule="evenodd"/>
    <path id="Path_159" data-name="Path 159" d="M164.018,242.977l.114.083a6.35,6.35,0,0,0,.832.512,3.25,3.25,0,0,0,1.69.395,3.76,3.76,0,0,0,1.4-.4,8.972,8.972,0,0,0,.873-.491l.14-.089a15.065,15.065,0,0,1-.153-1.546l-.006-.078a4.635,4.635,0,0,1-.75.546,3.014,3.014,0,0,1-3.242,0,4.692,4.692,0,0,1-.763-.558l0,.064A15.075,15.075,0,0,1,164.018,242.977Z" fill="#ffe0a6" fill-rule="evenodd"/>
    <path id="Path_160" data-name="Path 160" d="M170.592,235.2c.018-1.712-.108-3.088-1.808-3.664v.323a1.431,1.431,0,0,0,.235.786,2.549,2.549,0,0,0,.739.71l.011.007.029.019h0l.007,0,.027.021h0l0,0a1.088,1.088,0,0,1,.405.565,2.218,2.218,0,0,1,.073.585A2.262,2.262,0,0,0,170.592,235.2Z" fill="#899ea3" fill-rule="evenodd"/>
    <path id="Path_161" data-name="Path 161" d="M162.866,236.032H162.5c0,.2.006.385.006.551,0,.09,0,.167,0,.237a.228.228,0,0,1,0,.058v.006a5.233,5.233,0,0,0,.331,1.784,6.2,6.2,0,0,0,.935,1.684q.167.211.347.4h0l0,0,.007.009a4.569,4.569,0,0,0,.99.793,2.619,2.619,0,0,0,2.836,0,4.871,4.871,0,0,0,1.347-1.206,6.18,6.18,0,0,0,.936-1.684,5.234,5.234,0,0,0,.332-1.784v-.009a.228.228,0,0,1,0-.045c0-.043,0-.083,0-.119h0v-.127c0-.166,0-.356.005-.551h-.365v.839a.851.851,0,0,1-.058.3h0a.826.826,0,0,1-.15.242.28.28,0,0,1-.028.031.779.779,0,0,1-.24.165.756.756,0,0,1-.3.063h-1.8a1.025,1.025,0,0,1-.408-.086,1.074,1.074,0,0,1-.343-.242,1.11,1.11,0,0,1-.228-.359,1.138,1.138,0,0,1-.079-.418h0v-.847H166.5v.847h0a1.14,1.14,0,0,1-.079.419,1.111,1.111,0,0,1-.228.357,1.048,1.048,0,0,1-.344.242,1,1,0,0,1-.408.086h-1.8a.752.752,0,0,1-.3-.063.773.773,0,0,1-.248-.174h0l-.015-.017a.814.814,0,0,1-.154-.248.825.825,0,0,1-.058-.3h0v-.836Zm1.974,3.809c-.085,0-.16-.005-.248-.005h0a.2.2,0,0,1-.19-.275,1.307,1.307,0,0,1,.313-.453,2.49,2.49,0,0,1,.909-.54,1.463,1.463,0,0,1,.921-.061.507.507,0,0,1,.053.024.441.441,0,0,1,.054-.024,1.457,1.457,0,0,1,.919.061,2.5,2.5,0,0,1,.908.54,1.312,1.312,0,0,1,.307.439.2.2,0,0,1-.183.292c-.089,0-.163,0-.247,0a3.8,3.8,0,0,1-1.759-.219A3.786,3.786,0,0,1,164.84,239.841Z" fill="#ffe0a6" fill-rule="evenodd"/>
    <path id="Path_162" data-name="Path 162" d="M163.271,235.828v1.04h0a.42.42,0,0,0,.1.276l.006,0v0h0l0,0,0,0a.364.364,0,0,0,.119.084.339.339,0,0,0,.137.028h1.8a.625.625,0,0,0,.246-.05.671.671,0,0,0,.212-.15.7.7,0,0,0,.144-.227.729.729,0,0,0,.051-.27h0v-.847h-2.516l-.029,0a.771.771,0,0,0-.245.029.052.052,0,0,0-.033.055h0v.023Z" fill="#afdff0" fill-rule="evenodd"/>
    <path id="Path_163" data-name="Path 163" d="M170.18,235.625h.185l-.049-.089a2.881,2.881,0,0,1-.41-.964,1.9,1.9,0,0,0-.056-.48.694.694,0,0,0-.26-.361h0l-.022-.016-.028-.019-.006,0a2.952,2.952,0,0,1-.857-.83,1.822,1.822,0,0,1-.3-1v-.409a.244.244,0,0,1,0-.028,9.525,9.525,0,0,0-3.686,0,.127.127,0,0,1,0,.028v.409a1.805,1.805,0,0,1-.3,1,2.923,2.923,0,0,1-.856.83l-.006,0-.028.019-.022.016h0a.694.694,0,0,0-.26.361,1.9,1.9,0,0,0-.056.48,3.528,3.528,0,0,1-.4,1.053h.124a.421.421,0,0,1,.263-.253,1.213,1.213,0,0,1,.432-.056H169.5l.026,0a1.062,1.062,0,0,1,.41.074A.441.441,0,0,1,170.18,235.625Z" fill="#ffe0a6" fill-rule="evenodd"/>
    <path id="Path_164" data-name="Path 164" d="M169.808,235.846v-.015h0v-.024h0a.05.05,0,0,0-.036-.045.718.718,0,0,0-.271-.038h-2.516v.847h0a.725.725,0,0,0,.051.27.7.7,0,0,0,.143.227.651.651,0,0,0,.212.15.609.609,0,0,0,.246.052h1.8a.346.346,0,0,0,.137-.028.36.36,0,0,0,.111-.076l.008-.009a.408.408,0,0,0,.083-.13h0a.44.44,0,0,0,.029-.155Z" fill="#afdff0" fill-rule="evenodd"/>
    <path id="Path_165" data-name="Path 165" d="M164.957,239.439c.51.014,1.268.021,1.5-.211a.2.2,0,0,1,.286,0l0,0h0c.227.232.985.226,1.5.212-.014-.014-.027-.029-.042-.043a2.071,2.071,0,0,0-.756-.445,1.079,1.079,0,0,0-.646-.066.153.153,0,0,0-.051.03.2.2,0,0,1-.287.005l0-.005a.155.155,0,0,0-.052-.03,1.085,1.085,0,0,0-.646.065,2.08,2.08,0,0,0-.757.447Z" fill="#899ea3" fill-rule="evenodd"/>
    <path id="Path_166" data-name="Path 166" d="M169.3,243.318c-.134.087-.265.169-.4.247a4.95,4.95,0,0,1-2.231.807,4.062,4.062,0,0,1-2.515-.8c-.125-.082-.252-.17-.382-.267l-.411.269-.1.064a2.83,2.83,0,0,0,1.171.967,5,5,0,0,0,2.1.473,4.65,4.65,0,0,0,1.987-.471,3.542,3.542,0,0,0,1.277-.983l-.1-.061Z" fill="#9bc957" fill-rule="evenodd"/>
    <path id="Path_167" data-name="Path 167" d="M169.81,235.847v-.015h0v-.024h0a.053.053,0,0,0-.037-.046.739.739,0,0,0-.27-.037l-.025,0h-2.492v.848h0a.729.729,0,0,0,.051.27.7.7,0,0,0,.144.227.645.645,0,0,0,.212.15.624.624,0,0,0,.245.051h1.8a.342.342,0,0,0,.137-.028.366.366,0,0,0,.111-.076l.009-.01a.411.411,0,0,0,.082-.13h0a.435.435,0,0,0,.029-.154v-1.025Zm.371-.222h.185l-.049-.088a2.88,2.88,0,0,1-.409-.965,1.936,1.936,0,0,0-.057-.479.693.693,0,0,0-.259-.362h0l-.022-.017-.028-.019-.005,0a2.925,2.925,0,0,1-.857-.829,1.827,1.827,0,0,1-.3-1.005v-.409a.265.265,0,0,1,0-.028,9.572,9.572,0,0,0-3.685,0,.261.261,0,0,1,0,.028v.409a1.827,1.827,0,0,1-.3,1.005,2.925,2.925,0,0,1-.857.829l-.006,0-.027.019-.023.017h0a.7.7,0,0,0-.26.362,1.937,1.937,0,0,0-.056.479,3.518,3.518,0,0,1-.4,1.053h.124a.417.417,0,0,1,.263-.252,1.191,1.191,0,0,1,.432-.057h5.938a1.062,1.062,0,0,1,.41.074.445.445,0,0,1,.243.233Zm-6.908.2v1.039h0a.417.417,0,0,0,.029.156.378.378,0,0,0,.074.12l.005.005h0l0,0,0,0a.382.382,0,0,0,.119.085.342.342,0,0,0,.137.028h1.8a.607.607,0,0,0,.245-.051.655.655,0,0,0,.212-.15.676.676,0,0,0,.144-.227.729.729,0,0,0,.051-.27h0v-.847h-2.516a.136.136,0,0,1-.029,0,.765.765,0,0,0-.244.029.052.052,0,0,0-.034.055h0v.024Zm-.406.2v.836h0a.821.821,0,0,0,.057.3.79.79,0,0,0,.154.248l.016.017h0a.777.777,0,0,0,.247.173.739.739,0,0,0,.3.063h1.8a1.016,1.016,0,0,0,.407-.085,1.067,1.067,0,0,0,.344-.242,1.1,1.1,0,0,0,.228-.358,1.12,1.12,0,0,0,.08-.419h0v-.847h.081v.848h0a1.142,1.142,0,0,0,.079.418,1.116,1.116,0,0,0,.228.358,1.07,1.07,0,0,0,.344.243,1.016,1.016,0,0,0,.407.085h1.8a.739.739,0,0,0,.3-.063.762.762,0,0,0,.24-.165.2.2,0,0,0,.028-.03.831.831,0,0,0,.15-.243h0a.821.821,0,0,0,.058-.3v-.84h.366c0,.2-.006.386-.006.552,0,.062,0,.1,0,.123v.005c0,.035,0,.075,0,.118a.176.176,0,0,0,0,.046v.009a5.252,5.252,0,0,1-.331,1.783,6.165,6.165,0,0,1-.936,1.684,4.843,4.843,0,0,1-1.348,1.206,2.614,2.614,0,0,1-2.836,0,4.563,4.563,0,0,1-.99-.793l-.007-.008,0,0h0c-.12-.127-.236-.261-.346-.4a6.165,6.165,0,0,1-.936-1.684,5.228,5.228,0,0,1-.331-1.783v-.007a.273.273,0,0,0,0-.057c0-.07-.005-.148-.005-.237,0-.166,0-.356,0-.552Zm7.727-.833a2.261,2.261,0,0,1-.282-.641,2.21,2.21,0,0,0-.073-.584,1.085,1.085,0,0,0-.4-.566l0,0h0l-.028-.02-.006-.005h0l-.029-.02-.01-.006a2.543,2.543,0,0,1-.74-.711,1.425,1.425,0,0,1-.234-.786v-.322c1.7.576,1.825,1.951,1.808,3.663Zm-5.753,4.642a3.792,3.792,0,0,0,1.758-.218,3.764,3.764,0,0,0,1.758.219c.084,0,.158,0,.247,0a.2.2,0,0,0,.2-.2.2.2,0,0,0-.02-.088,1.315,1.315,0,0,0-.307-.44,2.486,2.486,0,0,0-.908-.539,1.457,1.457,0,0,0-.919-.061c-.019.007-.036.015-.054.023l-.053-.023a1.455,1.455,0,0,0-.921.06,2.5,2.5,0,0,0-.909.54,1.285,1.285,0,0,0-.312.454.2.2,0,0,0,.19.275h0c.088,0,.162,0,.247.005Zm.117-.4c.51.015,1.268.021,1.5-.211a.2.2,0,0,1,.287,0l0,0h0c.227.233.985.227,1.495.213a.568.568,0,0,0-.042-.043,2.074,2.074,0,0,0-.756-.446,1.076,1.076,0,0,0-.645-.066.159.159,0,0,0-.052.031.2.2,0,0,1-.286,0l0,0a.145.145,0,0,0-.053-.031,1.08,1.08,0,0,0-.646.066,2.066,2.066,0,0,0-.756.446l-.041.041Zm4.348,3.88a5.547,5.547,0,0,1-2.627,1.054,4.383,4.383,0,0,1-2.9-1.066l-.51.333a2.818,2.818,0,0,0,1.17.966,5,5,0,0,0,2.1.474,4.633,4.633,0,0,0,1.987-.472,3.513,3.513,0,0,0,1.277-.983l-.5-.306Zm-5.287-.342a4.009,4.009,0,0,0,2.636.991,5.17,5.17,0,0,0,2.415-.981,15.285,15.285,0,0,1-.153-1.546l-.005-.078a4.756,4.756,0,0,1-.751.547,3.019,3.019,0,0,1-3.242,0,4.814,4.814,0,0,1-.763-.558l0,.063a15.05,15.05,0,0,1-.134,1.562Zm6.164.814a8.06,8.06,0,0,1,3.081,1.261,2.353,2.353,0,0,1,1.076,1.874h0v2.75a.816.816,0,0,1-.814.813H159.552a.813.813,0,0,1-.813-.813v-2.75a2.339,2.339,0,0,1,1.076-1.868A8.112,8.112,0,0,1,162.9,243.8a3.165,3.165,0,0,0,1.369,1.167,5.411,5.411,0,0,0,2.272.514,5.051,5.051,0,0,0,2.164-.512,3.841,3.841,0,0,0,1.48-1.182Zm.805-7.976v.035c0,.221-.007.455-.007.734,0,.023,0,.067,0,.132l0,.1a.161.161,0,0,1,0,.037h0v.031a5.643,5.643,0,0,1-.356,1.922,6.61,6.61,0,0,1-1,1.8q-.16.2-.333.389c.01.122.019.264.03.422a13.639,13.639,0,0,0,.154,1.534l.689.425a8.561,8.561,0,0,1,3.343,1.355,2.737,2.737,0,0,1,1.239,2.2h0v2.75a1.223,1.223,0,0,1-1.219,1.22H159.552a1.223,1.223,0,0,1-1.219-1.22v-2.75a2.724,2.724,0,0,1,1.239-2.192,8.618,8.618,0,0,1,3.35-1.349l.693-.453a13.491,13.491,0,0,0,.133-1.538c.009-.163.017-.311.024-.42q-.165-.177-.316-.371a6.584,6.584,0,0,1-1-1.8,5.645,5.645,0,0,1-.357-1.922v-.031a.173.173,0,0,1,0-.039c0-.085,0-.163,0-.231,0-.279,0-.512-.008-.733v-.037l0-.1c-.05-2.763-.088-4.876,4.45-4.876s4.5,2.113,4.45,4.876l0,.1Zm-6.693-4.279v.322a1.433,1.433,0,0,1-.234.786,2.556,2.556,0,0,1-.74.711l-.01.006-.029.02h0l-.007.005-.027.02h0l0,0a1.088,1.088,0,0,0-.4.566,2.211,2.211,0,0,0-.074.584,2.686,2.686,0,0,1-.28.724C162.466,233.531,162.568,232.121,164.295,231.536Z" fill="#30383b" fill-rule="evenodd"/>
  </g>
  <g id="Group_63056" data-name="Group 63056" transform="translate(-151.992 -188.706)">
    <path id="Path_62" data-name="Path 62" d="M161.308,209.33a5.015,5.015,0,0,0-1.905.775,1.447,1.447,0,0,0-.665,1.155v1.7a.5.5,0,0,0,.147.355h0a.5.5,0,0,0,.355.147h8.638a.5.5,0,0,0,.5-.5v-1.7h0a1.455,1.455,0,0,0-.666-1.159,4.975,4.975,0,0,0-1.9-.779,2.376,2.376,0,0,1-.915.731,3.118,3.118,0,0,1-1.337.316,3.354,3.354,0,0,1-1.4-.317A1.967,1.967,0,0,1,161.308,209.33Z" transform="translate(-0.155 -4.947)" fill="#6fc0de" fill-rule="evenodd"/>
    <path id="Path_63" data-name="Path 63" d="M163.586,208.838l-.253.166-.062.04a1.754,1.754,0,0,0,.724.6,3.1,3.1,0,0,0,1.3.292,2.866,2.866,0,0,0,1.228-.292,2.188,2.188,0,0,0,.789-.607l-.061-.038-.247-.152c-.083.053-.164.1-.244.152a3.054,3.054,0,0,1-1.379.5,2.51,2.51,0,0,1-1.555-.495C163.745,208.952,163.667,208.9,163.586,208.838Z" transform="translate(-1.886 -4.762)" fill="#fac957" fill-rule="evenodd"/>
    <path id="Path_64" data-name="Path 64" d="M167.487,199.751l0-.219c.028-1.563.05-2.759-2.5-2.759s-2.529,1.2-2.5,2.759l0,.218a2.039,2.039,0,0,0,.033-.232h0c.009-.111.012-.212.014-.31a2.612,2.612,0,0,1,.028-.407.894.894,0,0,1,.165-.394c.287-.375.943-.226,1.54-.088a3.728,3.728,0,0,0,.716.121,3.593,3.593,0,0,0,.775-.135c.584-.143,1.182-.289,1.481.1a.886.886,0,0,1,.163.382l0,.012a2.685,2.685,0,0,1,.029.407c0,.1,0,.2.014.311A2.073,2.073,0,0,0,167.487,199.751Z" transform="translate(-1.585 -0.155)" fill="#899ea3" fill-rule="evenodd"/>
    <path id="Path_65" data-name="Path 65" d="M164.1,206.883l0,.039a9.332,9.332,0,0,1-.083.966l.07.051a3.873,3.873,0,0,0,.514.316,2.011,2.011,0,0,0,1.045.245,2.314,2.314,0,0,0,.867-.248,5.338,5.338,0,0,0,.539-.3l.087-.055a9.307,9.307,0,0,1-.095-.956l0-.048a2.866,2.866,0,0,1-.464.338,1.863,1.863,0,0,1-2,0A2.9,2.9,0,0,1,164.1,206.883Z" transform="translate(-2.171 -4.016)" fill="#ffe0a6" fill-rule="evenodd"/>
    <path id="Path_66" data-name="Path 66" d="M163.512,203.661h0l0,0a2.81,2.81,0,0,0,.612.491,1.619,1.619,0,0,0,1.753,0,3,3,0,0,0,.833-.746,3.817,3.817,0,0,0,.579-1.04,3.391,3.391,0,0,0,.192-.831l-.2-.628,0-.007a2.144,2.144,0,0,1-.061-.36c-.009-.107-.011-.218-.014-.327a2.412,2.412,0,0,0-.026-.368l0-.01a.63.63,0,0,0-.116-.275c-.2-.262-.718-.135-1.223-.012a3.789,3.789,0,0,1-.833.143,3.894,3.894,0,0,1-.772-.128c-.522-.12-1.1-.251-1.285,0a.636.636,0,0,0-.116.285,2.411,2.411,0,0,0-.027.368c0,.109,0,.22-.014.327h0a2.155,2.155,0,0,1-.06.359l0,.007h0l-.2.626a3.361,3.361,0,0,0,.192.833,3.831,3.831,0,0,0,.578,1.04Q163.4,203.543,163.512,203.661Z" transform="translate(-1.602 -1.163)" fill="#ffe0a6" fill-rule="evenodd"/>
    <path id="Path_67" data-name="Path 67" d="M165.107,202.645c.006.075.012.163.019.261a8.444,8.444,0,0,0,.1.948l.426.262a5.31,5.31,0,0,1,2.066.838,1.693,1.693,0,0,1,.766,1.359h0v1.7a.752.752,0,0,1-.221.532h0a.751.751,0,0,1-.532.221h-8.638a.751.751,0,0,1-.532-.221h0a.753.753,0,0,1-.219-.531v-1.7a1.683,1.683,0,0,1,.766-1.355,5.327,5.327,0,0,1,2.071-.834l.428-.279a8.337,8.337,0,0,0,.082-.951c.006-.1.011-.193.015-.26-.068-.074-.133-.15-.2-.229a4.082,4.082,0,0,1-.617-1.111,3.487,3.487,0,0,1-.221-1.188v-.019a.1.1,0,0,1,0-.023c0-.053,0-.1,0-.143,0-.209,0-.377-.006-.54-.031-1.708-.054-3.014,2.751-3.014s2.782,1.306,2.751,3.014c0,.163-.006.331-.006.54,0,.014,0,.041,0,.082l0,.062a.091.091,0,0,1,0,.022h0v.019a3.485,3.485,0,0,1-.22,1.188,4.1,4.1,0,0,1-.617,1.111q-.1.125-.206.24Zm-3.2-.148h0l0,0,0,0a2.84,2.84,0,0,0,.612.49,1.619,1.619,0,0,0,1.753,0,3,3,0,0,0,.833-.745,3.82,3.82,0,0,0,.579-1.041,3.389,3.389,0,0,0,.192-.831l-.2-.628,0-.007a2.132,2.132,0,0,1-.06-.36c-.009-.107-.012-.218-.014-.327a2.419,2.419,0,0,0-.026-.368v-.01a.637.637,0,0,0-.116-.274c-.2-.262-.718-.135-1.223-.012a3.781,3.781,0,0,1-.833.144,3.887,3.887,0,0,1-.771-.129c-.523-.119-1.1-.251-1.286,0a.64.64,0,0,0-.116.284,2.5,2.5,0,0,0-.027.368c0,.109,0,.22-.014.327h0a2.2,2.2,0,0,1-.06.359l0,.007h0l-.2.626a3.375,3.375,0,0,0,.192.833,3.82,3.82,0,0,0,.579,1.041c.068.087.14.17.214.248Zm.022.37,0,.04a9.318,9.318,0,0,1-.083.966l.07.051a3.944,3.944,0,0,0,.514.316,2.012,2.012,0,0,0,1.045.244,2.3,2.3,0,0,0,.867-.248,5.443,5.443,0,0,0,.539-.3l.087-.056a9.463,9.463,0,0,1-.095-.956l0-.048a2.933,2.933,0,0,1-.464.337,1.863,1.863,0,0,1-2,0,2.9,2.9,0,0,1-.472-.345Zm3.97-3.272,0-.218c.028-1.564.05-2.759-2.5-2.759s-2.529,1.195-2.5,2.759l0,.218a2.061,2.061,0,0,0,.033-.232h0c.01-.112.012-.213.014-.311a2.61,2.61,0,0,1,.029-.407.88.88,0,0,1,.164-.393c.287-.376.943-.226,1.54-.089a3.743,3.743,0,0,0,.716.121,3.631,3.631,0,0,0,.775-.135c.584-.143,1.182-.289,1.482.1a.879.879,0,0,1,.163.382l0,.011a2.687,2.687,0,0,1,.029.407c0,.1,0,.2.014.312a2.058,2.058,0,0,0,.033.232Zm-4.2,4.481-.253.165-.062.041a1.746,1.746,0,0,0,.723.6,3.1,3.1,0,0,0,1.3.293,2.873,2.873,0,0,0,1.228-.292,2.178,2.178,0,0,0,.789-.608l-.061-.038-.246-.152q-.124.081-.245.153a3.052,3.052,0,0,1-1.379.5,2.513,2.513,0,0,1-1.555-.494q-.115-.076-.235-.164Zm-.547.307a5,5,0,0,0-1.906.775,1.446,1.446,0,0,0-.665,1.155v1.7a.5.5,0,0,0,.147.355h0a.5.5,0,0,0,.355.147h8.638a.5.5,0,0,0,.5-.5v-1.7h0a1.456,1.456,0,0,0-.665-1.159,4.992,4.992,0,0,0-1.9-.779,2.375,2.375,0,0,1-.915.731,3.112,3.112,0,0,1-1.338.316,3.344,3.344,0,0,1-1.4-.317A1.961,1.961,0,0,1,161.155,204.384Z" fill="#30383b" fill-rule="evenodd"/>
  </g>
</svg>
