<svg xmlns="http://www.w3.org/2000/svg" width="274.056" height="204.205" viewBox="0 0 274.056 204.205">
  <g id="submit-success" transform="translate(0 -55)">
    <g id="freepik--background-complete--inject-99" transform="translate(0 55)">
      <rect id="Rectangle_521" data-name="Rectangle 521" width="274.056" height="0.137" transform="translate(0 179.452)" fill="#e0e0e0"/>
      <rect id="Rectangle_522" data-name="Rectangle 522" width="18.855" height="0.137" transform="translate(188.145 185.256)" fill="#e0e0e0"/>
      <rect id="Rectangle_523" data-name="Rectangle 523" width="10.611" height="0.137" transform="translate(50.251 185.322)" fill="#e0e0e0"/>
      <rect id="Rectangle_524" data-name="Rectangle 524" width="21.508" height="0.137" transform="translate(116.068 185.004)" fill="#e0e0e0"/>
      <rect id="Rectangle_525" data-name="Rectangle 525" width="9.614" height="0.137" transform="translate(105.906 183.053)" fill="#e0e0e0"/>
      <rect id="Rectangle_526" data-name="Rectangle 526" width="29.044" height="0.137" transform="translate(203.662 183.124)" fill="#e0e0e0"/>
      <path id="Path_4372" data-name="Path 4372" d="M147.169,210.006H41.334a3.13,3.13,0,0,1-3.124-3.13V58.1A3.13,3.13,0,0,1,41.334,55H147.169a3.13,3.13,0,0,1,3.13,3.13V206.876A3.13,3.13,0,0,1,147.169,210.006ZM41.334,55.11A2.993,2.993,0,0,0,38.347,58.1V206.876a2.993,2.993,0,0,0,2.987,2.993H147.169a3,3,0,0,0,2.993-2.993V58.1a3,3,0,0,0-2.993-2.993Z" transform="translate(-17.267 -55)" fill="#e0e0e0"/>
      <path id="Path_4373" data-name="Path 4373" d="M363.47,210.006H257.63a3.135,3.135,0,0,1-3.13-3.13V58.1a3.135,3.135,0,0,1,3.13-3.1H363.47a3.13,3.13,0,0,1,3.119,3.1V206.876A3.13,3.13,0,0,1,363.47,210.006ZM257.63,55.11a3,3,0,0,0-2.993,2.993V206.876a3,3,0,0,0,2.993,2.993H363.47a3,3,0,0,0,2.993-2.993V58.1a3,3,0,0,0-2.993-2.993Z" transform="translate(-115.006 -55)" fill="#e0e0e0"/>
      <path id="Path_4374" data-name="Path 4374" d="M398.328,192.687c-6.742-10.266-.586-21.3-1.612-32.722s-11.878-13.911-9.822-23.569c2.379-11.225-3.963-22-11.149-22s-13.522,10.743-11.143,21.979c2.055,9.674-8.77,12.168-9.822,23.569s5.13,22.473-1.617,32.722-4.971,23.859-1.173,30.607a26.16,26.16,0,0,0,3.628,4.96,27.51,27.51,0,0,0,40.259,0,26.379,26.379,0,0,0,3.623-4.96C403.3,216.546,405.075,202.975,398.328,192.687Z" transform="translate(-157.537 -81.842)" fill="#e0e0e0"/>
      <path id="Path_4375" data-name="Path 4375" d="M395.3,271.44h0a3.409,3.409,0,0,1,3.409,3.409v57.409H391.89V274.849A3.409,3.409,0,0,1,395.3,271.44Z" transform="translate(-177.09 -152.807)" fill="#f0f0f0"/>
      <path id="Path_4376" data-name="Path 4376" d="M312.269,331.246H303v-57.4a4.653,4.653,0,0,1,4.642-4.643h0a4.653,4.653,0,0,1,4.643,4.643Z" transform="translate(-136.922 -151.794)" fill="#e0e0e0"/>
      <circle id="Ellipse_353" data-name="Ellipse 353" cx="28.595" cy="28.595" r="28.595" transform="translate(142.109 106.778)" fill="#f0f0f0"/>
      <circle id="Ellipse_354" data-name="Ellipse 354" cx="11.269" cy="11.269" r="11.269" transform="translate(179.714 132.294) rotate(-76.05)" fill="#f0f0f0"/>
      <circle id="Ellipse_355" data-name="Ellipse 355" cx="6.671" cy="6.671" r="6.671" transform="translate(139.917 122.912) rotate(-80.75)" fill="#f0f0f0"/>
      <circle id="Ellipse_356" data-name="Ellipse 356" cx="4.681" cy="4.681" r="4.681" transform="translate(150.15 109.272)" fill="#f0f0f0"/>
      <path id="Path_4377" data-name="Path 4377" d="M141.854,306.442a31,31,0,0,0-12.453,4.752,22.788,22.788,0,0,0-2.867-11.784,39.974,39.974,0,0,0-7.674,11.143c-.751-7.887-2.828-15.561-7.427-20.423-6.89,4.336-10.442,11.56-12.13,19.211a34.789,34.789,0,0,0-11.768-12.705c-4.215,4.44-5.563,10.579-5.448,16.871-4.79-5.58-10.107-9.932-15.292-10.442-1.277,8.819,1.442,17.139,4.9,23.717A26.266,26.266,0,0,0,94.974,340.71H117.5a26.061,26.061,0,0,0,23.1-13.6C143.438,321.74,144.8,314.828,141.854,306.442Z" transform="translate(-30.039 -161.252)" fill="#e0e0e0"/>
      <path id="Path_4378" data-name="Path 4378" d="M133.167,100.635c2.779-8.15.548-13.955-6.232-13.955-4.264,0-9.554,2.286-14.706,6-.581-2.121-2.22-3.387-4.856-3.387-4.643,0-11.039,3.924-16.054,9.46a7.674,7.674,0,0,0-5.229-2.11c-4.445-.252-9.822,2.006-14.5,5.673a2.527,2.527,0,0,0-2.061-1.058c-2.56-.143-6.029,2.138-7.745,5.086-.1.181-.2.362-.3.548h73.025A9.205,9.205,0,0,0,133.167,100.635Z" transform="translate(-27.787 -69.316)" fill="#f0f0f0"/>
      <path id="Path_4379" data-name="Path 4379" d="M163.821,196.813c1.359-3.979.28-6.813-3.042-6.813-2.088,0-4.67,1.1-7.186,2.932a2.225,2.225,0,0,0-2.373-1.644c-2.264,0-5.388,1.918-7.843,4.626a3.722,3.722,0,0,0-2.554-1.03c-2.192-.126-4.8.976-7.082,2.768a1.233,1.233,0,0,0-.981-.526,4.831,4.831,0,0,0-3.782,2.483l-.148.263H164.5A4.478,4.478,0,0,0,163.821,196.813Z" transform="translate(-58.217 -116.005)" fill="#f0f0f0"/>
      <path id="Path_4380" data-name="Path 4380" d="M262.745,134.512a6.2,6.2,0,0,0-.85-.06c.263-3.974-1.255-6.517-4.505-6.517-2.34,0-5.218,1.326-8.145,3.568.839-7.717-1.847-12.733-7.931-12.733-4.9,0-11.11,3.289-17.244,8.583-.548-3.026-2.346-4.845-5.382-4.845-5.333,0-12.914,5.613-18.992,13.527h0A7.674,7.674,0,0,0,193.809,133c-5.076-.356-11.384,2.867-16.991,8.118a2.593,2.593,0,0,0-2.308-1.507c-2.779-.2-6.577,2.7-8.83,6.577H267.212C269.6,140.316,267.7,135.175,262.745,134.512Z" transform="translate(-74.869 -83.817)" fill="#f0f0f0"/>
    </g>
    <g id="freepik--Shadow--inject-99" transform="translate(30.755 246.795)">
      <ellipse id="Ellipse_357" data-name="Ellipse 357" cx="106.273" cy="6.205" rx="106.273" ry="6.205" fill="#f5f5f5"/>
    </g>
    <g id="freepik--Mail--inject-99" transform="translate(26.781 76.34)">
      <path id="Path_4381" data-name="Path 4381" d="M48.86,150.56l124.953,17.989,16.767,16.92Z" transform="translate(-48.86 -119.522)" fill="#407bff"/>
      <path id="Path_4382" data-name="Path 4382" d="M48.86,150.56l124.953,17.989,16.767,16.92Z" transform="translate(-48.86 -119.522)" fill="#fff" opacity="0.6"/>
      <path id="Path_4383" data-name="Path 4383" d="M48.86,150.56l124.953,17.989-5.8,24.468Z" transform="translate(-48.86 -119.522)" fill="#407bff"/>
      <path id="Path_4384" data-name="Path 4384" d="M48.86,150.56l124.953,17.989-5.8,24.468Z" transform="translate(-48.86 -119.522)" opacity="0.2"/>
      <path id="Path_4385" data-name="Path 4385" d="M202.628,96.65l7.252,33.983a3.426,3.426,0,0,1-2.631,4.062l-64.721,13.812a3.431,3.431,0,0,1-4.061-2.631l-7.257-33.983a3.431,3.431,0,0,1,2.636-4.062l64.721-13.812a3.431,3.431,0,0,1,4.061,2.636Z" transform="translate(-86.039 -93.938)" fill="#407bff"/>
      <path id="Path_4386" data-name="Path 4386" d="M202.628,96.65l7.252,33.983a3.426,3.426,0,0,1-2.631,4.062l-64.721,13.812a3.431,3.431,0,0,1-4.061-2.631l-7.257-33.983a3.431,3.431,0,0,1,2.636-4.062l64.721-13.812a3.431,3.431,0,0,1,4.061,2.636Z" transform="translate(-86.039 -93.938)" opacity="0.4"/>
      <path id="Path_4387" data-name="Path 4387" d="M201.546,94.419l-21.623,26.545a13.939,13.939,0,0,1-17.074,3.645l-30.579-15.4a3.409,3.409,0,0,1,2.088-1.387l64.721-13.812a3.415,3.415,0,0,1,2.466.411Z" transform="translate(-86.552 -93.933)" fill="#407bff"/>
      <path id="Path_4388" data-name="Path 4388" d="M48.86,150.56l103.061,24.5,16.093,17.962Z" transform="translate(-48.86 -119.522)" fill="#407bff"/>
      <path id="Path_4389" data-name="Path 4389" d="M48.86,150.56l103.061,24.5,16.093,17.962Z" transform="translate(-48.86 -119.522)" fill="#fff" opacity="0.6"/>
      <rect id="Rectangle_527" data-name="Rectangle 527" width="0.548" height="13.292" transform="matrix(0.505, -0.863, 0.863, 0.505, 37.318, 55.12)" fill="#407bff"/>
      <rect id="Rectangle_528" data-name="Rectangle 528" width="0.548" height="4.78" transform="matrix(0.505, -0.863, 0.863, 0.505, 53.85, 64.8)" fill="#407bff"/>
      <path id="Path_4390" data-name="Path 4390" d="M48.86,150.56l103.061,24.5L131.888,199.2Z" transform="translate(-48.86 -119.522)" fill="#407bff"/>
      <path id="Path_4391" data-name="Path 4391" d="M285.617,247.975a1.1,1.1,0,0,1-.406-.077l-16.783-6.643a1.1,1.1,0,0,1,.806-2.039l16.789,6.643a1.1,1.1,0,0,1-.406,2.116Z" transform="translate(-147.767 -159.55)" fill="#407bff"/>
      <path id="Path_4392" data-name="Path 4392" d="M285.617,247.975a1.1,1.1,0,0,1-.406-.077l-16.783-6.643a1.1,1.1,0,0,1,.806-2.039l16.789,6.643a1.1,1.1,0,0,1-.406,2.116Z" transform="translate(-147.767 -159.55)" opacity="0.3"/>
      <path id="Path_4393" data-name="Path 4393" d="M290.215,232.928a1.047,1.047,0,0,1-.4-.082l-9.016-3.59a1.1,1.1,0,1,1,.806-2.039l9.016,3.574a1.11,1.11,0,0,1-.406,2.138Z" transform="translate(-153.357 -154.128)" fill="#407bff"/>
      <path id="Path_4394" data-name="Path 4394" d="M290.215,232.928a1.047,1.047,0,0,1-.4-.082l-9.016-3.59a1.1,1.1,0,1,1,.806-2.039l9.016,3.574a1.11,1.11,0,0,1-.406,2.138Z" transform="translate(-153.357 -154.128)" fill="#fff" opacity="0.5"/>
      <path id="Path_4395" data-name="Path 4395" d="M249.76,247.833a1.152,1.152,0,0,1-.4-.077l-16.372-6.5a1.1,1.1,0,1,1,.806-2.039l16.372,6.479a1.1,1.1,0,0,1-.406,2.116Z" transform="translate(-131.752 -159.55)" fill="#407bff"/>
      <path id="Path_4396" data-name="Path 4396" d="M249.76,247.833a1.152,1.152,0,0,1-.4-.077l-16.372-6.5a1.1,1.1,0,1,1,.806-2.039l16.372,6.479a1.1,1.1,0,0,1-.406,2.116Z" transform="translate(-131.752 -159.55)" opacity="0.3"/>
    </g>
    <g id="freepik--Character--inject-99" transform="translate(142.876 84.856)">
      <path id="Path_4397" data-name="Path 4397" d="M367.8,164.82c1.452,2.834,2.784,5.673,4.051,8.578s2.445,5.848,3.475,8.934l.373,1.167c.066.208.159.548.214.789s.1.515.132.745a19.36,19.36,0,0,1,.192,2.669,47.854,47.854,0,0,1-.23,4.933,79.009,79.009,0,0,1-1.491,9.439l-3.009-.334c-.038-3.086-.066-6.2-.175-9.247-.049-1.513-.137-3.031-.29-4.456a16.737,16.737,0,0,0-.329-1.99c-.027-.153-.071-.269-.1-.395s-.066-.17-.121-.334l-.417-1.036c-1.146-2.773-2.434-5.569-3.749-8.353l-3.979-8.353Z" transform="translate(-306.613 -134.482)" fill="#e4897b"/>
      <path id="Path_4398" data-name="Path 4398" d="M377.983,230.42l-1.4,2.625,4.484,1.25a4.677,4.677,0,0,0-.164-3.776Z" transform="translate(-313.048 -164.126)" fill="#e4897b"/>
      <path id="Path_4399" data-name="Path 4399" d="M373.45,238.992l4.122.329,2.077-2.861-4.484-1.25Z" transform="translate(-311.634 -166.29)" fill="#e4897b"/>
      <path id="Path_4400" data-name="Path 4400" d="M337.236,129.718c-.06.323-.285.548-.493.5s-.323-.334-.258-.652.285-.548.493-.5S337.307,129.4,337.236,129.718Z" transform="translate(-294.921 -118.323)" fill="#263238"/>
      <path id="Path_4401" data-name="Path 4401" d="M335.7,131.26a11.7,11.7,0,0,1-2.077,2.417,1.885,1.885,0,0,0,1.463.592Z" transform="translate(-293.635 -119.317)" fill="#de5753"/>
      <path id="Path_4402" data-name="Path 4402" d="M339.324,126.676a.2.2,0,0,1-.137-.06,1.524,1.524,0,0,0-1.277-.515.192.192,0,0,1-.066-.373,1.864,1.864,0,0,1,1.644.63.192.192,0,0,1,0,.269.2.2,0,0,1-.164.049Z" transform="translate(-295.486 -116.81)" fill="#263238"/>
      <path id="Path_4403" data-name="Path 4403" d="M346.932,138.43c-.576,2.949-1.151,8.342.91,10.31,0,0-.806,2.987-6.281,2.987-6.029,0-2.872-2.987-2.872-2.987,3.289-.784,3.2-3.223,2.625-5.509Z" transform="translate(-295.552 -122.557)" fill="#e4897b"/>
      <path id="Path_4404" data-name="Path 4404" d="M348.731,157.1c.433-1.442.91-3.091-.077-3.612-1.1-.548-7.054-1.151-9.11-.082s-1.469,4-1.469,4Z" transform="translate(-295.614 -129.056)" fill="#263238"/>
      <path id="Path_4405" data-name="Path 4405" d="M379.784,409.21a1.288,1.288,0,0,1-.965-.263.389.389,0,0,1,0-.455.455.455,0,0,1,.3-.225c.592-.132,1.7.625,1.748.658a.11.11,0,0,1,.038.1.088.088,0,0,1-.071.071A5.122,5.122,0,0,1,379.784,409.21Zm-.5-.767h-.115a.258.258,0,0,0-.175.132c-.088.154-.033.219,0,.241.17.23.992.23,1.6.132a3.169,3.169,0,0,0-1.3-.493Z" transform="translate(-314.027 -244.486)" fill="#407bff"/>
      <path id="Path_4406" data-name="Path 4406" d="M381.539,408.326H381.5c-.417-.23-1.222-1.1-1.14-1.557a.312.312,0,0,1,.307-.252.548.548,0,0,1,.406.121c.466.384.548,1.546.548,1.6a.088.088,0,0,1-.044.088A.077.077,0,0,1,381.539,408.326Zm-.811-1.644h-.022c-.126,0-.137.077-.143.1-.049.269.466.932.877,1.244a2.3,2.3,0,0,0-.471-1.261.351.351,0,0,0-.263-.071Z" transform="translate(-314.752 -243.701)" fill="#407bff"/>
      <path id="Path_4407" data-name="Path 4407" d="M335.5,409.2c-.515,0-1.014-.071-1.184-.3a.362.362,0,0,1,0-.417.482.482,0,0,1,.307-.225c.663-.181,2.077.619,2.138.652a.1.1,0,0,1,.044.1.093.093,0,0,1-.077.077A6.669,6.669,0,0,1,335.5,409.2Zm-.641-.778a.63.63,0,0,0-.181,0,.279.279,0,0,0-.186.132c-.071.121-.044.175,0,.208.181.252,1.2.269,1.957.164a4.313,4.313,0,0,0-1.59-.493Z" transform="translate(-293.92 -244.477)" fill="#407bff"/>
      <path id="Path_4408" data-name="Path 4408" d="M337.581,408.323h-.038c-.488-.214-1.447-1.1-1.376-1.54,0-.11.093-.241.356-.269a.669.669,0,0,1,.548.164,2.69,2.69,0,0,1,.625,1.551.084.084,0,0,1-.115.093Zm-.981-1.644h-.06c-.17,0-.181.088-.186.11-.044.274.614.959,1.1,1.255a2.192,2.192,0,0,0-.548-1.239.477.477,0,0,0-.28-.115Z" transform="translate(-294.784 -243.697)" fill="#407bff"/>
      <path id="Path_4409" data-name="Path 4409" d="M343.179,401.953H339.15l-.4-9.323h4.029Z" transform="translate(-295.953 -237.427)" fill="#e4897b"/>
      <path id="Path_4410" data-name="Path 4410" d="M385.951,401.953h-4.029L379.9,392.63h4.023Z" transform="translate(-314.549 -237.427)" fill="#e4897b"/>
      <path id="Path_4411" data-name="Path 4411" d="M377.886,408.79h4.522a.356.356,0,0,1,.345.28l.795,3.579a.592.592,0,0,1-.592.713c-1.579-.027-2.346-.121-4.336-.121-1.222,0-3.744.132-5.437.132s-1.907-1.644-1.217-1.825a10,10,0,0,0,5.262-2.5A.976.976,0,0,1,377.886,408.79Z" transform="translate(-310.797 -244.729)" fill="#263238"/>
      <path id="Path_4412" data-name="Path 4412" d="M331.5,408.79h4.385a.356.356,0,0,1,.345.28l.795,3.579a.587.587,0,0,1-.581.713c-1.584-.027-3.875-.121-5.87-.121-2.329,0-4.346.132-7.082.132-1.644,0-2.11-1.644-1.42-1.825,3.152-.691,5.722-.762,8.446-2.439A1.841,1.841,0,0,1,331.5,408.79Z" transform="translate(-288.279 -244.729)" fill="#263238"/>
      <path id="Path_4413" data-name="Path 4413" d="M306.582,153.9a92.727,92.727,0,0,1-10.036-1.332c-1.644-.318-3.322-.674-4.988-1.124a40.088,40.088,0,0,1-5.021-1.644c-.422-.175-.85-.367-1.272-.548a11.22,11.22,0,0,1-1.37-.8c-.789-.521-1.469-1.063-2.143-1.6-1.343-1.1-2.587-2.192-3.837-3.316-2.45-2.269-4.774-4.615-7.016-7.082l2.017-2.253,7.953,5.717c1.31.943,2.636,1.869,3.941,2.741.647.433,1.31.839,1.918,1.184a6.663,6.663,0,0,0,.789.384c.323.126.652.252,1,.373a59.192,59.192,0,0,0,9.06,2.028c3.13.493,6.364.9,9.488,1.228Z" transform="translate(-265.293 -120.645)" fill="#e4897b"/>
      <path id="Path_4414" data-name="Path 4414" d="M364.883,158.8c3.777.866,7.591,11.9,7.591,11.9l-7.767,5.574s-2.192-5.141-4.308-9.636C358.185,161.929,361.024,157.916,364.883,158.8Z" transform="translate(-305.385 -131.706)" fill="#407bff"/>
      <path id="Path_4415" data-name="Path 4415" d="M364.883,158.8c3.777.866,7.591,11.9,7.591,11.9l-7.767,5.574s-2.192-5.141-4.308-9.636C358.185,161.929,361.024,157.916,364.883,158.8Z" transform="translate(-305.385 -131.706)" opacity="0.4"/>
      <path id="Path_4416" data-name="Path 4416" d="M363.98,169.9l-1.54,3.448c1.6,3.442,3.053,6.851,3.442,7.761C365.827,177.036,365.054,171.983,363.98,169.9Z" transform="translate(-306.659 -136.778)" fill="#407bff"/>
      <path id="Path_4417" data-name="Path 4417" d="M363.98,169.9l-1.54,3.448c1.6,3.442,3.053,6.851,3.442,7.761C365.827,177.036,365.054,171.983,363.98,169.9Z" transform="translate(-306.659 -136.778)" opacity="0.6"/>
      <path id="Path_4418" data-name="Path 4418" d="M326.439,158.25s-4.286,4.84-.241,34.805h21.535c.154-3.289-1.924-19.436,1.261-35.013a56.212,56.212,0,0,0-7.208-.91,79.624,79.624,0,0,0-9.153,0A40.286,40.286,0,0,0,326.439,158.25Z" transform="translate(-289.496 -130.948)" fill="#407bff"/>
      <path id="Path_4419" data-name="Path 4419" d="M326.439,158.25s-4.286,4.84-.241,34.805h21.535c.154-3.289-1.924-19.436,1.261-35.013a56.212,56.212,0,0,0-7.208-.91,79.624,79.624,0,0,0-9.153,0A40.286,40.286,0,0,0,326.439,158.25Z" transform="translate(-289.496 -130.948)" opacity="0.4"/>
      <path id="Path_4420" data-name="Path 4420" d="M324.893,169.9c-.143,1.135-.252,2.477-.323,4.062a22.516,22.516,0,0,0,6-2.817Z" transform="translate(-289.546 -136.778)" fill="#407bff"/>
      <path id="Path_4421" data-name="Path 4421" d="M324.893,169.9c-.143,1.135-.252,2.477-.323,4.062a22.516,22.516,0,0,0,6-2.817Z" transform="translate(-289.546 -136.778)" opacity="0.6"/>
      <path id="Path_4422" data-name="Path 4422" d="M330.251,164.109c-2.883,2.554-13.889,2.3-13.889,2.3L316,155.75a81.21,81.21,0,0,0,11.22.811C333.353,156.435,333.4,161.291,330.251,164.109Z" transform="translate(-285.673 -130.383)" fill="#407bff"/>
      <path id="Path_4423" data-name="Path 4423" d="M330.251,164.109c-2.883,2.554-13.889,2.3-13.889,2.3L316,155.75a81.21,81.21,0,0,0,11.22.811C333.353,156.435,333.4,161.291,330.251,164.109Z" transform="translate(-285.673 -130.383)" opacity="0.4"/>
      <path id="Path_4424" data-name="Path 4424" d="M270.075,131.578l-2.741-3.228-2.954,3.289s1.82,3.058,4.708,2.576Z" transform="translate(-262.347 -118.002)" fill="#e4897b"/>
      <path id="Path_4425" data-name="Path 4425" d="M261.733,121.48l-1.063,4.215,2.012,2.817,2.954-3.267Z" transform="translate(-260.67 -114.897)" fill="#e4897b"/>
      <path id="Path_4426" data-name="Path 4426" d="M338.75,392.64l.208,4.8h4.029l-.208-4.8Z" transform="translate(-295.953 -237.431)" fill="#ce6f64"/>
      <path id="Path_4427" data-name="Path 4427" d="M383.929,392.64H379.9l1.041,4.8h4.029Z" transform="translate(-314.549 -237.431)" fill="#ce6f64"/>
      <path id="Path_4428" data-name="Path 4428" d="M341.049,116.886c-3.612-1.644-4.752-8.951,5.64-7.125,0,0-1.568,1.732,1.611,2.828S348.822,120.454,341.049,116.886Z" transform="translate(-295.83 -109.47)" fill="#263238"/>
      <path id="Path_4429" data-name="Path 4429" d="M347.575,127.29c-1.036,3.837-1.442,6.172-3.837,7.778-3.585,2.412-8.041-.356-8.183-4.451-.126-3.678,1.59-9.373,5.728-10.151a5.448,5.448,0,0,1,6.292,6.824Z" transform="translate(-294.507 -114.393)" fill="#e4897b"/>
      <path id="Path_4430" data-name="Path 4430" d="M349.3,113c2.461,1.37,5.794,2.192,5.481,4.144-.411,2.384,2.012.893,1.447,4.44-.367,2.319-4.643,9.345-7.674,9.005-4.527-.548-3.952-7.432-3.968-11.061C344.576,117.385,344.477,110.3,349.3,113Z" transform="translate(-298.584 -110.792)" fill="#263238"/>
      <path id="Path_4431" data-name="Path 4431" d="M342.657,119.11c-1.1.258-2.549,6.577,1.7,7.158C349.24,126.932,342.657,119.11,342.657,119.11Z" transform="translate(-297.197 -113.826)" fill="#263238"/>
      <path id="Path_4432" data-name="Path 4432" d="M340.476,119.96c-1.343.121-4.385-1.5-4.012-3.93A14.322,14.322,0,0,0,340.476,119.96Z" transform="translate(-294.906 -112.434)" fill="#263238"/>
      <path id="Path_4433" data-name="Path 4433" d="M344.488,131.378a4.5,4.5,0,0,1-1.99,2.11c-1.156.6-1.809-.274-1.546-1.436.236-1.041,1.124-2.614,2.313-2.741S344.964,130.282,344.488,131.378Z" transform="translate(-296.922 -118.432)" fill="#e4897b"/>
      <path id="Path_4434" data-name="Path 4434" d="M358.45,121.688a5.4,5.4,0,0,0,3.168-4.018S363.427,122.7,358.45,121.688Z" transform="translate(-304.856 -113.175)" fill="#263238"/>
      <path id="Path_4435" data-name="Path 4435" d="M364.63,123.9a2.779,2.779,0,0,0-2.62-.258S363.7,121.451,364.63,123.9Z" transform="translate(-306.464 -115.466)" fill="#263238"/>
      <path id="Path_4436" data-name="Path 4436" d="M341.57,222.762s4.571,30.771,7.076,42.3c2.741,12.607,13.1,54.68,13.1,54.68h7.372s-6.824-41.037-8.392-53.556c-1.7-13.566-5.262-43.443-5.262-43.443Z" transform="translate(-297.228 -160.655)" fill="#407bff"/>
      <path id="Path_4437" data-name="Path 4437" d="M341.57,222.762s4.571,30.771,7.076,42.3c2.741,12.607,13.1,54.68,13.1,54.68h7.372s-6.824-41.037-8.392-53.556c-1.7-13.566-5.262-43.443-5.262-43.443Z" transform="translate(-297.228 -160.655)" fill="#fff" opacity="0.5"/>
      <path id="Path_4438" data-name="Path 4438" d="M376.229,394.75c-.033,0,.762,2.834.762,2.834h8.3l-.154-2.527Z" transform="translate(-312.889 -238.385)" fill="#407bff"/>
      <path id="Path_4439" data-name="Path 4439" d="M376.229,394.75c-.033,0,.762,2.834.762,2.834h8.3l-.154-2.527Z" transform="translate(-312.889 -238.385)" opacity="0.1"/>
      <path id="Path_4440" data-name="Path 4440" d="M345.859,242.744c5.284,1.036,4.725,20.741,4.089,30.875-1.524-7.164-3.755-20.949-5.278-30.733A1.8,1.8,0,0,1,345.859,242.744Z" transform="translate(-298.629 -169.676)" fill="#407bff"/>
      <path id="Path_4441" data-name="Path 4441" d="M345.859,242.744c5.284,1.036,4.725,20.741,4.089,30.875-1.524-7.164-3.755-20.949-5.278-30.733A1.8,1.8,0,0,1,345.859,242.744Z" transform="translate(-298.629 -169.676)" fill="#fff" opacity="0.4"/>
      <path id="Path_4442" data-name="Path 4442" d="M327.4,222.78s-.548,30.1-.115,42.385c.455,12.771,4.933,54.592,4.933,54.592h6.819s.252-41.075.548-53.616c.334-13.675,1.984-43.361,1.984-43.361Z" transform="translate(-290.696 -160.673)" fill="#407bff"/>
      <path id="Path_4443" data-name="Path 4443" d="M327.4,222.78s-.548,30.1-.115,42.385c.455,12.771,4.933,54.592,4.933,54.592h6.819s.252-41.075.548-53.616c.334-13.675,1.984-43.361,1.984-43.361Z" transform="translate(-290.696 -160.673)" fill="#fff" opacity="0.5"/>
      <path id="Path_4444" data-name="Path 4444" d="M335.192,316.71a.066.066,0,0,1-.066-.06c-1.206-11.576-4.04-39.585-4.385-49.632-.367-10.255-.033-33.265.077-40.072a.066.066,0,0,1,.066-.066h0a.071.071,0,0,1,.071.066c-.11,6.808-.444,29.817-.077,40.067.356,10.047,3.19,38.044,4.385,49.621a.077.077,0,0,1-.066.077Z" transform="translate(-292.259 -162.526)" fill="#407bff"/>
      <path id="Path_4445" data-name="Path 4445" d="M335.192,316.71a.066.066,0,0,1-.066-.06c-1.206-11.576-4.04-39.585-4.385-49.632-.367-10.255-.033-33.265.077-40.072a.066.066,0,0,1,.066-.066h0a.071.071,0,0,1,.071.066c-.11,6.808-.444,29.817-.077,40.067.356,10.047,3.19,38.044,4.385,49.621a.077.077,0,0,1-.066.077Z" transform="translate(-292.259 -162.526)" fill="#fff" opacity="0.4"/>
      <path id="Path_4446" data-name="Path 4446" d="M334,394.75c-.027,0,.389,2.834.389,2.834h8.293l.225-2.527Z" transform="translate(-293.806 -238.385)" fill="#407bff"/>
      <path id="Path_4447" data-name="Path 4447" d="M334,394.75c-.027,0,.389,2.834.389,2.834h8.293l.225-2.527Z" transform="translate(-293.806 -238.385)" opacity="0.1"/>
    </g>
  </g>
</svg>
