<svg xmlns="http://www.w3.org/2000/svg" width="6.947" height="9.583" viewBox="0 0 6.947 9.583">
  <g id="_22_Icons_Line_Left_arrow_Copy_2" data-name="22) Icons/Line/Left arrow Copy 2" transform="translate(-1.527 -0.208)" opacity="0.5">
    <g id="pin" transform="translate(1.042 0.208)">
      <g id="Group_62827" data-name="Group 62827">
        <g id="Icons" transform="translate(-6.963 -6.13)">
          <g id="Group_62826" data-name="Group 62826">
            <g id="Group_62825" data-name="Group 62825">
              <path id="Path_43735" data-name="Path 43735" d="M14.009,6.13H7.834a.386.386,0,0,0-.386.386v8.811a.386.386,0,0,0,.7.216l2.713-4c.035-.052.076-.052.111,0l2.713,4a.378.378,0,0,0,.315.17.388.388,0,0,0,.117-.018.379.379,0,0,0,.272-.368V6.516A.386.386,0,0,0,14.009,6.13ZM12.1,7.5h-.478a.159.159,0,1,1,0-.318H12.1a.159.159,0,1,1,0,.318Zm-1.088,0H8.721a.159.159,0,1,1,0-.318h2.291a.159.159,0,1,1,0,.318Z" fill="#8f94a1"/>
            </g>
          </g>
        </g>
      </g>
    </g>
  </g>
</svg>
