<svg xmlns="http://www.w3.org/2000/svg" width="15" height="15" viewBox="0 0 15 15">
  <g id="terms" transform="translate(-32 -135)">
    <rect id="Rectangle_17197" data-name="Rectangle 17197" width="15" height="15" transform="translate(32 135)" opacity="0"/>
    <g id="accept" transform="translate(32.375 135)">
      <path id="Path_31787" data-name="Path 31787" d="M10.561,6.856h.08q.207,0,.41.027V1.773A1.76,1.76,0,0,0,9.307,0H1.744A1.76,1.76,0,0,0,0,1.773V11.967a1.76,1.76,0,0,0,1.743,1.772h5.05a4.524,4.524,0,0,1-.664-2.375,4.475,4.475,0,0,1,4.432-4.508ZM6.252,2.894H8.836a.44.44,0,0,1,0,.88H6.252a.44.44,0,0,1,0-.88Zm0,1.76H8.836a.44.44,0,0,1,0,.88H6.252a.44.44,0,0,1,0-.88ZM4.8,10.845H2.215a.44.44,0,0,1,0-.88H4.8a.44.44,0,0,1,0,.88Zm0-1.79H2.215a.44.44,0,0,1,0-.88H4.8a.44.44,0,0,1,0,.88Zm0-1.76H2.215a.44.44,0,0,1,0-.88H4.8a.44.44,0,0,1,0,.88Zm0-1.76H2.215a.44.44,0,0,1,0-.88H4.8a.44.44,0,0,1,0,.88Zm0-1.76H2.215a.44.44,0,0,1,0-.88H4.8a.44.44,0,0,1,0,.88ZM5.819,6.855a.437.437,0,0,1,.433-.44H7.5a.44.44,0,0,1,0,.88H6.252A.437.437,0,0,1,5.819,6.855Zm0,0" transform="translate(0 0)"/>
      <path id="Path_31788" data-name="Path 31788" d="M247.545,263.755a3.572,3.572,0,0,0-2.5-1.074h-.065a3.6,3.6,0,1,0,2.563,1.075Zm-1.027,1.937-1.373,1.711a.433.433,0,0,1-.592.08l-1.024-.742a.433.433,0,0,1,.508-.7l.69.5,1.115-1.39a.433.433,0,1,1,.675.542Zm0,0" transform="translate(-234.326 -254.874)"/>
    </g>
  </g>
</svg>
