<svg xmlns="http://www.w3.org/2000/svg" width="19" height="20" viewBox="0 0 19 20">
  <g id="accept" transform="translate(0 0)">
    <path id="Path_31787" data-name="Path 31787" d="M14.08,9.141h.107q.276.005.547.035V2.363A2.347,2.347,0,0,0,12.409,0H2.325A2.347,2.347,0,0,0,0,2.363V15.955a2.347,2.347,0,0,0,2.324,2.363H9.058a6.032,6.032,0,0,1-.886-3.167A5.967,5.967,0,0,1,14.08,9.141ZM8.336,3.859H11.78a.587.587,0,0,1,0,1.173H8.336a.587.587,0,0,1,0-1.173Zm0,2.347H11.78a.587.587,0,0,1,0,1.173H8.336a.587.587,0,0,1,0-1.173ZM6.4,14.46H2.953a.587.587,0,0,1,0-1.173H6.4a.587.587,0,0,1,0,1.173Zm0-2.386H2.953a.587.587,0,0,1,0-1.173H6.4a.587.587,0,0,1,0,1.173Zm0-2.347H2.953a.587.587,0,0,1,0-1.173H6.4a.587.587,0,0,1,0,1.173Zm0-2.347H2.953a.587.587,0,0,1,0-1.173H6.4a.587.587,0,0,1,0,1.173Zm0-2.347H2.953a.587.587,0,0,1,0-1.173H6.4a.587.587,0,0,1,0,1.173ZM7.759,9.14a.582.582,0,0,1,.577-.587H9.995a.587.587,0,0,1,0,1.173H8.336a.582.582,0,0,1-.577-.587Zm0,0" transform="translate(0 0)" fill="#d82221"/>
    <path id="Path_31788" data-name="Path 31788" d="M249.6,264.113a4.762,4.762,0,0,0-3.331-1.433h-.086a4.8,4.8,0,1,0,3.417,1.434Zm-1.37,2.583-1.83,2.282a.577.577,0,0,1-.789.106l-1.365-.989a.577.577,0,0,1,.677-.935l.92.667,1.487-1.853a.577.577,0,1,1,.9.722Zm0,0" transform="translate(-231.972 -252.272)" fill="#d82221"/>
  </g>
</svg>
