<svg xmlns="http://www.w3.org/2000/svg" width="12" height="12" viewBox="0 0 12 12">
  <g id="interface_4_" data-name="interface (4)" transform="translate(0)">
    <path id="Path_127057" data-name="Path 127057" d="M6,12a6,6,0,1,1,6-6A6.007,6.007,0,0,1,6,12ZM6,.75A5.25,5.25,0,1,0,11.25,6,5.256,5.256,0,0,0,6,.75Zm0,0" fill="#999"/>
    <path id="Path_127058" data-name="Path 127058" d="M243.514,108.725a.456.456,0,0,1-.31-.118l-3.075-2.823A.387.387,0,0,1,240,105.5v-3.764a.441.441,0,0,1,.879,0v3.6l2.946,2.7a.38.38,0,0,1,0,.57.456.456,0,0,1-.31.118Zm0,0" transform="translate(-235.201 -99.457)" fill="#999"/>
  </g>
</svg>
