<svg xmlns="http://www.w3.org/2000/svg" width="28" height="30" viewBox="0 0 28 30">
  <path id="trash" d="M5058.547,734.688l-.994,19.062a1.31,1.31,0,0,1-1.3,1.249h-16.506a1.309,1.309,0,0,1-1.3-1.249l-.994-19.062a1.3,1.3,0,1,1,2.6-.139l.929,17.813h14.036l.929-17.813a1.3,1.3,0,1,1,2.6.139Zm3.452-4.414a1.311,1.311,0,0,1-1.3,1.319h-25.4a1.319,1.319,0,0,1,0-2.637h7.163v-2.967a.942.942,0,0,1,1.049-.989h8.971a.942.942,0,0,1,1.05.989v2.967h7.163A1.31,1.31,0,0,1,5062,730.274Zm-17.255-1.319h6.511v-1.648h-6.511Zm.546,21.429h.027a1.2,1.2,0,0,0,1.113-1.25l-.331-14.253a1.158,1.158,0,0,0-1.167-1.144,1.139,1.139,0,0,0-1.112,1.172l.331,14.283A1.205,1.205,0,0,0,5045.29,750.384Zm5.37,0a1.175,1.175,0,0,0,1.139-1.158l.331-14.234a1.154,1.154,0,0,0-1.112-1.188,1.14,1.14,0,0,0-1.166,1.122l-.331,14.248a1.164,1.164,0,0,0,1.113,1.21Z" transform="translate(-5034 -725)" opacity="0.2"/>
</svg>
