<svg xmlns="http://www.w3.org/2000/svg" width="20" height="20" viewBox="0 0 20 20">
  <g id="twetter-drawer" transform="translate(0 0)">
    <rect id="Rectangle_17337" data-name="Rectangle 17337" width="20" height="20" rx="10" transform="translate(0 0)" opacity="0"/>
    <g id="Group_46657" data-name="Group 46657" transform="translate(0 0)">
      <rect id="Rectangle_16" data-name="Rectangle 16" width="20" height="20" opacity="0"/>
      <g id="Twitter" transform="translate(0.5 2)">
        <path id="Twitter-2" data-name="Twitter" d="M9.215,4.286V4.93L8.58,4.823A11.243,11.243,0,0,1,2.017,1.6L1.17.639.959,1.39a3.826,3.826,0,0,0,.847,4.076c.529.644.423.644-.529.322a2.24,2.24,0,0,0-.635-.107,5.807,5.807,0,0,0,.423,1.931A3.979,3.979,0,0,0,2.97,9.435L3.6,9.65H2.758c-.635.107-.741.107-.635.322a4.3,4.3,0,0,0,2.54,2.36l.847.322-.741.429a8.745,8.745,0,0,1-3.7,1.073A6.55,6.55,0,0,0-.1,14.263,12.189,12.189,0,0,0,2.546,15.55a10.988,10.988,0,0,0,9-1.073A11.535,11.535,0,0,0,16.1,9.006a16.825,16.825,0,0,0,.953-4.184c0-.644,0-.751.847-1.5.423-.429.847-.965.953-1.073.106-.215.106-.215-.529,0-1.164.429-1.376.322-.741-.215a4.265,4.265,0,0,0,.953-1.5,1.043,1.043,0,0,0-.423.107c-.212.107-.847.322-1.164.429l-.741.215L15.566.854C15.143.639,14.719.317,14.4.21a3.762,3.762,0,0,0-2.435.107A3.93,3.93,0,0,0,9.215,4.286Z" transform="translate(0.1 -0.061)" fill-rule="evenodd"/>
      </g>
    </g>
  </g>
</svg>
