<svg xmlns="http://www.w3.org/2000/svg" width="18" height="24" viewBox="0 0 18 24">
  <path id="unit-map" d="M8990.281,745.984a9.416,9.416,0,0,0-11.564,0,8.6,8.6,0,0,0-2.718,6.761c0,6.284,7.452,13.649,7.77,13.959a1.053,1.053,0,0,0,1.463,0c.317-.311,7.768-7.675,7.768-13.959A8.6,8.6,0,0,0,8990.281,745.984Zm-5.782,18.549a38.676,38.676,0,0,1-2.892-3.508c-2.32-3.194-3.547-6.057-3.547-8.281,0-6.259,4.929-6.745,6.438-6.745,5.976,0,6.44,5.163,6.44,6.745C8990.939,757.147,8986.325,762.563,8984.5,764.534Zm0-16.221a4.044,4.044,0,1,0,4.1,4.043A4.077,4.077,0,0,0,8984.5,748.313Zm0,6.337a2.293,2.293,0,1,1,2.3-2.293A2.3,2.3,0,0,1,8984.5,754.65Z" transform="translate(-8975.499 -743.5)" fill="#92c83e" stroke="#92c83e" stroke-linejoin="round" stroke-width="1"/>
</svg>
