<svg xmlns="http://www.w3.org/2000/svg" width="22.081" height="21.914" viewBox="0 0 22.081 21.914">
  <path id="unit-name" d="M7369.476,393.913h-12.433a1.361,1.361,0,0,1-1.366-1.357v-5.5a1.361,1.361,0,0,1,1.366-1.357h.028a1.361,1.361,0,0,1,1.366,1.357v3.437a.688.688,0,0,0,.69.685h9.658a.688.688,0,0,0,.69-.685v-3.437a1.362,1.362,0,0,1,1.368-1.357h.026a1.361,1.361,0,0,1,1.366,1.357v5.5a1.361,1.361,0,0,1-1.366,1.357Zm-2.065-12.237-.229-.228a4.1,4.1,0,0,1-3.182,1.509h-.083a4.1,4.1,0,0,1-3.184-1.509l-.228.228a4.433,4.433,0,0,1-6.234,0l-.063-.063a4.35,4.35,0,0,1,0-6.186l2.162-2.145a4.385,4.385,0,0,1,3.1-1.27c.115,0,.229,0,.344.013V372h8.279v.026c.113-.009.229-.013.342-.013a4.385,4.385,0,0,1,3.1,1.27l2.162,2.145a4.35,4.35,0,0,1,0,6.186l-.063.063a4.431,4.431,0,0,1-6.232,0Zm-.228-4.1,1.949,1.936.229.226a1.656,1.656,0,0,0,2.331,0l.063-.063a1.628,1.628,0,0,0,0-2.312l-2.162-2.145a1.628,1.628,0,0,0-1.153-.466c-.042,0-.3-.017-.342-.013h-8.279c-.044,0-.3.013-.344.013a1.62,1.62,0,0,0-1.151.466l-2.162,2.145a1.625,1.625,0,0,0,0,2.312l.061.063a1.658,1.658,0,0,0,2.333,0l.228-.226,1.914-1.9a.323.323,0,0,1,.476.026l1.7,2.086a1.339,1.339,0,0,0,1.041.494H7364a1.338,1.338,0,0,0,1.039-.494l1.74-2.127a.274.274,0,0,1,.212-.1A.27.27,0,0,1,7367.183,377.576Z" transform="translate(-7352.916 -371.999)" fill="#92c83e"/>
</svg>
