<svg xmlns="http://www.w3.org/2000/svg" width="20.001" height="20" viewBox="0 0 20.001 20">
  <path id="unit-time" d="M7356,631a10,10,0,1,1,10,10A10,10,0,0,1,7356,631Zm2.5,0a7.5,7.5,0,1,0,7.5-7.5A7.508,7.508,0,0,0,7358.5,631Zm7.5,2.5h-1.262a1.238,1.238,0,0,1-1.237-1.238v-3.774a1.238,1.238,0,0,1,1.237-1.238h.026a1.238,1.238,0,0,1,1.236,1.238v1.888a.625.625,0,0,0,.626.624h1.888a1.238,1.238,0,0,1,1.236,1.238v.024a1.238,1.238,0,0,1-1.236,1.238Z" transform="translate(-7355.999 -620.999)" fill="#92c83e"/>
</svg>
