<svg xmlns="http://www.w3.org/2000/svg" width="22.072" height="21.913" viewBox="0 0 22.072 21.913">
  <path id="unit-location" d="M7362.584,602.63v-1.483a8.255,8.255,0,0,1-6.784-6.735h-1.494a1.37,1.37,0,1,1,0-2.739h1.494a8.255,8.255,0,0,1,6.784-6.735v-1.481a1.38,1.38,0,0,1,2.76,0v1.482a8.255,8.255,0,0,1,6.782,6.734h1.5a1.37,1.37,0,1,1,0,2.739h-1.5a8.255,8.255,0,0,1-6.782,6.734v1.484a1.38,1.38,0,0,1-2.76,0Zm0-4.282v-1.2a1.38,1.38,0,0,1,2.76,0v1.2a5.518,5.518,0,0,0,3.962-3.935h-1.2a1.37,1.37,0,1,1,0-2.739h1.2a5.518,5.518,0,0,0-3.962-3.935v1.2a1.38,1.38,0,0,1-2.76,0v-1.2a5.518,5.518,0,0,0-3.964,3.936h1.2a1.37,1.37,0,1,1,0,2.739h-1.2A5.518,5.518,0,0,0,7362.584,598.348Z" transform="translate(-7352.928 -582.087)" fill="#92c83e"/>
</svg>
