<svg id="Group_4" data-name="Group 4" xmlns="http://www.w3.org/2000/svg" width="61" height="48" viewBox="0 0 61 48">
  <path id="Rectangle_Copy" data-name="Rectangle Copy" d="M0,0H51A10,10,0,0,1,61,10V29A10,10,0,0,1,51,39H10A10,10,0,0,1,0,29V0A0,0,0,0,1,0,0Z" transform="translate(0 3)" fill="#94cbff"/>
  <path id="Path_2" data-name="Path 2" d="M.426,26,.067,4.065A4,4,0,0,1,4.066,0H18.821a20,20,0,0,1,9.526,2.414L50,14.144Z" fill="#94cbff"/>
  <rect id="Rectangle" width="61" height="39" rx="10" transform="translate(0 9)" fill="#c7e2ff"/>
</svg>
