<svg id="user" xmlns="http://www.w3.org/2000/svg" width="20" height="20" viewBox="0 0 20 20">
  <rect id="Rectangle_13" data-name="Rectangle 13" width="20" height="20" opacity="0"/>
  <g id="user_-_icon" data-name="user - icon" transform="translate(2.5 2.5)">
    <path id="Path" d="M3.9,8.547A4.151,4.151,0,0,0,7.81,4.189,4,4,0,0,0,3.9,0,4,4,0,0,0,0,4.189,4.15,4.15,0,0,0,3.9,8.547" transform="translate(3.578)"/>
    <path id="Path-2" data-name="Path" d="M14.813,4.6l-.344-.75A13.767,13.767,0,0,0,12.577.534,1.379,1.379,0,0,0,10.791.186a5.5,5.5,0,0,0-.9.823A2.947,2.947,0,0,1,7.918,1.7H7.3a2.949,2.949,0,0,1-1.977-.691A5.16,5.16,0,0,0,4.413.2a1.508,1.508,0,0,0-1.919.33A15.828,15.828,0,0,0,.512,3.811l-.335.764C.039,4.888-.1,5.447.1,5.723a1.535,1.535,0,0,0,1.212.455H13.779a1.36,1.36,0,0,0,1.127-.434c.195-.28.049-.836-.093-1.146" transform="translate(0 8.819)"/>
  </g>
</svg>
