<svg xmlns="http://www.w3.org/2000/svg" xmlns:xlink="http://www.w3.org/1999/xlink" width="56" height="33" viewBox="0 0 56 33">
  <defs>
    <clipPath id="clip-path">
      <rect id="Rectangle_11360" data-name="Rectangle 11360" width="56" height="33" transform="translate(-0.487 0.189)" fill="#fff" stroke="#707070" stroke-width="1"/>
    </clipPath>
  </defs>
  <g id="Mask_Group_49" data-name="Mask Group 49" transform="translate(0.487 -0.189)" clip-path="url(#clip-path)">
    <g id="visa" transform="translate(0.183 8.72)">
      <path id="Path_127116" data-name="Path 127116" d="M33,47.92l2.818-15.706h4.4L37.491,47.92Z" transform="translate(-12.661 -31.691)" fill="#3c58bf"/>
      <path id="Path_127117" data-name="Path 127117" d="M33,47.92l3.61-15.706h3.61L37.491,47.92Z" transform="translate(-12.661 -31.691)" fill="#293688"/>
      <path id="Path_127118" data-name="Path 127118" d="M57.757,32.055a11.258,11.258,0,0,0-4.05-.7c-4.4,0-7.572,2.181-7.572,5.323,0,2.356,2.2,3.577,3.962,4.363s2.289,1.309,2.289,2.007c0,1.047-1.409,1.571-2.641,1.571a9.644,9.644,0,0,1-4.226-.873l-.616-.262-.616,3.577a14.392,14.392,0,0,0,5.019.873c4.667,0,7.748-2.181,7.748-5.5,0-1.832-1.145-3.228-3.786-4.363-1.585-.785-2.553-1.222-2.553-2.007,0-.7.792-1.4,2.553-1.4a8.14,8.14,0,0,1,3.346.611l.44.175.7-3.4Z" transform="translate(-16.99 -31.357)" fill="#3c58bf"/>
      <path id="Path_127119" data-name="Path 127119" d="M57.757,32.055a11.258,11.258,0,0,0-4.05-.7c-4.4,0-6.78,2.181-6.78,5.323,0,2.356,1.409,3.577,3.17,4.363s2.289,1.309,2.289,2.007c0,1.047-1.409,1.571-2.641,1.571a9.644,9.644,0,0,1-4.226-.873l-.616-.262-.616,3.577a14.392,14.392,0,0,0,5.019.873c4.667,0,7.748-2.181,7.748-5.5,0-1.832-1.145-3.228-3.786-4.363-1.585-.785-2.553-1.222-2.553-2.007,0-.7.792-1.4,2.553-1.4a8.14,8.14,0,0,1,3.346.611l.44.175.7-3.4Z" transform="translate(-16.99 -31.357)" fill="#293688"/>
      <path id="Path_127120" data-name="Path 127120" d="M72.893,32.214c-1.057,0-1.849.087-2.289,1.134L64,47.92h4.755l.881-2.618H75.27L75.8,47.92h4.226l-3.7-15.706ZM70.868,42.685c.264-.785,1.761-4.625,1.761-4.625s.352-.96.616-1.571l.264,1.483s.881,3.927,1.057,4.8h-3.7Z" transform="translate(-24.554 -31.691)" fill="#3c58bf"/>
      <path id="Path_127121" data-name="Path 127121" d="M73.95,32.214c-1.057,0-1.849.087-2.289,1.134L64,47.92h4.755l.88-2.618H75.27L75.8,47.92h4.226l-3.7-15.706ZM70.868,42.685c.352-.873,1.761-4.625,1.761-4.625s.352-.96.616-1.571l.264,1.483s.881,3.927,1.057,4.8h-3.7Z" transform="translate(-24.554 -31.691)" fill="#293688"/>
      <path id="Path_127122" data-name="Path 127122" d="M15.747,43.264,15.306,41A12.686,12.686,0,0,0,9.143,34.1l3.962,13.961H17.86l7.132-15.706H20.237Z" transform="translate(-3.508 -31.746)" fill="#3c58bf"/>
      <path id="Path_127123" data-name="Path 127123" d="M15.747,43.264,15.306,41A12.686,12.686,0,0,0,9.143,34.1l3.962,13.961H17.86l7.132-15.706H21.118Z" transform="translate(-3.508 -31.746)" fill="#293688"/>
      <path id="Path_127124" data-name="Path 127124" d="M0,32.214l.792.175C6.428,33.7,10.3,37.013,11.8,40.94l-1.585-7.417c-.264-1.047-1.057-1.309-2.025-1.309Z" transform="translate(0 -31.691)" fill="#ffbc00"/>
      <path id="Path_127125" data-name="Path 127125" d="M0,32.214H0c5.635,1.309,10.3,4.712,11.8,8.638l-1.5-6.2A2.146,2.146,0,0,0,8.189,33Z" transform="translate(0 -31.691)" fill="#f7981d"/>
      <path id="Path_127126" data-name="Path 127126" d="M0,32.214H0c5.635,1.309,10.3,4.712,11.8,8.638l-1.057-3.4a3.079,3.079,0,0,0-1.849-2.53Z" transform="translate(0 -31.691)" fill="#ed7c00"/>
      <g id="Group_20855" data-name="Group 20855" transform="translate(5.723 2.269)">
        <path id="Path_127127" data-name="Path 127127" d="M20.2,43.8,17.21,40.83,15.8,44.146l-.352-2.181a12.686,12.686,0,0,0-6.163-6.893l3.962,13.961H18Z" transform="translate(-9.286 -35.071)" fill="#051244"/>
        <path id="Path_127128" data-name="Path 127128" d="M37.491,55.482,33.7,51.643,33,55.482Z" transform="translate(-18.384 -41.521)" fill="#051244"/>
        <path id="Path_127129" data-name="Path 127129" d="M51.946,49.071h0c.352.349.528.611.44.96,0,1.047-1.409,1.571-2.641,1.571a9.644,9.644,0,0,1-4.226-.873l-.616-.262-.616,3.577a14.391,14.391,0,0,0,5.019.873c2.818,0,5.107-.785,6.428-2.181Z" transform="translate(-22.714 -40.52)" fill="#051244"/>
        <path id="Path_127130" data-name="Path 127130" d="M65,50.645h4.138l.88-2.618h5.635l.528,2.618h4.226l-1.5-6.37-5.283-5.061.264,1.4s.88,3.927,1.057,4.8h-3.7c.352-.873,1.761-4.625,1.761-4.625s.352-.96.616-1.571" transform="translate(-30.661 -36.684)" fill="#051244"/>
      </g>
    </g>
  </g>
</svg>
