<svg xmlns="http://www.w3.org/2000/svg" width="31.07" height="31.07" viewBox="0 0 31.07 31.07">
  <g id="wallet" transform="translate(-0.003 0)">
    <g id="Group_9676" data-name="Group 9676" transform="translate(0.003 0)">
      <g id="Group_9675" data-name="Group 9675" transform="translate(0 0)">
        <path id="Path_4370" data-name="Path 4370" d="M29.66,15.665V11.3a2.819,2.819,0,0,0-2.6-2.8L23.005,1.413A2.795,2.795,0,0,0,19.171.381L5.269,8.474H2.828A2.827,2.827,0,0,0,0,11.3V28.246A2.827,2.827,0,0,0,2.828,31.07H26.836a2.827,2.827,0,0,0,2.825-2.825V23.879a2.115,2.115,0,0,0,1.412-1.988V17.654A2.115,2.115,0,0,0,29.66,15.665ZM25.42,8.474H19.265l4.616-2.687Zm-2.24-3.913L16.458,8.474H13.67l8.812-5.13Zm-3.3-2.96a1.366,1.366,0,0,1,1.049-.141,1.385,1.385,0,0,1,.848.656v0L10.864,8.474H8.076Zm8.366,26.645a1.414,1.414,0,0,1-1.412,1.412H2.828a1.414,1.414,0,0,1-1.412-1.412V11.3A1.414,1.414,0,0,1,2.828,9.886H26.836A1.414,1.414,0,0,1,28.248,11.3v4.237H24.011a4.237,4.237,0,0,0,0,8.474h4.237v4.237Zm1.412-6.355a.707.707,0,0,1-.706.706H24.011a2.825,2.825,0,0,1,0-5.649h4.943a.707.707,0,0,1,.706.706Z" transform="translate(-0.003 0)"/>
        <path id="Path_4371" data-name="Path 4371" d="M342.749,277.341a1.412,1.412,0,1,0,1.412,1.412A1.414,1.414,0,0,0,342.749,277.341Z" transform="translate(-318.741 -258.981)"/>
      </g>
    </g>
  </g>
</svg>
